<svg width="24" height="25" viewBox="0 0 24 25" fill="none" xmlns="http://www.w3.org/2000/svg">
<g clip-path="url(#clip0_441_2686)">
<path fill-rule="evenodd" clip-rule="evenodd" d="M12.0001 1C9.15137 1.00148 6.39601 2.01046 4.22675 3.84652C2.05749 5.68259 0.615781 8.22601 0.159422 11.022C-0.296936 13.818 0.261805 16.6842 1.73575 19.1082C3.20969 21.5321 5.50272 23.3558 8.20481 24.253C8.80093 24.3636 9.02547 23.9941 9.02547 23.68C9.02547 23.3658 9.01355 22.455 9.00957 21.4592C5.67127 22.1804 4.96586 20.0505 4.96586 20.0505C4.4214 18.6674 3.63451 18.3039 3.63451 18.3039C2.54559 17.565 3.71599 17.5788 3.71599 17.5788C4.92215 17.6637 5.55603 18.8097 5.55603 18.8097C6.62508 20.6333 8.36377 20.1058 9.04733 19.7976C9.15463 19.0251 9.46661 18.4995 9.81038 18.2012C7.14371 17.9008 4.34192 16.8774 4.34192 12.3054C4.32539 11.1197 4.7679 9.97305 5.57789 9.10268C5.45469 8.80236 5.04336 7.58923 5.69512 5.94143C5.69512 5.94143 6.70258 5.62136 8.99568 7.16444C10.9625 6.62962 13.0377 6.62962 15.0046 7.16444C17.2957 5.62136 18.3012 5.94143 18.3012 5.94143C18.9549 7.58528 18.5436 8.79841 18.4204 9.10268C19.233 9.97319 19.6764 11.1218 19.6584 12.3094C19.6584 16.8912 16.8506 17.9008 14.18 18.1952C14.6092 18.5667 14.9927 19.2918 14.9927 20.4061C14.9927 22.0026 14.9788 23.2868 14.9788 23.68C14.9788 23.9981 15.1954 24.3695 15.8034 24.253C18.5058 23.3557 20.7991 21.5317 22.273 19.1073C23.7469 16.683 24.3054 13.8163 23.8485 11.0201C23.3916 8.2238 21.9492 5.68035 19.7792 3.84461C17.6092 2.00886 14.8532 1.00054 12.0041 1H12.0001Z" fill="#00DE4F"/>
<path d="M8.02783 20.4752C8.02783 20.572 7.91656 20.655 7.77349 20.6569C7.63042 20.6589 7.51318 20.5799 7.51318 20.4831C7.51318 20.3863 7.62445 20.3033 7.76752 20.3013C7.91059 20.2993 8.02783 20.3764 8.02783 20.4752Z" fill="#00DE4F"/>
<path d="M8.9419 20.3229C8.95978 20.4197 8.86042 20.5205 8.71735 20.5442C8.57428 20.5679 8.4491 20.5106 8.43121 20.4158C8.41333 20.3209 8.51666 20.2182 8.65576 20.1925C8.79485 20.1668 8.92401 20.2261 8.9419 20.3229Z" fill="#00DE4F"/>
<path d="M7.04617 20.4079C7.01637 20.5008 6.88124 20.5423 6.74612 20.5027C6.611 20.4632 6.52158 20.3526 6.54741 20.2577C6.57325 20.1629 6.71036 20.1194 6.84747 20.1629C6.98457 20.2064 7.07201 20.3111 7.04617 20.4079Z" fill="#00DE4F"/>
<path d="M6.14612 20.0207C6.08054 20.0939 5.94741 20.0741 5.83812 19.9753C5.72883 19.8765 5.70299 19.7422 5.76857 19.671C5.83414 19.5999 5.96727 19.6197 6.08054 19.7165C6.1938 19.8133 6.21566 19.9496 6.14612 20.0207Z" fill="#00DE4F"/>
<path d="M5.50437 19.3568C5.43085 19.4082 5.30565 19.3568 5.2361 19.254C5.21687 19.2356 5.20158 19.2135 5.19113 19.1891C5.18068 19.1646 5.17529 19.1383 5.17529 19.1118C5.17529 19.0852 5.18068 19.0589 5.19113 19.0345C5.20158 19.0101 5.21687 18.988 5.2361 18.9695C5.30963 18.9201 5.43482 18.9695 5.50437 19.0703C5.57391 19.1711 5.5759 19.3054 5.50437 19.3568Z" fill="#00DE4F"/>
<path d="M5.03123 18.6711C4.99008 18.6918 4.943 18.6975 4.89805 18.6874C4.8531 18.6773 4.81308 18.652 4.78483 18.6158C4.70734 18.5328 4.69143 18.4182 4.75104 18.3669C4.81066 18.3155 4.91797 18.3392 4.99546 18.4222C5.07296 18.5052 5.09084 18.6198 5.03123 18.6711Z" fill="#00DE4F"/>
<path d="M4.54456 18.1321C4.51873 18.1914 4.42335 18.2092 4.34585 18.1677C4.26835 18.1262 4.21073 18.0491 4.23855 17.9879C4.26637 17.9266 4.35976 17.9108 4.43726 17.9523C4.51476 17.9938 4.57436 18.0729 4.54456 18.1321Z" fill="#00DE4F"/>
</g>
<defs>
<clipPath id="clip0_441_2686">
<rect width="24" height="24" fill="white" transform="translate(0 0.5)"/>
</clipPath>
</defs>
</svg>
