<svg width="342" height="342" viewBox="0 0 342 342" fill="none" xmlns="http://www.w3.org/2000/svg">
<path d="M129.207 123.06C132.577 99.6092 161.631 90.542 177.74 107.913C184.223 114.904 193.803 118.141 203.198 116.514C226.542 112.472 244.144 137.302 232.601 157.991C227.955 166.317 227.837 176.429 232.288 184.861C243.345 205.813 225.17 230.226 201.927 225.642C192.572 223.796 182.92 226.809 176.275 233.647C159.765 250.638 130.931 240.897 128.109 217.374C126.973 207.907 121.125 199.658 112.568 195.452C91.3067 185 91.6613 154.567 113.16 144.614C121.813 140.608 127.851 132.497 129.207 123.06Z" fill="#5BB4EE"/>
<path d="M178.583 172.792L178.509 172.849C178.548 172.845 178.577 172.831 178.583 172.792Z" fill="#333331"/>
<path d="M175.89 174.279C175.89 174.279 175.876 174.271 175.87 174.269L175.886 174.281L175.89 174.279Z" fill="#333331"/>
<path d="M176.071 172.675C176.06 172.9 175.972 173.051 175.89 173.194C175.819 173.336 175.775 173.465 175.842 173.671C175.832 173.773 175.84 173.872 175.85 173.974C175.86 174.076 175.892 174.182 175.89 174.28C176.153 174.42 175.857 174.531 176.055 174.693L175.885 174.691C175.954 174.748 175.995 174.809 175.903 174.819L175.858 174.801C175.964 174.891 175.877 174.93 175.919 174.975L175.874 174.956L175.868 175.026L175.809 174.989C175.894 175.12 175.872 175.228 175.776 175.281L175.957 175.359C175.667 175.421 176.01 175.7 175.683 175.699L175.644 175.673C175.803 175.9 175.686 175.942 175.554 175.942C175.425 175.95 175.309 175.942 175.42 176.197C175.392 176.14 175.339 176.136 175.306 176.101C175.275 176.203 175.224 176.295 175.483 176.589C175.422 176.64 175.354 176.546 175.248 176.436C175.365 176.567 175.356 176.663 175.313 176.71L175.295 176.642L175.186 176.793L175.406 177.031C175.268 177.018 175.158 176.726 175.127 176.848L175.278 177.069C175.128 177.108 174.839 176.792 174.658 176.674C174.547 176.708 174.443 176.755 174.347 176.849C174.244 176.93 174.138 177.014 174.036 177.095C173.917 177.154 173.801 177.227 173.67 177.231C173.541 177.229 173.41 177.202 173.3 177.073L173.287 176.871C173.297 176.575 173.141 177.296 173.137 177.022L173.069 177.153C173.059 177.101 173.035 177.042 173.068 176.975C173.021 176.962 173.01 177.003 172.965 177.087L172.937 176.897C172.852 176.807 172.758 176.854 172.653 176.89C172.547 176.923 172.435 176.963 172.339 176.904C172.272 176.677 172.11 176.62 171.912 176.591C171.812 176.574 171.702 176.578 171.592 176.582C171.483 176.579 171.377 176.581 171.285 176.581C171.132 176.622 171.028 176.556 170.961 176.452C170.894 176.348 170.843 176.215 170.819 176.063C170.788 175.92 170.76 175.781 170.701 175.683C170.648 175.577 170.56 175.513 170.391 175.521C170.413 175.485 170.317 175.517 170.293 175.54C170.215 175.425 170.146 175.306 170.071 175.196C170.071 175.196 170.052 175.169 170.02 175.135C169.989 175.094 169.946 175.038 169.889 174.975C169.771 174.86 169.614 174.719 169.422 174.641C169.222 174.567 168.973 174.559 168.691 174.73C168.415 174.903 168.083 175.261 167.834 176.033L167.773 176.053C167.821 176.397 167.901 176.607 168.299 176.577C168.008 176.844 168.429 176.808 168.374 176.943L168.345 176.957C168.69 176.913 168.428 177.431 168.757 177.385C168.728 177.399 168.648 177.475 168.614 177.446C168.744 177.514 168.938 177.586 168.789 177.757C168.938 177.851 169.08 177.994 169.24 178.099C169.405 178.195 169.584 178.249 169.777 178.163L169.728 178.208C169.969 178.078 169.868 178.276 170.056 178.243C170.046 178.274 170.044 178.29 170.038 178.299C170.281 178.162 170.381 178.465 170.524 178.434L170.454 178.571C170.536 178.602 170.621 178.631 170.703 178.661L170.632 178.59C170.851 178.231 170.69 178.913 170.979 178.754C171.129 178.883 171.638 178.079 171.707 178.33C171.848 178.173 171.532 178.606 171.698 178.508C171.628 178.716 171.6 178.618 171.569 178.792C171.716 178.739 171.701 179.068 171.893 178.972L171.854 179.14C172.132 178.899 172.192 179.461 172.395 179.192C172.63 179.09 172.464 179.719 172.746 179.425L172.817 179.66C172.921 179.705 172.916 179.387 173.02 179.503C173.005 179.648 173.158 179.628 173.082 179.763C173.211 179.888 173.354 179.817 173.501 179.743C173.65 179.674 173.798 179.632 173.997 179.808C174.041 179.516 174.239 179.657 174.262 179.436C174.29 179.555 174.615 179.398 174.465 179.692C174.453 179.719 174.42 179.714 174.414 179.672L174.422 179.841C174.7 180.121 174.766 179.589 174.966 179.581C174.893 179.546 174.819 179.582 174.838 179.456L175.022 179.426L175.027 179.571C175.128 179.567 175.228 179.573 175.328 179.559L175.232 179.408C175.387 179.443 175.548 179.694 175.602 179.402C175.612 179.249 175.392 179.236 175.502 179.13C175.715 179.178 176.045 179.207 176.285 179.124C176.164 178.964 176.224 178.94 176.257 178.872L176.352 179.014C176.439 178.685 176.642 179.278 176.749 178.969L176.804 179.08L176.645 178.751C176.617 178.346 176.965 178.954 176.874 178.443C176.813 178.524 176.603 178.185 176.736 178.165L176.823 178.31C176.85 178.24 176.818 178.175 176.871 178.169C176.901 178.261 177.017 178.361 177.067 178.276L177.156 178.476C177.134 178.359 177.11 178.239 177.083 178.125C177.312 178.154 177.311 177.843 177.513 177.952C177.513 177.952 177.801 177.783 177.642 177.576C177.73 177.721 177.881 177.626 178.001 177.775C177.916 177.603 177.916 177.328 178.129 177.354L178.141 177.379C178.513 177.184 178.205 176.74 178.557 176.575C178.373 176.503 178.539 176.406 178.29 176.336C178.166 175.974 178.985 175.99 178.269 175.637C178.263 175.502 178.488 175.543 178.545 175.484L178.576 175.525C178.582 175.262 178.601 175.196 178.648 175.015C178.593 174.904 178.238 174.826 178.349 174.689C178.483 174.765 178.469 174.696 178.475 174.637C178.496 174.677 178.543 174.7 178.653 174.635C178.608 174.616 178.588 174.596 178.567 174.575C178.578 174.575 178.588 174.576 178.604 174.578C178.566 174.469 178.517 174.483 178.496 174.524C178.474 174.52 178.447 174.518 178.406 174.528C178.602 174.451 178.423 174.244 178.668 174.255C178.646 173.945 178.383 173.723 178.288 173.49C178.416 173.462 178.529 173.513 178.576 173.587L178.529 173.411C178.711 173.407 178.635 173.511 178.672 173.565C178.978 173.341 178.366 173.145 178.614 172.884L178.463 172.847L178.487 172.835C178.408 172.839 178.299 172.796 178.273 172.763C178.426 172.712 178.645 172.721 178.612 172.605C178.747 172.486 178.492 172.343 178.386 172.243C178.37 172.312 178.28 172.306 178.221 172.289C178.209 172.234 178.356 172.171 178.282 172.136L178.493 172.088C178.301 172.153 178.246 171.981 178.154 171.981C178.301 171.907 178.311 172.04 178.432 172.026C178.355 171.799 178.391 171.914 178.312 171.683C178.124 171.603 178.12 171.758 177.922 171.749C177.854 171.655 177.689 171.6 177.771 171.447L177.603 171.54C177.397 171.403 177.383 171.293 177.523 171.101C177.023 170.906 176.647 170.889 176.367 170.931C176.087 170.974 175.893 171.075 175.764 171.196C175.494 171.422 175.446 171.665 175.446 171.665C175.208 172.191 175.79 172.172 176.049 172.651L176.071 172.675Z" fill="#333331"/>
<path d="M145.056 176.946L145.129 176.889C145.091 176.893 145.062 176.907 145.056 176.946Z" fill="#333331"/>
<path d="M147.753 175.455C147.753 175.455 147.767 175.463 147.773 175.465L147.757 175.453L147.753 175.455Z" fill="#333331"/>
<path d="M147.572 177.061C147.583 176.837 147.671 176.686 147.753 176.543C147.825 176.4 147.868 176.271 147.801 176.065C147.811 175.963 147.803 175.865 147.793 175.763C147.783 175.66 147.751 175.554 147.753 175.456C147.49 175.317 147.786 175.205 147.589 175.043L147.758 175.046C147.689 174.988 147.648 174.927 147.74 174.917L147.785 174.935C147.679 174.845 147.767 174.807 147.724 174.762L147.769 174.78L147.775 174.711L147.834 174.747C147.749 174.617 147.771 174.508 147.868 174.455L147.686 174.377C147.976 174.315 147.634 174.036 147.964 174.035L148.003 174.062C147.844 173.835 147.961 173.792 148.094 173.792C148.222 173.784 148.339 173.793 148.227 173.537C148.255 173.594 148.309 173.598 148.341 173.633C148.372 173.531 148.423 173.439 148.164 173.145C148.226 173.094 148.293 173.188 148.399 173.298C148.283 173.167 148.291 173.071 148.334 173.025L148.352 173.092L148.461 172.941L148.241 172.704C148.38 172.716 148.489 173.009 148.52 172.886L148.37 172.665C148.519 172.627 148.808 172.942 148.99 173.061C149.1 173.026 149.204 172.979 149.301 172.886C149.403 172.804 149.509 172.721 149.612 172.639C149.73 172.58 149.847 172.507 149.978 172.503C150.106 172.505 150.237 172.532 150.347 172.661L150.361 172.863C150.35 173.159 150.507 172.439 150.51 172.712L150.578 172.582C150.588 172.633 150.612 172.692 150.58 172.759C150.627 172.772 150.637 172.731 150.682 172.647L150.71 172.837C150.796 172.927 150.89 172.881 150.994 172.844C151.1 172.812 151.213 172.771 151.309 172.83C151.376 173.057 151.537 173.115 151.735 173.144C151.835 173.16 151.945 173.156 152.056 173.152C152.164 173.155 152.27 173.153 152.362 173.153C152.515 173.113 152.619 173.178 152.687 173.282C152.754 173.387 152.805 173.52 152.829 173.671C152.859 173.814 152.887 173.953 152.946 174.051C152.999 174.157 153.087 174.221 153.257 174.213C153.234 174.25 153.33 174.217 153.355 174.195C153.432 174.309 153.501 174.428 153.577 174.538C153.577 174.538 153.595 174.565 153.628 174.6C153.658 174.641 153.701 174.696 153.758 174.759C153.876 174.874 154.033 175.015 154.225 175.093C154.425 175.167 154.674 175.176 154.957 175.005C155.233 174.832 155.564 174.473 155.813 173.701L155.874 173.681C155.826 173.338 155.747 173.127 155.348 173.157C155.639 172.89 155.218 172.926 155.274 172.791L155.302 172.777C154.957 172.821 155.219 172.303 154.89 172.349C154.919 172.335 154.999 172.26 155.034 172.288C154.903 172.221 154.709 172.149 154.859 171.977C154.71 171.883 154.567 171.74 154.408 171.635C154.243 171.539 154.063 171.486 153.871 171.571L153.92 171.526C153.679 171.656 153.779 171.459 153.591 171.491C153.601 171.46 153.603 171.444 153.61 171.436C153.366 171.572 153.267 171.27 153.126 171.304L153.195 171.167C153.114 171.137 153.028 171.108 152.946 171.077L153.018 171.149C152.798 171.508 152.959 170.826 152.671 170.985C152.52 170.856 152.012 171.659 151.943 171.408C151.802 171.565 152.117 171.133 151.951 171.23C152.021 171.022 152.05 171.12 152.081 170.947C151.933 170.999 151.948 170.671 151.756 170.766L151.795 170.599C151.517 170.839 151.457 170.277 151.254 170.547C151.019 170.648 151.186 170.02 150.903 170.313L150.832 170.078C150.728 170.033 150.734 170.352 150.63 170.235C150.644 170.09 150.491 170.11 150.567 169.975C150.439 169.851 150.295 169.922 150.148 169.995C149.999 170.064 149.852 170.107 149.652 169.931C149.608 170.223 149.411 170.081 149.388 170.302C149.359 170.183 149.034 170.34 149.184 170.046C149.198 170.024 149.229 170.024 149.235 170.067L149.227 169.897C148.95 169.617 148.883 170.15 148.683 170.158C148.757 170.192 148.83 170.156 148.812 170.282L148.628 170.313L148.622 170.168C148.522 170.172 148.422 170.165 148.322 170.179L148.417 170.331C148.262 170.296 148.101 170.044 148.048 170.336C148.037 170.489 148.258 170.502 148.147 170.608C147.935 170.56 147.604 170.531 147.365 170.615C147.485 170.774 147.426 170.798 147.393 170.866L147.297 170.725C147.211 171.053 147.008 170.461 146.901 170.769L146.846 170.658L147.005 170.988C147.032 171.392 146.684 170.785 146.775 171.296C146.837 171.214 147.046 171.553 146.913 171.574L146.826 171.428C146.799 171.498 146.832 171.563 146.779 171.569C146.748 171.477 146.632 171.377 146.583 171.463L146.493 171.262C146.516 171.379 146.54 171.499 146.566 171.614C146.337 171.585 146.339 171.895 146.137 171.787C146.137 171.787 145.848 171.956 146.007 172.162C145.92 172.017 145.768 172.113 145.648 171.963C145.734 172.135 145.733 172.411 145.521 172.384L145.509 172.359C145.136 172.555 145.444 172.998 145.092 173.163C145.276 173.235 145.11 173.333 145.359 173.403C145.483 173.764 144.664 173.749 145.38 174.101C145.386 174.236 145.162 174.195 145.104 174.254L145.074 174.213C145.067 174.476 145.049 174.542 145.001 174.724C145.056 174.834 145.411 174.912 145.301 175.049C145.166 174.973 145.18 175.043 145.174 175.102C145.154 175.061 145.107 175.038 144.996 175.103C145.041 175.122 145.062 175.142 145.082 175.163C145.072 175.163 145.062 175.163 145.045 175.161C145.084 175.269 145.133 175.255 145.153 175.214C145.176 175.218 145.202 175.22 145.243 175.21C145.047 175.287 145.226 175.494 144.981 175.483C145.003 175.794 145.266 176.015 145.362 176.248C145.233 176.276 145.121 176.225 145.074 176.151L145.12 176.327C144.939 176.331 145.014 176.227 144.978 176.174C144.671 176.398 145.283 176.593 145.036 176.854L145.187 176.891L145.162 176.903C145.242 176.899 145.35 176.942 145.377 176.975C145.223 177.026 145.005 177.017 145.033 177.136C144.898 177.254 145.153 177.397 145.259 177.498C145.276 177.428 145.365 177.435 145.425 177.451C145.437 177.506 145.29 177.569 145.363 177.604L145.152 177.653C145.345 177.588 145.399 177.759 145.491 177.76C145.344 177.833 145.334 177.7 145.214 177.714C145.291 177.941 145.254 177.827 145.333 178.058C145.521 178.138 145.526 177.982 145.724 177.991C145.791 178.085 145.956 178.141 145.874 178.294L146.042 178.2C146.248 178.337 146.262 178.448 146.123 178.639C146.623 178.834 146.999 178.851 147.279 178.809C147.558 178.767 147.753 178.665 147.882 178.545C148.152 178.318 148.199 178.076 148.199 178.076C148.437 177.549 147.855 177.568 147.597 177.09L147.572 177.061Z" fill="#333331"/>
<path d="M181.223 158.954L181.296 158.897C181.258 158.901 181.229 158.915 181.223 158.954Z" fill="#333331"/>
<path d="M183.918 157.469C183.918 157.469 183.932 157.477 183.938 157.479L183.922 157.467L183.918 157.469Z" fill="#333331"/>
<path d="M183.737 159.075C183.748 158.85 183.836 158.699 183.918 158.556C183.99 158.414 184.033 158.285 183.966 158.079C183.976 157.977 183.968 157.878 183.958 157.776C183.948 157.674 183.916 157.568 183.918 157.47C183.655 157.33 183.951 157.219 183.754 157.057L183.923 157.059C183.854 157.002 183.813 156.941 183.905 156.931L183.95 156.949C183.844 156.859 183.932 156.82 183.889 156.775L183.934 156.794L183.94 156.724L183.999 156.761C183.914 156.63 183.936 156.522 184.033 156.469L183.851 156.391C184.141 156.329 183.799 156.05 184.125 156.051L184.164 156.077C184.005 155.85 184.122 155.808 184.255 155.808C184.383 155.8 184.5 155.808 184.388 155.553C184.416 155.61 184.469 155.614 184.502 155.649C184.533 155.547 184.584 155.455 184.325 155.161C184.387 155.11 184.454 155.204 184.56 155.314C184.444 155.183 184.452 155.087 184.495 155.04L184.513 155.108L184.622 154.957L184.402 154.72C184.541 154.732 184.65 155.024 184.681 154.902L184.531 154.681C184.68 154.642 184.969 154.958 185.151 155.076C185.261 155.042 185.365 154.995 185.462 154.901C185.564 154.82 185.67 154.736 185.773 154.655C185.891 154.596 186.01 154.527 186.138 154.519C186.267 154.521 186.398 154.548 186.508 154.677L186.522 154.879C186.511 155.175 186.668 154.454 186.671 154.728L186.739 154.598C186.749 154.649 186.773 154.708 186.738 154.771C186.785 154.783 186.796 154.743 186.841 154.659L186.869 154.849C186.955 154.939 187.049 154.892 187.153 154.856C187.259 154.823 187.372 154.783 187.468 154.842C187.534 155.069 187.696 155.126 187.894 155.155C187.994 155.172 188.104 155.168 188.214 155.164C188.323 155.166 188.429 155.165 188.521 155.165C188.674 155.124 188.778 155.19 188.845 155.294C188.913 155.398 188.963 155.531 188.988 155.682C189.018 155.826 189.046 155.964 189.105 156.063C189.158 156.169 189.246 156.232 189.415 156.225C189.393 156.261 189.489 156.229 189.514 156.206C189.591 156.321 189.66 156.44 189.735 156.55C189.735 156.55 189.754 156.577 189.786 156.611C189.817 156.652 189.86 156.707 189.917 156.771C190.035 156.886 190.192 157.027 190.384 157.105C190.584 157.179 190.833 157.187 191.115 157.016C191.391 156.843 191.723 156.484 191.972 155.713L192.033 155.693C191.985 155.349 191.906 155.139 191.507 155.169C191.798 154.902 191.377 154.938 191.432 154.803L191.461 154.789C191.116 154.833 191.378 154.315 191.049 154.361C191.078 154.347 191.158 154.271 191.192 154.3C191.062 154.232 190.868 154.16 191.017 153.989C190.868 153.895 190.726 153.752 190.567 153.647C190.401 153.551 190.222 153.497 190.03 153.583L190.079 153.538C189.837 153.668 189.938 153.47 189.75 153.503C189.76 153.472 189.762 153.456 189.768 153.447C189.525 153.584 189.426 153.281 189.285 153.316L189.354 153.179C189.273 153.148 189.187 153.119 189.105 153.089L189.177 153.16C188.957 153.519 189.118 152.837 188.83 152.996C188.679 152.867 188.171 153.671 188.102 153.42C187.96 153.577 188.276 153.144 188.11 153.242C188.18 153.034 188.208 153.132 188.239 152.958C188.092 153.011 188.107 152.682 187.915 152.778L187.954 152.611C187.676 152.851 187.616 152.289 187.413 152.558C187.178 152.66 187.345 152.031 187.062 152.325L186.991 152.09C186.887 152.045 186.893 152.363 186.789 152.247C186.803 152.102 186.65 152.122 186.726 151.987C186.597 151.862 186.454 151.933 186.307 152.007C186.158 152.076 186.011 152.118 185.811 151.942C185.767 152.234 185.569 152.093 185.547 152.314C185.518 152.195 185.193 152.352 185.343 152.058C185.355 152.031 185.388 152.036 185.394 152.078L185.386 151.909C185.109 151.629 185.042 152.162 184.842 152.169C184.916 152.204 184.989 152.168 184.971 152.294L184.787 152.324L184.781 152.179C184.681 152.183 184.581 152.177 184.481 152.191L184.576 152.342C184.421 152.307 184.26 152.056 184.206 152.348C184.196 152.501 184.417 152.514 184.306 152.62C184.094 152.572 183.763 152.543 183.524 152.626C183.644 152.786 183.585 152.81 183.552 152.878L183.456 152.736C183.37 153.065 183.167 152.472 183.06 152.781L183.005 152.67L183.163 152.999C183.191 153.404 182.843 152.796 182.934 153.307C182.995 153.226 183.205 153.565 183.072 153.585L182.985 153.44C182.958 153.51 182.991 153.575 182.937 153.581C182.907 153.489 182.791 153.389 182.742 153.474L182.652 153.274C182.674 153.391 182.699 153.511 182.725 153.625C182.496 153.596 182.498 153.907 182.296 153.798C182.296 153.798 182.007 153.967 182.166 154.174C182.079 154.029 181.927 154.124 181.807 153.975C181.893 154.147 181.892 154.422 181.68 154.396L181.667 154.371C181.295 154.566 181.603 155.01 181.251 155.175C181.435 155.247 181.269 155.344 181.518 155.414C181.642 155.776 180.823 155.76 181.539 156.113C181.545 156.248 181.32 156.207 181.263 156.266L181.233 156.225C181.226 156.488 181.207 156.554 181.16 156.735C181.215 156.846 181.57 156.924 181.46 157.061C181.325 156.985 181.339 157.054 181.333 157.113C181.313 157.073 181.266 157.05 181.155 157.115C181.2 157.134 181.22 157.154 181.241 157.175C181.231 157.175 181.22 157.174 181.204 157.172C181.243 157.281 181.292 157.267 181.312 157.226C181.335 157.23 181.361 157.232 181.402 157.222C181.206 157.299 181.385 157.506 181.14 157.495C181.162 157.806 181.425 158.027 181.521 158.26C181.392 158.288 181.28 158.237 181.233 158.163L181.279 158.339C181.098 158.343 181.173 158.239 181.137 158.185C180.83 158.409 181.442 158.605 181.194 158.866L181.346 158.903L181.321 158.915C181.401 158.911 181.509 158.954 181.535 158.987C181.382 159.038 181.164 159.029 181.192 159.148C181.057 159.266 181.312 159.409 181.418 159.509C181.434 159.44 181.524 159.446 181.583 159.463C181.596 159.518 181.448 159.581 181.522 159.616L181.311 159.665C181.503 159.6 181.558 159.771 181.65 159.771C181.503 159.845 181.493 159.712 181.372 159.726C181.45 159.953 181.413 159.838 181.492 160.069C181.68 160.149 181.684 159.994 181.883 160.003C181.95 160.097 182.115 160.152 182.033 160.305L182.201 160.212C182.407 160.349 182.421 160.459 182.282 160.651C182.782 160.846 183.157 160.863 183.437 160.821C183.717 160.778 183.912 160.677 184.04 160.556C184.311 160.33 184.358 160.087 184.358 160.087C184.596 159.561 184.014 159.58 183.755 159.102L183.737 159.075Z" fill="#333331"/>
</svg>
