<svg width="383" height="400" viewBox="0 0 383 400" fill="none" xmlns="http://www.w3.org/2000/svg">
<path d="M299.68 297.69C300.634 286.924 298.564 275.87 296.332 265.198C289.938 234.477 264.64 180.755 255.869 150.617C250.106 130.79 243.693 110.832 232.393 93.5359C221.093 76.2397 204.205 61.6958 183.983 57.4433C160.481 52.4953 135.804 62.1924 117.281 77.4843C51.5953 131.717 63.6578 244.306 131.079 294.639C155.766 313.065 193.969 341.664 224.429 346.282C254.889 350.9 290.746 335.664 298.307 305.804C298.985 303.12 299.419 300.418 299.663 297.687L299.68 297.69Z" fill="#F74A4B"/>
<path d="M176.638 131.063L176.492 131.091C176.522 131.118 176.565 131.117 176.638 131.063Z" fill="#333331"/>
<path d="M172.343 130.283L172.36 130.265L172.343 130.283Z" fill="#333331"/>
<path d="M175.389 128.513C175.037 128.967 174.7 129.132 174.411 129.302C174.265 129.386 174.115 129.447 173.975 129.556C173.82 129.631 173.673 129.768 173.488 129.891C173.095 130.06 172.728 130.241 172.344 130.277C172.298 130.348 172.237 130.385 172.173 130.407C172.11 130.419 172.045 130.398 171.98 130.387C171.843 130.372 171.721 130.307 171.565 130.391L171.541 130.208C171.442 130.25 171.322 130.256 171.291 130.144L171.319 130.104C171.145 130.176 171.072 130.007 170.978 130.035L171.011 129.996C170.966 129.972 170.915 129.962 170.87 129.928L170.931 129.892C170.805 129.869 170.691 129.824 170.588 129.756C170.491 129.684 170.421 129.577 170.369 129.481L170.23 129.633C170.142 129.377 170.016 129.259 169.87 129.153C169.75 129.026 169.61 128.912 169.615 128.631L169.66 128.612C169.472 128.54 169.369 128.434 169.309 128.319C169.26 128.195 169.256 128.056 169.255 127.927C169.245 127.66 169.276 127.401 168.94 127.152C169.019 127.217 169.037 127.091 169.085 127.086C168.952 126.81 168.861 126.496 168.469 126.556C168.441 126.324 168.567 126.347 168.715 126.295C168.541 126.32 168.427 126.132 168.408 125.949L168.481 126.028L168.378 125.508L168.051 125.631C168.124 125.339 168.451 125.54 168.364 125.273L168.087 125.283C168.113 125.081 168.229 124.921 168.369 124.774C168.517 124.628 168.684 124.488 168.797 124.314C168.922 123.575 168.927 122.79 169.088 122.025C169.242 121.27 169.567 120.528 170.165 120.133L170.367 120.211C170.62 120.385 170.239 119.655 170.491 119.791C170.485 119.719 170.487 119.652 170.489 119.586C170.56 119.593 170.662 119.571 170.661 119.671C170.766 119.581 170.731 119.545 170.736 119.407C170.816 119.415 170.892 119.423 170.971 119.441C171.095 119.387 171.194 119.312 171.275 119.22C171.36 119.134 171.444 119.052 171.521 118.955C171.598 118.854 171.687 118.777 171.786 118.702C171.88 118.617 171.991 118.561 172.117 118.536C172.473 118.593 172.832 118.525 173.233 118.476C173.628 118.432 174.088 118.399 174.437 118.483C174.987 118.506 175.348 119.058 175.539 119.606C175.747 120.166 175.857 120.711 176.289 121.137C176.26 121.186 176.388 121.237 176.423 121.227C176.521 121.561 176.61 121.898 176.664 122.247C176.664 122.247 176.684 122.325 176.709 122.456C176.729 122.587 176.762 122.771 176.812 122.976C176.842 123.189 176.889 123.422 176.937 123.656C176.974 123.893 177.03 124.127 177.099 124.339C177.212 124.761 177.416 125.087 177.763 125.046C177.937 125.026 178.149 124.91 178.404 124.651C178.665 124.388 178.951 123.975 179.237 123.329L179.305 123.36C179.418 122.6 179.371 122.086 178.93 121.654C179.31 121.479 178.833 121.035 178.896 120.836L178.934 120.84C178.507 120.501 178.858 119.828 178.395 119.518C178.433 119.522 178.537 119.48 178.594 119.572C178.391 119.284 178.105 118.921 178.281 118.782C178.156 118.612 178.034 118.419 177.892 118.228C177.74 118.04 177.593 117.844 177.425 117.675C177.252 117.509 177.073 117.357 176.899 117.244C176.709 117.143 176.53 117.077 176.365 117.064L176.434 117.038C176.044 117.04 176.08 116.83 175.722 116.745C175.726 116.707 175.71 116.682 175.72 116.674C175.514 116.685 175.284 116.604 175.078 116.488C174.87 116.376 174.645 116.295 174.501 116.304L174.528 116.145C174.306 116.074 174.069 116.069 173.839 116.035L174.088 116.113C174 116.318 173.895 116.231 173.731 116.114C173.567 115.997 173.325 115.896 173.078 116.027C172.843 115.993 172.62 116.265 172.435 116.484C172.249 116.717 172.11 116.96 171.878 116.902C171.747 117.151 171.949 116.534 171.71 116.775C171.627 116.562 171.805 116.595 171.673 116.443C171.543 116.549 171.401 116.543 171.248 116.546C171.096 116.545 170.932 116.566 170.795 116.733L170.701 116.585C170.541 116.844 170.31 116.915 170.096 116.998C169.879 117.071 169.672 117.144 169.643 117.375C169.349 117.82 169.008 117.209 168.864 117.855L168.541 117.85C168.349 118.002 168.651 118.171 168.395 118.297C168.287 118.186 168.095 118.48 168.078 118.274C167.785 118.433 167.695 118.748 167.564 119.049C167.451 119.36 167.319 119.67 166.968 119.924C167.163 120.202 166.839 120.478 166.995 120.675C166.87 120.643 166.708 121.373 166.598 120.876C166.588 120.832 166.618 120.774 166.663 120.797L166.518 120.687C166.288 120.834 166.257 121.045 166.263 121.256C166.284 121.472 166.337 121.692 166.25 121.892C166.341 121.787 166.373 121.619 166.458 121.762L166.324 122.133L166.208 122.016C166.127 122.198 166.065 122.387 165.993 122.575L166.188 122.533C166.041 122.794 165.703 122.845 165.913 123.209C166.033 123.374 166.193 122.981 166.204 123.287C166.119 123.464 166.001 123.69 165.913 123.938C165.825 124.186 165.75 124.449 165.705 124.697C165.91 124.656 165.901 124.789 165.943 124.926L165.766 124.941C166.016 125.467 165.374 125.139 165.58 125.669L165.452 125.627L165.829 125.748C166.217 126.188 165.475 126.039 166.007 126.509C165.947 126.308 166.379 126.371 166.339 126.62L166.162 126.582C166.219 126.717 166.297 126.749 166.277 126.846C166.175 126.779 166.025 126.839 166.085 127.041L165.854 126.936C165.98 127.049 166.097 127.161 166.228 127.27C166.117 127.606 166.441 128.016 166.26 128.202C166.26 128.202 166.28 128.37 166.343 128.544C166.396 128.72 166.506 128.903 166.661 128.924C166.459 128.855 166.539 129.226 166.323 129.198C166.441 129.249 166.585 129.378 166.689 129.527C166.802 129.672 166.875 129.841 166.837 129.98L166.797 129.952C166.874 130.356 167.142 130.612 167.365 130.854C167.617 131.09 167.846 131.309 168.009 131.664C168.136 131.501 168.322 131.858 168.444 131.604C168.777 131.787 168.966 132.078 169.146 132.315C169.348 132.527 169.558 132.658 169.873 132.377C170.184 132.495 170.142 132.724 170.291 132.844L170.195 132.848C170.502 132.97 170.722 132.998 170.907 133.056C171.092 133.113 171.259 133.149 171.502 133.198C171.763 133.159 171.837 132.809 172.236 132.908C172.097 133.056 172.267 133.03 172.428 133.038C172.33 133.061 172.291 133.114 172.509 133.217C172.538 133.173 172.583 133.144 172.624 133.115C172.623 133.125 172.637 133.135 172.63 133.149C172.896 133.072 172.843 133.028 172.72 133.02C172.722 132.997 172.711 132.967 172.672 132.93C172.811 133.015 173.004 132.988 173.162 132.981C173.321 132.969 173.447 132.939 173.492 133.062C174.278 132.83 174.654 132.322 175.104 131.935C175.23 132.005 175.186 132.196 175.045 132.324C175.172 132.242 175.278 132.139 175.393 132.046C175.495 132.204 175.248 132.288 175.143 132.387C175.453 132.381 175.648 132.149 175.829 131.92C175.993 131.671 176.17 131.441 176.473 131.321L176.455 131.123L176.499 131.114C176.443 131.06 176.456 130.89 176.492 130.813C176.668 130.865 176.778 131.081 176.96 130.843C177.235 130.762 177.325 130.271 177.404 129.97C177.291 130.087 177.244 129.991 177.234 129.905C177.309 129.784 177.492 129.808 177.496 129.675L177.695 129.781C177.492 129.717 177.684 129.337 177.631 129.251C177.815 129.261 177.646 129.514 177.736 129.609C177.995 129.089 177.886 129.358 178.117 128.83C178.091 128.485 177.903 128.789 177.787 128.572C177.861 128.318 177.815 128.032 178.038 127.803L177.822 127.819C177.855 127.322 177.934 127.069 178.222 126.818C178.05 125.857 177.744 125.368 177.498 125.124C177.247 124.879 177.016 124.864 176.828 124.973C176.638 125.063 176.486 125.242 176.384 125.393C176.287 125.55 176.217 125.676 176.217 125.676C176.048 125.925 175.963 126.149 175.884 126.355C175.819 126.572 175.793 126.779 175.76 127C175.714 127.442 175.681 127.948 175.395 128.542L175.389 128.513Z" fill="#333331"/>
<path d="M146.322 78.6025L146.368 78.6736C146.359 78.6371 146.342 78.6073 146.322 78.6025Z" fill="#333331"/>
<path d="M153.053 76.9569C153.053 76.9569 153.051 76.9475 153.053 76.9369C153.054 76.9416 153.052 76.9522 153.053 76.9569Z" fill="#333331"/>
<path d="M148.008 81.0589C148.008 81.0589 148.007 81.0742 148.008 81.079L148.013 81.0578L148.008 81.0589Z" fill="#333331"/>
<path d="M150.943 78.0439C151.319 78.0883 151.475 78.4576 151.826 78.2423C152.008 78.2485 152.187 78.1308 152.353 78.058C152.394 77.7503 152.583 78.0236 152.643 77.756L152.706 77.919C152.726 77.8298 152.76 77.7673 152.806 77.8514L152.813 77.8982C152.841 77.7647 152.913 77.8306 152.927 77.7615L152.935 77.813L152.992 77.7805L152.993 77.8521C153.062 77.703 153.149 77.6803 153.238 77.7293L153.207 77.5232C153.405 77.7282 153.407 77.2922 153.602 77.5407L153.61 77.5922C153.722 77.0249 153.974 77.9113 154.099 77.3707C154.085 77.4397 154.124 77.4723 154.132 77.5238C154.217 77.4536 154.31 77.4061 154.251 77.008C154.317 77.0029 154.326 77.1261 154.358 77.2792C154.332 77.1013 154.377 77.0226 154.432 77.0048L154.419 77.0739L154.559 76.9906L154.481 76.6623C154.575 76.744 154.56 77.0622 154.628 76.9707L154.587 76.6944C154.703 76.7345 154.83 77.1367 154.969 77.3267C155.431 77.3772 155.809 76.6072 156.294 77.0279L156.343 77.2312C156.397 77.5295 156.389 76.7694 156.449 77.043L156.476 76.9002C156.497 76.9496 156.535 77.0063 156.521 77.0753C156.569 77.0777 156.562 77.0309 156.582 76.937L156.657 77.1173C156.856 77.2359 156.952 76.8528 157.146 76.9004C157.428 77.2508 157.793 76.8372 158.005 76.5947C158.28 76.0939 158.853 77.234 159.122 76.6669C159.138 76.7077 159.157 76.6091 159.151 76.5716L159.476 76.5662C159.476 76.5662 161.039 76.452 159.49 74.1317L159.49 74.0647C159.292 73.9314 159.174 73.9107 159.107 74.2608C159.028 73.8608 158.956 74.2403 158.899 74.1148L158.894 74.082C158.838 74.4112 158.64 73.8567 158.578 74.1484C158.573 74.1156 158.561 74.0025 158.584 73.9943C158.516 74.0571 158.427 74.1615 158.387 73.928C158.218 74.0155 157.954 73.9449 157.893 74.3371L157.892 74.2702C157.864 74.5329 157.814 74.3202 157.758 74.4626C157.753 74.4298 157.742 74.4171 157.74 74.4031C157.707 74.6665 157.539 74.4714 157.499 74.5876L157.476 74.433L157.336 74.4922L157.393 74.5172C157.439 74.9509 157.244 74.2617 157.183 74.5582C157.081 74.516 157.125 75.4814 156.991 75.2861C156.974 75.4944 156.984 74.9519 156.937 75.117C156.903 74.8922 156.948 74.9716 156.903 74.7964C156.849 74.9147 156.756 74.5838 156.69 74.7469L156.664 74.5737C156.594 74.9096 156.414 74.3764 156.385 74.6921C156.289 74.8548 156.227 74.1841 156.161 74.5435L156.079 74.3164C156.022 74.2866 156.085 74.6123 156.012 74.5037C155.989 74.3538 155.924 74.3971 155.935 74.247C155.769 74.0324 155.722 74.6188 155.495 74.2506C155.501 74.5466 155.391 74.3859 155.395 74.6055C155.376 74.4791 155.219 74.6127 155.276 74.3217C155.282 74.2969 155.296 74.2994 155.304 74.3509L155.288 74.1763C155.141 73.8678 155.136 74.3809 155.035 74.3434C155.071 74.3954 155.107 74.3757 155.101 74.4963L155.008 74.4862L155.005 74.3382L154.862 74.2735L154.907 74.4487C154.827 74.3648 154.758 74.0639 154.727 74.332C154.715 74.4774 154.823 74.5618 154.761 74.6285C154.654 74.52 154.5 74.3563 154.38 74.3169C154.419 74.5169 154.39 74.5117 154.363 74.5588L154.337 74.3855C154.252 74.6473 154.233 74.0085 154.144 74.218L154.136 74.0949L154.158 74.465C154.102 74.8277 154.047 74.1128 154.001 74.6034C154.044 74.5683 154.082 74.9839 154.01 74.9181L153.999 74.7474C153.971 74.7898 153.973 74.8614 153.948 74.8267C153.954 74.735 153.921 74.5818 153.879 74.6169L153.88 74.4013L153.837 74.7237C153.744 74.5508 153.671 74.7964 153.607 74.5618C153.607 74.5618 153.444 74.4664 153.451 74.7336C153.454 74.5655 153.365 74.5165 153.361 74.3257C153.351 74.5139 153.261 74.6806 153.189 74.4902L153.195 74.4654C153.001 74.2885 152.955 74.7791 152.769 74.5627C152.804 74.7633 152.713 74.6668 152.77 74.9216C152.654 75.2023 152.41 74.4345 152.474 75.2484C152.41 75.3011 152.362 75.0737 152.323 75.0364L152.335 74.9915C152.214 75.0767 152.178 75.0916 152.077 75.0876C152.042 75.1743 152.088 75.5456 151.985 75.47C151.991 75.3159 151.958 75.3496 151.925 75.3545C151.94 75.3283 151.941 75.2707 151.884 75.1786C151.887 75.2262 151.881 75.2557 151.876 75.2805C151.874 75.2711 151.873 75.2618 151.87 75.243C151.822 75.303 151.838 75.3484 151.869 75.3629C151.872 75.3863 151.877 75.4144 151.892 75.4552C151.807 75.2716 151.74 75.4924 151.692 75.2362C151.537 75.3216 151.459 75.6014 151.338 75.72C151.304 75.591 151.32 75.469 151.349 75.4119L151.258 75.4735C151.23 75.2861 151.298 75.3573 151.321 75.3157C151.163 75.0281 151.132 75.6551 150.954 75.3944L150.948 75.5485L150.936 75.5265C150.947 75.6061 150.935 75.718 150.916 75.745C150.872 75.5838 150.859 75.3656 150.795 75.3848C150.719 75.2332 150.657 75.4868 150.6 75.5863C150.641 75.6088 150.641 75.6999 150.636 75.7629C150.604 75.7725 150.56 75.6114 150.543 75.6858L150.51 75.4657C150.551 75.675 150.454 75.7038 150.454 75.7949C150.41 75.6338 150.484 75.6467 150.475 75.5189C150.346 75.5572 150.411 75.538 150.278 75.5817C150.233 75.7609 150.324 75.7904 150.315 75.988C150.26 76.0393 150.223 76.2029 150.128 76.083L150.181 76.2762C150.087 76.4483 150.013 76.4354 149.903 76.2459C149.263 77.9794 150.043 78.4611 150.043 78.4611C150.455 78.8448 150.548 78.2468 150.937 78.0306L150.943 78.0439Z" fill="#333331"/>
<path d="M184.765 73.2666L184.778 73.3501C184.785 73.3131 184.781 73.2791 184.765 73.2666Z" fill="#333331"/>
<path d="M191.588 74.4401C191.588 74.4401 191.59 74.4305 191.597 74.4217C191.596 74.4265 191.589 74.4353 191.588 74.4401Z" fill="#333331"/>
<path d="M185.331 76.1923C185.331 76.1923 185.323 76.2058 185.322 76.2106L185.335 76.1931L185.331 76.1923Z" fill="#333331"/>
<path d="M183.993 75.7317C184.335 75.893 184.365 76.2927 184.766 76.1999C184.938 76.2638 185.145 76.209 185.326 76.1928C185.461 75.9138 185.554 76.233 185.696 75.9985L185.704 76.1729C185.752 76.0948 185.803 76.0462 185.82 76.1406L185.812 76.1872C185.881 76.0695 185.929 76.1548 185.963 76.0936L185.954 76.1449L186.019 76.1323L185.997 76.2006C186.11 76.081 186.2 76.0873 186.269 76.1619L186.305 75.9567C186.428 76.214 186.568 75.8012 186.674 76.0988L186.665 76.1501C186.951 75.6475 186.909 76.5682 187.199 76.0952C187.164 76.1564 187.19 76.1994 187.181 76.2507C187.284 76.2112 187.388 76.1958 187.458 75.7994C187.523 75.8156 187.492 75.9353 187.474 76.0908C187.505 75.9136 187.574 75.8535 187.631 75.854L187.596 75.9152L187.756 75.8809L187.787 75.5449C187.849 75.6521 187.735 75.9492 187.828 75.8839L187.876 75.6088C187.974 75.6837 187.967 76.1055 188.038 76.3297C188.46 76.5244 189.063 75.9143 189.389 76.467L189.371 76.6755C189.328 76.9756 189.561 76.2522 189.532 76.5306L189.602 76.4036C189.607 76.4574 189.624 76.523 189.589 76.5841C189.634 76.6017 189.643 76.555 189.691 76.4722L189.705 76.667C189.856 76.8428 190.069 76.51 190.238 76.6167C190.394 77.0386 190.871 76.762 191.15 76.5996C191.569 76.212 191.75 77.4749 192.186 77.0228C192.188 77.0664 192.237 76.9789 192.244 76.9416L192.553 77.0395C192.553 77.0395 194.072 77.4276 193.34 74.7354L193.36 74.6718C193.216 74.4828 193.11 74.4257 192.935 74.7363C192.988 74.3319 192.798 74.6688 192.784 74.5317L192.79 74.499C192.632 74.7934 192.62 74.2047 192.469 74.4618C192.475 74.4291 192.499 74.318 192.524 74.3175C192.44 74.3556 192.322 74.4261 192.358 74.1921C192.17 74.2215 191.942 74.0706 191.76 74.4231L191.78 74.3595C191.671 74.5998 191.69 74.382 191.592 74.4994C191.598 74.4667 191.591 74.4511 191.594 74.4371C191.479 74.6766 191.382 74.4383 191.307 74.5356L191.334 74.3817L191.183 74.3936L191.228 74.4352C191.134 74.861 191.169 74.1458 191.017 74.4075C190.933 74.3351 190.669 75.2645 190.603 75.0366C190.521 75.2289 190.703 74.7175 190.605 74.8591C190.645 74.6352 190.663 74.725 190.675 74.5445C190.586 74.6394 190.604 74.2962 190.489 74.4298L190.519 74.2573C190.347 74.5538 190.345 73.9909 190.217 74.2809C190.075 74.4049 190.229 73.7492 190.052 74.0691L190.047 73.8277C190.002 73.7814 189.958 74.1103 189.923 73.9838C189.949 73.8346 189.874 73.8549 189.932 73.7161C189.842 73.4599 189.612 74.0011 189.513 73.5798C189.425 73.8623 189.372 73.675 189.306 73.8845C189.328 73.7586 189.137 73.8355 189.283 73.5776C189.296 73.5559 189.31 73.563 189.301 73.6143L189.34 73.4434C189.299 73.1044 189.132 73.5894 189.048 73.5217C189.066 73.5826 189.105 73.5752 189.062 73.6876L188.977 73.6487L189.021 73.5074L188.905 73.4004L188.893 73.5809C188.844 73.4761 188.874 73.1689 188.759 73.413C188.702 73.5472 188.778 73.6616 188.702 73.706C188.635 73.5691 188.541 73.3651 188.439 73.2894C188.413 73.4915 188.387 73.4773 188.347 73.5135L188.377 73.3409C188.213 73.562 188.398 72.9503 188.248 73.1209L188.279 73.0013L188.182 73.3593C188.014 73.6855 188.189 72.9904 187.989 73.4408C188.041 73.421 187.945 73.8273 187.898 73.742L187.941 73.5766C187.902 73.6082 187.881 73.6765 187.868 73.6359C187.903 73.5505 187.921 73.395 187.869 73.4148L187.939 73.2107L187.796 73.5028C187.763 73.3094 187.615 73.519 187.629 73.2763C187.629 73.2763 187.505 73.1342 187.426 73.3896C187.483 73.2313 187.414 73.1567 187.471 72.9742C187.401 73.1495 187.263 73.279 187.256 73.0757L187.269 73.0541C187.141 72.8248 186.941 73.2752 186.834 73.0111C186.803 73.2124 186.748 73.092 186.721 73.3518C186.522 73.5811 186.534 72.7754 186.337 73.5677C186.259 73.5973 186.286 73.3663 186.261 73.3186L186.287 73.2799C186.144 73.3222 186.105 73.3249 186.011 73.289C185.95 73.3601 185.876 73.7268 185.803 73.6226C185.857 73.4783 185.815 73.4997 185.782 73.4939C185.805 73.4739 185.824 73.4196 185.8 73.3143C185.787 73.3601 185.772 73.3864 185.759 73.4081C185.761 73.3987 185.762 73.3894 185.766 73.3708C185.701 73.4122 185.702 73.4605 185.726 73.4841C185.722 73.5074 185.717 73.5354 185.719 73.579C185.697 73.3779 185.563 73.5658 185.599 73.3077C185.425 73.3395 185.262 73.5801 185.11 73.6542C185.119 73.5211 185.172 73.4103 185.218 73.3656L185.112 73.395C185.145 73.2084 185.187 73.2976 185.222 73.2652C185.163 72.9423 184.935 73.5272 184.849 73.2235L184.795 73.3678L184.789 73.3429C184.775 73.4221 184.729 73.5245 184.701 73.5437C184.711 73.3772 184.768 73.1659 184.701 73.1637C184.678 72.9961 184.538 73.2167 184.452 73.293C184.484 73.3275 184.455 73.4137 184.43 73.4718C184.397 73.4707 184.407 73.3042 184.366 73.3692L184.405 73.15C184.377 73.3616 184.277 73.3583 184.247 73.4444C184.258 73.2779 184.323 73.3136 184.355 73.1893C184.221 73.1849 184.288 73.1871 184.149 73.1865C184.049 73.3421 184.126 73.3989 184.055 73.5835C183.987 73.6148 183.899 73.758 183.847 73.6142L183.836 73.8142C183.692 73.9476 183.626 73.9119 183.582 73.6974C182.424 75.1377 183.012 75.8424 183.012 75.8424C183.28 76.3369 183.558 75.7992 183.996 75.7177L183.993 75.7317Z" fill="#333331"/>
</svg>
