<svg width="422" height="422" viewBox="0 0 422 422" fill="none" xmlns="http://www.w3.org/2000/svg">
<path d="M160.2 418.987C157.334 420.651 153.662 419.677 151.998 416.811L106.353 338.192C104.689 335.326 105.664 331.654 108.529 329.99L187.149 284.345C190.015 282.681 190.989 279.01 189.325 276.144L143.681 197.526C142.017 194.66 142.991 190.988 145.857 189.324L224.475 143.68C227.341 142.016 228.315 138.344 226.651 135.479L181.006 56.8592C179.342 53.9935 180.317 50.3216 183.182 48.6577L261.802 3.01258C264.667 1.34879 268.339 2.32316 270.003 5.18887L418.988 261.801C420.652 264.667 419.678 268.339 416.812 270.002L160.2 418.987Z" fill="#A869EE"/>
<path d="M194.928 209.334L195 209.396C194.979 209.359 194.951 209.333 194.928 209.334Z" fill="#333331"/>
<path d="M201.56 205.464C201.56 205.464 201.555 205.455 201.554 205.443C201.557 205.448 201.558 205.46 201.56 205.464Z" fill="#333331"/>
<path d="M197.494 211.412C197.494 211.412 197.498 211.429 197.5 211.434L197.499 211.41L197.494 211.412Z" fill="#333331"/>
<path d="M196.029 211.975C196.435 211.868 196.745 212.186 197.02 211.821C197.211 211.753 197.348 211.559 197.49 211.416C197.406 211.083 197.713 211.288 197.666 210.987L197.797 211.13C197.782 211.029 197.791 210.951 197.873 211.019L197.899 211.065C197.874 210.916 197.975 210.954 197.961 210.878L197.99 210.928L198.036 210.871L198.066 210.944C198.076 210.762 198.157 210.703 198.269 210.718L198.153 210.518C198.441 210.649 198.266 210.198 198.568 210.375L198.597 210.425C198.482 209.795 199.102 210.607 199.011 209.998C199.025 210.075 199.078 210.093 199.107 210.143C199.167 210.036 199.244 209.949 199.021 209.562C199.087 209.53 199.146 209.654 199.242 209.799C199.142 209.626 199.157 209.526 199.207 209.485L199.221 209.562L199.332 209.419L199.118 209.112C199.248 209.158 199.362 209.493 199.395 209.371L199.24 209.102C199.376 209.096 199.671 209.46 199.891 209.6C200.389 209.464 200.466 208.516 201.136 208.753L201.27 208.943C201.447 209.229 201.13 208.448 201.303 208.706L201.272 208.547C201.315 208.59 201.376 208.633 201.39 208.71C201.441 208.693 201.415 208.647 201.397 208.542L201.547 208.698C201.801 208.739 201.745 208.305 201.964 208.275C202.398 208.522 202.605 207.947 202.726 207.611C202.806 206.983 203.86 207.926 203.908 207.232C203.941 207.267 203.92 207.158 203.899 207.122L204.232 206.984C204.232 206.984 205.798 206.231 203.258 204.467L203.23 204.398C202.972 204.34 202.842 204.367 202.915 204.755C202.671 204.375 202.75 204.796 202.641 204.69L202.622 204.658C202.695 205.016 202.269 204.528 202.323 204.855C202.305 204.823 202.247 204.711 202.267 204.693C202.223 204.785 202.173 204.929 202.037 204.705C201.898 204.864 201.597 204.898 201.693 205.328L201.665 205.259C201.744 205.541 201.605 205.342 201.605 205.512C201.587 205.48 201.57 205.471 201.562 205.458C201.636 205.743 201.383 205.61 201.389 205.746L201.302 205.596L201.182 205.713L201.251 205.716C201.474 206.145 200.994 205.513 201.051 205.844C200.929 205.842 201.366 206.82 201.148 206.673C201.215 206.895 201.005 206.331 201.024 206.52C200.898 206.302 200.977 206.366 200.859 206.203C200.851 206.347 200.621 206.044 200.619 206.239L200.521 206.071C200.586 206.446 200.184 205.969 200.281 206.306C200.249 206.513 199.913 205.846 199.991 206.244L199.814 206.043C199.743 206.035 199.94 206.346 199.82 206.263C199.736 206.118 199.686 206.189 199.637 206.03C199.378 205.876 199.569 206.5 199.184 206.212C199.311 206.515 199.132 206.394 199.228 206.624C199.157 206.501 199.049 206.703 198.99 206.379C198.986 206.351 199.002 206.348 199.031 206.398L198.943 206.224C198.666 205.966 198.87 206.497 198.75 206.499C198.809 206.538 198.837 206.504 198.88 206.63L198.78 206.658L198.717 206.506L198.543 206.498L198.661 206.66C198.544 206.606 198.351 206.323 198.427 206.613C198.474 206.768 198.62 206.811 198.584 206.905C198.429 206.836 198.204 206.73 198.063 206.738C198.185 206.929 198.153 206.935 198.144 206.995L198.047 206.826C198.065 207.131 197.786 206.48 197.78 206.732L197.721 206.608L197.894 206.981C197.984 207.378 197.635 206.658 197.789 207.188C197.819 207.134 198.027 207.547 197.926 207.509L197.845 207.337C197.834 207.392 197.864 207.465 197.825 207.439C197.794 207.343 197.698 207.198 197.668 207.251L197.582 207.028L197.669 207.378C197.503 207.238 197.527 207.521 197.365 207.305C197.365 207.305 197.159 207.272 197.274 207.545C197.209 207.371 197.098 207.356 197.016 207.161C197.082 207.359 197.057 207.568 196.905 207.401L196.901 207.373C196.629 207.269 196.781 207.794 196.501 207.646C196.619 207.839 196.486 207.776 196.648 208.016C196.643 208.353 196.079 207.66 196.476 208.473C196.431 208.554 196.289 208.339 196.233 208.316L196.228 208.265C196.137 208.402 196.106 208.432 196 208.469C195.999 208.572 196.198 208.937 196.061 208.9C196.005 208.739 195.984 208.787 195.952 208.806C195.957 208.773 195.935 208.713 195.839 208.641C195.861 208.689 195.867 208.721 195.871 208.749C195.866 208.74 195.861 208.731 195.85 208.713C195.825 208.795 195.86 208.835 195.898 208.837C195.911 208.86 195.927 208.887 195.959 208.923C195.797 208.768 195.817 209.023 195.664 208.778C195.539 208.929 195.572 209.25 195.495 209.421C195.408 209.302 195.374 209.17 195.382 209.099L195.312 209.199C195.207 209.018 195.307 209.063 195.313 209.011C195.033 208.779 195.256 209.438 194.967 209.241L195.024 209.403L195.001 209.385C195.046 209.462 195.079 209.583 195.069 209.619C194.959 209.47 194.857 209.25 194.798 209.296C194.659 209.17 194.697 209.457 194.679 209.583C194.731 209.59 194.767 209.684 194.788 209.751C194.759 209.774 194.649 209.625 194.661 209.709L194.537 209.495C194.665 209.695 194.577 209.763 194.613 209.858C194.503 209.709 194.584 209.692 194.523 209.564C194.406 209.656 194.464 209.61 194.346 209.709C194.372 209.912 194.477 209.906 194.549 210.113C194.513 210.188 194.541 210.373 194.394 210.287L194.527 210.465C194.5 210.681 194.419 210.697 194.229 210.547C194.272 212.595 195.273 212.775 195.273 212.775C195.854 213.004 195.706 212.349 196.02 211.968L196.029 211.975Z" fill="#333331"/>
<path d="M202.684 178.277L202.747 178.344C202.726 178.307 202.703 178.278 202.684 178.277Z" fill="#333331"/>
<path d="M204.956 180.53C204.956 180.53 204.964 180.544 204.962 180.551L204.951 180.532L204.956 180.53Z" fill="#333331"/>
<path d="M203.873 180.869C204.178 180.82 204.461 181.154 204.631 180.849C204.772 180.81 204.859 180.645 204.951 180.531C204.845 180.211 205.11 180.44 205.037 180.155L205.158 180.303C205.134 180.208 205.13 180.137 205.202 180.211L205.229 180.256C205.189 180.115 205.272 180.164 205.254 180.09L205.283 180.14L205.311 180.093L205.341 180.167C205.324 180.001 205.382 179.955 205.475 179.98L205.36 179.78C205.602 179.937 205.409 179.497 205.666 179.7L205.695 179.751C205.529 179.149 206.113 179.982 205.968 179.405C205.986 179.479 206.035 179.5 206.059 179.552C206.091 179.461 206.141 179.39 205.922 179C205.971 178.979 206.03 179.102 206.125 179.247C206.026 179.074 206.027 178.982 206.058 178.952L206.077 179.027L206.147 178.907L205.938 178.597C206.045 178.657 206.178 178.98 206.188 178.872L206.033 178.603C206.142 178.613 206.418 178.987 206.606 179.145C206.981 179.08 206.922 178.211 207.483 178.512L207.613 178.704C207.785 178.992 207.441 178.227 207.609 178.488L207.565 178.337C207.603 178.382 207.655 178.431 207.678 178.502C207.715 178.493 207.689 178.447 207.659 178.343L207.796 178.507C208 178.577 207.903 178.166 208.072 178.166C208.442 178.449 208.536 177.94 208.589 177.643C208.573 177.07 209.518 178.076 209.47 177.437C209.503 177.473 209.469 177.371 209.448 177.335L209.694 177.247C209.694 177.247 210.833 176.741 208.62 174.788L208.583 174.724C208.38 174.635 208.282 174.643 208.382 175.016C208.142 174.633 208.258 175.033 208.157 174.921L208.139 174.889C208.242 175.236 207.845 174.726 207.931 175.034C207.913 175.002 207.85 174.893 207.87 174.875C207.849 174.954 207.826 175.082 207.69 174.858C207.601 174.988 207.368 174.983 207.496 175.394L207.46 175.33C207.56 175.599 207.426 175.398 207.45 175.554C207.431 175.522 207.419 175.511 207.411 175.498C207.503 175.772 207.286 175.618 207.31 175.744L207.224 175.594L207.145 175.688L207.199 175.699C207.427 176.125 206.974 175.477 207.059 175.792C206.959 175.777 207.424 176.739 207.238 176.574C207.319 176.788 207.081 176.24 207.123 176.416C206.997 176.198 207.066 176.267 206.953 176.102C206.963 176.235 206.747 175.923 206.767 176.106L206.67 175.937C206.767 176.294 206.392 175.801 206.512 176.126C206.512 176.314 206.166 175.653 206.276 176.032L206.113 175.823C206.056 175.807 206.248 176.12 206.146 176.028C206.062 175.882 206.031 175.943 205.972 175.789C205.75 175.614 205.977 176.217 205.638 175.903C205.773 176.201 205.617 176.067 205.722 176.291C205.651 176.168 205.594 176.341 205.502 176.036C205.494 176.01 205.505 176.01 205.534 176.06L205.446 175.886C205.197 175.612 205.423 176.13 205.326 176.119C205.376 176.163 205.395 176.134 205.443 176.258L205.366 176.272L205.298 176.123L205.16 176.094L205.273 176.259C205.175 176.194 204.991 175.907 205.081 176.188C205.137 176.338 205.256 176.396 205.242 176.477C205.114 176.393 204.921 176.268 204.812 176.258C204.934 176.449 204.906 176.453 204.907 176.507L204.81 176.339C204.86 176.625 204.563 175.984 204.589 176.218L204.53 176.094L204.712 176.462C204.833 176.841 204.469 176.136 204.652 176.642C204.668 176.596 204.881 177.007 204.802 176.955L204.717 176.786C204.715 176.836 204.75 176.907 204.711 176.881C204.675 176.787 204.583 176.639 204.563 176.687L204.467 176.47L204.582 176.804C204.434 176.653 204.485 176.92 204.333 176.699C204.333 176.699 204.167 176.643 204.292 176.911C204.218 176.741 204.129 176.713 204.042 176.521C204.117 176.714 204.124 176.904 203.982 176.732L203.969 176.709C203.747 176.576 203.93 177.083 203.696 176.909C203.814 177.102 203.699 177.029 203.857 177.271C203.897 177.581 203.365 176.87 203.78 177.673C203.753 177.743 203.616 177.525 203.569 177.498L203.559 177.449C203.505 177.565 203.483 177.59 203.404 177.611C203.417 177.707 203.615 178.071 203.506 178.019C203.441 177.863 203.434 177.903 203.411 177.916C203.411 177.886 203.384 177.829 203.302 177.749C203.328 177.794 203.335 177.827 203.339 177.855C203.334 177.846 203.328 177.837 203.318 177.818C203.31 177.889 203.341 177.932 203.37 177.94C203.383 177.963 203.399 177.99 203.427 178.028C203.278 177.865 203.326 178.105 203.177 177.857C203.097 177.982 203.162 178.284 203.127 178.432C203.044 178.31 203.001 178.183 202.999 178.117L202.957 178.202C202.852 178.02 202.933 178.077 202.935 178.027C202.687 177.776 202.942 178.417 202.689 178.2L202.755 178.356L202.742 178.333C202.782 178.413 202.82 178.531 202.819 178.561C202.714 178.41 202.606 178.193 202.566 178.228C202.441 178.095 202.506 178.366 202.511 178.479C202.554 178.49 202.594 178.582 202.615 178.649C202.595 178.666 202.489 178.515 202.51 178.594L202.387 178.38C202.514 178.579 202.449 178.635 202.49 178.727C202.385 178.575 202.448 178.569 202.382 178.444C202.301 178.515 202.341 178.479 202.259 178.557C202.303 178.75 202.386 178.757 202.471 178.956C202.449 179.023 202.495 179.197 202.371 179.099L202.495 179.282C202.5 179.479 202.437 179.485 202.269 179.321C202.558 181.228 203.368 181.518 203.368 181.518C203.853 181.802 203.656 181.176 203.856 180.861L203.873 180.869Z" fill="#333331"/>
<path d="M206.865 185.504L206.928 185.571C206.907 185.534 206.884 185.505 206.865 185.504Z" fill="#333331"/>
<path d="M209.135 187.761C209.135 187.761 209.144 187.775 209.142 187.783L209.131 187.764L209.135 187.761Z" fill="#333331"/>
<path d="M208.053 188.099C208.358 188.05 208.642 188.384 208.812 188.079C208.953 188.04 209.035 187.878 209.131 187.761C209.025 187.441 209.291 187.67 209.217 187.385L209.339 187.533C209.314 187.438 209.31 187.367 209.383 187.441L209.409 187.486C209.37 187.345 209.453 187.394 209.434 187.32L209.463 187.37L209.491 187.324L209.521 187.397C209.504 187.231 209.563 187.185 209.656 187.21L209.54 187.01C209.783 187.167 209.589 186.727 209.846 186.93L209.875 186.981C209.705 186.381 210.294 187.212 210.148 186.635C210.167 186.709 210.215 186.73 210.24 186.782C210.272 186.691 210.322 186.62 210.098 186.233C210.147 186.211 210.206 186.335 210.301 186.48C210.202 186.307 210.203 186.215 210.234 186.185L210.253 186.259L210.323 186.14L210.114 185.83C210.221 185.889 210.354 186.213 210.364 186.104L210.209 185.836C210.317 185.846 210.594 186.22 210.782 186.378C211.157 186.313 211.098 185.444 211.659 185.744L211.789 185.936C211.961 186.225 211.616 185.46 211.785 185.72L211.741 185.57C211.779 185.615 211.831 185.663 211.854 185.735C211.894 185.73 211.865 185.68 211.838 185.581L211.975 185.744C212.179 185.814 212.081 185.404 212.251 185.403C212.62 185.686 212.715 185.177 212.767 184.88C212.752 184.307 213.697 185.314 213.649 184.674C213.682 184.71 213.647 184.609 213.626 184.572L213.873 184.484C213.873 184.484 215.007 183.981 212.798 182.025L212.762 181.961C212.559 181.872 212.46 181.88 212.565 182.251C212.325 181.867 212.441 182.267 212.34 182.156L212.322 182.124C212.423 182.466 212.028 181.961 212.114 182.268C212.096 182.236 212.033 182.127 212.053 182.11C212.032 182.189 212.009 182.317 211.873 182.092C211.785 182.222 211.551 182.217 211.679 182.628L211.643 182.565C211.744 182.834 211.609 182.633 211.633 182.789C211.614 182.757 211.602 182.746 211.594 182.732C211.686 183.007 211.469 182.853 211.493 182.978L211.407 182.828L211.328 182.922L211.383 182.933C211.61 183.359 211.158 182.712 211.242 183.026C211.143 183.011 211.607 183.974 211.421 183.808C211.502 184.022 211.264 183.474 211.306 183.651C211.18 183.432 211.25 183.501 211.136 183.336C211.147 183.47 210.93 183.158 210.951 183.34L210.853 183.172C210.95 183.528 210.575 183.036 210.695 183.36C210.695 183.549 210.349 182.887 210.459 183.266L210.296 183.057C210.239 183.042 210.432 183.355 210.33 183.262C210.246 183.117 210.214 183.178 210.155 183.023C209.933 182.849 210.16 183.451 209.821 183.138C209.956 183.435 209.8 183.301 209.905 183.525C209.835 183.403 209.777 183.575 209.685 183.27C209.677 183.245 209.689 183.244 209.717 183.294L209.629 183.121C209.38 182.846 209.606 183.365 209.509 183.354C209.559 183.398 209.578 183.369 209.626 183.493L209.549 183.507L209.481 183.358L209.343 183.329L209.456 183.494C209.359 183.429 209.174 183.141 209.264 183.423C209.32 183.572 209.439 183.631 209.425 183.712C209.297 183.628 209.104 183.503 208.995 183.493C209.117 183.683 209.089 183.687 209.09 183.741L208.993 183.573C209.043 183.859 208.746 183.219 208.772 183.452L208.713 183.329L208.895 183.697C209.016 184.075 208.652 183.37 208.835 183.877C208.851 183.831 209.064 184.242 208.985 184.19L208.9 184.021C208.898 184.07 208.933 184.141 208.894 184.115C208.858 184.021 208.766 183.874 208.746 183.922L208.65 183.704L208.765 184.038C208.617 183.887 208.668 184.155 208.516 183.933C208.516 183.933 208.35 183.878 208.475 184.145C208.401 183.976 208.312 183.948 208.225 183.756C208.3 183.949 208.307 184.139 208.165 183.966L208.152 183.944C207.93 183.811 208.113 184.318 207.879 184.143C207.997 184.336 207.882 184.263 208.04 184.505C208.08 184.816 207.548 184.105 207.963 184.908C207.936 184.977 207.799 184.76 207.752 184.732L207.742 184.683C207.688 184.799 207.666 184.824 207.587 184.846C207.6 184.941 207.798 185.306 207.689 185.253C207.624 185.097 207.617 185.138 207.594 185.151C207.594 185.12 207.567 185.063 207.485 184.983C207.511 185.029 207.518 185.061 207.522 185.089C207.514 185.076 207.511 185.071 207.501 185.053C207.493 185.124 207.524 185.167 207.553 185.175C207.566 185.197 207.582 185.225 207.61 185.263C207.461 185.1 207.509 185.34 207.36 185.092C207.28 185.217 207.345 185.519 207.31 185.667C207.227 185.545 207.18 185.42 207.183 185.352L207.141 185.437C207.036 185.255 207.117 185.311 207.118 185.262C206.87 185.011 207.125 185.652 206.872 185.434L206.938 185.59L206.925 185.567C206.965 185.647 207.003 185.765 207.002 185.796C206.897 185.644 206.789 185.427 206.749 185.463C206.624 185.329 206.689 185.6 206.694 185.713C206.737 185.725 206.777 185.816 206.798 185.883C206.778 185.901 206.672 185.75 206.694 185.828L206.57 185.615C206.697 185.814 206.632 185.87 206.673 185.961C206.568 185.81 206.631 185.804 206.565 185.679C206.484 185.749 206.524 185.714 206.447 185.789C206.491 185.982 206.574 185.988 206.659 186.188C206.637 186.255 206.683 186.429 206.559 186.33L206.683 186.514C206.688 186.711 206.625 186.717 206.457 186.553C206.746 188.46 207.556 188.75 207.556 188.75C208.041 189.034 207.843 188.408 208.043 188.093L208.053 188.099Z" fill="#333331"/>
<path d="M205.759 185.154L205.853 185.148C205.81 185.137 205.775 185.139 205.759 185.154Z" fill="#333331"/>
<path d="M207.714 177.733C207.714 177.733 207.708 177.724 207.694 177.72C207.699 177.729 207.702 177.734 207.714 177.733Z" fill="#333331"/>
<path d="M209.045 184.817C209.05 184.826 209.057 184.828 209.065 184.83L209.045 184.817Z" fill="#333331"/>
<path d="M208.403 186.248C208.617 185.883 209.057 185.889 208.997 185.439C209.085 185.255 209.043 185.024 209.044 184.817C208.749 184.642 209.107 184.569 208.863 184.388L209.057 184.398C208.973 184.337 208.925 184.274 209.03 184.268L209.083 184.286C208.958 184.194 209.056 184.156 208.999 184.11L209.052 184.128L209.045 184.053L209.118 184.084C208.997 183.947 209.012 183.848 209.104 183.776L208.88 183.724C209.176 183.607 208.737 183.413 209.075 183.326L209.128 183.344C208.6 182.976 209.615 183.118 209.118 182.75C209.179 182.793 209.232 182.769 209.289 182.784C209.252 182.667 209.252 182.551 208.814 182.434C208.841 182.364 208.966 182.413 209.137 182.448C208.946 182.4 208.885 182.315 208.89 182.251L208.959 182.296L208.939 182.114L208.572 182.046C208.696 181.987 209.016 182.142 208.953 182.033L208.654 181.957C208.744 181.85 209.215 181.9 209.464 181.847C209.719 181.396 209.102 180.674 209.746 180.362L209.974 180.4C210.304 180.477 209.524 180.145 209.829 180.211L209.696 180.118C209.758 180.119 209.827 180.103 209.896 180.148C209.924 180.102 209.866 180.087 209.778 180.028L209.997 180.029C210.207 179.878 209.859 179.612 209.992 179.432C210.468 179.302 210.214 178.746 210.058 178.424C209.668 177.927 211.082 177.845 210.627 177.319C210.677 177.321 210.581 177.261 210.545 177.251L210.681 176.919C210.681 176.919 211.251 175.28 208.213 175.827L208.143 175.801C207.921 175.941 207.85 176.049 208.177 176.278C207.734 176.183 208.089 176.42 207.937 176.429L207.903 176.413C208.209 176.618 207.559 176.574 207.834 176.767C207.803 176.755 207.679 176.718 207.682 176.692C207.713 176.789 207.785 176.923 207.525 176.861C207.538 177.072 207.347 177.309 207.723 177.541L207.653 177.514C207.907 177.659 207.669 177.615 207.787 177.735C207.753 177.729 207.734 177.728 207.72 177.724C207.972 177.876 207.704 177.958 207.801 178.054L207.632 178.012L207.63 178.177L207.681 178.129C208.141 178.275 207.356 178.165 207.631 178.358C207.542 178.446 208.544 178.825 208.288 178.876C208.492 178.988 207.945 178.734 208.094 178.855C207.853 178.794 207.953 178.778 207.753 178.748C207.852 178.855 207.472 178.807 207.61 178.94L207.419 178.893C207.73 179.107 207.106 179.055 207.415 179.222C207.535 179.389 206.83 179.154 207.163 179.386L206.892 179.367C206.833 179.413 207.193 179.49 207.054 179.522C206.894 179.475 206.904 179.566 206.763 179.49C206.471 179.561 207.044 179.873 206.569 179.941C206.87 180.064 206.663 180.105 206.888 180.2C206.749 180.17 206.816 180.38 206.546 180.197C206.524 180.179 206.531 180.169 206.585 180.18L206.403 180.116C206.022 180.129 206.544 180.362 206.463 180.451C206.532 180.435 206.525 180.391 206.646 180.454L206.595 180.544L206.443 180.48L206.312 180.599L206.511 180.629C206.391 180.674 206.056 180.607 206.31 180.764C206.451 180.84 206.59 180.766 206.631 180.857C206.472 180.919 206.237 181.006 206.145 181.108C206.366 181.156 206.347 181.185 206.385 181.23L206.194 181.182C206.422 181.378 205.762 181.117 205.94 181.299L205.81 181.252L206.199 181.391C206.541 181.606 205.792 181.348 206.267 181.613C206.247 181.558 206.693 181.701 206.59 181.742L206.412 181.675C206.438 181.721 206.515 181.749 206.469 181.763C206.374 181.715 206.202 181.681 206.225 181.74L206.005 181.643L206.317 181.827C206.1 181.849 206.317 182.027 206.049 181.993C206.049 181.993 205.878 182.116 206.155 182.229C205.988 182.15 205.901 182.219 205.698 182.141C205.885 182.234 206.017 182.4 205.793 182.39L205.771 182.372C205.508 182.494 205.987 182.757 205.682 182.848C205.906 182.9 205.761 182.954 206.047 183.007C206.282 183.247 205.395 183.159 206.247 183.449C206.274 183.537 206.019 183.484 205.962 183.511L205.92 183.481C205.953 183.643 205.953 183.686 205.9 183.783C205.968 183.859 206.375 183.976 206.25 184.042C206.097 183.966 206.119 184.014 206.109 184.05C206.091 184.018 206.031 183.999 205.914 184.017C205.963 184.038 205.99 184.053 206.012 184.07C205.997 184.066 205.99 184.065 205.971 184.063C206.013 184.136 206.065 184.142 206.095 184.119C206.119 184.13 206.152 184.135 206.197 184.139C205.976 184.145 206.165 184.315 205.888 184.245C205.905 184.441 206.154 184.643 206.219 184.818C206.074 184.798 205.955 184.728 205.912 184.674L205.937 184.792C205.734 184.734 205.835 184.7 205.805 184.657C205.442 184.69 206.065 185.003 205.726 185.066L205.878 185.142L205.848 185.141C205.934 185.164 206.044 185.228 206.059 185.255C205.874 185.229 205.65 185.146 205.643 185.217C205.455 185.228 205.685 185.405 205.759 185.502C205.802 185.471 205.896 185.508 205.952 185.542C205.949 185.58 205.764 185.553 205.836 185.603L205.594 185.542C205.823 185.592 205.813 185.701 205.91 185.742C205.725 185.715 205.77 185.647 205.64 185.6C205.623 185.75 205.631 185.679 205.614 185.828C205.772 185.955 205.847 185.875 206.046 185.967C206.074 186.047 206.224 186.161 206.057 186.197L206.275 186.228C206.406 186.401 206.36 186.47 206.122 186.498C207.6 187.913 208.435 187.333 208.435 187.333C209.006 187.083 208.437 186.726 208.395 186.235L208.403 186.248Z" fill="#333331"/>
<path d="M165.938 199.362L166 199.429C165.979 199.392 165.956 199.363 165.938 199.362Z" fill="#333331"/>
<path d="M168.214 201.612C168.214 201.612 168.222 201.626 168.22 201.633L168.209 201.615L168.214 201.612Z" fill="#333331"/>
<path d="M167.132 201.952C167.437 201.903 167.72 202.236 167.89 201.932C168.032 201.893 168.118 201.728 168.21 201.614C168.104 201.293 168.369 201.522 168.296 201.237L168.417 201.385C168.393 201.29 168.389 201.22 168.461 201.293L168.488 201.339C168.449 201.197 168.532 201.247 168.513 201.172L168.542 201.222L168.57 201.176L168.6 201.249C168.583 201.083 168.641 201.038 168.735 201.063L168.619 200.863C168.861 201.02 168.668 200.58 168.925 200.783L168.954 200.833C168.788 200.231 169.372 201.064 169.227 200.487C169.246 200.561 169.294 200.582 169.318 200.635C169.35 200.543 169.4 200.472 169.182 200.083C169.23 200.061 169.289 200.185 169.385 200.33C169.285 200.157 169.286 200.065 169.317 200.035L169.336 200.109L169.407 199.99L169.197 199.68C169.304 199.739 169.437 200.063 169.447 199.954L169.292 199.686C169.401 199.696 169.677 200.07 169.865 200.228C170.24 200.163 170.181 199.294 170.743 199.594L170.872 199.786C171.044 200.075 170.704 199.307 170.868 199.57L170.824 199.42C170.862 199.465 170.914 199.513 170.937 199.585C170.974 199.575 170.948 199.53 170.918 199.426L171.055 199.589C171.259 199.659 171.162 199.249 171.331 199.248C171.701 199.532 171.795 199.023 171.848 198.726C171.832 198.152 172.777 199.159 172.729 198.52C172.762 198.555 172.728 198.454 172.707 198.418L172.953 198.33C172.953 198.33 174.092 197.824 171.879 195.87L171.842 195.807C171.639 195.718 171.541 195.726 171.641 196.099C171.401 195.715 171.517 196.115 171.416 196.004L171.398 195.972C171.501 196.319 171.104 195.809 171.19 196.116C171.172 196.084 171.109 195.975 171.129 195.958C171.108 196.036 171.085 196.165 170.949 195.94C170.861 196.07 170.627 196.065 170.755 196.476L170.719 196.413C170.82 196.682 170.685 196.481 170.709 196.637C170.69 196.605 170.678 196.594 170.67 196.58C170.762 196.855 170.545 196.701 170.569 196.826L170.483 196.676L170.404 196.77L170.459 196.781C170.686 197.207 170.234 196.559 170.318 196.874C170.219 196.859 170.683 197.822 170.497 197.656C170.578 197.87 170.34 197.322 170.382 197.499C170.256 197.28 170.326 197.349 170.212 197.184C170.223 197.318 170.006 197.006 170.027 197.188L169.929 197.02C170.026 197.376 169.651 196.884 169.771 197.208C169.771 197.396 169.425 196.735 169.535 197.114L169.372 196.905C169.315 196.89 169.508 197.203 169.406 197.11C169.322 196.965 169.29 197.025 169.231 196.871C169.009 196.697 169.236 197.299 168.897 196.986C169.032 197.283 168.876 197.149 168.981 197.373C168.911 197.251 168.853 197.423 168.761 197.118C168.753 197.093 168.765 197.092 168.793 197.142L168.705 196.969C168.456 196.694 168.682 197.212 168.585 197.202C168.635 197.246 168.654 197.217 168.702 197.341L168.625 197.355L168.557 197.206L168.419 197.177L168.532 197.341C168.435 197.277 168.25 196.989 168.34 197.271C168.396 197.42 168.515 197.479 168.501 197.56C168.374 197.476 168.18 197.351 168.071 197.341C168.193 197.531 168.165 197.535 168.166 197.589L168.069 197.421C168.119 197.707 167.822 197.067 167.848 197.3L167.789 197.177L167.971 197.545C168.092 197.923 167.728 197.218 167.911 197.725C167.927 197.679 168.14 198.09 168.061 198.038L167.976 197.869C167.974 197.918 168.009 197.989 167.97 197.963C167.934 197.869 167.842 197.722 167.822 197.77L167.726 197.552L167.841 197.886C167.693 197.735 167.744 198.003 167.592 197.781C167.592 197.781 167.426 197.725 167.551 197.993C167.477 197.824 167.388 197.796 167.301 197.604C167.376 197.797 167.383 197.987 167.241 197.814L167.228 197.791C167.006 197.659 167.189 198.165 166.955 197.991C167.073 198.184 166.958 198.111 167.116 198.353C167.156 198.664 166.624 197.952 167.039 198.756C167.012 198.825 166.875 198.608 166.828 198.58L166.818 198.531C166.764 198.647 166.742 198.672 166.663 198.693C166.676 198.789 166.874 199.154 166.765 199.101C166.7 198.945 166.693 198.986 166.67 198.999C166.67 198.968 166.643 198.911 166.561 198.831C166.587 198.877 166.594 198.909 166.598 198.937C166.593 198.928 166.588 198.919 166.577 198.901C166.57 198.972 166.6 199.015 166.629 199.022C166.642 199.045 166.658 199.073 166.686 199.111C166.537 198.948 166.585 199.187 166.436 198.94C166.356 199.065 166.421 199.367 166.386 199.515C166.303 199.393 166.26 199.266 166.259 199.2L166.217 199.285C166.112 199.103 166.193 199.159 166.194 199.11C165.946 198.859 166.201 199.5 165.948 199.282L166.014 199.438L166.001 199.415C166.041 199.495 166.079 199.613 166.078 199.644C165.973 199.492 165.865 199.275 165.825 199.311C165.7 199.177 165.765 199.448 165.77 199.561C165.813 199.573 165.854 199.664 165.874 199.731C165.854 199.749 165.748 199.598 165.77 199.676L165.646 199.463C165.773 199.662 165.709 199.718 165.749 199.809C165.644 199.658 165.707 199.652 165.641 199.526C165.56 199.597 165.6 199.562 165.518 199.64C165.562 199.832 165.645 199.839 165.73 200.039C165.708 200.106 165.754 200.279 165.63 200.181L165.754 200.364C165.759 200.561 165.696 200.568 165.529 200.404C165.817 202.311 166.627 202.601 166.627 202.601C167.112 202.884 166.915 202.259 167.115 201.943L167.132 201.952Z" fill="#333331"/>
<path d="M170.119 206.59L170.182 206.657C170.161 206.62 170.138 206.591 170.119 206.59Z" fill="#333331"/>
<path d="M172.394 208.842C172.394 208.842 172.402 208.856 172.4 208.863L172.389 208.845L172.394 208.842Z" fill="#333331"/>
<path d="M171.312 209.18C171.617 209.131 171.9 209.465 172.07 209.161C172.212 209.121 172.294 208.959 172.39 208.843C172.284 208.522 172.549 208.751 172.476 208.466L172.597 208.614C172.573 208.519 172.569 208.448 172.641 208.522L172.668 208.567C172.629 208.426 172.711 208.475 172.693 208.401L172.722 208.451L172.75 208.405L172.78 208.478C172.763 208.312 172.821 208.266 172.915 208.291L172.799 208.091C173.041 208.248 172.848 207.808 173.105 208.012L173.134 208.062C172.964 207.463 173.552 208.293 173.407 207.716C173.426 207.79 173.474 207.811 173.498 207.863C173.53 207.772 173.58 207.701 173.357 207.314C173.405 207.293 173.464 207.416 173.56 207.561C173.46 207.388 173.462 207.296 173.493 207.266L173.511 207.34L173.582 207.221L173.373 206.911C173.48 206.97 173.612 207.294 173.622 207.185L173.467 206.917C173.576 206.927 173.853 207.301 174.041 207.459C174.416 207.394 174.357 206.525 174.918 206.825L175.047 207.017C175.22 207.306 174.875 206.541 175.044 206.801L174.999 206.651C175.037 206.696 175.09 206.744 175.113 206.816C175.152 206.811 175.123 206.761 175.096 206.662L175.233 206.825C175.437 206.895 175.34 206.485 175.509 206.484C175.879 206.768 175.973 206.258 176.026 205.961C176.01 205.388 176.955 206.395 176.908 205.755C176.94 205.791 176.906 205.69 176.885 205.653L177.131 205.565C177.131 205.565 178.266 205.062 176.057 203.106L176.02 203.042C175.817 202.953 175.719 202.962 175.824 203.332C175.584 202.948 175.7 203.348 175.599 203.237L175.581 203.205C175.681 203.547 175.286 203.042 175.373 203.349C175.355 203.317 175.291 203.208 175.312 203.191C175.29 203.27 175.268 203.398 175.132 203.173C175.043 203.303 174.81 203.298 174.938 203.709L174.901 203.646C175.002 203.915 174.868 203.714 174.891 203.87C174.873 203.838 174.86 203.827 174.853 203.813C174.944 204.088 174.728 203.934 174.752 204.059L174.665 203.909L174.586 204.003L174.641 204.014C174.869 204.44 174.416 203.793 174.501 204.107C174.401 204.092 174.866 205.055 174.68 204.889C174.761 205.103 174.523 204.555 174.564 204.732C174.438 204.513 174.508 204.582 174.395 204.417C174.405 204.551 174.189 204.239 174.209 204.421L174.112 204.253C174.209 204.61 173.833 204.117 173.954 204.441C173.953 204.63 173.608 203.968 173.718 204.347L173.555 204.138C173.497 204.123 173.69 204.436 173.588 204.343C173.504 204.198 173.472 204.259 173.414 204.104C173.192 203.93 173.418 204.532 173.08 204.219C173.215 204.516 173.059 204.382 173.164 204.606C173.093 204.484 173.035 204.656 172.944 204.351C172.935 204.326 172.947 204.325 172.976 204.375L172.888 204.202C172.639 203.928 172.865 204.446 172.768 204.435C172.818 204.479 172.837 204.45 172.884 204.574L172.808 204.588L172.74 204.439L172.602 204.41L172.715 204.575C172.617 204.51 172.433 204.222 172.523 204.504C172.579 204.653 172.697 204.712 172.683 204.793C172.556 204.709 172.363 204.584 172.254 204.574C172.376 204.764 172.348 204.768 172.349 204.822L172.252 204.654C172.302 204.941 172.005 204.3 172.03 204.533L171.971 204.41L172.153 204.778C172.275 205.156 171.91 204.451 172.093 204.958C172.11 204.912 172.322 205.323 172.244 205.271L172.159 205.102C172.157 205.151 172.192 205.222 172.153 205.196C172.116 205.102 172.025 204.955 172.004 205.003L171.909 204.785L172.023 205.12C171.875 204.968 171.927 205.236 171.775 205.014C171.775 205.014 171.609 204.959 171.733 205.226C171.66 205.057 171.571 205.029 171.484 204.837C171.559 205.03 171.566 205.22 171.424 205.047L171.411 205.025C171.189 204.892 171.372 205.399 171.138 205.224C171.255 205.417 171.14 205.344 171.298 205.587C171.338 205.897 170.806 205.186 171.221 205.989C171.195 206.058 171.057 205.841 171.011 205.813L171.001 205.764C170.947 205.88 170.925 205.905 170.846 205.927C170.859 206.022 171.057 206.387 170.948 206.334C170.882 206.178 170.875 206.219 170.853 206.232C170.853 206.201 170.826 206.144 170.744 206.064C170.77 206.11 170.777 206.142 170.781 206.17C170.773 206.157 170.77 206.152 170.76 206.134C170.752 206.205 170.783 206.248 170.812 206.256C170.825 206.278 170.84 206.306 170.869 206.344C170.72 206.181 170.767 206.421 170.618 206.173C170.539 206.298 170.604 206.6 170.568 206.748C170.486 206.626 170.443 206.499 170.441 206.433L170.399 206.518C170.294 206.336 170.375 206.392 170.377 206.343C170.129 206.092 170.384 206.733 170.131 206.515L170.197 206.671L170.184 206.649C170.224 206.728 170.261 206.846 170.261 206.877C170.155 206.726 170.048 206.508 170.008 206.544C169.882 206.41 169.948 206.681 169.952 206.794C169.995 206.806 170.036 206.897 170.057 206.964C170.036 206.982 169.931 206.831 169.952 206.909L169.829 206.696C169.951 206.898 169.891 206.951 169.932 207.042C169.826 206.891 169.89 206.885 169.823 206.76C169.743 206.83 169.783 206.795 169.705 206.87C169.75 207.063 169.832 207.07 169.917 207.269C169.895 207.336 169.941 207.51 169.818 207.412L169.941 207.595C169.946 207.792 169.883 207.798 169.716 207.634C170.004 209.541 170.814 209.831 170.814 209.831C171.3 210.115 171.102 209.489 171.302 209.174L171.312 209.18Z" fill="#333331"/>
<path d="M169.014 206.236L169.108 206.23C169.065 206.219 169.029 206.221 169.014 206.236Z" fill="#333331"/>
<path d="M170.972 198.815C170.972 198.815 170.967 198.806 170.952 198.802C170.957 198.811 170.96 198.816 170.972 198.815Z" fill="#333331"/>
<path d="M172.304 205.896C172.309 205.906 172.316 205.908 172.324 205.91L172.304 205.896Z" fill="#333331"/>
<path d="M171.662 207.328C171.875 206.962 172.316 206.969 172.256 206.518C172.344 206.334 172.302 206.104 172.303 205.897C172.008 205.722 172.366 205.649 172.122 205.468L172.316 205.477C172.232 205.417 172.184 205.354 172.289 205.347L172.342 205.365C172.216 205.274 172.315 205.235 172.258 205.189L172.311 205.207L172.304 205.132L172.377 205.163C172.256 205.027 172.271 204.927 172.363 204.856L172.139 204.804C172.435 204.687 171.995 204.492 172.334 204.406L172.387 204.424C171.859 204.056 172.874 204.197 172.377 203.829C172.438 203.873 172.491 203.848 172.548 203.864C172.511 203.746 172.511 203.631 172.073 203.514C172.1 203.444 172.225 203.493 172.396 203.527C172.205 203.48 172.144 203.394 172.149 203.33L172.218 203.376L172.198 203.193L171.831 203.126C171.955 203.067 172.275 203.222 172.211 203.113L171.913 203.036C172.003 202.93 172.474 202.979 172.723 202.927C172.978 202.476 172.361 201.753 173.005 201.442L173.233 201.48C173.563 201.556 172.783 201.225 173.088 201.291L172.955 201.198C173.017 201.199 173.086 201.183 173.155 201.228C173.183 201.182 173.125 201.166 173.037 201.108L173.256 201.109C173.466 200.958 173.118 200.692 173.251 200.512C173.727 200.382 173.473 199.826 173.317 199.503C172.927 199.007 174.341 198.924 173.886 198.399C173.936 198.401 173.84 198.34 173.804 198.331L173.94 197.998C173.94 197.998 174.509 196.36 171.472 196.907L171.402 196.88C171.18 197.021 171.109 197.128 171.436 197.358C170.992 197.262 171.348 197.5 171.195 197.509L171.162 197.492C171.468 197.697 170.818 197.654 171.093 197.847C171.062 197.835 170.938 197.797 170.941 197.771C170.972 197.868 171.044 198.003 170.784 197.941C170.796 198.152 170.606 198.389 170.982 198.62L170.912 198.594C171.166 198.739 170.928 198.694 171.046 198.814C171.012 198.809 170.993 198.808 170.979 198.804C171.231 198.956 170.963 199.038 171.06 199.133L170.89 199.092L170.889 199.256L170.94 199.209C171.4 199.355 170.615 199.245 170.89 199.437C170.801 199.525 171.803 199.905 171.547 199.955C171.751 200.068 171.204 199.814 171.353 199.934C171.111 199.873 171.212 199.858 171.012 199.828C171.11 199.935 170.731 199.887 170.869 200.02L170.677 199.972C170.989 200.187 170.365 200.135 170.674 200.302C170.794 200.469 170.089 200.234 170.422 200.465L170.151 200.446C170.092 200.492 170.452 200.569 170.313 200.601C170.152 200.554 170.163 200.646 170.022 200.569C169.73 200.641 170.303 200.952 169.828 201.021C170.129 201.144 169.922 201.185 170.147 201.279C170.008 201.25 170.075 201.46 169.805 201.276C169.783 201.259 169.79 201.249 169.844 201.26L169.662 201.196C169.281 201.209 169.803 201.441 169.722 201.531C169.791 201.515 169.784 201.47 169.905 201.534L169.854 201.624L169.702 201.56L169.571 201.679L169.77 201.709C169.65 201.754 169.315 201.687 169.569 201.843C169.71 201.92 169.849 201.845 169.89 201.937C169.731 201.998 169.496 202.085 169.404 202.187C169.625 202.235 169.606 202.265 169.644 202.309L169.453 202.262C169.681 202.458 169.021 202.196 169.199 202.378L169.069 202.332L169.458 202.471C169.8 202.686 169.051 202.427 169.526 202.693C169.51 202.635 169.952 202.78 169.849 202.822L169.67 202.755C169.697 202.8 169.774 202.828 169.728 202.843C169.633 202.795 169.461 202.76 169.484 202.82L169.264 202.723L169.576 202.906C169.359 202.929 169.576 203.106 169.308 203.073C169.308 203.073 169.137 203.196 169.414 203.309C169.247 203.229 169.16 203.298 168.957 203.221C169.144 203.313 169.276 203.479 169.052 203.469L169.03 203.452C168.767 203.573 169.246 203.836 168.941 203.928C169.165 203.98 169.02 204.033 169.306 204.087C169.541 204.327 168.654 204.239 169.506 204.529C169.533 204.617 169.278 204.564 169.221 204.591L169.179 204.56C169.212 204.723 169.212 204.765 169.159 204.863C169.227 204.938 169.634 205.055 169.509 205.121C169.356 205.046 169.378 205.094 169.368 205.13C169.35 205.098 169.29 205.078 169.173 205.097C169.222 205.118 169.248 205.132 169.271 205.15C169.256 205.146 169.249 205.144 169.23 205.143C169.272 205.216 169.324 205.222 169.354 205.199C169.378 205.209 169.411 205.214 169.456 205.219C169.235 205.225 169.424 205.395 169.147 205.324C169.164 205.521 169.413 205.722 169.478 205.897C169.333 205.878 169.214 205.807 169.17 205.753L169.196 205.872C168.993 205.813 169.094 205.779 169.064 205.736C168.701 205.77 169.324 206.083 168.985 206.146L169.137 206.221L169.107 206.221C169.193 206.244 169.303 206.308 169.318 206.335C169.133 206.308 168.909 206.225 168.902 206.296C168.714 206.308 168.944 206.485 169.018 206.581C169.061 206.55 169.155 206.587 169.211 206.621C169.208 206.659 169.023 206.633 169.094 206.682L168.853 206.622C169.082 206.671 169.072 206.78 169.169 206.822C168.984 206.795 169.029 206.726 168.899 206.68C168.882 206.829 168.894 206.756 168.873 206.908C169.031 207.034 169.106 206.955 169.304 207.046C169.333 207.127 169.483 207.24 169.316 207.276L169.534 207.308C169.665 207.481 169.619 207.55 169.381 207.578C170.859 208.992 171.694 208.413 171.694 208.413C172.265 208.162 171.696 207.806 171.654 207.314L171.662 207.328Z" fill="#333331"/>
</svg>
