<svg width="627" height="545" viewBox="0 0 627 545" fill="none" xmlns="http://www.w3.org/2000/svg">
<path d="M544.935 398.588C544.934 398.589 544.933 398.588 544.933 398.587C549.265 358.481 522.91 338.794 484.382 316.947C446.53 295.484 416.328 260.725 400.877 220.144C384.73 177.75 386.744 127.238 353.619 92.5445C337.445 75.5923 315.543 65.0743 293.463 57.966C270.741 50.6329 245.987 47.0947 222.368 52.0252C197.813 57.1454 179.932 73.063 165.197 92.4468C148.301 114.675 132.086 137.438 115.572 159.948C98.956 182.589 82.3347 205.246 65.7356 227.893C50.9835 248.009 32.5723 268.71 27.4159 293.814C18.2986 338.291 49.2146 381.187 88.1509 399.927C134.74 422.345 187.567 417.785 237.628 415.266C265.103 413.885 292.522 413.61 319.656 418.74C345.591 423.652 370.76 431.751 396.359 438.097C424.919 445.167 526.063 462.522 539.388 422.697C542.327 413.886 544.147 405.901 544.937 398.588C544.937 398.587 544.935 398.587 544.935 398.588Z" fill="#F5C84E"/>
<path d="M250.341 112.747L250.169 112.755C250.232 112.79 250.29 112.799 250.341 112.747Z" fill="#333331"/>
<path d="M244.67 112.126C244.67 112.126 244.657 112.098 244.65 112.088L244.662 112.125L244.67 112.126Z" fill="#333331"/>
<path d="M246.651 109.874C246.395 110.204 246.1 110.338 245.823 110.467C245.562 110.607 245.359 110.756 245.24 111.14C245.115 111.284 245.023 111.441 244.929 111.607C244.835 111.772 244.77 111.968 244.662 112.114C244.912 112.607 244.344 112.459 244.471 112.916L244.216 112.731C244.26 112.892 244.256 113.029 244.106 112.946L244.058 112.87C244.122 113.12 243.948 113.084 243.965 113.198L243.916 113.122L243.833 113.221L243.782 113.102C243.772 113.391 243.622 113.531 243.42 113.509L243.612 113.821C243.105 113.606 243.327 114.394 242.824 114.043L242.793 113.961C242.792 114.475 242.569 114.415 242.368 114.273C242.165 114.147 241.997 114.01 241.894 114.517C241.912 114.4 241.836 114.337 241.824 114.249C241.668 114.371 241.492 114.455 241.57 115.179C241.422 115.19 241.421 114.976 241.378 114.695C241.414 115.018 241.299 115.154 241.184 115.179L241.228 115.058L240.902 115.17L240.982 115.765C240.785 115.598 240.931 115.038 240.754 115.19L240.746 115.686C240.479 115.585 240.377 114.798 240.228 114.424C240.024 114.359 239.816 114.318 239.57 114.358C239.328 114.372 239.078 114.385 238.835 114.399C238.593 114.362 238.339 114.34 238.135 114.215C237.943 114.074 237.773 113.893 237.744 113.58L237.939 113.259C238.272 112.822 237.264 113.747 237.552 113.328L237.309 113.454C237.349 113.365 237.375 113.249 237.495 113.191C237.437 113.122 237.378 113.173 237.221 113.251L237.381 112.933C237.347 112.705 237.155 112.676 236.958 112.62C236.762 112.556 236.548 112.497 236.466 112.304C236.607 111.889 236.424 111.63 236.155 111.374C236.021 111.242 235.849 111.13 235.678 111.018C235.516 110.899 235.353 110.788 235.214 110.69C234.938 110.588 234.851 110.377 234.86 110.147C234.87 109.917 234.935 109.662 235.06 109.407C235.166 109.157 235.272 108.916 235.287 108.705C235.321 108.487 235.256 108.297 234.99 108.128C235.064 108.096 234.883 108.043 234.822 108.05C234.827 107.794 234.849 107.54 234.853 107.293C234.853 107.293 234.853 107.233 234.841 107.145C234.838 107.05 234.833 106.921 234.814 106.764C234.757 106.464 234.67 106.082 234.463 105.759C234.238 105.433 233.87 105.154 233.259 105.111C232.656 105.079 231.77 105.268 230.568 106.172L230.454 106.138C230.16 106.71 230.055 107.113 230.691 107.494C229.965 107.588 230.642 107.983 230.414 108.128L230.355 108.119C230.926 108.421 229.974 108.926 230.523 109.207C230.464 109.198 230.262 109.227 230.24 109.147C230.366 109.389 230.583 109.705 230.174 109.805C230.299 110.107 230.362 110.477 230.492 110.805C230.639 111.128 230.854 111.4 231.237 111.476L231.115 111.492C231.62 111.552 231.256 111.745 231.575 111.897C231.527 111.932 231.506 111.955 231.488 111.96C232.003 112.014 231.831 112.579 232.08 112.685L231.828 112.818C231.919 112.952 232.018 113.087 232.109 113.221L232.077 113.036C232.793 112.726 231.821 113.588 232.428 113.656C232.519 114.012 234.148 113.337 233.984 113.792C234.366 113.705 233.426 114.023 233.781 114.052C233.453 114.293 233.515 114.114 233.282 114.344C233.562 114.421 233.188 114.903 233.581 114.964L233.343 115.176C234.022 115.108 233.513 116.024 234.108 115.833C234.573 115.93 233.648 116.705 234.39 116.562L234.247 116.994C234.356 117.174 234.688 116.685 234.721 116.972C234.544 117.177 234.798 117.31 234.539 117.433C234.6 117.759 234.894 117.804 235.195 117.851C235.495 117.905 235.764 117.998 235.878 118.478C236.256 118.082 236.405 118.508 236.676 118.198C236.592 118.408 237.252 118.518 236.711 118.803C236.666 118.822 236.619 118.789 236.656 118.718L236.487 118.983C236.607 119.704 237.277 118.967 237.589 119.169C237.515 119.038 237.364 119.015 237.528 118.843L237.839 118.993L237.693 119.219C237.849 119.32 237.994 119.437 238.161 119.523L238.177 119.191C238.375 119.41 238.35 119.963 238.743 119.578C238.923 119.357 238.602 119.102 238.883 119.059C239.154 119.358 239.625 119.756 240.076 119.885C240.064 119.515 240.18 119.541 240.302 119.474L240.296 119.79C240.778 119.384 240.453 120.5 240.944 120.147L240.91 120.373L241.021 119.704C241.411 119.062 241.29 120.354 241.697 119.483C241.517 119.541 241.562 118.802 241.785 118.913L241.762 119.227C241.877 119.15 241.898 119.016 241.985 119.064C241.932 119.236 242.001 119.512 242.168 119.435L242.089 119.834C242.18 119.634 242.272 119.425 242.354 119.224C242.67 119.512 243 119.04 243.19 119.42C243.19 119.42 243.807 119.472 243.787 118.989C243.765 119.303 244.096 119.32 244.119 119.674C244.173 119.323 244.468 118.905 244.762 119.173L244.754 119.223C245.527 119.325 245.535 118.323 246.244 118.449C246.042 118.144 246.398 118.173 246.095 117.801C246.294 117.12 247.518 118.019 246.809 116.72C246.944 116.509 247.241 116.811 247.391 116.783L247.393 116.878C247.685 116.485 247.783 116.406 248.049 116.181C248.083 115.955 247.629 115.457 247.942 115.368C248.065 115.627 248.118 115.507 248.191 115.423C248.178 115.507 248.225 115.591 248.462 115.611C248.414 115.535 248.405 115.482 248.396 115.429C248.411 115.44 248.426 115.451 248.449 115.472C248.506 115.266 248.417 115.235 248.342 115.275C248.312 115.245 248.274 115.213 248.202 115.185C248.582 115.278 248.531 114.773 248.891 115.051C249.189 114.557 249.027 113.941 249.131 113.485C249.356 113.58 249.472 113.778 249.464 113.939L249.581 113.623C249.861 113.812 249.635 113.888 249.633 114.008C250.339 113.988 249.618 113.046 250.273 112.915L250.083 112.698L250.133 112.705C250.008 112.626 249.89 112.445 249.885 112.367C250.172 112.454 250.494 112.701 250.578 112.491C250.909 112.456 250.675 111.966 250.623 111.692C250.524 111.78 250.394 111.674 250.322 111.586C250.363 111.489 250.653 111.551 250.579 111.42L250.95 111.571C250.589 111.464 250.69 111.145 250.551 111.047C250.852 111.093 250.725 111.305 250.923 111.413C251.048 110.986 250.982 111.199 251.108 110.764C250.909 110.442 250.737 110.673 250.445 110.448C250.444 110.234 250.253 109.973 250.54 109.829L250.186 109.791C250.021 109.363 250.117 109.181 250.533 109.039C249.983 108.209 249.432 107.782 248.962 107.547C248.493 107.312 248.09 107.259 247.766 107.303C247.115 107.358 246.783 107.675 246.783 107.675C245.86 108.219 246.763 108.812 246.644 109.813L246.651 109.874Z" fill="#333331"/>
<path d="M225.78 78.6196C226.389 78.2845 225.554 77.8566 225.657 77.581L225.718 77.5732C225.337 77.4291 225.308 77.1162 225.246 76.7981C225.182 76.4883 225.115 76.1439 224.75 76.0622C224.804 76.0448 224.974 75.9423 225.062 76.0415C224.729 75.7505 224.25 75.4114 224.526 75.1195C223.884 74.4984 222.968 73.6551 222.152 73.6155C222.02 73.4153 221.795 73.3722 221.573 73.3639C221.378 73.3511 221.178 73.3718 220.994 73.3435L220.996 73.3268C220.98 73.3242 220.97 73.3313 220.952 73.3371C220.868 73.3242 220.794 73.3043 220.715 73.258C220.751 73.3062 220.789 73.3378 220.819 73.368C220.678 73.3893 220.536 73.3675 220.406 73.3218L220.557 73.1737C220.332 73.0192 220.105 72.8815 219.866 72.7592L219.868 73.085C219.564 72.8327 219.558 72.2577 219.019 72.5863C218.961 72.6288 218.945 72.6778 218.954 72.7306C218.92 72.7254 218.887 72.7203 218.853 72.7151L218.958 72.757C218.978 72.8542 219.049 72.9508 219.031 73.0081C218.839 73.2013 218.602 72.4538 218.141 72.6143C217.8 72.4335 217.422 72.2726 217.055 72.2077C217.104 72.558 216.927 72.5394 216.753 72.6071L216.731 72.3038C216.04 72.729 216.45 71.6264 215.747 72.0156L215.664 72.4484C215.134 73.1041 215.222 71.8664 214.685 72.7952C214.804 72.7449 214.867 72.8917 214.861 73.045C214.78 73.0669 214.702 73.0721 214.617 73.0676L214.62 73.0509C214.62 73.0509 214.602 73.0567 214.601 73.065C214.55 73.0573 214.506 73.0677 214.456 73.06C214.405 73.0522 214.354 73.0529 214.294 73.0523C214.259 72.9441 214.159 72.8688 214 72.9558L214.079 72.5565C213.959 72.7781 213.839 72.9996 213.738 73.2154C213.528 73.1318 213.336 73.2052 213.152 73.2884C213.026 73.2176 212.906 73.2163 212.788 73.4295C212.692 73.4405 212.6 73.4264 212.518 73.3453C212.518 73.3453 212.455 73.3614 212.374 73.3917L212.278 73.3428C212.205 73.3744 212.172 73.4207 212.163 73.4793C212.135 73.4922 212.117 73.498 212.09 73.5109C211.967 73.5863 211.85 73.6797 211.772 73.7963C211.651 73.8034 211.535 73.8286 211.546 73.6502C211.458 73.6625 211.385 73.6941 211.31 73.734C211.256 73.6915 211.213 73.642 211.193 73.5447C211.178 73.6452 211.15 73.7695 211.099 73.8816C210.96 74.0059 210.841 74.1676 210.72 74.3376C210.607 74.4059 210.489 74.4478 210.365 74.4202L210.374 74.3616C209.876 74.5337 209.635 74.9337 209.425 75.2956C209.241 75.6016 209.09 75.9127 208.782 76.1311C208.376 76.2143 208.313 76.5131 208.302 76.8029C208.291 77.101 208.345 77.4179 208.196 77.6607C208.341 77.5544 208.409 77.3934 208.509 77.5202C208.409 77.6162 208.301 77.7025 208.211 77.7914C208.19 77.8139 208.169 77.8365 208.149 77.859L208.119 77.8288C207.965 78.0536 207.827 78.2809 207.705 78.5192L208.031 78.5178C207.778 78.8219 207.203 78.8279 207.532 79.3667C207.59 79.4356 207.648 79.4446 207.711 79.4285C207.646 79.7956 207.596 80.0107 207.524 80.3082C207.355 80.6335 207.214 80.989 207.153 81.3309C207.434 81.2883 207.477 81.3978 207.524 81.542C207.495 81.5633 207.464 81.5929 207.424 81.6296C207.424 81.6296 207.432 81.6393 207.44 81.6406L207.249 81.6542C207.675 82.345 206.572 81.9358 206.961 82.6382L207.394 82.7218C207.394 82.7218 207.446 82.7726 207.469 82.7932C207.495 82.9001 207.531 82.9999 207.559 83.0984C207.448 83.2614 207.126 83.3491 207.741 83.7005C207.722 83.6547 207.737 83.6142 207.767 83.5845C207.861 83.7532 207.957 83.9135 208.053 84.0655C207.913 84.0868 207.811 84.1911 207.903 84.3766L207.503 84.2981C207.725 84.4178 207.947 84.5375 208.162 84.6392C208.146 84.6881 208.14 84.73 208.142 84.7731C208.079 84.7378 208.008 84.6927 207.959 84.6251L208.188 85.0887C207.881 85.1873 207.923 84.8595 207.815 84.723C207.664 85.094 207.867 85.3908 208.128 85.6451C208.187 85.7056 208.247 85.7661 208.306 85.8266C208.306 85.8266 208.305 85.835 208.303 85.8433C208.303 85.8433 208.356 86.0571 208.469 86.2715C208.51 86.3378 208.553 86.3958 208.604 86.455C208.606 86.4981 208.617 86.5342 208.618 86.5857L208.771 86.5921C208.81 86.6152 208.859 86.6313 208.901 86.6377L208.899 86.6545C208.899 86.6545 208.925 86.65 208.943 86.6442C208.968 86.648 208.993 86.6519 209.018 86.6557C208.684 86.6559 208.854 87.1104 208.503 87.1679C208.655 87.1826 208.834 87.2444 208.99 87.3454C208.956 87.5631 209.153 87.7304 209.383 87.8514C209.394 87.8959 209.394 87.9474 209.38 87.9879L209.321 87.979C209.493 88.4767 209.893 88.718 210.255 88.9278C210.624 89.1473 210.994 89.3068 211.209 89.7511C211.383 89.4522 211.654 89.8623 211.814 89.4327C212.292 89.506 212.499 89.8891 212.743 90.1408C212.977 90.3995 213.236 90.4993 213.658 89.9299C214.032 90.0044 213.944 90.4108 214.121 90.5408L214.003 90.5827C214.748 90.697 214.946 90.753 215.474 90.8855C215.769 90.8023 215.905 90.1976 216.329 90.3912C216.156 90.6302 216.349 90.5999 216.518 90.6172C216.402 90.6424 216.353 90.7377 216.573 90.9256C216.611 90.8458 216.669 90.8032 216.717 90.7678C216.715 90.7846 216.729 90.8039 216.717 90.8277C216.753 90.8161 216.771 90.8103 216.798 90.7974C217.041 91.006 217.334 91.2139 217.7 91.3985L217.665 91.5132C218.65 91.6899 219.333 91.5377 219.762 90.8066C220.097 91.415 220.517 90.5797 220.801 90.6833L220.809 90.7444C220.953 90.3638 221.266 90.3347 221.584 90.2721C221.894 90.2083 222.238 90.1412 222.32 89.7767C222.337 89.8308 222.44 90.0007 222.34 90.0884C222.631 89.756 222.971 89.2767 223.262 89.5529C223.976 88.814 225.003 87.7035 224.727 86.8214L224.806 86.9192C224.588 86.3887 224.993 86.4851 224.944 86.0234C225.002 86.0324 225.04 86.0124 225.055 86.0234C224.834 85.5096 225.39 84.9607 225.299 84.604L225.567 84.6451C225.604 84.4024 225.635 84.1416 225.666 83.8891L225.556 84.1551C224.854 83.9274 226.136 83.67 225.702 83.0378C225.784 82.7847 225.398 82.5028 225.042 82.2595C225.251 82.1203 225.468 81.9393 225.678 81.6887C225.915 81.4253 226.164 81.0865 226.375 80.6646L226.489 80.6993C226.666 79.7153 226.514 79.0321 225.783 78.6029L225.78 78.6196Z" fill="#333331"/>
<path d="M216.575 79.9152C216.828 79.7741 216.486 79.6016 216.521 79.487L216.546 79.4908C216.393 79.4246 216.378 79.3022 216.355 79.1702C216.331 79.0466 216.302 78.9049 216.153 78.865C216.18 78.8605 216.247 78.8109 216.283 78.8592C216.148 78.7356 215.954 78.603 216.066 78.4832C215.805 78.2289 215.43 77.8801 215.099 77.8634C215.043 77.7778 214.951 77.7637 214.858 77.7579C214.781 77.7547 214.695 77.7586 214.62 77.747C214.62 77.747 214.611 77.7458 214.603 77.7445C214.569 77.7393 214.536 77.7342 214.505 77.7123C214.519 77.7316 214.535 77.7426 214.549 77.7619C214.488 77.7696 214.437 77.7619 214.381 77.7362L214.442 77.6769C214.349 77.6113 214.255 77.554 214.16 77.5051L214.166 77.6345C214.044 77.5303 214.037 77.2978 213.82 77.4273C213.8 77.4498 213.789 77.4653 213.795 77.4833C213.778 77.4808 213.769 77.4795 213.753 77.4769L213.795 77.4833C213.804 77.5361 213.832 77.5748 213.82 77.5986C213.739 77.6804 213.64 77.3739 213.458 77.4403C213.315 77.367 213.163 77.3007 213.012 77.2776C213.033 77.4179 212.957 77.4147 212.885 77.4379L212.877 77.3169C212.594 77.4876 212.757 77.0413 212.475 77.2037L212.448 77.3795C212.227 77.6455 212.262 77.1368 212.04 77.5226C212.094 77.5052 212.112 77.5593 212.11 77.6275C212.074 77.6392 212.04 77.634 212.014 77.6385C211.997 77.636 211.972 77.6321 211.955 77.6295C211.93 77.6257 211.913 77.6231 211.888 77.6193C211.87 77.5735 211.832 77.542 211.767 77.5749L211.792 77.4074C211.752 77.504 211.704 77.591 211.656 77.6779C211.567 77.6471 211.495 77.6703 211.42 77.7102C211.364 77.6845 211.322 77.6781 211.266 77.7637C211.231 77.767 211.19 77.7605 211.16 77.7303C211.16 77.7303 211.134 77.7348 211.098 77.7464L211.058 77.7232C211.058 77.7232 211.02 77.7516 211.016 77.7767C211.007 77.7754 210.998 77.7825 210.988 77.7896C210.941 77.8166 210.891 77.8604 210.859 77.9068C210.807 77.9075 210.763 77.9178 210.765 77.8496C210.73 77.8528 210.702 77.8657 210.665 77.8856C210.641 77.8734 210.628 77.8457 210.616 77.8097C210.61 77.8515 210.602 77.9018 210.578 77.9494C210.519 78.0003 210.474 78.0705 210.42 78.1394C210.373 78.1665 210.327 78.1852 210.277 78.1775L210.281 78.1524C210.073 78.2233 209.979 78.3888 209.888 78.5376C209.809 78.6626 209.755 78.7914 209.621 78.8822C209.453 78.9164 209.425 79.0407 209.424 79.1605C209.422 79.2802 209.437 79.411 209.378 79.5134C209.436 79.4709 209.463 79.4064 209.507 79.456C209.467 79.4927 209.419 79.5282 209.387 79.5662C209.386 79.5746 209.368 79.5804 209.357 79.5958L209.34 79.5932C209.277 79.6692 209.22 79.7633 209.17 79.867L209.299 79.8611C209.195 79.9822 208.962 79.9894 209.092 80.2064C209.113 80.2353 209.138 80.2392 209.165 80.2347C209.141 80.3854 209.119 80.4762 209.091 80.6005C209.019 80.7351 208.963 80.8806 208.941 81.023C209.055 81.0062 209.075 81.0435 209.091 81.106C209.081 81.1131 209.07 81.1285 209.051 81.1427L208.973 81.1479C209.144 81.4312 208.697 81.2684 208.86 81.5504L209.036 81.5774C209.036 81.5774 209.057 81.6063 209.064 81.616C209.074 81.6604 209.086 81.6965 209.105 81.7422C209.06 81.8124 208.926 81.8434 209.177 81.9933C209.172 81.9753 209.183 81.9598 209.185 81.9431C209.226 82.0094 209.258 82.0828 209.301 82.1407C209.248 82.1498 209.198 82.1936 209.238 82.2683L209.071 82.2426C209.167 82.2831 209.254 82.3307 209.341 82.3783C209.339 82.3951 209.335 82.4202 209.332 82.4369C209.308 82.4247 209.277 82.4028 209.256 82.3739L209.346 82.5677C209.22 82.6083 209.241 82.4743 209.19 82.4151C209.124 82.5677 209.207 82.692 209.32 82.795C209.341 82.824 209.372 82.8458 209.394 82.8748C209.394 82.8748 209.414 82.9637 209.461 83.048C209.474 83.0757 209.497 83.0963 209.518 83.1252C209.515 83.142 209.521 83.16 209.527 83.178L209.586 83.187C209.586 83.187 209.619 83.1922 209.644 83.196C209.644 83.196 209.653 83.1973 209.661 83.1986C209.669 83.1999 209.678 83.2012 209.694 83.2037C209.558 83.1999 209.623 83.3899 209.483 83.4112C209.541 83.4202 209.615 83.4401 209.685 83.4852C209.671 83.5772 209.747 83.6403 209.851 83.6905C209.849 83.7073 209.854 83.7253 209.842 83.7491L209.817 83.7453C209.888 83.9532 210.053 84.0472 210.202 84.1386C210.351 84.23 210.504 84.2962 210.597 84.4733C210.667 84.3471 210.778 84.5183 210.847 84.3489C211.04 84.3785 211.127 84.5375 211.231 84.6392C211.326 84.748 211.431 84.7898 211.604 84.5509C211.755 84.574 211.72 84.7485 211.797 84.8032L211.751 84.8219C212.053 84.8682 212.135 84.8894 212.349 84.9479C212.474 84.9157 212.521 84.6658 212.697 84.7443C212.622 84.8441 212.701 84.8306 212.778 84.8338C212.733 84.8441 212.71 84.8834 212.802 84.9574C212.815 84.9252 212.843 84.9123 212.862 84.8981C212.862 84.8981 212.86 84.9149 212.858 84.9232C212.875 84.9258 212.876 84.9174 212.895 84.9116C212.993 84.9953 213.117 85.0828 213.26 85.1562L213.252 85.2065C213.653 85.2765 213.928 85.2159 214.102 84.917C214.243 85.17 214.416 84.828 214.53 84.8628L214.526 84.8879C214.593 84.7352 214.715 84.7197 214.847 84.6971C214.971 84.6733 215.112 84.6436 215.152 84.4955C215.157 84.5219 215.206 84.5895 215.158 84.6249C215.282 84.4896 215.414 84.2958 215.534 84.4084C215.828 84.1108 216.25 83.6528 216.135 83.2838L216.164 83.3225C216.077 83.1036 216.242 83.146 216.22 82.9541C216.245 82.958 216.255 82.9509 216.262 82.9605C216.166 82.7487 216.397 82.5271 216.36 82.3758L216.469 82.3925C216.484 82.292 216.5 82.1916 216.517 82.0827L216.473 82.1961C216.188 82.1009 216.709 82.0009 216.535 81.7427C216.568 81.6365 216.406 81.5174 216.266 81.4273C216.351 81.3719 216.441 81.2914 216.525 81.1928C216.626 81.0884 216.725 80.9493 216.812 80.7741L216.862 80.7818C216.932 80.3813 216.871 80.1063 216.572 79.9319L216.575 79.9152Z" fill="#F4EFF1"/>
<path d="M279.085 90.5607C279.074 89.8479 279.03 88.9071 278.738 88.2452C278.804 87.4757 278.606 86.9226 277.976 86.5603C278.585 86.2252 277.751 85.7973 277.853 85.5216L277.914 85.5139C277.533 85.3698 277.504 85.0568 277.442 84.7387C277.378 84.429 277.311 84.0845 276.946 84.0029C277 83.9855 277.17 83.883 277.258 83.9821C276.925 83.6912 276.446 83.352 276.722 83.0602C275.983 82.347 274.873 81.3196 273.991 81.5955L274.088 81.5163C273.558 81.7348 273.654 81.3297 273.193 81.3788C273.202 81.3202 273.182 81.2829 273.193 81.2674C272.899 81.3937 272.592 81.2696 272.319 81.1505C272.273 81.0578 272.196 81.0031 272.018 81.0444C271.944 81.0245 271.868 81.0213 271.808 81.0206L271.785 80.9485L271.814 80.756C271.814 80.756 271.756 80.747 271.722 80.7418L271.687 80.6337C271.584 80.5835 271.506 80.6402 271.444 80.7078C271.319 80.6885 271.193 80.6693 271.066 80.6584C270.981 80.5425 270.793 80.4878 270.962 80.3338C270.616 80.0751 270.198 80.1738 269.791 80.257C269.372 80.364 268.953 80.4112 268.422 80.1326C268.25 80.6375 267.728 80.4116 267.64 80.818C267.622 80.7639 267.557 80.7453 267.463 80.7395L267.452 80.7035C267.452 80.7035 267.431 80.726 267.42 80.7415C267.162 80.7448 266.8 80.8177 267.112 80.4029C267.153 80.3578 267.241 80.3455 267.254 80.4247L267.258 80.1253C266.906 79.9 266.659 80.0592 266.439 80.2653C266.219 80.4714 266.034 80.7259 265.757 80.8032C265.949 80.8328 266.146 80.7258 266.074 80.9718L265.578 81.1272L265.586 80.8542C265.321 80.9077 265.055 80.9613 264.802 81.0509L265.033 81.2749C264.634 81.3079 264.232 80.912 264.078 81.5225C264.059 81.6996 264.227 81.7253 264.331 81.7755C264.3 81.8051 264.263 81.8251 264.195 81.8232C264.066 81.5978 263.739 81.8903 263.751 81.5838C263.323 81.638 263.104 82.0071 262.87 82.3569C262.858 82.3807 262.839 82.3948 262.826 82.4187C262.687 82.4915 262.547 82.5643 262.423 82.6481C262.483 82.7002 262.528 82.7414 262.548 82.7787C262.477 82.8535 262.397 82.9269 262.302 82.9894L262.257 82.9482C262.25 82.9901 262.23 83.0126 262.216 83.0448C262.112 83.106 261.992 83.1647 261.848 83.2111C261.662 83.1397 261.472 83.0335 261.351 83.4347L261.595 83.7978C261.654 84.3638 261.305 84.1218 261.151 84.2352L260.973 84.0537C260.565 84.1453 260.503 84.4357 260.491 84.7339C260.48 85.032 260.534 85.3488 260.386 85.5917C260.521 85.4924 260.587 85.3398 260.684 85.4319C260.697 85.4596 260.7 85.4943 260.713 85.522L260.494 85.9426L260.31 85.7514C260.155 85.9762 260.017 86.2036 259.895 86.4419L260.221 86.4405C259.969 86.7445 259.394 86.7505 259.722 87.2894C259.745 87.31 259.76 87.3209 259.784 87.3331C259.778 87.4864 259.806 87.6364 259.937 87.7336C259.698 87.4999 259.502 87.9411 259.208 87.7332C259.462 88.0377 259.59 88.7087 259.246 88.9387L259.212 88.882C258.989 89.3277 259.079 89.7527 259.182 90.1371C259.077 90.2067 259.027 90.3104 259.16 90.5621L259.294 90.5827C259.362 90.8673 259.404 91.148 259.286 91.4726C259.625 91.3875 259.517 91.8679 259.94 91.6759C260.04 91.8111 260.079 91.9457 260.1 92.086C260.066 92.1408 260.047 92.2065 260.092 92.3076L259.693 92.2291C259.834 92.3109 259.979 92.3759 260.122 92.4492C260.109 92.5844 260.097 92.7197 260.096 92.8395C260.08 93.1112 260.15 93.3276 260.513 93.3577C260.575 93.5129 260.604 93.6629 260.481 93.7898C260.481 93.7898 260.534 94.0036 260.647 94.218C260.741 94.3866 260.88 94.545 261.053 94.5887C261.06 94.5984 261.067 94.608 261.073 94.6261C260.888 94.7176 260.971 95.0646 260.663 95.1201C261.06 95.1554 261.627 95.5422 261.538 95.9486L261.48 95.9396C261.652 96.4373 262.052 96.6786 262.414 96.8884C262.783 97.1079 263.153 97.2675 263.367 97.7117C263.542 97.4128 263.813 97.8229 263.973 97.3934C264.451 97.4666 264.657 97.8497 264.902 98.1014C264.917 98.1123 264.923 98.1304 264.938 98.1413C264.859 98.1033 264.78 98.057 264.705 98.0454C264.853 98.4195 265.212 98.4831 265.581 98.4798C265.777 98.4842 265.973 98.4887 266.154 98.542C266.31 98.5832 266.452 98.6649 266.575 98.8124L266.754 98.6513C266.754 98.6513 266.804 98.659 266.821 98.6616C266.938 98.6796 267.037 98.7034 267.145 98.7284C267.128 98.8972 267.141 99.0362 267.358 99.0697C267.59 99.4051 268.195 99.0867 268.567 98.9552C268.371 98.8909 268.454 98.7408 268.545 98.6519C268.553 98.6532 268.562 98.6545 268.579 98.6571C268.571 98.7073 268.611 98.782 268.733 98.8779C268.747 98.8457 268.774 98.8328 268.795 98.8103C268.84 98.8515 268.889 98.8675 268.947 98.825L268.949 99.2024C268.893 98.8424 269.419 98.8203 269.477 98.6664C269.579 98.9478 269.208 98.908 269.16 99.1147C269.876 99.079 269.522 99.1017 270.238 99.0145C270.397 98.8676 270.385 98.7801 270.338 98.6957C270.957 98.4566 271.404 98.0623 271.877 97.7666C272.019 97.9597 271.922 98.2019 271.737 98.3449L272.209 98.1174C272.308 98.4239 271.98 98.3822 271.844 98.4898C272.215 98.6409 272.511 98.438 272.766 98.1771C273.028 97.9175 273.28 97.6733 273.704 97.7041L273.715 97.406L273.774 97.415C273.706 97.3016 273.75 97.0685 273.823 96.9854C274.051 97.1747 274.147 97.5494 274.447 97.3297C274.846 97.4081 275.051 96.7454 275.224 96.3951C275.039 96.4866 274.995 96.3256 274.989 96.1962C275.117 96.0873 275.378 96.2301 275.39 96.0434L275.658 96.3073C275.535 96.2114 275.528 96.0904 275.556 95.9661C275.617 95.9583 275.669 95.9577 275.721 95.9486C275.714 95.9988 275.714 96.0504 275.741 96.0974C275.823 96.0155 275.875 95.955 275.926 95.9028C276.085 95.8673 276.235 95.839 276.407 95.7796L276.468 95.8833C277.293 95.3157 277.667 94.7218 277.45 93.9002C278.124 94.0893 277.831 93.2046 278.099 93.0744L278.144 93.1156C277.978 92.7474 278.178 92.5039 278.366 92.2327C278.535 91.9673 278.733 91.6807 278.534 91.3588C278.58 91.3916 278.78 91.4308 278.768 91.5661C278.741 91.125 278.641 90.5525 279.037 90.5363L279.085 90.5607ZM271.321 80.7832C271.321 80.7832 271.294 80.8476 271.282 80.8714C271.226 80.9056 271.166 80.905 271.092 80.8251C271.102 80.7582 271.092 80.7137 271.065 80.6667L271.323 80.7748L271.321 80.7832ZM261.133 84.2926C261.133 84.2926 261.102 84.3821 261.108 84.46C261.103 84.4336 261.089 84.4143 261.086 84.3795C261.082 84.3447 261.104 84.3138 261.132 84.3009L261.133 84.2926Z" fill="#333331"/>
<path d="M269.318 89.3025C269.311 89.0102 269.294 88.6219 269.18 88.356C269.203 88.0424 269.126 87.8164 268.866 87.6651C269.119 87.524 268.777 87.3516 268.812 87.2369L268.837 87.2408C268.685 87.1745 268.669 87.0522 268.646 86.9202C268.623 86.7965 268.593 86.6549 268.445 86.615C268.471 86.6105 268.539 86.5609 268.574 86.6092C268.439 86.4856 268.245 86.353 268.358 86.2332C268.06 85.939 267.602 85.5174 267.233 85.6321L267.272 85.6038C267.053 85.6902 267.095 85.5253 266.903 85.5472C266.907 85.5221 266.9 85.5125 266.91 85.5054C266.791 85.5557 266.662 85.5016 266.55 85.4501C266.53 85.4128 266.499 85.3909 266.428 85.4057C266.394 85.4006 266.369 85.3968 266.344 85.3929L266.331 85.3652L266.343 85.2899C266.343 85.2899 266.318 85.286 266.301 85.2834L266.282 85.2377C266.243 85.2146 266.213 85.2442 266.184 85.2655C266.134 85.2577 266.083 85.25 266.033 85.2423C265.998 85.194 265.924 85.1741 265.985 85.1065C265.848 84.9996 265.67 85.0409 265.502 85.0751C265.332 85.1177 265.157 85.1422 264.944 85.0238C264.878 85.2279 264.661 85.1346 264.626 85.3092C264.621 85.2828 264.588 85.2776 264.553 85.2809L264.556 85.2641C264.556 85.2641 264.538 85.2699 264.536 85.2783C264.433 85.2796 264.283 85.308 264.412 85.1392C264.433 85.1167 264.467 85.1135 264.471 85.1482L264.472 85.0285C264.331 84.9384 264.228 84.9996 264.137 85.0885C264.048 85.169 263.971 85.2772 263.854 85.3107C263.93 85.3223 264.013 85.2836 263.981 85.3815L263.782 85.4453L263.782 85.3339C263.677 85.352 263.57 85.3785 263.462 85.4133L263.559 85.5053C263.393 85.5228 263.231 85.3522 263.166 85.6078C263.155 85.6832 263.23 85.6947 263.27 85.7095C263.261 85.7166 263.241 85.7308 263.216 85.7269C263.162 85.633 263.033 85.7502 263.034 85.6304C262.859 85.655 262.768 85.8037 262.668 85.9512C262.666 85.9596 262.657 85.9667 262.647 85.9738C262.592 85.9996 262.535 86.0337 262.478 86.0679C262.501 86.0885 262.524 86.1091 262.531 86.1187C262.5 86.1484 262.47 86.178 262.431 86.2063L262.415 86.2038C262.415 86.2038 262.412 86.2205 262.403 86.2276C262.356 86.2547 262.31 86.2734 262.254 86.2991C262.182 86.2708 262.103 86.2245 262.051 86.3964L262.148 86.5484C262.172 86.7834 262.024 86.6837 261.966 86.7262L261.893 86.6464C261.725 86.6805 261.697 86.8048 261.696 86.9246C261.694 87.0444 261.709 87.1751 261.65 87.2775C261.708 87.235 261.735 87.1706 261.772 87.2105C261.77 87.2189 261.776 87.2369 261.783 87.2466L261.697 87.4217L261.623 87.3419C261.557 87.4347 261.5 87.5287 261.451 87.624L261.581 87.6182C261.476 87.7393 261.244 87.7465 261.373 87.9634C261.382 87.9647 261.389 87.9744 261.396 87.984C261.387 88.0426 261.403 88.1051 261.457 88.1476C261.361 88.0471 261.281 88.232 261.157 88.1444C261.258 88.2713 261.31 88.5449 261.176 88.6358L261.162 88.6165C261.074 88.8 261.107 88.9765 261.152 89.1291C261.113 89.1574 261.089 89.2051 261.143 89.2991L261.201 89.3081C261.227 89.4233 261.243 89.5373 261.196 89.6757C261.339 89.6377 261.292 89.8361 261.466 89.76C261.509 89.818 261.526 89.872 261.535 89.9248C261.523 89.9487 261.511 89.9725 261.529 90.0182L261.362 89.9925C261.418 90.0183 261.482 90.0453 261.537 90.0794C261.528 90.138 261.52 90.1882 261.53 90.241C261.521 90.3511 261.55 90.4413 261.702 90.456C261.727 90.5198 261.743 90.5822 261.684 90.6331C261.684 90.6331 261.704 90.722 261.751 90.8063C261.793 90.8726 261.851 90.9415 261.916 90.9602C261.916 90.9602 261.916 90.9602 261.923 90.9698C261.849 91.0098 261.878 91.1514 261.756 91.1669C261.916 91.183 262.149 91.3387 262.115 91.5049L262.09 91.501C262.161 91.709 262.327 91.803 262.476 91.8943C262.624 91.9857 262.777 92.052 262.87 92.2291C262.941 92.1028 263.051 92.2741 263.12 92.1047C263.313 92.1342 263.4 92.2933 263.504 92.395C263.504 92.395 263.511 92.4046 263.518 92.4143C263.486 92.4008 263.455 92.3789 263.422 92.3737C263.484 92.5289 263.626 92.5508 263.781 92.5488C263.866 92.5532 263.942 92.5564 264.016 92.5764C264.082 92.595 264.137 92.6291 264.188 92.6884L264.258 92.622C264.258 92.622 264.275 92.6246 264.283 92.6259C264.333 92.6336 264.375 92.64 264.417 92.6464C264.407 92.7134 264.414 92.7746 264.506 92.7887C264.606 92.9239 264.848 92.7983 265.002 92.7447C264.921 92.7152 264.956 92.652 264.996 92.6153C264.996 92.6153 264.996 92.6153 265.004 92.6166C265.002 92.6333 265.022 92.6707 265.067 92.7119C265.069 92.6951 265.087 92.6893 265.097 92.6822C265.121 92.6945 265.136 92.7054 265.156 92.6912L265.158 92.8458C265.138 92.697 265.353 92.6873 265.372 92.6216C265.414 92.7394 265.263 92.7163 265.241 92.8071C265.534 92.7922 265.387 92.8038 265.684 92.7638C265.745 92.7045 265.742 92.6698 265.73 92.6337C265.985 92.5357 266.164 92.3747 266.363 92.251C266.42 92.3282 266.379 92.4248 266.301 92.4899L266.494 92.3997C266.535 92.5259 266.401 92.5053 266.342 92.5562C266.494 92.6225 266.619 92.5387 266.722 92.426C266.832 92.3229 266.934 92.2186 267.112 92.2288L267.113 92.109L267.138 92.1129C267.138 92.1129 267.134 91.9751 267.165 91.9371C267.257 92.0111 267.301 92.1721 267.418 92.0787C267.585 92.1044 267.668 91.8429 267.733 91.6986C267.659 91.7386 267.635 91.6665 267.635 91.6149C267.684 91.5711 267.795 91.631 267.798 91.5544L267.91 91.6657C267.856 91.6232 267.855 91.5717 267.872 91.5228C267.897 91.5266 267.915 91.5208 267.941 91.5163C267.937 91.5414 267.935 91.5582 267.949 91.5775C267.98 91.5395 268.001 91.5169 268.022 91.4944C268.084 91.4783 268.147 91.4621 268.217 91.4473L268.244 91.4943C268.58 91.263 268.737 91.0215 268.643 90.6815C268.915 90.7574 268.798 90.3968 268.909 90.3453L268.932 90.3659C268.86 90.2178 268.944 90.1192 269.022 90.0026C269.09 89.8931 269.176 89.7778 269.094 89.6452C269.118 89.6574 269.192 89.6774 269.192 89.7289C269.177 89.5467 269.137 89.3091 269.3 89.3084L269.318 89.3025ZM266.137 85.2925C266.137 85.2925 266.133 85.3176 266.122 85.3331C266.103 85.3473 266.078 85.3434 266.038 85.3202C266.042 85.2951 266.045 85.2784 266.022 85.2578L266.127 85.2996L266.137 85.2925ZM261.956 86.7333C261.956 86.7333 261.951 86.7668 261.946 86.8002C261.947 86.7919 261.94 86.7822 261.935 86.7642C261.937 86.7474 261.938 86.7391 261.956 86.7333Z" fill="#F4EFF1"/>
</svg>
