<svg width="206" height="67" viewBox="0 0 206 67" fill="none" xmlns="http://www.w3.org/2000/svg">
<path d="M0 51.6028L8.11274 44.3013C9.79362 46.645 11.7131 47.8222 13.8606 47.8222C15.043 47.8222 16.0187 47.4669 16.7875 46.7564C17.5564 46.0459 18.0866 45.0331 18.373 43.7181L21.3264 28.7334H8.54224L10.4776 19.189H35.7809L31.0564 42.6523C30.0171 47.9123 28.0818 51.6824 25.2555 53.9571C22.424 56.2318 18.5586 57.3719 13.6538 57.3719C7.34919 57.3719 2.80499 55.4524 0.0106049 51.6134L0 51.6028Z" fill="black"/>
<path d="M71.3396 28.728L65.4114 57.3612H54.1331L54.7164 53.9252C53.4809 55.0812 52.1235 55.9402 50.6388 56.5022C49.1541 57.0643 47.6535 57.3612 46.137 57.3612C43.0298 57.3612 40.543 56.5022 38.6712 54.8214C36.7994 53.1405 35.8662 50.7226 35.8662 47.5676C35.8662 46.3746 35.9882 45.1709 36.2374 43.9407L39.4135 28.728H51.3759L48.4648 42.525C48.3217 43.3628 48.2527 43.962 48.2527 44.3119C48.2527 46.3428 49.2231 47.8168 51.1638 47.8168C53.9157 47.8168 55.6655 45.5368 56.4026 41.894L59.2076 28.728H71.329H71.3396Z" fill="black"/>
<path d="M121.288 31.2786C123.138 32.9807 124.066 35.4039 124.066 38.5588C124.066 39.7519 123.944 40.9396 123.695 42.1327L120.519 57.3666H108.551L111.462 43.6598C111.606 43.0659 111.674 42.2016 111.674 41.6077C111.674 40.5579 111.446 39.6352 110.985 39.1103C110.524 38.5853 109.893 38.2672 109.082 38.2672C106.648 38.2672 105.094 40.3988 104.421 43.7605L101.563 57.3666H89.6003L92.5114 43.6598C92.6546 43.0659 92.7235 42.2016 92.7235 41.6077C92.7235 40.5579 92.4955 39.6352 92.0342 39.1103C91.5729 38.5853 90.9419 38.2672 90.1306 38.2672C87.7286 38.2672 86.1591 40.4677 85.4167 43.9726L82.6117 57.3666H70.6494L76.4185 28.7334H87.6968L87.1135 31.8618C88.3119 30.743 89.6216 30.0908 91.032 29.55C92.4425 29.0091 93.89 28.7334 95.3747 28.7334C97.1722 28.7334 98.8319 29.1205 100.354 29.8893C101.87 30.6582 103.053 31.7982 103.901 33.3041C105.174 31.8353 106.669 30.7006 108.403 29.9158C110.131 29.1258 112.019 28.7334 114.066 28.7334C117.03 28.7334 119.437 29.5818 121.293 31.2839L121.288 31.2786Z" fill="black"/>
<path d="M156.204 30.3029C158.039 31.3527 159.529 32.8851 160.68 34.9001C161.825 36.915 162.403 39.2905 162.403 42.0213C162.403 45.102 161.703 47.907 160.314 50.4309C158.919 52.9549 157.042 54.3972 154.677 55.8341C152.312 57.2711 149.751 57.3612 146.999 57.3612C143.118 57.3612 140.366 56.0993 138.738 53.7132L135.689 66.9056H124.019L131.909 28.728H143.187L142.657 31.8565C144.847 29.7567 147.455 28.728 150.494 28.728C152.471 28.728 154.375 29.253 156.21 30.3029H156.204ZM148.818 47.382C149.788 46.189 150.276 44.5982 150.276 42.5992C150.276 41.2312 149.894 40.298 149.136 39.4761C148.378 38.6542 147.328 38.2618 145.987 38.2618C144.433 38.2618 143.171 38.6807 142.201 39.8685C141.23 41.0615 140.742 42.6522 140.742 44.6513C140.742 46.0193 141.119 47.1116 141.882 47.9335C142.641 48.7554 143.691 49.169 145.032 49.169C146.586 49.169 147.848 48.5751 148.818 47.382Z" fill="black"/>
<path d="M171.126 28.728H183.035L177.054 57.3612H165.145L171.126 28.728Z" fill="black"/>
<path d="M188.576 28.728C189.234 25.5465 189.891 22.3651 190.543 19.1836H202.511L200.613 28.728H206.005L204.006 38.2141H198.592L197.161 45.4148C197.092 45.8337 197.055 46.1147 197.055 46.2579C197.055 47.5888 197.797 48.5644 199.276 48.5644C200.051 48.5644 201.005 48.241 201.991 47.785L203.301 55.7174C201.254 56.8416 199.17 57.3665 195.994 57.3665C192.818 57.3665 190.124 56.4598 188.237 54.9009C186.349 53.3419 184.875 51.1414 184.875 48.3046C184.875 47.3926 184.981 46.4488 185.193 45.4678C185.628 43.0499 186.068 40.632 186.503 38.2141C187.192 35.0538 187.881 31.8883 188.571 28.728H188.576Z" fill="black"/>
<path d="M178.634 25.6844C182.231 25.6844 185.146 22.7692 185.146 19.173C185.146 15.5769 182.231 12.6616 178.634 12.6616C175.038 12.6616 172.123 15.5769 172.123 19.173C172.123 22.7692 175.038 25.6844 178.634 25.6844Z" fill="black"/>
<path d="M31.4112 14.4113C35.3647 14.4113 38.5695 11.2064 38.5695 7.25303C38.5695 3.29961 35.3647 0.0947266 31.4112 0.0947266C27.4578 0.0947266 24.2529 3.29961 24.2529 7.25303C24.2529 11.2064 27.4578 14.4113 31.4112 14.4113Z" fill="#5CF636"/>
</svg>
