<svg width="34" height="34" viewBox="0 0 34 34" fill="none" xmlns="http://www.w3.org/2000/svg">
<g clip-path="url(#clip0_84_96)">
<path d="M31.4832 0H2.51016C1.12227 0 0 1.0957 0 2.45039V31.543C0 32.8977 1.12227 34 2.51016 34H31.4832C32.8711 34 34 32.8977 34 31.5496V2.45039C34 1.0957 32.8711 0 31.4832 0ZM10.0871 28.973H5.04023V12.7434H10.0871V28.973ZM7.56367 10.532C5.94336 10.532 4.63516 9.22383 4.63516 7.61016C4.63516 5.99648 5.94336 4.68828 7.56367 4.68828C9.17734 4.68828 10.4855 5.99648 10.4855 7.61016C10.4855 9.21719 9.17734 10.532 7.56367 10.532ZM28.973 28.973H23.9328V21.084C23.9328 19.2047 23.8996 16.7809 21.3098 16.7809C18.6867 16.7809 18.2883 18.8328 18.2883 20.9512V28.973H13.2547V12.7434H18.0891V14.9613H18.1555C18.8262 13.6863 20.473 12.3383 22.9234 12.3383C28.0301 12.3383 28.973 15.6984 28.973 20.068V28.973Z" fill="#222222"/>
</g>
<defs>
<clipPath id="clip0_84_96">
<rect width="34" height="34" fill="white"/>
</clipPath>
</defs>
</svg>
