<svg width="110" height="20" viewBox="0 0 110 20" fill="none" xmlns="http://www.w3.org/2000/svg">
<g clip-path="url(#clip0_667_898)">
<path d="M94.1719 9.53778H97.3023V18.8666H94.1719V9.53778Z" fill="#37FB65"/>
<path d="M94.1721 6.40741H84.8506V18.863H87.981V9.53414H94.1721V6.40375V6.40741Z" fill="#37FB65"/>
<path d="M110 3.2807V6.41109H103.842V3.2807H110Z" fill="#37FB65"/>
<path d="M110 9.56713H103.841V6.41107H100.711V9.56713H99.0176V12.6975H100.711V18.8667H103.841V12.6975H110V9.56713Z" fill="#37FB65"/>
<path d="M66.875 14.1308C65.68 15.2158 63.9865 15.8023 62.4763 15.8023C57.964 15.8023 56.2192 12.6462 56.1935 9.62211C56.1642 6.57236 58.0703 3.28435 62.4763 3.28435C64.0489 3.28435 65.647 3.81586 66.842 4.96684L68.4292 2.1187C66.6917 0.71112 64.6353 0 62.4763 0C55.8783 0 52.7772 4.84955 52.8029 9.62211C52.8286 14.369 55.695 19.0353 62.4763 19.0353C64.7123 19.0353 66.798 18.4158 68.5245 17.0925L66.875 14.1308Z" fill="#37FB65"/>
<path d="M83.1237 12.1623C83.1237 15.8645 80.5945 18.863 76.423 18.863C72.2516 18.863 69.748 15.8645 69.748 12.1623C69.748 8.4601 72.3029 5.46167 76.3974 5.46167C80.4918 5.46167 83.1274 8.48576 83.1274 12.1623H83.1237ZM72.9261 12.1623C72.9261 14.1197 74.0991 15.9452 76.4194 15.9452C78.7397 15.9452 79.9127 14.1197 79.9127 12.1623C79.9127 10.2049 78.5564 8.3538 76.4194 8.3538C74.1247 8.3538 72.9261 10.2306 72.9261 12.1623Z" fill="#37FB65"/>
<path d="M33.1885 3.2807H36.3189V15.773H33.1885V3.2807Z" fill="white"/>
<path d="M46.2451 3.2807H49.3755V15.773H46.2451V3.2807Z" fill="white"/>
<path d="M17.6934 0.150269V18.896V18.863H30.3286V15.7326H20.8201V11.1066H29.4525V7.97625H20.8201V3.28066H30.3286V0.150269H17.6934Z" fill="white"/>
<path d="M46.2447 0.150269H36.3184V3.28066H46.2447V0.150269Z" fill="white"/>
<path d="M46.2447 15.7693H36.3184V18.8997H46.2447V15.7693Z" fill="white"/>
<path d="M14.8382 0.153931H0V3.28432H5.85391V18.863H8.98431V3.28432H14.8382V0.153931Z" fill="white"/>
</g>
<defs>
<clipPath id="clip0_667_898">
<rect width="110" height="19.0353" fill="white"/>
</clipPath>
</defs>
</svg>
