<svg width="110" height="22" viewBox="0 0 110 22" fill="none" xmlns="http://www.w3.org/2000/svg">
<path d="M47.3518 12.0262V9.64103C47.3518 6.44441 45.6949 4.60021 43.1702 4.60021C40.6455 4.60021 38.9887 6.44441 38.9887 9.64103V12.0262C38.9887 15.1736 40.6455 17.067 43.1702 17.067C45.6949 17.067 47.3518 15.1736 47.3518 12.0262ZM52.9008 9.61644L52.9534 11.6574C53.0849 17.8539 49.0612 21.5423 43.4069 21.6652C37.7526 21.7636 33.5711 18.2473 33.4396 12.0754L33.387 10.0099C33.2555 3.83794 37.2792 0.124958 42.9335 0.0020096C48.5878 -0.0963465 52.7693 3.41993 52.9008 9.61644Z" fill="#F5F5F5"/>
<path d="M32.3839 19.3919C32.3839 19.9442 31.9362 20.3919 31.3839 20.3919H18.8731C18.3208 20.3919 17.8731 19.9442 17.8731 19.3919V2.43311C17.8731 1.88082 18.3208 1.43311 18.8731 1.43311H31.1417C31.694 1.43311 32.1417 1.88082 32.1417 2.43311V4.7097C32.1417 5.26199 31.694 5.7097 31.1417 5.7097H24.0088C23.4565 5.7097 23.0088 6.15742 23.0088 6.7097V7.71371C23.0088 8.30578 23.5204 8.76821 24.1095 8.70863L30.0478 8.10798C30.6369 8.0484 31.1484 8.51083 31.1484 9.1029V11.3693C31.1484 11.8826 30.7598 12.3126 30.2491 12.3642L23.9082 13.0056C23.3975 13.0572 23.0088 13.4872 23.0088 14.0005V15.2538C23.0088 15.8483 23.5244 16.3115 24.1155 16.2481L31.2772 15.4794C31.8683 15.416 32.3839 15.8792 32.3839 16.4737V19.3919Z" fill="#F5F5F5"/>
<path d="M11.0845 19.3405C11.0845 19.8197 10.7446 20.2315 10.2741 20.3224L6.97816 20.9588C6.36122 21.0779 5.78856 20.6053 5.78856 19.9769V6.77929C5.78856 6.22701 5.34085 5.7793 4.78856 5.7793H1C0.447716 5.7793 0 5.33158 0 4.7793V2.43311C0 1.88082 0.447715 1.43311 1 1.43311H15.873C16.4253 1.43311 16.873 1.88082 16.873 2.43311V4.7793C16.873 5.33158 16.4253 5.7793 15.873 5.7793H12.0845C11.5322 5.7793 11.0845 6.22701 11.0845 6.7793V19.3405Z" fill="#F5F5F5"/>
<path d="M108.822 14.5803C108.822 14.9895 108.513 15.3328 108.106 15.3758L103.34 15.8806C102.933 15.9237 102.624 16.2669 102.624 16.6761V20.4514C102.624 20.8365 102.35 21.167 101.972 21.2378L99.4783 21.7042C98.9861 21.7962 98.5312 21.4186 98.5312 20.9178V7.18525C98.5312 6.74343 98.8894 6.38525 99.3312 6.38525H109.2C109.642 6.38525 110 6.74343 110 7.18525V8.99439C110 9.43622 109.642 9.79439 109.2 9.79439H103.424C102.983 9.79439 102.624 10.1526 102.624 10.5944V11.658C102.624 12.1332 103.036 12.5036 103.509 12.4536L107.938 11.9846C108.41 11.9345 108.822 12.3049 108.822 12.7801V14.5803Z" fill="#A869EE"/>
<path d="M96.1134 20.2689C96.1134 20.6542 95.8387 20.9848 95.4598 21.0554L93.0438 21.505C92.5518 21.5966 92.0974 21.219 92.0974 20.7185V15.8656C92.0974 14.3524 91.1127 13.6232 89.9929 13.7144C88.68 13.842 87.927 14.6259 87.869 16.0114V20.4541C87.869 20.8382 87.5961 21.168 87.2189 21.24L84.8029 21.7006C84.3098 21.7946 83.853 21.4167 83.853 20.9148V11.4881C83.853 11.0462 84.2112 10.6881 84.653 10.6881H87.6333C87.7635 10.6881 87.869 10.7936 87.869 10.9238C87.869 11.1471 88.1862 11.2764 88.3719 11.1524C89.1559 10.6289 90.3837 10.3342 91.3058 10.3052C94.1827 10.2141 96.1134 12.2194 96.1134 15.5739V20.2689Z" fill="#A869EE"/>
<path d="M76.1398 18.745C77.3948 18.745 78.2636 17.6512 78.2636 16.1198C78.2636 14.5519 77.3948 13.531 76.1398 13.531C74.8848 13.531 74.0352 14.5519 74.0352 16.1198C74.0352 17.6512 74.8848 18.745 76.1398 18.745ZM76.1398 21.9718C72.6451 21.9718 70.0192 19.8571 70.0192 16.1198C70.0192 12.3643 72.6451 10.3042 76.1398 10.3042C79.6538 10.3042 82.2796 12.3643 82.2796 16.1198C82.2796 19.8571 79.6538 21.9718 76.1398 21.9718Z" fill="#A869EE"/>
<path d="M64.915 16.7769C65.075 16.3733 65.4762 16.0917 65.9033 16.1704L68.2602 16.6047C68.7125 16.688 69.0057 17.1373 68.8496 17.5699C67.8382 20.3728 65.4089 21.9054 62.3166 21.9722C58.1654 22.0451 55.0955 19.4381 54.9989 14.8622L54.9603 13.3308C54.8638 8.75493 57.8179 6.0021 61.969 5.91095C65.482 5.8436 68.2044 7.70458 69.0411 10.7758C69.1577 11.2037 68.8528 11.617 68.4144 11.684L65.9955 12.0538C65.5398 12.1234 65.1306 11.7893 64.9985 11.3476C64.5907 9.98338 63.5103 9.28936 62.0462 9.32008C60.1927 9.35654 58.9956 10.7421 59.0535 13.1121L59.0922 14.8804C59.1694 17.214 60.3858 18.5995 62.2393 18.563C63.4938 18.5323 64.432 17.9953 64.915 16.7769Z" fill="#A869EE"/>
<path d="M74.6037 13.0142C75.1587 11.8695 76.7954 11.8695 77.3505 13.0142C77.5721 13.4714 78.0169 13.7886 78.5208 13.854C79.7715 14.0163 80.2958 15.565 79.3742 16.426C79.0012 16.7745 78.8326 17.2907 78.927 17.7924C79.1598 19.0301 77.8571 19.9906 76.7462 19.3972L76.6967 19.3708C76.247 19.1306 75.7071 19.1306 75.2575 19.3708L75.208 19.3972C74.0971 19.9906 72.7943 19.0301 73.0272 17.7924C73.1216 17.2907 72.953 16.7745 72.5799 16.426C71.6583 15.565 72.1827 14.0163 73.4334 13.854C73.9372 13.7886 74.382 13.4714 74.6037 13.0142Z" fill="white"/>
</svg>
