<svg width="85" height="100" viewBox="0 0 85 100" fill="none" xmlns="http://www.w3.org/2000/svg">
<path d="M80.9345 43.4135C77.9148 43.4135 75.4643 40.9576 75.4643 37.931V19.6229C75.4643 14.2148 73.2862 9.3029 69.7219 5.7554C66.1824 2.20789 61.2815 0 55.8856 0H49.1531V11.8581H52.5441C58.534 11.8581 63.4102 16.7452 63.4102 22.7735V45.8943C63.4102 47.7797 64.6973 49.3922 66.4299 49.8636C66.5784 49.9132 66.5784 50.1116 66.4299 50.1364C64.6973 50.6078 63.4102 52.1955 63.4102 54.1057V77.6978C63.4102 80.6996 62.1973 83.4284 60.2172 85.3882C58.237 87.3481 55.5391 88.5884 52.5441 88.5884H49.1531V100H55.8856C66.7022 100 75.4643 91.2181 75.4643 80.3771V62.193C75.4643 59.1913 77.9148 56.7353 80.9345 56.7353H84.7463V43.4135H80.9345Z" fill="#462BA5"/>
<path d="M3.72103 43.3887C6.66887 43.3887 9.06096 40.9328 9.06096 37.9062V19.5981C9.06096 14.19 11.1873 9.27809 14.6667 5.73059C18.1219 2.20789 22.9061 0 28.1735 0H34.7458V11.8581H31.4355C25.5881 11.8581 20.8281 16.7452 20.8281 22.7735V45.8943C20.8281 47.7797 19.5717 49.3922 17.8803 49.8636C17.7353 49.9132 17.7353 50.1116 17.8803 50.1364C19.5717 50.6078 20.8281 52.1955 20.8281 54.1057V77.6978C20.8281 80.6996 22.0121 83.4284 23.9451 85.3882C25.8781 87.348 28.5118 88.5884 31.4355 88.5884H34.7458V100H28.1735C17.6145 100 9.06096 91.2181 9.06096 80.3771V62.193C9.06096 59.1665 6.66887 56.7105 3.72103 56.7105H0V43.3887H3.72103Z" fill="#462BA5"/>
</svg>
