<svg width="86" height="119" viewBox="0 0 86 119" fill="none" xmlns="http://www.w3.org/2000/svg">
<path d="M86 114C86 116.761 83.7614 119 81 119H5C2.23858 119 0 116.761 0 114V5C0 2.23858 2.23858 0 5 0H79.5643C82.3257 0 84.5643 2.23858 84.5643 5V21.8432C84.5643 24.6046 82.3257 26.8432 79.5643 26.8432H35.4374C32.676 26.8432 30.4374 29.0818 30.4374 31.8432V40.8013C30.4374 43.7735 33.0147 46.0894 35.97 45.7728L73.1452 41.7905C76.1005 41.4739 78.6778 43.7899 78.6778 46.7621V63.548C78.6778 66.1033 76.7511 68.2474 74.2104 68.5196L34.9048 72.7301C32.3641 73.0023 30.4374 75.1464 30.4374 77.7017V88.1353C30.4374 91.1204 33.0361 93.4404 36.0021 93.1033L80.4353 88.0523C83.4013 87.7152 86 90.0352 86 93.0204V114Z" fill="#36CD76"/>
</svg>
