<svg width="128" height="150" viewBox="0 0 128 150" fill="none" xmlns="http://www.w3.org/2000/svg">
<path d="M121.401 65.1203C116.871 65.1203 113.195 61.4364 113.195 56.8966V29.4344C113.195 21.3223 109.928 13.9544 104.582 8.63309C99.2725 3.31183 91.9211 0 83.8273 0H73.7285V17.7872H78.815C87.8 17.7872 95.1141 25.1178 95.1141 34.1603V68.8415C95.1141 71.6696 97.0448 74.0883 99.6437 74.7953C99.8665 74.8698 99.8665 75.1675 99.6437 75.2047C97.0448 75.9117 95.1141 78.2932 95.1141 81.1585V116.547C95.1141 121.049 93.2949 125.143 90.3246 128.082C87.3544 131.022 83.3075 132.883 78.815 132.883H73.7285V150H83.8273C100.052 150 113.195 136.827 113.195 120.566V93.2895C113.195 88.7869 116.871 85.103 121.401 85.103H127.118V65.1203H121.401Z" fill="#37FB65"/>
<path d="M5.58155 65.0831C10.0033 65.0831 13.5914 61.3992 13.5914 56.8593V29.3972C13.5914 21.285 16.7809 13.9171 22 8.59588C27.1829 3.31183 34.3592 0 42.2603 0H52.1186V17.7871H47.1532C38.3822 17.7871 31.2422 25.1178 31.2422 34.1603V68.8415C31.2422 71.6696 29.3575 74.0883 26.8204 74.7953C26.603 74.8698 26.603 75.1674 26.8204 75.2047C29.3575 75.9117 31.2422 78.2932 31.2422 81.1585V116.547C31.2422 121.049 33.0181 125.143 35.9176 128.082C38.8172 131.022 42.7677 132.883 47.1532 132.883H52.1186V150H42.2603C26.4218 150 13.5914 136.827 13.5914 120.566V93.2895C13.5914 88.7497 10.0033 85.0657 5.58155 85.0657H0V65.0831H5.58155Z" fill="#37FB65"/>
</svg>
