<svg width="100" height="124" viewBox="0 0 100 124" fill="none" xmlns="http://www.w3.org/2000/svg">
<path d="M65.6934 114.316C65.6934 116.217 64.3566 117.855 62.4949 118.235L39.108 123.018C36.6281 123.525 34.3066 121.63 34.3066 119.099V31.28C34.3066 29.0709 32.5157 27.28 30.3066 27.28H4C1.79086 27.28 0 25.4891 0 23.28V4C0 1.79086 1.79086 0 4 0H96C98.2091 0 100 1.79086 100 4V23.28C100 25.4891 98.2091 27.28 96 27.28H69.6934C67.4843 27.28 65.6934 29.0709 65.6934 31.28V114.316Z" fill="#A869EE"/>
</svg>
