<svg width="75" height="88" viewBox="0 0 75 88" fill="none" xmlns="http://www.w3.org/2000/svg">
<path d="M71.1924 38.1881C68.5362 38.1881 66.3807 36.0278 66.3807 33.3655V17.261C66.3807 12.5039 64.4647 8.18317 61.3294 5.06266C58.2159 1.94214 53.9049 0 49.1585 0H43.2363V10.4308H46.2192C51.4882 10.4308 55.7774 14.7297 55.7774 20.0324V40.3703C55.7774 42.0288 56.9096 43.4472 58.4336 43.8618C58.5643 43.9054 58.5643 44.08 58.4336 44.1018C56.9096 44.5165 55.7774 45.913 55.7774 47.5933V68.3459C55.7774 70.9863 54.7105 73.3867 52.9687 75.1106C51.2269 76.8345 48.8537 77.9256 46.2192 77.9256H43.2363V87.9636H49.1585C58.6731 87.9636 66.3807 80.2387 66.3807 70.7026V54.7072C66.3807 52.0668 68.5362 49.9064 71.1924 49.9064H74.5454V38.1881H71.1924Z" fill="#6438FB"/>
<path d="M3.27316 38.1663C5.86618 38.1663 7.97035 36.006 7.97035 33.3437V17.2392C7.97035 12.4821 9.84073 8.16135 12.9013 5.04083C15.9407 1.94214 20.149 0 24.7825 0H30.5636V10.4308H27.6518C22.5083 10.4308 18.3212 14.7297 18.3212 20.0324V40.3703C18.3212 42.0288 17.216 43.4472 15.7282 43.8618C15.6006 43.9054 15.6006 44.08 15.7282 44.1018C17.216 44.5164 18.3212 45.913 18.3212 47.5933V68.3458C18.3212 70.9863 19.3626 73.3867 21.063 75.1106C22.7633 76.8345 25.08 77.9256 27.6518 77.9256H30.5636V87.9636H24.7825C15.4944 87.9636 7.97035 80.2387 7.97035 70.7026V54.7072C7.97035 52.045 5.86618 49.8846 3.27316 49.8846H0V38.1663H3.27316Z" fill="#6438FB"/>
</svg>
