<svg width="116" height="136" viewBox="0 0 116 136" fill="none" xmlns="http://www.w3.org/2000/svg">
<path d="M82.7824 75.4856V60.5144C82.7824 40.4501 72.963 28.8745 58 28.8745C43.0371 28.8745 33.2176 40.4501 33.2176 60.5144V75.4856C33.2176 95.2413 43.0371 107.126 58 107.126C72.963 107.126 82.7824 95.2413 82.7824 75.4856ZM115.67 60.3601L115.981 73.1704C116.761 112.064 92.9136 135.216 59.4028 135.987C25.892 136.605 1.1096 114.534 0.330284 75.7942L0.0185562 62.8296C-0.760764 24.0899 23.0864 0.784329 56.5972 0.0126138C90.108 -0.604744 114.89 21.4661 115.67 60.3601Z" fill="#5BB4EE"/>
</svg>
