<svg width="136" height="200" viewBox="0 0 136 200" fill="none" xmlns="http://www.w3.org/2000/svg">
<path d="M200.545 152.464C198.513 145.151 194.421 138.397 190.317 131.933C178.524 113.319 148.622 84.2553 135.41 66.6115C126.723 55.0023 117.577 43.4675 105.875 34.89C94.1738 26.3124 79.4795 20.9246 65.1364 23.1254C48.4647 25.6796 34.6395 38.1507 26.2416 52.7791C-3.53675 104.657 32.2095 175.686 88.964 192.114C109.744 198.127 141.922 207.488 163.086 202.998C184.249 198.507 204.055 179.633 201.647 158.137C201.43 156.205 201.047 154.321 200.533 152.466L200.545 152.464Z" fill="#F74A4B"/>
<path d="M78.4959 73.3331L78.407 73.3873C78.4337 73.3975 78.4618 73.3868 78.4959 73.3331Z" fill="#333331"/>
<path d="M75.48 73.8813L75.4864 73.8656L75.48 73.8813Z" fill="#333331"/>
<path d="M77.045 71.9654C76.9258 72.3507 76.7456 72.5422 76.5976 72.7253C76.5219 72.8173 76.4389 72.894 76.3739 73.0004C76.2901 73.0876 76.227 73.2141 76.1364 73.341C75.9193 73.549 75.7231 73.7584 75.4792 73.8772C75.4669 73.9355 75.4359 73.9745 75.3991 74.0048C75.3606 74.0286 75.3131 74.0307 75.2672 74.0393C75.1739 74.0637 75.0777 74.051 74.9957 74.1447L74.9347 74.03C74.8797 74.0822 74.8026 74.1162 74.7543 74.0497L74.7628 74.0165C74.6662 74.1071 74.5764 74.0138 74.522 74.0555L74.5337 74.0215C74.4982 74.0171 74.462 74.0231 74.4247 74.0122L74.4558 73.9731C74.3672 73.9894 74.2809 73.988 74.1968 73.9687C74.1151 73.9454 74.0427 73.8922 73.9849 73.842L73.9307 73.9764C73.8097 73.8294 73.6979 73.783 73.5757 73.7497C73.4654 73.696 73.3448 73.6554 73.279 73.4698L73.3038 73.4461C73.1626 73.4452 73.0686 73.4011 73.0009 73.3398C72.9381 73.2703 72.9008 73.1803 72.8684 73.096C72.7955 72.9226 72.7525 72.7448 72.4701 72.664C72.5381 72.6874 72.5186 72.5997 72.5491 72.5849C72.3934 72.4366 72.2558 72.2526 72.0129 72.3883C71.9371 72.2431 72.0257 72.2268 72.1104 72.1566C72.0022 72.2158 71.8809 72.1203 71.8232 72.0048L71.8905 72.0388L71.6943 71.7223L71.5097 71.884C71.4856 71.6738 71.75 71.7249 71.6273 71.5714L71.4474 71.646C71.4144 71.5068 71.4517 71.3733 71.5068 71.242C71.5682 71.1091 71.6434 70.976 71.6749 70.8337C71.5741 70.3169 71.3838 69.7996 71.3004 69.2576C71.2155 68.723 71.2456 68.1548 71.5413 67.7475L71.693 67.7491C71.9024 67.8008 71.4715 67.4151 71.671 67.442C71.6488 67.3963 71.6338 67.3521 71.6188 67.3079C71.667 67.2953 71.7287 67.255 71.7528 67.3209C71.7995 67.2365 71.7679 67.2207 71.737 67.1291C71.7917 67.1148 71.8432 67.1014 71.8996 67.0935C71.9682 67.0274 72.0142 66.9535 72.0448 66.8733C72.0794 66.7955 72.1149 66.7209 72.1414 66.6383C72.1671 66.5526 72.2067 66.4804 72.2527 66.4065C72.2937 66.327 72.3527 66.2634 72.4297 66.2158C72.6776 66.1647 72.8971 66.0316 73.1482 65.9006C73.3969 65.7737 73.6914 65.6382 73.9411 65.6072C74.3085 65.487 74.6825 65.7604 74.9433 66.0737C75.2185 66.3901 75.4254 66.721 75.8145 66.8942C75.8077 66.9338 75.9045 66.9359 75.9245 66.9204C76.0718 67.1156 76.2136 67.3157 76.3353 67.5314C76.3353 67.5314 76.3681 67.5778 76.4165 67.6579C76.4618 67.7389 76.5291 67.8519 76.6128 67.9744C76.6852 68.1067 76.7738 68.2484 76.8625 68.3902C76.9456 68.5369 77.0407 68.677 77.138 68.7994C77.3166 69.0483 77.5313 69.2121 77.7495 69.1C77.8586 69.044 77.9693 68.9153 78.0732 68.6819C78.1796 68.4444 78.2654 68.1023 78.2939 67.6067L78.3463 67.6102C78.2325 67.0831 78.0749 66.7566 77.6785 66.5818C77.8852 66.3731 77.4614 66.1986 77.4541 66.0527L77.4799 66.046C77.1156 65.9282 77.18 65.3992 76.7991 65.3098C76.8249 65.303 76.8832 65.25 76.9433 65.2961C76.7386 65.1572 76.4609 64.9892 76.5425 64.8544C76.4182 64.7735 76.2897 64.6765 76.1491 64.5861C76.003 64.5006 75.8584 64.4078 75.706 64.3377C75.5512 64.2716 75.3957 64.2161 75.2534 64.1845C75.104 64.1652 74.9701 64.1659 74.8583 64.1985L74.8975 64.1642C74.6412 64.2622 74.613 64.1149 74.3568 64.1475C74.3501 64.1218 74.333 64.1091 74.3378 64.101C74.2053 64.1597 74.0343 64.1632 73.8695 64.1376C73.7055 64.1152 73.5377 64.1178 73.4454 64.1592L73.4232 64.0481C73.2604 64.0563 73.1029 64.1113 72.9435 64.1461L73.1265 64.136C73.1194 64.2926 73.0287 64.2613 72.892 64.2249C72.7552 64.1885 72.5713 64.1816 72.4414 64.329C72.2788 64.3647 72.1991 64.5987 72.1318 64.7881C72.067 64.9873 72.0352 65.1812 71.8685 65.2008C71.844 65.3962 71.8245 64.9407 71.7268 65.1588C71.6199 65.0389 71.7446 65.0166 71.6205 64.9494C71.5611 65.0509 71.4663 65.0826 71.3667 65.1224C71.2662 65.159 71.1636 65.2133 71.1151 65.3566L71.0167 65.2827C70.9755 65.4928 70.8411 65.5967 70.7212 65.7037C70.5965 65.8051 70.4782 65.9048 70.5162 66.0633C70.4331 66.4287 70.0578 66.111 70.1233 66.5717L69.9095 66.6482C69.8208 66.7952 70.0608 66.8321 69.9236 66.978C69.8255 66.9315 69.7717 67.1724 69.7097 67.0408C69.5568 67.2183 69.5754 67.4472 69.5634 67.6772C69.566 67.9103 69.5556 68.1467 69.3882 68.4002C69.5848 68.5344 69.4401 68.7957 69.5911 68.8868C69.5009 68.8966 69.5751 69.4169 69.3799 69.1173C69.3626 69.0909 69.3678 69.0449 69.4033 69.0493L69.2803 69.0128C69.1658 69.1665 69.1973 69.3129 69.2536 69.4494C69.3204 69.5866 69.4098 69.7179 69.4018 69.8712C69.4363 69.7797 69.4156 69.6614 69.5068 69.7338L69.5106 70.0112L69.4052 69.9632C69.397 70.1028 69.4026 70.2423 69.4017 70.3835L69.5195 70.308C69.4879 70.5156 69.2778 70.6324 69.5057 70.8203C69.6259 70.8988 69.634 70.6011 69.7168 70.7994C69.7046 70.9367 69.6823 71.1144 69.6859 71.299C69.6896 71.4837 69.7054 71.6755 69.7371 71.8494C69.8613 71.7722 69.8881 71.8614 69.9503 71.9414L69.8371 71.9951C70.1314 72.279 69.6282 72.2216 69.8953 72.5195L69.8001 72.5238L70.0783 72.5095C70.4418 72.7031 69.9176 72.7887 70.3833 72.9659C70.2941 72.8483 70.5935 72.7837 70.6284 72.9567L70.5028 72.9759C70.5738 73.0501 70.6327 73.0519 70.6439 73.1211C70.5598 73.1019 70.4768 73.1786 70.566 73.2962L70.3876 73.2844C70.4986 73.3276 70.6031 73.3724 70.7165 73.4115C70.7264 73.6598 71.0407 73.8492 70.9675 74.0161C70.9675 74.0161 71.0227 74.122 71.1068 74.2203C71.1854 74.3235 71.3026 74.4166 71.4096 74.392C71.2596 74.3969 71.404 74.6203 71.2552 74.6558C71.3455 74.6597 71.4719 74.7091 71.5768 74.7814C71.6872 74.8487 71.777 74.9421 71.7861 75.0428L71.753 75.0343C71.9033 75.2803 72.1431 75.3825 72.3492 75.4868C72.5728 75.5795 72.7778 75.6668 72.9727 75.8598C73.0156 75.7214 73.2266 75.9103 73.2438 75.7133C73.508 75.7507 73.7039 75.8954 73.881 76.0072C74.0659 76.0963 74.2365 76.1308 74.374 75.8679C74.6079 75.8686 74.6363 76.0296 74.7642 76.0717L74.7024 76.0982C74.9339 76.1029 75.086 76.0666 75.2214 76.0587C75.3569 76.0507 75.4761 76.0333 75.6476 76.0056C75.8095 75.9151 75.7721 75.6671 76.0589 75.6333C76.0039 75.7646 76.1089 75.7062 76.2166 75.6711C76.1582 75.7105 76.1458 75.755 76.3145 75.7692C76.3222 75.7329 76.3452 75.7028 76.3651 75.6735C76.3668 75.6799 76.3781 75.6838 76.3774 75.6943C76.5326 75.5781 76.4873 75.5625 76.4045 75.5876C76.4003 75.5715 76.3856 75.5547 76.3507 75.5398C76.4631 75.5619 76.5834 75.4961 76.6853 75.4522C76.7865 75.4051 76.8625 75.3543 76.9222 75.4246C77.3814 75.0776 77.5034 74.6504 77.7035 74.2852C77.8037 74.3003 77.8222 74.4364 77.7605 74.5557C77.8241 74.4703 77.8683 74.3762 77.9205 74.2869C78.0271 74.3656 77.8856 74.4817 77.8406 74.5725C78.043 74.4921 78.1142 74.2913 78.1766 74.0962C78.2228 73.8916 78.282 73.6974 78.4513 73.5431L78.391 73.4179L78.4175 73.4007C78.3672 73.3794 78.3337 73.2645 78.3387 73.2047C78.4668 73.1953 78.5931 73.3101 78.6539 73.1085C78.8147 72.9874 78.752 72.6429 78.7295 72.4253C78.6847 72.5299 78.6301 72.4789 78.602 72.4243C78.6211 72.3265 78.7475 72.2969 78.7175 72.2085L78.8742 72.2294C78.725 72.2375 78.7573 71.9403 78.7012 71.8965C78.825 71.8573 78.7764 72.0659 78.8591 72.1061C78.9007 71.7 78.8956 71.9041 78.9171 71.4998C78.8146 71.2791 78.7657 71.5256 78.6362 71.4117C78.6221 71.2263 78.5209 71.05 78.6114 70.8441L78.4734 70.9077C78.3721 70.5733 78.3613 70.3871 78.4886 70.151C78.1385 69.562 77.8164 69.3163 77.5943 69.2163C77.3689 69.1171 77.213 69.1648 77.1166 69.2828C77.0137 69.3887 76.9582 69.5442 76.9289 69.6687C76.9036 69.7957 76.8886 69.8958 76.8886 69.8958C76.8392 70.1013 76.8386 70.2698 76.8379 70.4247C76.8485 70.5835 76.8823 70.7259 76.9154 70.8788C76.9946 71.1812 77.0975 71.5221 77.0565 71.9831L77.045 71.9654Z" fill="#333331"/>
<path d="M45.6079 46.3389L45.6552 46.3738C45.6406 46.3522 45.6224 46.337 45.6079 46.3389Z" fill="#333331"/>
<path d="M49.6258 43.5942C49.6258 43.5942 49.622 43.5886 49.621 43.5811C49.6229 43.5839 49.6239 43.5914 49.6258 43.5942Z" fill="#333331"/>
<path d="M47.3231 47.5372C47.3231 47.5372 47.326 47.5475 47.3279 47.5503L47.3259 47.5353L47.3231 47.5372Z" fill="#333331"/>
<path d="M48.5076 44.8298C48.7653 44.7663 48.959 44.9706 49.1364 44.7424C49.2581 44.7012 49.3466 44.5797 49.4379 44.4908C49.3883 44.2786 49.5803 44.4115 49.5539 44.2206L49.6354 44.3123C49.6266 44.2486 49.6334 44.1992 49.6844 44.2431L49.7006 44.2722C49.686 44.1775 49.7496 44.203 49.7415 44.1542L49.7593 44.1862L49.789 44.1506L49.8075 44.1974C49.8157 44.0824 49.8677 44.0459 49.9382 44.0562L49.867 43.9283C50.0479 44.014 49.9414 43.727 50.1311 43.8421L50.1489 43.8741C50.082 43.4736 50.4669 43.994 50.4155 43.6077C50.4236 43.6565 50.4569 43.6684 50.4747 43.7003C50.5134 43.6331 50.5631 43.5788 50.4256 43.3318C50.4679 43.3121 50.5041 43.3909 50.5633 43.4835C50.5019 43.3731 50.5125 43.3101 50.5441 43.2849L50.5522 43.3337L50.6242 43.2441L50.4919 43.0475C50.5736 43.0781 50.6426 43.2909 50.6645 43.214L50.5691 43.0426C50.6553 43.0403 50.8383 43.2733 50.9763 43.3639C51.2928 43.2828 51.3511 42.6833 51.7734 42.8402L51.8562 42.9615C51.9655 43.1443 51.7723 42.6467 51.8793 42.8117L51.8615 42.7112C51.888 42.7383 51.9265 42.7664 51.9346 42.8152C51.9669 42.8048 51.9507 42.7757 51.9403 42.7092L52.0341 42.8093C52.1946 42.8379 52.163 42.5624 52.3022 42.5457C52.5744 42.7063 52.7117 42.3444 52.7916 42.1325C52.8484 41.7354 53.5066 42.3433 53.5437 41.904C53.564 41.9269 53.552 41.8575 53.5391 41.8342L53.7512 41.7504C53.7512 41.7504 54.7505 41.2891 53.159 40.1466L53.1421 40.1027C52.9796 40.0638 52.8969 40.0794 52.9392 40.3261C52.7884 40.0827 52.8345 40.3501 52.766 40.2817L52.7547 40.2613C52.7991 40.4916 52.532 40.176 52.5635 40.383C52.5522 40.3627 52.5163 40.2913 52.5292 40.2803C52.5005 40.3382 52.4673 40.4289 52.3835 40.2853C52.2942 40.3845 52.1029 40.4035 52.1597 40.6763L52.1429 40.6324C52.1896 40.812 52.1035 40.6848 52.1023 40.792C52.091 40.7717 52.0803 40.7662 52.0755 40.7575C52.1193 40.9387 51.9606 40.8519 51.9629 40.9382L51.9095 40.8423L51.8324 40.9157L51.8757 40.9182C52.0129 41.192 51.715 40.7869 51.7482 40.9968C51.6706 40.9943 51.938 41.6181 51.8013 41.523C51.8418 41.6641 51.7142 41.305 51.724 41.4252C51.6463 41.2857 51.6958 41.3267 51.6227 41.2228C51.6163 41.3139 51.4737 41.1192 51.4703 41.2429L51.4104 41.1354C51.4478 41.3734 51.1975 41.0675 51.2561 41.2822C51.2337 41.4127 51.0272 40.9872 51.0726 41.2398L50.9627 41.1107C50.9178 41.1052 51.0397 41.3038 50.9644 41.2505C50.9127 41.1576 50.8804 41.2022 50.8506 41.1008C50.6884 41.0008 50.8027 41.3977 50.5622 41.2118C50.6393 41.4049 50.5271 41.3265 50.5841 41.4699C50.5404 41.3914 50.4701 41.5181 50.4357 41.3128C50.4334 41.295 50.4438 41.293 50.4616 41.325L50.4075 41.2142C50.2349 41.0478 50.3586 41.3861 50.2827 41.3865C50.3195 41.4117 50.3379 41.39 50.3638 41.4708L50.3005 41.487L50.262 41.3904L50.1515 41.3834L50.2246 41.4874C50.1516 41.4519 50.0319 41.2712 50.0773 41.4552C50.1055 41.5537 50.1976 41.5824 50.1734 41.6415C50.0761 41.5967 49.9346 41.5271 49.8454 41.531C49.9208 41.6527 49.9001 41.6566 49.8944 41.6941L49.8345 41.5866C49.8431 41.7797 49.6728 41.3645 49.6665 41.5241L49.6302 41.4453L49.7361 41.6833C49.7889 41.9355 49.5766 41.479 49.6674 41.8129C49.6867 41.7792 49.8146 42.043 49.7509 42.0176L49.7014 41.9081C49.694 41.9427 49.7124 41.9895 49.6879 41.9727C49.6688 41.911 49.6096 41.8184 49.5902 41.852L49.5378 41.71L49.5893 41.9324C49.4855 41.8418 49.498 42.0214 49.398 41.8829C49.398 41.8829 49.2675 41.8604 49.3378 42.0344C49.2986 41.923 49.2282 41.9128 49.178 41.7885C49.2178 41.9147 49.1999 42.0465 49.1058 41.9391L49.1035 41.9213C48.9322 41.853 49.023 42.1869 48.8475 42.0905C48.92 42.2138 48.8363 42.1729 48.9369 42.3262C48.9299 42.5394 48.5797 42.0949 48.8231 42.6141C48.7941 42.6645 48.7061 42.527 48.6712 42.5122L48.6682 42.4795C48.6095 42.5655 48.5895 42.5843 48.522 42.6066C48.5205 42.6722 48.6425 42.905 48.5565 42.8805C48.5222 42.7778 48.5087 42.8082 48.4883 42.8195C48.4918 42.7985 48.4782 42.7604 48.4181 42.714C48.4314 42.7446 48.4353 42.7653 48.4376 42.7831C48.4343 42.7773 48.4311 42.7715 48.4246 42.7598C48.4075 42.8112 48.4295 42.837 48.4534 42.8389C48.4615 42.8535 48.4712 42.8709 48.4916 42.8938C48.3904 42.7941 48.4006 42.9559 48.3058 42.7994C48.2251 42.8937 48.2431 43.0969 48.1928 43.2048C48.1388 43.1283 48.1187 43.0444 48.1241 42.9995L48.0793 43.0625C48.0146 42.9463 48.0769 42.9763 48.0814 42.9433C47.9065 42.7933 48.0413 43.213 47.86 43.0856L47.8943 43.1883L47.8804 43.177C47.9079 43.2264 47.9277 43.303 47.9212 43.3256C47.853 43.2304 47.7902 43.0902 47.7527 43.1187C47.6658 43.0377 47.6873 43.2199 47.6744 43.2993C47.7074 43.3038 47.7294 43.3639 47.7417 43.4065C47.723 43.4207 47.6547 43.3255 47.6616 43.3788L47.5855 43.2422C47.6641 43.3698 47.608 43.4124 47.63 43.4725C47.5617 43.3773 47.6134 43.3676 47.5756 43.2859C47.5007 43.3428 47.5381 43.3143 47.4619 43.3758C47.4766 43.5046 47.5435 43.5016 47.5865 43.6337C47.5633 43.6809 47.5789 43.7978 47.4871 43.7423L47.5696 43.8563C47.5504 43.9926 47.4987 44.0024 47.3797 43.9049C47.3867 45.2027 48.019 45.3265 48.019 45.3265C48.3844 45.477 48.2975 45.061 48.4998 44.8228L48.5076 44.8298Z" fill="#333331"/>
<path d="M69.5591 33.3335L69.5885 33.3844C69.5837 33.3588 69.5731 33.3375 69.5591 33.3335Z" fill="#333331"/>
<path d="M74.3345 32.4191C74.3345 32.4191 74.3333 32.4124 74.3354 32.4051C74.336 32.4085 74.3339 32.4157 74.3345 32.4191Z" fill="#333331"/>
<path d="M70.6537 35.1171C70.6537 35.1171 70.6523 35.1276 70.6529 35.131L70.6571 35.1164L70.6537 35.1171Z" fill="#333331"/>
<path d="M69.6609 35.1448C69.9255 35.1663 70.0443 35.4215 70.285 35.2615C70.4135 35.2611 70.5359 35.1739 70.6508 35.1186C70.6711 34.9017 70.8109 35.0886 70.8466 34.8993L70.8947 35.0121C70.9066 34.949 70.9287 34.9042 70.9632 34.9621L70.9693 34.9947C70.9855 34.9004 71.0378 34.9447 71.0456 34.8959L71.0523 34.9318L71.0917 34.9076L71.0944 34.9578C71.1387 34.8514 71.1996 34.8332 71.2632 34.8653L71.2362 34.7215C71.3806 34.8603 71.3707 34.5543 71.5141 34.7237L71.5208 34.7596C71.5845 34.3586 71.7843 34.9742 71.8582 34.5916C71.8504 34.6405 71.8782 34.6623 71.8849 34.6983C71.9429 34.6468 72.0073 34.6111 71.9553 34.3332C72.0017 34.3279 72.0111 34.4142 72.0378 34.5208C72.0145 34.3966 72.0446 34.3402 72.0826 34.3264L72.0748 34.3752L72.1715 34.3131L72.1084 34.0847C72.1763 34.1397 72.1741 34.3634 72.2193 34.2974L72.1832 34.1045C72.2657 34.1297 72.3653 34.4088 72.4674 34.5385C72.7933 34.5621 73.0388 34.0121 73.3895 34.295L73.4295 34.4363C73.4752 34.6443 73.4498 34.1111 73.499 34.3015L73.514 34.2007C73.5305 34.2348 73.5581 34.2736 73.5503 34.3224C73.5842 34.3229 73.5781 34.2902 73.5893 34.2238L73.6465 34.3484C73.7897 34.4265 73.8472 34.1552 73.9845 34.1837C74.1915 34.4224 74.4366 34.1228 74.5797 33.9471C74.7596 33.5887 75.1908 34.3741 75.3654 33.9693C75.3775 33.9975 75.3881 33.9278 75.3832 33.9017L75.611 33.8895C75.611 33.8895 76.7051 33.7694 75.5586 32.1807L75.5566 32.1337C75.4148 32.0452 75.3315 32.0337 75.2932 32.2811C75.2275 32.0024 75.1863 32.2706 75.1431 32.184L75.1388 32.1611C75.1078 32.3936 74.9548 32.0095 74.9189 32.2158C74.9147 32.1929 74.9032 32.1139 74.919 32.1075C74.8734 32.1533 74.8131 32.2288 74.7793 32.066C74.663 32.1317 74.4756 32.089 74.4428 32.3658L74.4408 32.3188C74.4281 32.5038 74.3869 32.3559 74.3517 32.4572C74.3474 32.4343 74.339 32.4258 74.3372 32.416C74.3212 32.6016 74.1983 32.469 74.1731 32.5516L74.1529 32.4437L74.0565 32.4888L74.0967 32.5049C74.1399 32.8081 73.9861 32.3294 73.9508 32.539C73.8781 32.512 73.9336 33.1884 73.8342 33.0548C73.8278 33.2014 73.8208 32.8204 73.7919 32.9375C73.7626 32.7806 73.7965 32.8352 73.7602 32.7134C73.7252 32.7977 73.6517 32.5679 73.6092 32.6841L73.5866 32.5632C73.5464 32.8007 73.4062 32.4311 73.3937 32.6534C73.3309 32.77 73.2702 32.301 73.2331 32.5549L73.1699 32.3976C73.129 32.3781 73.1816 32.6051 73.1271 32.5307C73.1075 32.4261 73.0628 32.4582 73.0667 32.3526C72.9446 32.2063 72.9271 32.6189 72.758 32.3663C72.7698 32.5739 72.6883 32.464 72.6968 32.618C72.6803 32.5297 72.5734 32.6276 72.606 32.4219C72.6095 32.4043 72.6199 32.4057 72.6266 32.4417L72.6105 32.3195C72.4997 32.1068 72.5095 32.467 72.4374 32.4432C72.4644 32.4788 72.4887 32.4641 72.4877 32.5489L72.4225 32.5441L72.4166 32.4404L72.3141 32.3986L72.3504 32.5204C72.2924 32.4636 72.2363 32.2542 72.2209 32.4431C72.2163 32.5455 72.2946 32.6019 72.2561 32.6497C72.1781 32.5763 72.066 32.4653 71.9802 32.4408C72.0131 32.5801 71.9922 32.5773 71.9748 32.611L71.9522 32.49C71.899 32.6759 71.8694 32.2281 71.8127 32.3774L71.8034 32.2912L71.8282 32.5504C71.7982 32.8064 71.7419 32.3061 71.7219 32.6515C71.7509 32.6258 71.7884 32.9165 71.7361 32.8722L71.7239 32.7527C71.7059 32.7831 71.7086 32.8333 71.6906 32.8096C71.692 32.7451 71.6653 32.6384 71.6363 32.6642L71.6317 32.5128L71.6099 32.7401C71.5403 32.6212 71.4951 32.7955 71.4443 32.6324C71.4443 32.6324 71.3276 32.5697 71.339 32.757C71.3372 32.6389 71.2737 32.6068 71.2656 32.473C71.2633 32.6054 71.2044 32.7247 71.1493 32.5929L71.1528 32.5753C71.012 32.4562 70.9921 32.8016 70.8563 32.6545C70.8859 32.7944 70.8195 32.729 70.8662 32.9063C70.7919 33.1063 70.601 32.5737 70.6669 33.1432C70.6234 33.1818 70.5836 33.0235 70.5552 32.9983L70.5628 32.9665C70.4798 33.0294 70.4549 33.0408 70.3838 33.0406C70.3615 33.1023 70.4033 33.3617 70.3295 33.3112C70.3296 33.203 70.3071 33.2275 70.2842 33.2317C70.2942 33.213 70.2934 33.1725 70.2512 33.1094C70.254 33.1427 70.2512 33.1635 70.2477 33.1811C70.2464 33.1745 70.2452 33.168 70.2428 33.1549C70.2103 33.1982 70.2229 33.2297 70.245 33.2391C70.2481 33.2554 70.2517 33.2751 70.2638 33.3032C70.1995 33.1766 70.1577 33.3332 70.1175 33.1547C70.0111 33.2186 69.9636 33.4169 69.8816 33.5033C69.8547 33.4136 69.8623 33.3276 69.8817 33.2868L69.8192 33.3323C69.7947 33.2015 69.8444 33.2498 69.8591 33.2199C69.7409 33.0221 69.7354 33.463 69.6039 33.2846L69.6038 33.3929L69.5943 33.3777C69.6046 33.4333 69.5991 33.5122 69.5858 33.5316C69.5513 33.4196 69.5363 33.2668 69.4917 33.2819C69.435 33.1775 69.3975 33.357 69.3601 33.4283C69.3899 33.443 69.3917 33.507 69.3899 33.5513C69.3676 33.5589 69.3331 33.4469 69.3227 33.4996L69.294 33.346C69.328 33.4918 69.2612 33.5145 69.263 33.5784C69.2285 33.4665 69.2806 33.4736 69.2706 33.3842C69.1816 33.4144 69.2261 33.3993 69.1343 33.4333C69.1073 33.5602 69.1717 33.5786 69.1706 33.7175C69.1336 33.7549 69.1113 33.8707 69.0418 33.7889L69.0839 33.9232C69.0224 34.0463 68.9703 34.0392 68.8884 33.909C68.483 35.1419 69.0432 35.46 69.0432 35.46C69.342 35.7187 69.3916 35.2967 69.6591 35.135L69.6609 35.1448Z" fill="#333331"/>
</svg>
