<svg xmlns="http://www.w3.org/2000/svg" width="70" height="70" viewBox="0 0 70 70" fill="none">
  <rect width="70" height="70" rx="10" fill="white"/>
  <path d="M32.5197 41.9013C31.5268 41.9013 30.6843 41.1729 30.5407 40.1904L29.4236 32.5449C29.4016 32.394 29.4533 32.2417 29.5626 32.1355C29.6468 32.0537 29.7608 32.006 29.878 32.001C37.4228 31.6807 40.3621 29.7321 40.3621 26.6178V26.4993C40.3621 23.8336 38.2893 22.2934 34.7534 22.2934C31.955 22.2934 29.4844 23.2088 27.1399 25.0395C26.2583 25.728 24.9812 25.7114 24.2162 24.8953L21.279 21.7621C20.5592 20.9942 20.5507 19.7912 21.3299 19.0837C24.7071 16.0172 29.0904 14 34.9363 14C43.7151 14 49.6897 18.3836 49.6897 26.2623V26.3808C49.6897 33.3958 45.0253 36.5479 39.0078 37.9984C38.2104 38.1906 37.5814 38.8174 37.4317 39.6239L37.3125 40.2662C37.1366 41.2138 36.3099 41.9013 35.3461 41.9013H32.5197ZM33.5179 56C30.9006 56 28.7789 53.8782 28.7789 51.2609C28.7789 48.6436 30.9006 46.5219 33.5179 46.5219H33.916C36.5333 46.5219 38.6551 48.6436 38.6551 51.2609C38.6551 53.8782 36.5333 56 33.916 56H33.5179Z" fill="#A869EE"/>
</svg>