<svg width="488" height="325" viewBox="0 0 488 325" fill="none" xmlns="http://www.w3.org/2000/svg">
<path d="M438.904 296.125C438.904 296.126 438.903 296.126 438.902 296.125C430.601 263.874 404.516 256.315 368.397 250.623C332.911 245.031 299.476 226.942 275.748 200.07C250.957 171.999 237.841 132.379 202.166 115.19C184.743 106.787 164.762 105.021 145.634 105.941C125.945 106.874 105.788 111.329 88.9678 122C71.4799 133.089 62.2853 150.583 56.5282 169.843C49.9277 191.928 44.0086 214.229 37.7848 236.421C31.5208 258.743 25.2572 281.08 19.0075 303.402C13.4504 323.233 5.23515 344.578 8.54214 365.475C14.4151 402.494 50.7659 426.664 86.2983 429.837C128.813 433.629 168.312 414.761 206.267 398.274C227.098 389.226 248.208 381.05 270.666 377.132C292.135 373.396 313.937 372.343 335.563 369.812C359.687 366.98 442.89 351.014 441.62 316.367C441.332 308.705 440.419 302.005 438.906 296.125C438.905 296.124 438.904 296.124 438.904 296.125Z" fill="#F5C84E"/>
<path d="M128.223 160.8L128.091 160.857C128.151 160.866 128.199 160.855 128.223 160.8Z" fill="#333331"/>
<path d="M123.66 161.968C123.66 161.968 123.641 161.95 123.633 161.944L123.653 161.97L123.66 161.968Z" fill="#333331"/>
<path d="M124.537 159.652C124.434 159.981 124.246 160.17 124.069 160.35C123.908 160.534 123.794 160.708 123.814 161.04C123.759 161.187 123.733 161.336 123.709 161.491C123.684 161.646 123.691 161.816 123.65 161.96C123.986 162.268 123.504 162.32 123.735 162.636L123.485 162.567C123.565 162.678 123.602 162.785 123.462 162.765L123.402 162.72C123.525 162.894 123.38 162.918 123.426 163.001L123.366 162.956L123.33 163.057L123.257 162.979C123.333 163.206 123.258 163.358 123.095 163.399L123.334 163.585C122.88 163.566 123.28 164.11 122.789 163.985L122.742 163.93C122.89 164.328 122.701 164.346 122.505 164.295C122.311 164.257 122.142 164.2 122.209 164.621C122.189 164.526 122.112 164.499 122.077 164.435C121.992 164.574 121.88 164.69 122.15 165.227C122.04 165.279 121.976 165.113 121.862 164.909C121.984 165.148 121.934 165.287 121.852 165.339L121.851 165.232L121.632 165.414L121.867 165.851C121.666 165.779 121.616 165.303 121.523 165.473L121.661 165.858C121.425 165.858 121.118 165.279 120.895 165.033C120.718 165.042 120.545 165.071 120.367 165.173C120.184 165.254 119.994 165.337 119.811 165.419C119.612 165.46 119.41 165.517 119.216 165.479C119.027 165.426 118.843 165.336 118.73 165.103L118.787 164.798C118.917 164.363 118.407 165.371 118.508 164.964L118.357 165.131C118.362 165.052 118.348 164.954 118.424 164.874C118.36 164.838 118.329 164.894 118.23 165.001L118.261 164.708C118.169 164.542 118.011 164.575 117.843 164.589C117.673 164.596 117.491 164.613 117.371 164.488C117.36 164.126 117.143 163.979 116.861 163.86C116.719 163.797 116.554 163.76 116.389 163.723C116.229 163.678 116.071 163.64 115.935 163.604C115.692 163.605 115.563 163.468 115.504 163.287C115.445 163.107 115.421 162.891 115.443 162.657C115.453 162.434 115.465 162.217 115.415 162.049C115.378 161.871 115.272 161.743 115.018 161.689C115.065 161.643 114.911 161.654 114.866 161.678C114.795 161.479 114.738 161.276 114.669 161.084C114.669 161.084 114.652 161.037 114.617 160.973C114.588 160.901 114.546 160.802 114.485 160.686C114.354 160.471 114.176 160.201 113.922 160.012C113.654 159.825 113.288 159.716 112.804 159.861C112.328 160.011 111.699 160.415 111.033 161.462L110.934 161.469C110.873 161.996 110.91 162.339 111.512 162.448C110.978 162.731 111.615 162.84 111.481 163.019L111.434 163.029C111.962 163.096 111.374 163.763 111.879 163.821C111.831 163.831 111.684 163.912 111.643 163.856C111.811 164.007 112.07 164.188 111.783 164.384C111.967 164.581 112.124 164.849 112.319 165.065C112.527 165.271 112.772 165.419 113.09 165.367L113 165.414C113.408 165.314 113.183 165.569 113.474 165.594C113.447 165.635 113.437 165.658 113.425 165.668C113.838 165.56 113.869 166.046 114.093 166.056L113.937 166.232C114.046 166.309 114.162 166.385 114.271 166.462L114.193 166.328C114.656 165.881 114.155 166.829 114.643 166.705C114.817 166.954 115.88 165.959 115.885 166.358C116.155 166.18 115.521 166.699 115.804 166.618C115.62 166.9 115.616 166.744 115.503 166.989C115.742 166.967 115.593 167.449 115.915 167.381L115.792 167.614C116.297 167.365 116.17 168.221 116.574 167.9C116.961 167.84 116.472 168.707 117.004 168.381L117.018 168.757C117.155 168.864 117.27 168.389 117.379 168.602C117.302 168.811 117.536 168.841 117.372 169.011C117.514 169.245 117.754 169.195 118 169.143C118.248 169.098 118.482 169.092 118.711 169.43C118.888 169.014 119.126 169.3 119.245 168.982C119.242 169.168 119.784 169.061 119.449 169.439C119.419 169.467 119.373 169.455 119.381 169.389L119.327 169.643C119.63 170.165 119.934 169.401 120.233 169.467C120.138 169.387 120.015 169.413 120.091 169.232L120.375 169.258L120.328 169.476C120.478 169.508 120.624 169.556 120.778 169.574L120.694 169.313C120.911 169.425 121.052 169.859 121.244 169.447C121.319 169.224 120.997 169.121 121.201 169.006C121.498 169.158 121.977 169.329 122.363 169.298C122.246 169.015 122.344 169.002 122.418 168.915L122.506 169.161C122.761 168.707 122.833 169.663 123.11 169.248L123.149 169.433L123.041 168.884C123.155 168.274 123.437 169.308 123.499 168.516C123.377 168.613 123.197 168.029 123.401 168.05L123.475 168.299C123.541 168.207 123.518 168.097 123.599 168.109C123.609 168.257 123.743 168.45 123.849 168.342L123.904 168.674C123.916 168.492 123.926 168.304 123.932 168.125C124.259 168.256 124.377 167.795 124.634 168.034C124.634 168.034 125.127 167.895 124.971 167.528C125.045 167.776 125.306 167.693 125.426 167.961C125.366 167.673 125.473 167.265 125.777 167.387L125.786 167.428C126.413 167.282 126.128 166.505 126.712 166.397C126.468 166.22 126.751 166.139 126.409 165.939C126.365 165.355 127.572 165.694 126.647 164.896C126.69 164.694 127.007 164.841 127.115 164.776L127.144 164.848C127.256 164.461 127.308 164.371 127.448 164.12C127.41 163.935 126.913 163.682 127.13 163.522C127.3 163.687 127.306 163.578 127.338 163.493C127.352 163.561 127.413 163.613 127.602 163.559C127.543 163.514 127.52 163.476 127.498 163.438C127.513 163.442 127.528 163.446 127.552 163.455C127.536 163.28 127.458 163.282 127.412 163.334C127.38 163.32 127.342 163.306 127.277 163.306C127.598 163.267 127.412 162.891 127.771 163.002C127.858 162.533 127.553 162.104 127.502 161.722C127.703 161.73 127.85 161.849 127.891 161.976L127.89 161.698C128.16 161.762 128.008 161.887 128.042 161.98C128.581 161.759 127.751 161.241 128.218 160.95L128.009 160.837L128.05 160.828C127.93 160.803 127.787 160.698 127.76 160.639C128.007 160.623 128.327 160.72 128.331 160.533C128.576 160.41 128.254 160.099 128.134 159.903C128.083 159.999 127.952 159.955 127.871 159.908C127.874 159.822 128.116 159.785 128.021 159.705L128.351 159.714C128.042 159.737 128.027 159.461 127.891 159.425C128.137 159.374 128.101 159.574 128.285 159.6C128.258 159.234 128.268 159.417 128.239 159.045C127.992 158.854 127.926 159.082 127.635 158.993C127.572 158.828 127.348 158.682 127.529 158.487L127.244 158.561C126.992 158.278 127.014 158.109 127.294 157.879C126.628 157.397 126.078 157.227 125.647 157.182C125.216 157.137 124.889 157.213 124.651 157.341C124.164 157.572 124 157.914 124 157.914C123.444 158.602 124.314 158.798 124.513 159.607L124.537 159.652Z" fill="#333331"/>
<path d="M99.3295 141.561C99.7024 141.125 98.9334 141.037 98.9324 140.794L98.9775 140.77C98.6414 140.769 98.528 140.536 98.3873 140.308C98.2479 140.087 98.096 139.841 97.7906 139.884C97.8274 139.854 97.9289 139.726 98.0255 139.777C97.6841 139.649 97.2152 139.526 97.3438 139.22C96.6675 138.926 95.7146 138.541 95.0721 138.747C94.9118 138.631 94.7256 138.663 94.552 138.721C94.3975 138.768 94.2487 138.842 94.0982 138.874L94.0953 138.86C94.0816 138.863 94.0762 138.871 94.0639 138.881C93.9955 138.895 93.9325 138.901 93.8583 138.888C93.8997 138.915 93.9382 138.929 93.9699 138.943C93.8676 139.001 93.7513 139.025 93.6375 139.028L93.7113 138.869C93.4927 138.815 93.277 138.775 93.0573 138.749L93.1531 139.001C92.8448 138.894 92.6731 138.452 92.3521 138.862C92.3197 138.912 92.3215 138.954 92.3438 138.992C92.3164 138.998 92.289 139.004 92.2617 139.01L92.3549 139.011C92.3981 139.081 92.481 139.135 92.4842 139.184C92.3916 139.39 91.9916 138.881 91.6814 139.139C91.3656 139.098 91.0267 139.084 90.7241 139.14C90.8638 139.396 90.7215 139.434 90.6073 139.536L90.5022 139.308C90.0918 139.837 90.0878 138.867 89.658 139.371L89.7191 139.73C89.5007 140.39 89.2085 139.409 89.0635 140.282C89.1409 140.209 89.2324 140.304 89.272 140.424C89.2161 140.465 89.1574 140.491 89.0904 140.512L89.0875 140.499C89.0875 140.499 89.0753 140.509 89.0767 140.515C89.0357 140.524 89.0043 140.545 88.9633 140.554C88.9222 140.562 88.8826 140.578 88.8361 140.595C88.7778 140.521 88.6788 140.492 88.5811 140.605L88.5258 140.274C88.4976 140.48 88.4695 140.686 88.4536 140.882C88.267 140.879 88.1405 140.991 88.0224 141.109C87.9043 141.091 87.8113 141.124 87.7817 141.324C87.7108 141.36 87.6355 141.376 87.5487 141.337C87.5487 141.337 87.5051 141.367 87.4507 141.415L87.3629 141.404C87.3153 141.45 87.3034 141.496 87.3135 141.543C87.2958 141.561 87.2836 141.571 87.2659 141.589C87.1928 141.683 87.1294 141.789 87.1031 141.902C87.0116 141.943 86.9298 141.996 86.8859 141.855C86.8218 141.89 86.7742 141.936 86.7281 141.988C86.6744 141.971 86.6262 141.945 86.583 141.876C86.6003 141.958 86.615 142.062 86.6078 142.163C86.5364 142.3 86.4914 142.459 86.4477 142.626C86.38 142.712 86.3011 142.778 86.197 142.793L86.1869 142.745C85.8523 143.023 85.782 143.402 85.725 143.742C85.6716 144.032 85.6456 144.316 85.4712 144.575C85.1808 144.757 85.219 145.006 85.2952 145.233C85.373 145.467 85.5069 145.696 85.4625 145.927C85.5436 145.803 85.5491 145.659 85.6636 145.727C85.6138 145.831 85.5558 145.929 85.5115 146.024C85.5021 146.047 85.4928 146.071 85.4834 146.094L85.4517 146.079C85.3976 146.298 85.3572 146.514 85.3319 146.733L85.5834 146.637C85.4767 146.946 85.034 147.117 85.4445 147.438C85.5093 147.475 85.5572 147.465 85.6008 147.434C85.6573 147.737 85.681 147.917 85.7123 148.168C85.6754 148.469 85.6703 148.784 85.7225 149.066C85.9271 148.952 85.9922 149.024 86.07 149.122C86.0538 149.147 86.039 149.178 86.0188 149.218C86.0188 149.218 86.0271 149.224 86.034 149.222L85.8906 149.288C86.4199 149.698 85.4489 149.703 85.9538 150.132L86.3125 150.071C86.3125 150.071 86.3676 150.095 86.391 150.105C86.4425 150.18 86.4994 150.246 86.5494 150.314C86.5112 150.472 86.2879 150.634 86.8648 150.727C86.8371 150.697 86.8367 150.661 86.8515 150.629C86.9732 150.732 87.0935 150.829 87.2123 150.918C87.11 150.975 87.0617 151.085 87.1863 151.202L86.8549 151.258C87.0609 151.286 87.267 151.314 87.4632 151.33C87.465 151.372 87.4722 151.406 87.4863 151.439C87.4272 151.43 87.3598 151.416 87.3019 151.378L87.6133 151.67C87.4051 151.835 87.3422 151.569 87.2194 151.495C87.2103 151.826 87.4533 151.996 87.7288 152.117C87.7922 152.147 87.8556 152.176 87.919 152.206C87.919 152.206 87.9204 152.212 87.9218 152.219C87.9218 152.219 88.0248 152.369 88.1742 152.502C88.2254 152.541 88.2751 152.574 88.3316 152.605C88.3456 152.638 88.3651 152.662 88.3806 152.702L88.5009 152.662C88.538 152.669 88.5805 152.667 88.6147 152.66L88.6176 152.673C88.6176 152.673 88.6366 152.662 88.6489 152.652C88.6694 152.648 88.69 152.644 88.7105 152.639C88.4522 152.737 88.7158 153.038 88.4608 153.185C88.5825 153.152 88.7388 153.148 88.8886 153.181C88.926 153.359 89.127 153.431 89.3398 153.457C89.3607 153.489 89.3762 153.528 89.3765 153.564L89.3286 153.574C89.6062 153.909 89.9855 153.979 90.3262 154.036C90.6751 154.098 91.0072 154.114 91.3021 154.395C91.3501 154.114 91.6788 154.352 91.6778 153.973C92.0679 153.891 92.3391 154.127 92.6009 154.251C92.8573 154.383 93.0863 154.384 93.2467 153.822C93.5576 153.771 93.6075 154.111 93.7822 154.16L93.7033 154.226C94.3124 154.098 94.4809 154.084 94.9275 154.033C95.1318 153.883 95.061 153.376 95.4453 153.403C95.3804 153.638 95.5209 153.558 95.6563 153.523C95.5745 153.575 95.5644 153.663 95.7888 153.745C95.7949 153.672 95.8273 153.622 95.8544 153.581C95.8572 153.595 95.8738 153.605 95.8713 153.627C95.8958 153.608 95.908 153.598 95.9257 153.58C96.1734 153.671 96.4608 153.746 96.7972 153.783L96.8037 153.882C97.6155 153.732 98.0993 153.416 98.2187 152.727C98.6544 153.099 98.736 152.332 98.9856 152.329L99.0093 152.375C99.0101 152.039 99.2435 151.925 99.4712 151.784C99.692 151.645 99.9388 151.493 99.896 151.188C99.9251 151.224 100.054 151.326 100.003 151.423C100.131 151.081 100.254 150.612 100.56 150.741C100.896 149.963 101.368 148.806 100.898 148.205L100.988 148.257C100.665 147.911 101.006 147.868 100.834 147.525C100.882 147.515 100.905 147.489 100.92 147.493C100.6 147.16 100.87 146.574 100.696 146.325L100.915 146.279C100.873 146.081 100.822 145.87 100.772 145.666L100.764 145.903C100.156 145.931 101.072 145.36 100.552 144.998C100.542 144.778 100.162 144.672 99.816 144.588C99.9378 144.419 100.052 144.217 100.142 143.962C100.249 143.69 100.343 143.355 100.383 142.968L100.482 142.962C100.332 142.15 100.016 141.666 99.3266 141.547L99.3295 141.561Z" fill="#333331"/>
<path d="M92.5922 145.236C92.7468 145.053 92.4323 145.019 92.4259 144.92L92.4464 144.916C92.3092 144.909 92.2617 144.819 92.2059 144.724C92.1515 144.635 92.0874 144.534 91.9614 144.546C91.9805 144.535 92.0183 144.477 92.0597 144.504C91.9193 144.448 91.7309 144.402 91.7832 144.277C91.5077 144.156 91.1166 143.995 90.8555 144.079C90.7878 144.029 90.7125 144.045 90.6386 144.067C90.5785 144.087 90.5129 144.115 90.4513 144.128C90.4513 144.128 90.4445 144.129 90.4377 144.131C90.4103 144.137 90.3829 144.142 90.3527 144.134C90.3692 144.145 90.3843 144.149 90.4009 144.16C90.3559 144.184 90.3148 144.192 90.264 144.189L90.2936 144.125C90.2028 144.102 90.1135 144.085 90.0256 144.075L90.0678 144.173C89.9439 144.128 89.8708 143.95 89.7408 144.113C89.7314 144.136 89.7274 144.152 89.7371 144.164C89.7235 144.167 89.7166 144.168 89.7029 144.171L89.7371 144.164C89.7595 144.202 89.7926 144.224 89.7901 144.246C89.7511 144.332 89.5859 144.124 89.4648 144.228C89.333 144.213 89.1958 144.206 89.0726 144.232C89.1299 144.334 89.0697 144.354 89.0207 144.393L88.98 144.302C88.8107 144.516 88.8069 144.124 88.6361 144.331L88.6663 144.475C88.573 144.744 88.4524 144.341 88.3929 144.704C88.4296 144.675 88.4588 144.711 88.4771 144.765C88.4526 144.784 88.4253 144.79 88.4062 144.801C88.3925 144.804 88.372 144.808 88.3583 144.811C88.3377 144.815 88.3241 144.818 88.3035 144.823C88.2758 144.793 88.2373 144.779 88.1966 144.824L88.1678 144.687C88.1645 144.773 88.153 144.854 88.1414 144.935C88.0633 144.937 88.0143 144.976 87.9682 145.029C87.9174 145.025 87.8832 145.032 87.8648 145.115C87.8388 145.127 87.8046 145.135 87.7729 145.12C87.7729 145.12 87.7538 145.131 87.7293 145.151L87.6923 145.144C87.6923 145.144 87.6706 145.177 87.6749 145.198C87.6681 145.199 87.6627 145.207 87.6573 145.216C87.6288 145.25 87.6032 145.299 87.5913 145.344C87.5517 145.359 87.5204 145.38 87.502 145.327C87.4761 145.34 87.4585 145.358 87.4354 145.384C87.4134 145.381 87.3954 145.364 87.376 145.339C87.3832 145.373 87.3918 145.414 87.3868 145.458C87.3558 145.515 87.3413 145.582 87.3201 145.651C87.2916 145.686 87.2617 145.713 87.2207 145.722L87.2163 145.701C87.0762 145.817 87.0517 145.972 87.0243 146.113C86.9994 146.233 86.995 146.348 86.9179 146.457C86.798 146.532 86.8127 146.637 86.8465 146.729C86.8804 146.822 86.9293 146.919 86.9138 147.015C86.9462 146.966 86.9484 146.908 86.9967 146.934C86.9765 146.974 86.9495 147.015 86.9361 147.054C86.9376 147.06 86.9253 147.07 86.9214 147.085L86.9077 147.088C86.881 147.165 86.864 147.255 86.8554 147.349L86.9537 147.307C86.9083 147.431 86.7307 147.504 86.8938 147.634C86.9187 147.65 86.9392 147.646 86.9583 147.635C86.9842 147.758 86.9932 147.835 87.0079 147.939C86.9913 148.064 86.9899 148.193 87.0143 148.309C87.0975 148.263 87.1238 148.286 87.1544 148.33C87.149 148.338 87.145 148.353 87.1342 148.37L87.0755 148.396C87.2898 148.566 86.8976 148.569 87.105 148.74L87.2487 148.71C87.2487 148.71 87.2735 148.726 87.2818 148.732C87.3027 148.763 87.3221 148.787 87.3498 148.817C87.3354 148.885 87.2414 148.947 87.4791 148.99C87.4694 148.978 87.4733 148.963 87.4705 148.949C87.5216 148.988 87.5673 149.036 87.617 149.068C87.5788 149.091 87.5532 149.139 87.6058 149.185L87.469 149.214C87.5554 149.217 87.6364 149.229 87.7175 149.24C87.7203 149.254 87.7246 149.274 87.7275 149.288C87.7056 149.286 87.6753 149.278 87.6505 149.261L87.7765 149.385C87.6908 149.453 87.6677 149.343 87.6112 149.313C87.6043 149.45 87.7051 149.521 87.8222 149.568C87.847 149.584 87.8773 149.592 87.9021 149.609C87.9021 149.609 87.9439 149.671 88.0047 149.723C88.0227 149.74 88.0462 149.75 88.071 149.766C88.0739 149.78 88.0836 149.792 88.0933 149.804L88.1412 149.794C88.1412 149.794 88.1686 149.788 88.1891 149.784C88.1891 149.784 88.196 149.783 88.2028 149.781C88.2097 149.78 88.2165 149.778 88.2302 149.775C88.1236 149.812 88.2291 149.94 88.1268 149.997C88.1747 149.987 88.2377 149.981 88.305 149.995C88.3209 150.071 88.3979 150.097 88.4926 150.106C88.4955 150.12 88.5052 150.132 88.5027 150.154L88.4822 150.158C88.5974 150.298 88.7526 150.323 88.8942 150.35C89.0357 150.378 89.1729 150.385 89.2961 150.494C89.3141 150.376 89.4495 150.477 89.4535 150.326C89.6109 150.293 89.7243 150.39 89.8345 150.438C89.9393 150.495 90.0326 150.497 90.0975 150.262C90.2207 150.236 90.244 150.381 90.3197 150.401L90.2898 150.428C90.5361 150.377 90.606 150.369 90.7882 150.352C90.8754 150.291 90.8391 150.084 90.9983 150.094C90.9691 150.193 91.0264 150.159 91.0865 150.139C91.0552 150.16 91.0487 150.197 91.1409 150.228C91.142 150.199 91.1596 150.181 91.1704 150.165C91.1704 150.165 91.1733 150.178 91.1747 150.185C91.1884 150.182 91.187 150.175 91.1992 150.166C91.2997 150.202 91.4207 150.233 91.5525 150.249L91.5612 150.29C91.8911 150.227 92.086 150.101 92.1339 149.819C92.3165 149.974 92.3504 149.659 92.4491 149.653L92.4534 149.673C92.4603 149.536 92.5504 149.489 92.6458 149.433C92.7344 149.378 92.8353 149.314 92.8231 149.188C92.8343 149.207 92.8922 149.245 92.8652 149.287C92.9214 149.146 92.9676 148.958 93.0929 149.01C93.2338 148.695 93.4266 148.218 93.2308 147.967L93.2639 147.988C93.1335 147.844 93.2733 147.829 93.2006 147.687C93.2211 147.683 93.2265 147.674 93.2348 147.68C93.0991 147.544 93.2133 147.306 93.1409 147.199L93.2299 147.181C93.2126 147.099 93.1954 147.017 93.1766 146.928L93.1763 147.028C92.9281 147.037 93.3017 146.808 93.0917 146.66C93.0867 146.568 92.9272 146.523 92.7925 146.494C92.8426 146.426 92.8883 146.338 92.9244 146.237C92.9727 146.127 93.0083 145.991 93.0246 145.831L93.0657 145.822C93.0034 145.492 92.8767 145.297 92.5951 145.249L92.5922 145.236Z" fill="#F4EFF1"/>
<path d="M143.991 135.306C143.776 134.758 143.469 134.044 143.05 133.618C142.878 133.004 142.565 132.634 141.972 132.537C142.345 132.101 141.576 132.013 141.575 131.77L141.62 131.746C141.284 131.745 141.171 131.512 141.03 131.284C140.891 131.064 140.739 130.817 140.434 130.86C140.47 130.83 140.572 130.702 140.668 130.753C140.327 130.625 139.858 130.502 139.987 130.196C139.209 129.86 138.052 129.388 137.45 129.858L137.503 129.768C137.156 130.091 137.113 129.75 136.771 129.922C136.761 129.874 136.734 129.851 136.738 129.836C136.548 130.019 136.275 130.012 136.029 129.999C135.967 129.941 135.892 129.921 135.766 130.005C135.703 130.011 135.643 130.031 135.597 130.048L135.558 129.999L135.525 129.841C135.525 129.841 135.477 129.851 135.449 129.857L135.391 129.784C135.296 129.775 135.253 129.841 135.225 129.911C135.122 129.933 135.02 129.954 134.918 129.983C134.819 129.918 134.657 129.931 134.743 129.762C134.401 129.663 134.107 129.861 133.816 130.043C133.523 130.248 133.214 130.406 132.722 130.345C132.736 130.785 132.267 130.762 132.317 131.102C132.287 131.065 132.231 131.07 132.157 131.092L132.138 131.068C132.138 131.068 132.129 131.091 132.125 131.106C131.927 131.184 131.668 131.345 131.788 130.934C131.807 130.887 131.871 130.852 131.905 130.91L131.82 130.677C131.483 130.605 131.338 130.8 131.228 131.023C131.118 131.246 131.049 131.497 130.857 131.637C131.014 131.604 131.135 131.464 131.151 131.675L130.813 131.939L130.74 131.726C130.551 131.845 130.361 131.963 130.191 132.106L130.435 132.212C130.136 132.353 129.71 132.164 129.769 132.681C129.806 132.823 129.943 132.794 130.037 132.803C130.023 132.834 130 132.861 129.946 132.879C129.782 132.742 129.613 133.063 129.534 132.823C129.219 132.989 129.157 133.338 129.078 133.676C129.075 133.698 129.064 133.715 129.062 133.737C128.975 133.833 128.888 133.93 128.817 134.031C128.878 134.054 128.925 134.073 128.952 134.096C128.918 134.174 128.878 134.254 128.822 134.33L128.775 134.311C128.783 134.346 128.773 134.369 128.772 134.398C128.71 134.475 128.634 134.555 128.536 134.633C128.371 134.632 128.194 134.605 128.217 134.95L128.511 135.16C128.721 135.58 128.381 135.495 128.295 135.627L128.104 135.539C127.816 135.728 127.852 135.97 127.93 136.204C128.008 136.438 128.142 136.667 128.097 136.898C128.173 136.782 128.18 136.644 128.282 136.687C128.3 136.705 128.312 136.731 128.33 136.749L128.283 137.137L128.085 137.043C128.031 137.262 127.99 137.477 127.965 137.697L128.217 137.601C128.11 137.91 127.667 138.081 128.078 138.402C128.101 138.412 128.116 138.416 128.138 138.418C128.178 138.538 128.243 138.646 128.373 138.683C128.121 138.572 128.097 138.97 127.81 138.894C128.094 139.056 128.388 139.537 128.189 139.815L128.146 139.781C128.104 140.19 128.296 140.493 128.488 140.76C128.427 140.844 128.418 140.939 128.594 141.095L128.703 141.072C128.838 141.272 128.953 141.477 128.956 141.762C129.193 141.598 129.249 142 129.52 141.729C129.636 141.804 129.706 141.897 129.763 141.999C129.753 142.051 129.757 142.108 129.821 142.173L129.49 142.228C129.623 142.25 129.753 142.259 129.885 142.274C129.915 142.382 129.945 142.49 129.979 142.583C130.045 142.797 130.162 142.944 130.452 142.862C130.545 142.964 130.61 143.072 130.553 143.205C130.553 143.205 130.656 143.355 130.805 143.488C130.927 143.591 131.08 143.673 131.226 143.657C131.235 143.662 131.243 143.667 131.253 143.68C131.136 143.804 131.301 144.048 131.079 144.18C131.397 144.092 131.946 144.227 131.996 144.566L131.949 144.576C132.226 144.911 132.605 144.981 132.946 145.038C133.295 145.101 133.627 145.117 133.922 145.398C133.97 145.116 134.299 145.354 134.298 144.976C134.688 144.894 134.959 145.13 135.221 145.253C135.236 145.257 135.246 145.269 135.261 145.273C135.188 145.267 135.114 145.254 135.052 145.267C135.275 145.513 135.571 145.458 135.855 145.348C136.008 145.295 136.162 145.241 136.316 145.23C136.449 145.216 136.583 145.238 136.72 145.317L136.812 145.14C136.812 145.14 136.853 145.131 136.867 145.129C136.963 145.108 137.046 145.098 137.137 145.086C137.172 145.222 137.223 145.325 137.4 145.288C137.677 145.48 138.052 145.058 138.301 144.848C138.131 144.856 138.152 144.715 138.196 144.62C138.203 144.619 138.21 144.618 138.224 144.615C138.232 144.656 138.285 144.702 138.407 144.74C138.408 144.712 138.426 144.694 138.435 144.67C138.482 144.689 138.525 144.687 138.557 144.637L138.668 144.928C138.52 144.667 138.921 144.497 138.921 144.361C139.082 144.549 138.783 144.626 138.806 144.8C139.349 144.564 139.081 144.684 139.61 144.409C139.69 144.249 139.655 144.185 139.594 144.133C140.004 143.769 140.234 143.334 140.514 142.968C140.68 143.076 140.675 143.292 140.574 143.456L140.873 143.143C141.038 143.351 140.772 143.414 140.698 143.537C141.029 143.546 141.199 143.303 141.32 143.028C141.448 142.751 141.571 142.489 141.908 142.39L141.83 142.156L141.878 142.146C141.792 142.078 141.759 141.885 141.791 141.8C142.022 141.88 142.205 142.141 142.373 141.884C142.704 141.829 142.67 141.257 142.702 140.936C142.586 141.061 142.505 140.949 142.463 140.851C142.53 140.729 142.773 140.764 142.728 140.616L143.012 140.743C142.889 140.704 142.849 140.612 142.834 140.508C142.879 140.485 142.919 140.469 142.957 140.447C142.965 140.488 142.981 140.528 143.016 140.556C143.054 140.469 143.077 140.407 143.101 140.352C143.214 140.278 143.322 140.213 143.438 140.117L143.515 140.179C143.987 139.501 144.104 138.934 143.698 138.362C144.273 138.312 143.79 137.714 143.96 137.535L144.006 137.554C143.771 137.318 143.855 137.071 143.921 136.807C143.975 136.553 144.045 136.274 143.797 136.083C143.843 136.095 144.008 136.067 144.038 136.175C143.889 135.842 143.645 135.429 143.947 135.301L143.991 135.306ZM135.152 130.005C135.152 130.005 135.15 130.063 135.147 130.085C135.113 130.128 135.067 130.145 134.987 130.104C134.975 130.05 134.954 130.018 134.92 129.99L135.15 129.998L135.152 130.005ZM128.298 135.676C128.298 135.676 128.3 135.755 128.327 135.813C128.315 135.794 128.299 135.783 128.286 135.758C128.274 135.732 128.282 135.701 128.299 135.683L128.298 135.676Z" fill="#333331"/>
<path d="M136.078 137.171C135.988 136.947 135.861 136.652 135.697 136.48C135.623 136.231 135.498 136.078 135.253 136.037C135.408 135.854 135.093 135.82 135.087 135.722L135.108 135.717C134.97 135.711 134.923 135.621 134.867 135.525C134.813 135.436 134.749 135.336 134.623 135.348C134.642 135.337 134.679 135.279 134.721 135.306C134.58 135.25 134.392 135.203 134.444 135.078C134.129 134.937 133.652 134.744 133.401 134.94L133.422 134.907C133.278 135.037 133.263 134.898 133.121 134.97C133.117 134.95 133.109 134.945 133.114 134.936C133.036 135.01 132.921 135.005 132.82 134.998C132.793 134.975 132.763 134.967 132.713 134.999C132.685 135.005 132.665 135.009 132.644 135.014L132.626 134.996L132.613 134.934C132.613 134.934 132.593 134.939 132.579 134.942L132.551 134.912C132.514 134.905 132.499 134.937 132.483 134.962C132.442 134.97 132.401 134.979 132.36 134.988C132.319 134.961 132.256 134.967 132.284 134.896C132.146 134.854 132.021 134.937 131.901 135.013C131.782 135.095 131.654 135.165 131.455 135.135C131.464 135.312 131.269 135.303 131.292 135.448C131.281 135.429 131.254 135.435 131.228 135.447L131.225 135.434C131.225 135.434 131.213 135.443 131.214 135.45C131.135 135.481 131.027 135.547 131.077 135.379C131.087 135.355 131.113 135.343 131.125 135.369L131.092 135.276C130.957 135.247 130.895 135.324 130.85 135.419C130.804 135.508 130.777 135.613 130.696 135.673C130.758 135.66 130.811 135.606 130.814 135.691L130.68 135.798L130.647 135.712C130.571 135.757 130.496 135.808 130.423 135.867L130.524 135.909C130.402 135.971 130.227 135.886 130.251 136.103C130.264 136.164 130.325 136.151 130.361 136.151C130.355 136.159 130.345 136.176 130.324 136.18C130.255 136.123 130.189 136.251 130.155 136.159C130.027 136.228 130 136.37 129.965 136.513C129.967 136.52 129.961 136.528 129.956 136.536C129.921 136.572 129.887 136.615 129.853 136.658C129.876 136.667 129.9 136.677 129.908 136.682C129.893 136.714 129.878 136.746 129.857 136.779L129.843 136.782C129.843 136.782 129.846 136.795 129.841 136.803C129.812 136.838 129.782 136.866 129.747 136.902C129.683 136.901 129.608 136.888 129.618 137.036L129.737 137.125C129.824 137.3 129.681 137.266 129.648 137.316L129.568 137.275C129.448 137.35 129.463 137.455 129.497 137.547C129.531 137.64 129.58 137.737 129.564 137.833C129.597 137.784 129.599 137.726 129.639 137.746C129.64 137.753 129.65 137.765 129.658 137.771L129.642 137.931L129.562 137.891C129.538 137.982 129.521 138.071 129.511 138.159L129.609 138.117C129.564 138.241 129.386 138.314 129.55 138.444C129.556 138.442 129.565 138.448 129.573 138.453C129.583 138.501 129.614 138.545 129.667 138.562C129.564 138.512 129.556 138.678 129.435 138.647C129.55 138.715 129.669 138.912 129.592 139.021L129.576 139.01C129.561 139.177 129.638 139.304 129.717 139.409C129.695 139.442 129.69 139.486 129.759 139.543L129.807 139.533C129.86 139.615 129.906 139.698 129.91 139.819C130.01 139.748 130.03 139.915 130.143 139.805C130.193 139.838 130.222 139.874 130.244 139.913C130.242 139.935 130.239 139.957 130.267 139.986L130.13 140.015C130.181 140.019 130.238 140.021 130.291 140.031C130.301 140.079 130.309 140.12 130.332 140.159C130.357 140.246 130.406 140.307 130.528 140.275C130.565 140.317 130.596 140.36 130.565 140.417C130.565 140.417 130.606 140.479 130.667 140.531C130.718 140.57 130.783 140.607 130.839 140.602C130.839 140.602 130.839 140.602 130.848 140.607C130.802 140.66 130.866 140.761 130.776 140.808C130.904 140.774 131.13 140.827 131.152 140.965L131.131 140.969C131.246 141.11 131.402 141.134 131.543 141.161C131.685 141.189 131.822 141.196 131.945 141.306C131.963 141.187 132.098 141.288 132.102 141.137C132.26 141.104 132.373 141.201 132.483 141.25C132.483 141.25 132.492 141.255 132.5 141.26C132.471 141.259 132.441 141.251 132.414 141.257C132.506 141.359 132.623 141.335 132.742 141.288C132.809 141.267 132.869 141.247 132.932 141.241C132.988 141.236 133.04 141.247 133.097 141.278L133.132 141.206C133.132 141.206 133.145 141.203 133.152 141.202C133.193 141.193 133.228 141.186 133.262 141.179C133.273 141.233 133.297 141.279 133.372 141.263C133.488 141.338 133.639 141.171 133.742 141.085C133.671 141.086 133.68 141.027 133.7 140.987C133.7 140.987 133.7 140.987 133.707 140.985C133.71 140.999 133.736 141.022 133.783 141.041C133.78 141.027 133.792 141.017 133.798 141.009C133.82 141.011 133.835 141.015 133.846 140.999L133.892 141.118C133.833 141.009 133.997 140.938 133.993 140.882C134.059 140.961 133.936 140.987 133.945 141.064C134.168 140.967 134.057 141.019 134.275 140.901C134.305 140.838 134.292 140.812 134.273 140.788C134.441 140.638 134.533 140.461 134.651 140.308C134.717 140.351 134.714 140.438 134.672 140.511L134.796 140.385C134.864 140.47 134.754 140.493 134.723 140.55C134.86 140.557 134.932 140.456 134.979 140.339C135.034 140.227 135.082 140.117 135.223 140.073L135.189 139.98L135.21 139.976C135.21 139.976 135.166 139.871 135.18 139.832C135.272 139.863 135.352 139.975 135.416 139.868C135.553 139.84 135.541 139.613 135.549 139.483C135.503 139.536 135.464 139.487 135.449 139.447C135.474 139.399 135.577 139.413 135.558 139.353L135.676 139.406C135.622 139.389 135.607 139.349 135.605 139.307C135.626 139.303 135.638 139.293 135.657 139.282C135.661 139.302 135.664 139.316 135.681 139.327C135.694 139.288 135.703 139.265 135.713 139.241C135.756 139.211 135.8 139.18 135.85 139.148L135.885 139.177C136.077 138.9 136.128 138.668 135.957 138.433C136.189 138.413 135.994 138.168 136.065 138.096L136.088 138.105C135.99 138.011 136.026 137.911 136.052 137.798C136.073 137.694 136.106 137.58 136.004 137.501C136.026 137.504 136.089 137.497 136.105 137.537C136.04 137.401 135.94 137.229 136.066 137.181L136.078 137.171ZM132.455 134.996C132.455 134.996 132.459 135.017 132.455 135.032C132.444 135.048 132.424 135.053 132.387 135.046C132.382 135.026 132.38 135.012 132.356 135.003L132.449 135.005L132.455 134.996ZM129.643 137.324C129.643 137.324 129.649 137.351 129.654 137.379C129.653 137.372 129.645 137.366 129.635 137.354C129.632 137.34 129.631 137.334 129.643 137.324Z" fill="#F4EFF1"/>
<path d="M473.241 179.24C470.851 170.643 466.041 162.703 461.216 155.104C447.352 133.22 412.198 99.0525 396.666 78.31C386.454 64.662 375.701 51.1015 361.944 41.0176C348.188 30.9336 330.913 24.5995 314.051 27.1868C294.451 30.1896 278.198 44.8509 268.325 62.0484C233.317 123.037 275.341 206.541 342.063 225.854C366.492 232.923 404.322 243.927 429.202 238.649C454.082 233.37 477.367 211.181 474.536 185.909C474.281 183.638 473.831 181.424 473.227 179.243L473.241 179.24Z" fill="#F74A4B"/>
<path d="M329.758 86.2124L329.653 86.2764C329.685 86.2884 329.718 86.2757 329.758 86.2124Z" fill="#333331"/>
<path d="M326.213 86.857L326.22 86.8382L326.213 86.857Z" fill="#333331"/>
<path d="M328.052 84.6046C327.912 85.0575 327.7 85.2827 327.526 85.4979C327.437 85.6061 327.339 85.6963 327.263 85.8213C327.164 85.9239 327.09 86.0726 326.984 86.2217C326.728 86.4663 326.498 86.7125 326.211 86.8522C326.197 86.9206 326.16 86.9666 326.117 87.0021C326.072 87.0301 326.016 87.0326 325.962 87.0427C325.852 87.0714 325.739 87.0565 325.643 87.1666L325.571 87.0318C325.506 87.0932 325.416 87.1331 325.359 87.055L325.369 87.016C325.255 87.1225 325.15 87.0127 325.086 87.0617L325.1 87.0218C325.058 87.0166 325.015 87.0236 324.971 87.0108L325.008 86.9649C324.904 86.9841 324.802 86.9824 324.703 86.9597C324.607 86.9323 324.522 86.8697 324.454 86.8107L324.391 86.9688C324.248 86.7959 324.117 86.7414 323.973 86.7022C323.844 86.6391 323.702 86.5914 323.624 86.3732L323.654 86.3453C323.488 86.3443 323.377 86.2925 323.297 86.2203C323.224 86.1386 323.18 86.0329 323.142 85.9337C323.056 85.7298 323.005 85.5209 322.673 85.4259C322.753 85.4534 322.73 85.3503 322.766 85.3329C322.583 85.1585 322.422 84.9422 322.136 85.1017C322.047 84.9311 322.151 84.9119 322.251 84.8293C322.123 84.899 321.981 84.7867 321.913 84.6509L321.992 84.6908L321.761 84.3188L321.544 84.5089C321.516 84.2618 321.827 84.3219 321.683 84.1414L321.471 84.2291C321.432 84.0654 321.476 83.9085 321.541 83.7542C321.613 83.5979 321.702 83.4414 321.739 83.2741C321.62 82.6666 321.396 82.0584 321.298 81.4213C321.199 80.7927 321.234 80.1248 321.581 79.6459L321.76 79.6478C322.006 79.7086 321.499 79.2552 321.734 79.2868C321.708 79.233 321.69 79.1811 321.673 79.1291C321.729 79.1143 321.802 79.067 321.83 79.1444C321.885 79.0452 321.848 79.0267 321.812 78.919C321.876 78.9021 321.936 78.8863 322.003 78.877C322.083 78.7994 322.137 78.7125 322.173 78.6182C322.214 78.5267 322.256 78.439 322.287 78.342C322.317 78.2411 322.364 78.1562 322.418 78.0694C322.466 77.9759 322.535 77.9012 322.626 77.8452C322.917 77.7851 323.175 77.6287 323.471 77.4747C323.763 77.3254 324.109 77.1661 324.403 77.1297C324.835 76.9885 325.274 77.3098 325.581 77.6782C325.905 78.0502 326.148 78.4392 326.605 78.6428C326.597 78.6893 326.711 78.6918 326.735 78.6736C326.908 78.903 327.074 79.1383 327.217 79.3918C327.217 79.3918 327.256 79.4464 327.313 79.5406C327.366 79.6358 327.445 79.7686 327.544 79.9126C327.629 80.0682 327.733 80.2348 327.837 80.4015C327.935 80.574 328.047 80.7387 328.161 80.8825C328.371 81.1751 328.624 81.3678 328.88 81.236C329.008 81.1701 329.138 81.0188 329.261 80.7444C329.386 80.4652 329.486 80.063 329.52 79.4804L329.582 79.4845C329.448 78.8649 329.263 78.481 328.797 78.2755C329.039 78.0301 328.541 77.825 328.533 77.6535L328.563 77.6456C328.135 77.5071 328.211 76.8852 327.763 76.7801C327.793 76.7722 327.862 76.7098 327.932 76.764C327.692 76.6007 327.365 76.4032 327.461 76.2448C327.315 76.1497 327.164 76.0356 326.999 75.9293C326.827 75.8288 326.657 75.7197 326.478 75.6373C326.296 75.5596 326.113 75.4943 325.946 75.4572C325.77 75.4345 325.612 75.4353 325.481 75.4737L325.527 75.4334C325.226 75.5486 325.193 75.3754 324.891 75.4137C324.884 75.3835 324.864 75.3686 324.869 75.359C324.713 75.4281 324.512 75.4321 324.319 75.402C324.126 75.3757 323.929 75.3788 323.82 75.4274L323.794 75.2968C323.603 75.3065 323.417 75.3711 323.23 75.412L323.445 75.4002C323.437 75.5842 323.33 75.5475 323.169 75.5047C323.009 75.4619 322.792 75.4538 322.64 75.6271C322.449 75.669 322.355 75.9441 322.276 76.1668C322.2 76.4009 322.162 76.6289 321.966 76.6519C321.937 76.8817 321.914 76.3462 321.8 76.6025C321.674 76.4617 321.821 76.4354 321.675 76.3564C321.605 76.4757 321.493 76.513 321.376 76.5598C321.258 76.6028 321.137 76.6667 321.081 76.8351L320.965 76.7482C320.916 76.9953 320.758 77.1174 320.617 77.2432C320.471 77.3624 320.332 77.4796 320.376 77.6659C320.279 78.0956 319.837 77.7221 319.914 78.2636L319.663 78.3536C319.559 78.5264 319.841 78.5698 319.68 78.7413C319.564 78.6866 319.501 78.9698 319.428 78.8151C319.248 79.0238 319.27 79.2929 319.256 79.5633C319.259 79.8373 319.247 80.1153 319.05 80.4133C319.281 80.571 319.111 80.8782 319.289 80.9853C319.183 80.9969 319.27 81.6085 319.04 81.2563C319.02 81.2253 319.026 81.1712 319.068 81.1764L318.923 81.1334C318.789 81.3141 318.826 81.4863 318.892 81.6467C318.971 81.808 319.076 81.9624 319.066 82.1426C319.107 82.0351 319.083 81.8959 319.19 81.9811L319.194 82.3072L319.07 82.2507C319.061 82.4149 319.067 82.5789 319.066 82.7448L319.205 82.6561C319.167 82.9002 318.92 83.0375 319.188 83.2584C319.33 83.3507 319.339 83.0007 319.437 83.2338C319.422 83.3952 319.396 83.6041 319.4 83.8212C319.405 84.0383 319.423 84.2638 319.46 84.4682C319.606 84.3774 319.638 84.4824 319.711 84.5764L319.578 84.6395C319.924 84.9733 319.332 84.9058 319.646 85.256L319.535 85.261L319.862 85.2442C320.289 85.4719 319.673 85.5724 320.22 85.7808C320.115 85.6425 320.467 85.5666 320.508 85.77L320.361 85.7925C320.444 85.8798 320.513 85.8819 320.527 85.9633C320.428 85.9406 320.33 86.0309 320.435 86.1691L320.225 86.1553C320.356 86.206 320.479 86.2587 320.612 86.3047C320.624 86.5966 320.993 86.8192 320.907 87.0154C320.907 87.0154 320.972 87.1399 321.071 87.2555C321.163 87.3768 321.301 87.4862 321.427 87.4574C321.25 87.4631 321.42 87.7258 321.245 87.7675C321.351 87.7721 321.5 87.8302 321.623 87.9151C321.753 87.9943 321.859 88.1041 321.869 88.2225L321.83 88.2125C322.007 88.5017 322.289 88.6219 322.531 88.7444C322.794 88.8534 323.035 88.956 323.264 89.183C323.315 89.0203 323.563 89.2423 323.583 89.0107C323.894 89.0547 324.124 89.2248 324.332 89.3562C324.549 89.461 324.75 89.5015 324.912 89.1925C325.187 89.1933 325.22 89.3825 325.37 89.4321L325.298 89.4632C325.57 89.4688 325.749 89.426 325.908 89.4167C326.067 89.4074 326.207 89.3869 326.409 89.3544C326.599 89.248 326.555 88.9564 326.893 88.9167C326.828 89.071 326.951 89.0023 327.078 88.9611C327.009 89.0074 326.995 89.0597 327.193 89.0765C327.202 89.0337 327.229 88.9983 327.252 88.9639C327.254 88.9715 327.268 88.9761 327.267 88.9884C327.449 88.8518 327.396 88.8334 327.299 88.8629C327.294 88.844 327.277 88.8243 327.236 88.8067C327.368 88.8327 327.509 88.7553 327.629 88.7038C327.748 88.6484 327.837 88.5886 327.907 88.6713C328.447 88.2634 328.591 87.7611 328.826 87.3319C328.944 87.3495 328.965 87.5096 328.893 87.6498C328.968 87.5494 329.02 87.4388 329.081 87.3338C329.206 87.4263 329.04 87.5628 328.987 87.6696C329.225 87.575 329.309 87.3389 329.382 87.1096C329.436 86.8691 329.506 86.6407 329.705 86.4593L329.634 86.3122L329.665 86.2919C329.606 86.267 329.567 86.1318 329.573 86.0616C329.723 86.0504 329.872 86.1854 329.943 85.9485C330.132 85.8061 330.059 85.401 330.032 85.1453C329.979 85.2682 329.915 85.2082 329.882 85.1441C329.905 85.0291 330.053 84.9943 330.018 84.8904L330.202 84.9149C330.027 84.9244 330.065 84.5751 329.999 84.5236C330.144 84.4775 330.087 84.7227 330.185 84.77C330.233 84.2925 330.227 84.5325 330.253 84.0572C330.132 83.7977 330.075 84.0875 329.922 83.9536C329.906 83.7357 329.787 83.5284 329.893 83.2864L329.731 83.3611C329.612 82.968 329.599 82.7491 329.749 82.4715C329.337 81.7791 328.959 81.4902 328.698 81.3726C328.433 81.256 328.249 81.3121 328.136 81.4508C328.015 81.5754 327.95 81.7582 327.915 81.9046C327.886 82.0538 327.868 82.1716 327.868 82.1716C327.81 82.413 327.809 82.6112 327.808 82.7933C327.821 82.98 327.861 83.1474 327.899 83.3271C327.992 83.6826 328.114 84.0834 328.065 84.6254L328.052 84.6046Z" fill="#333331"/>
<path d="M291.093 54.4771L291.149 54.5188C291.132 54.493 291.11 54.4748 291.093 54.4771Z" fill="#333331"/>
<path d="M295.817 51.2507C295.817 51.2507 295.812 51.244 295.811 51.235C295.813 51.2384 295.814 51.2473 295.817 51.2507Z" fill="#333331"/>
<path d="M293.109 55.8859C293.109 55.8859 293.113 55.8982 293.115 55.9015L293.113 55.8837L293.109 55.8859Z" fill="#333331"/>
<path d="M294.502 52.7031C294.805 52.6284 295.033 52.8686 295.241 52.6003C295.384 52.5519 295.488 52.409 295.596 52.3045C295.537 52.0551 295.763 52.2113 295.732 51.9869L295.828 52.0946C295.818 52.0198 295.826 51.9617 295.886 52.0133L295.905 52.0475C295.887 51.9362 295.962 51.9662 295.953 51.9088L295.974 51.9464L296.009 51.9046L296.03 51.9596C296.04 51.8244 296.101 51.7815 296.184 51.7935L296.1 51.6432C296.313 51.744 296.188 51.4066 296.411 51.5419L296.432 51.5795C296.353 51.1087 296.805 51.7204 296.745 51.2663C296.755 51.3237 296.794 51.3376 296.815 51.3752C296.86 51.2962 296.919 51.2323 296.757 50.942C296.807 50.9188 296.849 51.0114 296.919 51.1203C296.847 50.9905 296.859 50.9165 296.896 50.8868L296.906 50.9442L296.99 50.8389L296.835 50.6078C296.931 50.6438 297.012 50.8939 297.038 50.8035L296.926 50.602C297.027 50.5992 297.242 50.8732 297.404 50.9797C297.776 50.8844 297.845 50.1796 298.341 50.364L298.439 50.5067C298.567 50.7215 298.34 50.1366 298.466 50.3305L298.445 50.2124C298.476 50.2443 298.521 50.2773 298.531 50.3346C298.569 50.3224 298.55 50.2883 298.538 50.2101L298.648 50.3277C298.837 50.3613 298.8 50.0374 298.963 50.0179C299.283 50.2067 299.444 49.7812 299.538 49.532C299.605 49.0653 300.379 49.7799 300.423 49.2634C300.447 49.2904 300.432 49.2087 300.417 49.1814L300.667 49.0828C300.667 49.0828 301.841 48.5406 299.97 47.1974L299.951 47.1458C299.76 47.1 299.662 47.1183 299.712 47.4084C299.535 47.1222 299.589 47.4366 299.508 47.3562L299.495 47.3323C299.547 47.603 299.233 47.2319 299.27 47.4753C299.257 47.4514 299.215 47.3675 299.23 47.3546C299.196 47.4226 299.157 47.5293 299.059 47.3604C298.954 47.4771 298.729 47.4994 298.796 47.8202L298.776 47.7685C298.831 47.9796 298.73 47.8301 298.728 47.9562C298.715 47.9323 298.702 47.9258 298.697 47.9156C298.748 48.1285 298.562 48.0266 298.564 48.128L298.501 48.0153L298.411 48.1016L298.462 48.1045C298.623 48.4264 298.273 47.9502 298.312 48.197C298.221 48.194 298.535 48.9273 298.374 48.8155C298.422 48.9813 298.272 48.5592 298.283 48.7005C298.192 48.5365 298.25 48.5847 298.164 48.4625C298.157 48.5696 297.989 48.3408 297.985 48.4862L297.915 48.3599C297.959 48.6397 297.664 48.28 297.733 48.5324C297.707 48.6859 297.464 48.1856 297.518 48.4825L297.388 48.3308C297.336 48.3244 297.479 48.5578 297.39 48.4952C297.33 48.3859 297.292 48.4383 297.257 48.3191C297.066 48.2016 297.2 48.6682 296.918 48.4497C297.008 48.6767 296.876 48.5845 296.943 48.7531C296.892 48.6608 296.809 48.8098 296.769 48.5683C296.766 48.5475 296.778 48.5451 296.799 48.5827L296.736 48.4525C296.533 48.2568 296.678 48.6546 296.589 48.6551C296.632 48.6847 296.654 48.6592 296.684 48.7541L296.61 48.7731L296.565 48.6597L296.435 48.6514L296.521 48.7736C296.435 48.7319 296.294 48.5194 296.347 48.7358C296.381 48.8516 296.489 48.8853 296.46 48.9548C296.346 48.9021 296.18 48.8203 296.075 48.8249C296.164 48.968 296.139 48.9726 296.132 49.0166L296.062 48.8903C296.072 49.1173 295.872 48.6292 295.865 48.8168L295.822 48.7242L295.946 49.0039C296.008 49.3004 295.759 48.7637 295.866 49.1563C295.888 49.1168 296.039 49.4268 295.964 49.3969L295.906 49.2683C295.897 49.3089 295.919 49.3639 295.89 49.3442C295.867 49.2717 295.798 49.1628 295.775 49.2023L295.713 49.0353L295.774 49.2969C295.652 49.1903 295.666 49.4014 295.549 49.2386C295.549 49.2386 295.395 49.2122 295.478 49.4168C295.432 49.2858 295.349 49.2737 295.29 49.1276C295.337 49.276 295.316 49.431 295.205 49.3046L295.203 49.2838C295.001 49.2034 295.108 49.596 294.902 49.4826C294.987 49.6276 294.888 49.5795 295.007 49.7597C294.999 50.0104 294.587 49.4879 294.873 50.0982C294.839 50.1575 294.735 49.9958 294.694 49.9784L294.691 49.94C294.622 50.0411 294.598 50.0632 294.519 50.0894C294.517 50.1665 294.661 50.4402 294.56 50.4114C294.519 50.2907 294.503 50.3264 294.479 50.3397C294.484 50.315 294.468 50.2703 294.397 50.2156C294.413 50.2517 294.417 50.276 294.42 50.2969C294.416 50.29 294.412 50.2832 294.405 50.2696C294.384 50.33 294.41 50.3603 294.438 50.3626C294.448 50.3796 294.459 50.4001 294.483 50.4271C294.364 50.3099 294.376 50.5001 294.265 50.316C294.17 50.427 294.191 50.6658 294.132 50.7927C294.068 50.7028 294.045 50.6041 294.051 50.5513L293.999 50.6254C293.922 50.4888 293.996 50.524 294.001 50.4853C293.795 50.3089 293.954 50.8024 293.741 50.6526L293.781 50.7733L293.765 50.76C293.797 50.8181 293.82 50.9081 293.813 50.9347C293.733 50.8227 293.659 50.658 293.615 50.6914C293.512 50.5962 293.538 50.8104 293.523 50.9038C293.561 50.9091 293.587 50.9797 293.602 51.0298C293.58 51.0465 293.499 50.9346 293.508 50.9972L293.418 50.8367C293.511 50.9866 293.444 51.0368 293.47 51.1074C293.39 50.9954 293.451 50.984 293.406 50.888C293.318 50.9549 293.362 50.9214 293.273 50.9937C293.29 51.1452 293.369 51.1417 293.419 51.2969C293.392 51.3524 293.41 51.4898 293.302 51.4246L293.399 51.5586C293.377 51.7189 293.316 51.7303 293.176 51.6158C293.184 53.1415 293.928 53.287 293.928 53.287C294.357 53.4639 294.255 52.9749 294.493 52.6948L294.502 52.7031Z" fill="#333331"/>
<path d="M319.251 39.1875L319.286 39.2483C319.28 39.2177 319.267 39.1923 319.251 39.1875Z" fill="#333331"/>
<path d="M324.865 38.1126C324.865 38.1126 324.864 38.1046 324.866 38.0959C324.867 38.0999 324.864 38.1086 324.865 38.1126Z" fill="#333331"/>
<path d="M320.538 41.2844C320.538 41.2844 320.536 41.297 320.537 41.301L320.542 41.2837L320.538 41.2844Z" fill="#333331"/>
<path d="M319.37 41.3167C319.682 41.3421 319.821 41.6421 320.104 41.4539C320.255 41.4535 320.399 41.351 320.534 41.286C320.558 41.031 320.722 41.2508 320.764 41.0281L320.821 41.1607C320.835 41.0865 320.861 41.034 320.901 41.1019L320.909 41.1403C320.928 41.0294 320.989 41.0815 320.998 41.0241L321.006 41.0664L321.053 41.0379L321.056 41.0969C321.108 40.9718 321.179 40.9505 321.254 40.9882L321.222 40.8191C321.392 40.9823 321.381 40.6225 321.549 40.8217L321.557 40.8639C321.632 40.3925 321.867 41.1162 321.954 40.6665C321.944 40.7239 321.977 40.7495 321.985 40.7918C322.053 40.7313 322.129 40.6893 322.068 40.3627C322.122 40.3564 322.133 40.4578 322.165 40.5832C322.137 40.4372 322.173 40.3709 322.217 40.3546L322.208 40.412L322.322 40.339L322.248 40.0705C322.328 40.1351 322.325 40.3981 322.378 40.3205L322.336 40.0938C322.433 40.1234 322.55 40.4515 322.67 40.604C323.053 40.6318 323.342 39.9852 323.754 40.3177L323.801 40.4839C323.855 40.7284 323.825 40.1016 323.883 40.3254L323.9 40.2068C323.92 40.2469 323.952 40.2926 323.943 40.35C323.983 40.3505 323.976 40.312 323.989 40.234L324.056 40.3805C324.224 40.4723 324.292 40.1534 324.453 40.1868C324.697 40.4674 324.985 40.1152 325.153 39.9088C325.365 39.4874 325.872 40.4107 326.077 39.9348C326.091 39.968 326.104 39.8861 326.098 39.8553L326.366 39.841C326.366 39.841 327.652 39.6998 326.304 37.8321L326.302 37.7769C326.135 37.6728 326.037 37.6593 325.992 37.9501C325.915 37.6225 325.866 37.9378 325.815 37.836L325.81 37.8091C325.774 38.0824 325.594 37.6308 325.552 37.8734C325.547 37.8465 325.533 37.7535 325.552 37.7461C325.498 37.7999 325.428 37.8887 325.388 37.6973C325.251 37.7745 325.031 37.7243 324.992 38.0497L324.99 37.9944C324.975 38.212 324.926 38.0381 324.885 38.1572C324.88 38.1303 324.87 38.1202 324.868 38.1087C324.849 38.327 324.705 38.1711 324.675 38.2681L324.651 38.1413L324.538 38.1943L324.585 38.2133C324.636 38.5697 324.455 38.007 324.414 38.2533C324.328 38.2216 324.394 39.0168 324.277 38.8597C324.269 39.0321 324.261 38.5842 324.227 38.7218C324.192 38.5373 324.232 38.6015 324.19 38.4584C324.149 38.5575 324.062 38.2873 324.012 38.4239L323.986 38.2817C323.938 38.561 323.774 38.1265 323.759 38.3878C323.685 38.5249 323.614 37.9735 323.57 38.272L323.496 38.087C323.448 38.0642 323.51 38.331 323.445 38.2436C323.422 38.1206 323.37 38.1583 323.374 38.0342C323.231 37.8622 323.21 38.3473 323.012 38.0504C323.025 38.2944 322.93 38.1651 322.94 38.3462C322.92 38.2424 322.795 38.3574 322.833 38.1156C322.837 38.095 322.849 38.0966 322.857 38.1389L322.838 37.9953C322.708 37.7452 322.719 38.1686 322.635 38.1407C322.666 38.1825 322.695 38.1653 322.694 38.2649L322.617 38.2594L322.61 38.1374L322.49 38.0883L322.532 38.2315C322.464 38.1647 322.398 37.9185 322.38 38.1406C322.375 38.261 322.467 38.3273 322.421 38.3835C322.33 38.2972 322.198 38.1667 322.097 38.1379C322.136 38.3017 322.111 38.2983 322.091 38.3379L322.064 38.1958C322.002 38.4143 321.967 37.8879 321.9 38.0634L321.889 37.962L321.918 38.2668C321.883 38.5677 321.817 37.9795 321.793 38.3856C321.828 38.3554 321.872 38.6971 321.81 38.645L321.796 38.5045C321.775 38.5403 321.778 38.5993 321.757 38.5715C321.758 38.4956 321.727 38.3702 321.693 38.4005L321.687 38.2225L321.662 38.4898C321.58 38.35 321.527 38.5548 321.467 38.3632C321.467 38.3632 321.33 38.2894 321.343 38.5096C321.341 38.3708 321.267 38.3331 321.257 38.1758C321.254 38.3314 321.185 38.4716 321.12 38.3167L321.124 38.296C320.959 38.1559 320.935 38.562 320.776 38.3891C320.811 38.5536 320.733 38.4767 320.787 38.6852C320.7 38.9203 320.476 38.2941 320.553 38.9637C320.502 39.0091 320.455 38.8229 320.422 38.7934L320.431 38.7559C320.333 38.8298 320.304 38.8433 320.22 38.843C320.194 38.9155 320.243 39.2205 320.157 39.1612C320.157 39.0339 320.13 39.0627 320.103 39.0677C320.115 39.0457 320.114 38.9981 320.064 38.9239C320.068 38.963 320.064 38.9875 320.06 39.0082C320.059 39.0005 320.057 38.9928 320.055 38.9774C320.016 39.0283 320.031 39.0653 320.057 39.0764C320.061 39.0956 320.065 39.1186 320.079 39.1518C320.004 39.0029 319.955 39.187 319.907 38.9771C319.782 39.0522 319.726 39.2854 319.63 39.387C319.598 39.2815 319.607 39.1804 319.63 39.1324L319.557 39.1859C319.528 39.0322 319.586 39.0889 319.603 39.0539C319.464 38.8213 319.458 39.3396 319.303 39.1299L319.303 39.2572L319.292 39.2394C319.304 39.3047 319.298 39.3974 319.282 39.4202C319.242 39.2886 319.224 39.1089 319.172 39.1267C319.105 39.0039 319.061 39.215 319.017 39.2988C319.052 39.3161 319.054 39.3913 319.052 39.4434C319.026 39.4523 318.985 39.3207 318.973 39.3826L318.939 39.202C318.979 39.3735 318.901 39.4001 318.903 39.4753C318.862 39.3437 318.923 39.3521 318.912 39.2469C318.807 39.2824 318.859 39.2647 318.751 39.3047C318.72 39.4539 318.795 39.4755 318.794 39.6388C318.751 39.6827 318.724 39.8189 318.643 39.7228L318.692 39.8806C318.62 40.0254 318.559 40.017 318.462 39.8639C317.986 41.3133 318.644 41.6873 318.644 41.6873C318.996 41.9915 319.054 41.4953 319.368 41.3053L319.37 41.3167Z" fill="#333331"/>
</svg>
