<svg width="606" height="497" viewBox="0 0 606 497" fill="none" xmlns="http://www.w3.org/2000/svg">
<path d="M218.465 285.527C215.209 286.143 212.07 284.004 211.453 280.748L196.088 199.596C195.472 196.341 197.611 193.201 200.867 192.585L282.019 177.22C285.274 176.603 287.414 173.464 286.798 170.208L271.433 89.0584C270.816 85.8026 272.956 82.6634 276.212 82.047L357.362 66.6821C360.618 66.0656 362.757 62.9265 362.141 59.6706L346.776 -21.4807C346.159 -24.7366 348.299 -27.8757 351.555 -28.4922L432.706 -43.8573C435.962 -44.4738 439.101 -42.3341 439.718 -39.0782L490.278 227.955C490.894 231.211 488.754 234.35 485.499 234.967L218.465 285.527Z" fill="#A869EE"/>
<path d="M312.161 114.479L312.205 114.555C312.198 114.517 312.182 114.485 312.161 114.479Z" fill="#333331"/>
<path d="M319.093 113.152C319.093 113.152 319.091 113.142 319.095 113.131C319.095 113.136 319.092 113.147 319.093 113.152Z" fill="#333331"/>
<path d="M313.751 117.065C313.751 117.065 313.749 117.081 313.75 117.086L313.756 117.064L313.751 117.065Z" fill="#333331"/>
<path d="M312.309 117.105C312.693 117.136 312.865 117.506 313.215 117.274C313.401 117.274 313.579 117.147 313.746 117.067C313.775 116.752 313.978 117.023 314.03 116.749L314.1 116.912C314.117 116.821 314.149 116.756 314.199 116.84L314.208 116.887C314.231 116.75 314.307 116.815 314.319 116.744L314.328 116.796L314.386 116.761L314.389 116.834C314.454 116.679 314.542 116.653 314.634 116.7L314.595 116.491C314.805 116.692 314.791 116.248 314.999 116.494L315.008 116.546C315.101 115.964 315.391 116.858 315.498 116.302C315.487 116.373 315.527 116.405 315.537 116.457C315.621 116.383 315.715 116.331 315.639 115.928C315.706 115.92 315.72 116.045 315.759 116.2C315.725 116.02 315.769 115.938 315.824 115.918L315.813 115.988L315.953 115.898L315.861 115.567C315.96 115.647 315.957 115.971 316.022 115.876L315.97 115.596C316.09 115.632 316.234 116.037 316.382 116.226C316.855 116.26 317.212 115.462 317.721 115.873L317.779 116.078C317.845 116.38 317.808 115.606 317.88 115.882L317.901 115.736C317.925 115.785 317.965 115.842 317.954 115.912C318.003 115.913 317.994 115.866 318.011 115.769L318.094 115.95C318.301 116.064 318.385 115.67 318.584 115.711C318.885 116.058 319.24 115.623 319.448 115.368C319.709 114.848 320.335 115.988 320.588 115.401C320.606 115.441 320.621 115.34 320.614 115.302L320.945 115.285C320.945 115.285 322.533 115.111 320.869 112.805L320.867 112.737C320.661 112.608 320.54 112.591 320.484 112.95C320.389 112.546 320.329 112.935 320.266 112.809L320.26 112.776C320.214 113.109 319.993 112.556 319.941 112.855C319.935 112.822 319.918 112.708 319.941 112.698C319.875 112.765 319.787 112.874 319.738 112.638C319.57 112.733 319.298 112.671 319.25 113.073L319.247 113.005C319.229 113.273 319.169 113.059 319.118 113.206C319.112 113.172 319.099 113.16 319.097 113.146C319.073 113.415 318.895 113.223 318.859 113.342L318.829 113.186L318.689 113.251L318.748 113.275C318.81 113.715 318.587 113.02 318.536 113.324C318.43 113.285 318.511 114.267 318.366 114.073C318.357 114.286 318.347 113.733 318.305 113.902C318.263 113.675 318.312 113.754 318.259 113.577C318.208 113.7 318.102 113.366 318.04 113.535L318.007 113.359C317.949 113.704 317.746 113.167 317.727 113.49C317.636 113.659 317.548 112.978 317.494 113.347L317.403 113.119C317.343 113.09 317.42 113.42 317.34 113.312C317.312 113.16 317.247 113.207 317.253 113.053C317.076 112.841 317.05 113.44 316.805 113.073C316.822 113.374 316.704 113.215 316.717 113.443C316.693 113.315 316.538 113.457 316.585 113.158C316.59 113.133 316.605 113.135 316.615 113.187L316.592 113.01C316.431 112.701 316.445 113.224 316.34 113.189C316.38 113.241 316.415 113.22 316.413 113.343L316.319 113.336L316.31 113.185L316.161 113.125L316.214 113.301C316.13 113.219 316.049 112.915 316.026 113.189C316.02 113.338 316.133 113.42 316.072 113.49C315.959 113.383 315.797 113.222 315.672 113.187C315.72 113.389 315.689 113.385 315.664 113.434L315.631 113.258C315.554 113.528 315.511 112.878 315.429 113.095L315.415 112.969L315.451 113.346C315.408 113.717 315.325 112.986 315.297 113.492C315.339 113.455 315.394 113.877 315.318 113.813L315.3 113.639C315.274 113.683 315.278 113.756 315.252 113.722C315.254 113.628 315.215 113.473 315.173 113.511L315.166 113.291L315.135 113.621C315.034 113.448 314.968 113.701 314.894 113.465C314.894 113.465 314.725 113.373 314.741 113.645C314.739 113.474 314.647 113.427 314.635 113.233C314.632 113.425 314.546 113.598 314.466 113.407L314.471 113.382C314.267 113.209 314.238 113.71 314.041 113.496C314.084 113.699 313.987 113.604 314.055 113.862C313.947 114.152 313.67 113.379 313.766 114.206C313.703 114.262 313.645 114.032 313.604 113.995L313.615 113.949C313.494 114.04 313.458 114.057 313.355 114.057C313.323 114.146 313.383 114.523 313.276 114.449C313.276 114.292 313.244 114.328 313.21 114.334C313.225 114.307 313.224 114.248 313.162 114.156C313.167 114.205 313.162 114.235 313.157 114.26C313.156 114.251 313.154 114.241 313.15 114.222C313.103 114.285 313.121 114.331 313.153 114.345C313.158 114.368 313.163 114.397 313.181 114.438C313.087 114.254 313.027 114.481 312.969 114.222C312.814 114.315 312.745 114.603 312.626 114.728C312.587 114.598 312.598 114.473 312.626 114.414L312.535 114.48C312.5 114.29 312.572 114.36 312.593 114.317C312.422 114.03 312.414 114.669 312.223 114.41L312.223 114.568L312.209 114.546C312.224 114.626 312.216 114.741 312.197 114.769C312.147 114.606 312.125 114.385 312.06 114.406C311.978 114.255 311.923 114.515 311.869 114.619C311.912 114.64 311.915 114.733 311.912 114.797C311.88 114.808 311.83 114.646 311.815 114.722L311.773 114.499C311.823 114.711 311.726 114.744 311.728 114.837C311.678 114.674 311.754 114.685 311.739 114.555C311.61 114.599 311.675 114.577 311.541 114.626C311.502 114.81 311.596 114.837 311.594 115.039C311.54 115.093 311.508 115.261 311.407 115.142L311.468 115.337C311.379 115.516 311.303 115.505 311.184 115.316C310.595 117.106 311.408 117.567 311.408 117.567C311.842 117.943 311.914 117.331 312.302 117.096L312.309 117.105Z" fill="#333331"/>
<path d="M328.376 89.9253L328.41 90.0029C328.403 89.9647 328.392 89.9322 328.376 89.9253Z" fill="#333331"/>
<path d="M329.657 92.5723C329.657 92.5723 329.659 92.5872 329.655 92.5931L329.652 92.5732L329.657 92.5723Z" fill="#333331"/>
<path d="M328.614 92.5355C328.893 92.5864 329.037 92.9621 329.278 92.7503C329.412 92.7595 329.537 92.6428 329.652 92.5723C329.658 92.2619 329.818 92.5413 329.841 92.2718L329.902 92.4373C329.909 92.3475 329.927 92.2852 329.968 92.3709L329.977 92.4184C329.986 92.2841 330.043 92.352 330.049 92.282L330.059 92.3342L330.097 92.3025L330.101 92.3754C330.137 92.2263 330.202 92.2044 330.275 92.2546L330.236 92.0458C330.398 92.2561 330.365 91.8156 330.525 92.0704L330.535 92.1225C330.576 91.5504 330.827 92.4509 330.878 91.9063C330.871 91.9763 330.907 92.0089 330.912 92.062C330.968 91.9927 331.033 91.9461 330.962 91.542C331.01 91.5379 331.024 91.663 331.063 91.8178C331.029 91.6375 331.058 91.5584 331.094 91.5418L331.088 91.6117L331.186 91.5297L331.099 91.1973C331.174 91.2815 331.189 91.6026 331.231 91.5113L331.179 91.2314C331.27 91.2733 331.396 91.6819 331.511 91.8765C331.855 91.9348 332.07 91.1632 332.465 91.5951L332.518 91.8012C332.579 92.1039 332.514 91.3354 332.581 91.6127L332.588 91.4689C332.608 91.5193 332.638 91.5775 332.636 91.6465C332.671 91.6498 332.662 91.6024 332.668 91.503L332.737 91.6866C332.893 91.8098 332.933 91.4241 333.081 91.4752C333.315 91.834 333.552 91.4215 333.688 91.1799C333.85 90.6784 334.361 91.8397 334.515 91.2709C334.533 91.3118 334.534 91.2134 334.527 91.1754L334.767 91.1747C334.767 91.1747 335.909 91.0841 334.588 88.7141L334.575 88.6477C334.427 88.5086 334.339 88.4857 334.312 88.8393C334.221 88.434 334.199 88.8162 334.146 88.6886L334.14 88.6554C334.123 88.9875 333.934 88.4237 333.915 88.7169C333.909 88.6837 333.888 88.5699 333.911 88.5607C333.868 88.6226 333.809 88.727 333.76 88.4906C333.644 88.5763 333.443 88.5008 333.429 88.8963L333.416 88.8299C333.421 89.0941 333.366 88.8785 333.339 89.0211C333.333 88.9879 333.325 88.9745 333.323 88.9603C333.318 89.2262 333.178 89.0266 333.16 89.1428L333.131 88.9862L333.034 89.0437L333.078 89.0698C333.145 89.5089 332.951 88.8089 332.928 89.1077C332.846 89.0641 332.955 90.0404 332.844 89.8402C332.849 90.0504 332.81 89.5028 332.792 89.6682C332.749 89.4405 332.789 89.5215 332.741 89.3439C332.709 89.4627 332.617 89.1265 332.579 89.2907L332.546 89.1152C332.521 89.4537 332.346 88.9119 332.352 89.2301C332.294 89.3931 332.196 88.7141 332.176 89.0764L332.098 88.8454C332.053 88.8145 332.125 89.1448 332.065 89.0333C332.036 88.8815 331.99 88.9245 331.986 88.773C331.847 88.5535 331.86 89.1452 331.662 88.7698C331.688 89.0692 331.594 88.9052 331.616 89.1318C331.593 89.0037 331.49 89.1358 331.504 88.8435C331.504 88.8189 331.514 88.8219 331.524 88.8741L331.501 88.6968C331.368 88.3827 331.406 88.901 331.325 88.8621C331.355 88.9154 331.381 88.8959 331.384 89.0181L331.313 89.0068L331.3 88.857L331.189 88.7894L331.237 88.967C331.172 88.8809 331.1 88.5752 331.092 88.8468C331.095 88.9936 331.18 89.0808 331.143 89.1466C331.058 89.0347 330.929 88.8675 330.837 88.8256C330.885 89.0278 330.86 89.0228 330.844 89.0699L330.811 88.8943C330.767 89.1579 330.705 88.5115 330.656 88.722L330.642 88.5969L330.688 88.9714C330.678 89.3366 330.577 88.6141 330.581 89.1092C330.609 89.0745 330.668 89.4955 330.616 89.4267L330.593 89.2541C330.577 89.2965 330.585 89.3686 330.559 89.3342C330.557 89.2414 330.523 89.0857 330.49 89.1213L330.474 88.9033L330.471 89.228C330.389 89.0518 330.351 89.2994 330.287 89.0609C330.287 89.0609 330.161 88.9618 330.187 89.2319C330.175 89.0624 330.106 89.0113 330.09 88.818C330.096 89.0083 330.043 89.1752 329.973 88.9822L329.969 88.9585C329.817 88.7757 329.821 89.2708 329.671 89.0484C329.714 89.2515 329.637 89.153 329.7 89.4113C329.639 89.6926 329.395 88.9133 329.51 89.7364C329.466 89.7889 329.413 89.5582 329.381 89.5199L329.387 89.4746C329.305 89.5587 329.278 89.5735 329.204 89.5678C329.185 89.6547 329.246 90.0313 329.167 89.9526C329.158 89.7973 329.14 89.8302 329.116 89.8346C329.126 89.8082 329.12 89.7504 329.073 89.6561C329.082 89.7035 329.077 89.7338 329.072 89.7593C329.071 89.7498 329.069 89.7403 329.065 89.7213C329.037 89.7806 329.051 89.8272 329.073 89.8426C329.078 89.8663 329.083 89.8948 329.096 89.9366C329.017 89.7501 328.984 89.9721 328.931 89.712C328.824 89.7959 328.788 90.0775 328.712 90.1949C328.677 90.0638 328.679 89.9408 328.698 89.8833L328.635 89.944C328.6 89.7542 328.653 89.8278 328.67 89.7854C328.531 89.4921 328.556 90.1257 328.404 89.8597L328.413 90.015L328.409 89.9913C328.419 90.0728 328.416 90.1864 328.406 90.2128C328.361 90.0494 328.334 89.8285 328.288 89.8468C328.22 89.6926 328.194 89.9479 328.164 90.0469C328.197 90.07 328.205 90.1619 328.202 90.2263C328.179 90.2355 328.134 90.0721 328.128 90.1468L328.087 89.9238C328.136 90.1355 328.063 90.1639 328.07 90.2558C328.025 90.0925 328.082 90.1064 328.062 89.9774C327.971 90.0142 328.017 89.9958 327.921 90.0381C327.901 90.2187 327.971 90.2498 327.983 90.4488C327.944 90.5004 327.931 90.6649 327.853 90.5418L327.905 90.7384C327.849 90.9109 327.792 90.8969 327.697 90.7036C327.364 92.4449 327.978 92.9439 327.978 92.9439C328.312 93.3382 328.332 92.7355 328.602 92.523L328.614 92.5355Z" fill="#333331"/>
<path d="M329.792 97.4683L329.826 97.5459C329.819 97.5077 329.808 97.4751 329.792 97.4683Z" fill="#333331"/>
<path d="M331.07 100.119C331.07 100.119 331.072 100.134 331.068 100.139L331.065 100.12L331.07 100.119Z" fill="#333331"/>
<path d="M330.028 100.08C330.308 100.131 330.452 100.507 330.692 100.295C330.826 100.305 330.947 100.189 331.066 100.117C331.072 99.8069 331.232 100.086 331.256 99.8168L331.316 99.9823C331.324 99.8924 331.342 99.8302 331.382 99.9159L331.391 99.9633C331.4 99.829 331.457 99.897 331.464 99.827L331.473 99.8792L331.512 99.8475L331.516 99.9204C331.552 99.7713 331.616 99.7494 331.689 99.7996L331.65 99.5908C331.812 99.8011 331.779 99.3605 331.94 99.6153L331.949 99.6675C331.985 99.0962 332.242 99.9959 332.292 99.4513C332.286 99.5212 332.321 99.5539 332.326 99.607C332.382 99.5376 332.447 99.4911 332.372 99.0879C332.42 99.0838 332.433 99.2089 332.472 99.3637C332.438 99.1834 332.468 99.1042 332.504 99.0877L332.497 99.1576L332.595 99.0756L332.508 98.7431C332.583 98.8274 332.599 99.1485 332.641 99.0572L332.588 98.7773C332.68 98.8191 332.805 99.2278 332.92 99.4223C333.265 99.4807 333.479 98.7091 333.874 99.141L333.927 99.3471C333.989 99.6498 333.924 98.8813 333.99 99.1586L333.998 99.0148C334.017 99.0652 334.048 99.1233 334.046 99.1924C334.082 99.2004 334.072 99.1482 334.079 99.0536L334.147 99.2372C334.303 99.3604 334.344 98.9747 334.491 99.0258C334.725 99.3846 334.962 98.9721 335.099 98.7306C335.26 98.229 335.772 99.3903 335.926 98.8215C335.943 98.8624 335.945 98.764 335.937 98.726L336.178 98.7253C336.178 98.7253 337.315 98.6356 335.998 96.2647L335.986 96.1983C335.837 96.0592 335.749 96.0363 335.727 96.3891C335.636 95.9837 335.614 96.3659 335.561 96.2384L335.555 96.2051C335.537 96.5324 335.35 95.9735 335.331 96.2667C335.324 96.2335 335.303 96.1196 335.326 96.1104C335.284 96.1724 335.225 96.2767 335.175 96.0404C335.059 96.126 334.858 96.0505 334.844 96.446L334.831 96.3796C334.836 96.6438 334.781 96.4282 334.754 96.5708C334.748 96.5376 334.74 96.5242 334.738 96.51C334.733 96.7759 334.593 96.5763 334.575 96.6925L334.546 96.536L334.449 96.5934L334.493 96.6195C334.56 97.0587 334.366 96.3586 334.343 96.6574C334.261 96.6138 334.37 97.5901 334.259 97.39C334.264 97.6002 334.225 97.0525 334.207 97.2179C334.165 96.9902 334.204 97.0712 334.156 96.8936C334.125 97.0124 334.032 96.6762 333.994 96.8404L333.961 96.6649C333.936 97.0034 333.761 96.4616 333.767 96.7798C333.709 96.9428 333.612 96.2638 333.591 96.6261L333.513 96.3951C333.468 96.3642 333.54 96.6946 333.48 96.583C333.451 96.4312 333.405 96.4742 333.402 96.3227C333.262 96.1032 333.275 96.695 333.077 96.3195C333.103 96.619 333.009 96.455 333.032 96.6815C333.008 96.5534 332.905 96.6855 332.919 96.3932C332.919 96.3686 332.93 96.3716 332.939 96.4238L332.916 96.2465C332.784 95.9324 332.822 96.4507 332.741 96.4118C332.77 96.4652 332.796 96.4456 332.799 96.5678L332.728 96.5565L332.715 96.4067L332.604 96.3391L332.652 96.5167C332.587 96.4307 332.515 96.125 332.507 96.3965C332.51 96.5433 332.595 96.6305 332.558 96.6963C332.473 96.5845 332.344 96.4172 332.253 96.3753C332.3 96.5776 332.275 96.5725 332.259 96.6196L332.226 96.4441C332.182 96.7076 332.12 96.0613 332.071 96.2717L332.058 96.1466L332.103 96.5211C332.093 96.8863 331.992 96.1638 331.996 96.6589C332.024 96.6242 332.083 97.0453 332.031 96.9765L332.009 96.8039C331.992 96.8462 332.001 96.9183 331.974 96.8839C331.972 96.7911 331.938 96.6354 331.905 96.671L331.889 96.4531L331.886 96.7777C331.804 96.6016 331.767 96.8491 331.702 96.6107C331.702 96.6107 331.576 96.5116 331.602 96.7817C331.59 96.6121 331.521 96.5611 331.505 96.3677C331.511 96.5581 331.459 96.725 331.388 96.5319L331.384 96.5082C331.232 96.3255 331.236 96.8206 331.086 96.5981C331.129 96.8013 331.052 96.7028 331.115 96.961C331.054 97.2424 330.811 96.4631 330.925 97.2861C330.881 97.3386 330.828 97.1079 330.796 97.0696L330.803 97.0243C330.72 97.1084 330.693 97.1233 330.619 97.1176C330.601 97.2044 330.661 97.581 330.583 97.5024C330.573 97.347 330.555 97.3799 330.531 97.3843C330.541 97.3579 330.535 97.3001 330.488 97.2058C330.497 97.2533 330.493 97.2835 330.487 97.309C330.485 97.2948 330.484 97.29 330.48 97.271C330.452 97.3303 330.466 97.3769 330.488 97.3923C330.493 97.416 330.498 97.4445 330.511 97.4863C330.432 97.2998 330.4 97.5218 330.346 97.2618C330.239 97.3456 330.203 97.6272 330.127 97.7446C330.093 97.6135 330.089 97.4914 330.113 97.433L330.051 97.4937C330.015 97.304 330.068 97.3775 330.085 97.3351C329.947 97.0418 329.972 97.6754 329.819 97.4094L329.828 97.5648L329.824 97.541C329.834 97.6226 329.831 97.7361 329.821 97.7625C329.776 97.5991 329.749 97.3782 329.703 97.3966C329.635 97.2424 329.609 97.4976 329.579 97.5966C329.613 97.6197 329.62 97.7117 329.617 97.776C329.594 97.7852 329.549 97.6218 329.543 97.6965L329.502 97.4735C329.551 97.6852 329.478 97.7137 329.485 97.8056C329.44 97.6422 329.497 97.6561 329.477 97.5272C329.386 97.5639 329.432 97.5455 329.341 97.587C329.321 97.7675 329.391 97.7987 329.403 97.9976C329.364 98.0492 329.35 98.2137 329.273 98.0906L329.325 98.2872C329.269 98.4597 329.212 98.4458 329.117 98.2524C328.784 99.9937 329.398 100.493 329.398 100.493C329.732 100.887 329.752 100.284 330.022 100.072L330.028 100.08Z" fill="#333331"/>
<path d="M328.94 96.8256L329.024 96.8495C328.99 96.8263 328.958 96.8173 328.94 96.8256Z" fill="#333331"/>
<path d="M332.902 90.9901C332.902 90.9901 332.9 90.9802 332.888 90.9722C332.89 90.9821 332.891 90.987 332.902 90.9901Z" fill="#333331"/>
<path d="M331.891 97.5376C331.893 97.5475 331.899 97.5515 331.905 97.5556L331.891 97.5376Z" fill="#333331"/>
<path d="M330.897 98.5831C331.194 98.3313 331.574 98.4715 331.659 98.0627C331.792 97.9299 331.826 97.7174 331.89 97.5384C331.688 97.2963 332.021 97.3422 331.865 97.1111L332.029 97.1785C331.975 97.1002 331.953 97.0309 332.046 97.0576L332.086 97.0894C332.006 96.9719 332.103 96.9684 332.068 96.9111L332.108 96.9429L332.125 96.8759L332.178 96.9248C332.115 96.7697 332.159 96.688 332.26 96.6542L332.082 96.5402C332.375 96.5298 332.053 96.2266 332.372 96.2552L332.413 96.287C332.068 95.8065 332.905 96.2393 332.586 95.7686C332.626 95.8249 332.679 95.8199 332.724 95.8508C332.727 95.7372 332.763 95.6373 332.419 95.402C332.464 95.3496 332.557 95.4302 332.695 95.5125C332.544 95.413 332.517 95.3199 332.541 95.2663L332.587 95.3265L332.625 95.1623L332.328 94.9919C332.453 94.9783 332.683 95.2103 332.662 95.0965L332.426 94.9392C332.537 94.8744 332.93 95.0611 333.162 95.0915C333.521 94.7789 333.206 93.9637 333.86 93.8906L334.047 93.9933C334.309 94.1604 333.734 93.6344 333.978 93.7851L333.892 93.6638C333.944 93.6834 334.01 93.6908 334.055 93.7511C334.094 93.7194 334.049 93.6885 333.99 93.6111L334.179 93.6788C334.407 93.6116 334.187 93.2747 334.357 93.1595C334.81 93.1927 334.76 92.6326 334.723 92.3055C334.537 91.7561 335.788 92.1165 335.554 91.5219C335.596 91.5385 335.532 91.4573 335.504 91.438L335.723 91.1909C335.723 91.1909 336.717 89.9445 333.917 89.4906L333.865 89.4464C333.629 89.5002 333.535 89.5719 333.748 89.8709C333.393 89.6524 333.628 89.9668 333.493 89.9282L333.469 89.9033C333.672 90.1747 333.122 89.9387 333.302 90.1899C333.278 90.1697 333.182 90.0994 333.192 90.0778C333.19 90.1714 333.211 90.3099 333.005 90.1767C332.951 90.3634 332.713 90.5109 332.969 90.8265L332.916 90.7823C333.092 90.9852 332.899 90.8739 332.965 91.0139C332.937 90.9993 332.921 90.9925 332.91 90.9848C333.082 91.1933 332.824 91.1825 332.88 91.2949L332.745 91.207L332.693 91.3493L332.752 91.3236C333.107 91.5912 332.46 91.2555 332.639 91.5067C332.535 91.5556 333.288 92.1908 333.05 92.1566C333.193 92.3164 332.797 91.929 332.888 92.0788C332.698 91.9524 332.79 91.9696 332.626 91.8824C332.678 92.0051 332.364 91.8478 332.443 92.005L332.291 91.9056C332.496 92.1865 331.971 91.9507 332.188 92.1901C332.241 92.3716 331.701 91.952 331.92 92.2549L331.69 92.1554C331.625 92.1773 331.914 92.3542 331.783 92.3393C331.659 92.2497 331.639 92.3318 331.541 92.2226C331.265 92.1955 331.668 92.6407 331.234 92.5548C331.458 92.7536 331.266 92.7256 331.432 92.8763C331.321 92.8086 331.315 93.0111 331.137 92.7694C331.123 92.7474 331.132 92.7409 331.176 92.767L331.037 92.6554C330.703 92.5509 331.085 92.9117 330.987 92.9644C331.052 92.9718 331.059 92.9312 331.145 93.0232L331.073 93.0857L330.961 92.9839L330.811 93.0464L330.974 93.1336C330.857 93.1359 330.586 92.9754 330.759 93.1887C330.858 93.2978 331.001 93.276 331.008 93.3679C330.852 93.3725 330.622 93.3762 330.51 93.4363C330.688 93.5456 330.662 93.5651 330.681 93.6155L330.53 93.5161C330.668 93.7554 330.176 93.327 330.274 93.5394L330.176 93.4595L330.471 93.699C330.702 93.9897 330.131 93.5366 330.462 93.9119C330.461 93.8579 330.805 94.1178 330.702 94.1222L330.568 94.0098C330.577 94.0572 330.635 94.1053 330.591 94.1038C330.523 94.0329 330.385 93.9506 330.387 94.0093L330.226 93.8577L330.44 94.1123C330.245 94.0653 330.379 94.2857 330.157 94.1749C330.157 94.1749 329.971 94.2294 330.177 94.4118C330.056 94.292 329.959 94.3248 329.808 94.1961C329.941 94.3331 330.005 94.5176 329.814 94.4404L329.8 94.4184C329.535 94.4435 329.87 94.8178 329.577 94.8037C329.756 94.9176 329.614 94.9197 329.845 95.0532C329.976 95.3332 329.233 94.9858 329.884 95.4977C329.88 95.5819 329.675 95.4581 329.617 95.464L329.59 95.4248C329.57 95.576 329.557 95.6128 329.481 95.6809C329.517 95.7675 329.834 95.993 329.705 96.0122C329.596 95.9001 329.6 95.9484 329.581 95.9766C329.574 95.9434 329.528 95.9078 329.422 95.8884C329.457 95.9211 329.476 95.9421 329.49 95.9641C329.479 95.9563 329.473 95.9525 329.457 95.9457C329.471 96.0216 329.514 96.0429 329.547 96.032C329.564 96.0483 329.592 96.0628 329.629 96.0804C329.436 96.0183 329.548 96.2232 329.329 96.0775C329.284 96.253 329.438 96.5039 329.441 96.6753C329.322 96.6141 329.239 96.5165 329.218 96.4566L329.205 96.5672C329.046 96.4544 329.145 96.4557 329.131 96.4091C328.806 96.3274 329.251 96.7893 328.937 96.7399L329.047 96.852L329.02 96.8422C329.088 96.8885 329.164 96.9775 329.169 97.006C329.017 96.9264 328.848 96.7861 328.82 96.8453C328.654 96.7978 328.799 97.0212 328.833 97.1276C328.88 97.114 328.95 97.1745 328.988 97.2214C328.975 97.2534 328.822 97.1738 328.869 97.2388L328.678 97.1124C328.861 97.2255 328.819 97.3167 328.891 97.382C328.738 97.3025 328.798 97.2568 328.7 97.177C328.64 97.3012 328.668 97.242 328.608 97.3661C328.706 97.5245 328.796 97.4783 328.94 97.6183C328.94 97.6969 329.035 97.8411 328.879 97.8211L329.059 97.9152C329.119 98.1053 329.059 98.1509 328.843 98.1027C329.692 99.7804 330.594 99.5334 330.594 99.5334C331.165 99.4905 330.78 99.0076 330.895 98.5689L330.897 98.5831Z" fill="#333331"/>
<path d="M290.076 96.9746L290.111 97.0522C290.104 97.014 290.093 96.9815 290.076 96.9746Z" fill="#333331"/>
<path d="M291.362 99.6211C291.362 99.6211 291.365 99.636 291.361 99.6419L291.357 99.6221L291.362 99.6211Z" fill="#333331"/>
<path d="M290.32 99.5848C290.6 99.6357 290.744 100.011 290.984 99.7996C291.118 99.8089 291.244 99.6921 291.358 99.6216C291.364 99.3112 291.524 99.5906 291.548 99.3211L291.608 99.4866C291.616 99.3968 291.634 99.3345 291.674 99.4202L291.683 99.4677C291.692 99.3334 291.749 99.4013 291.756 99.3314L291.765 99.3835L291.804 99.3518L291.808 99.4248C291.844 99.2757 291.908 99.2538 291.981 99.3039L291.942 99.0952C292.104 99.3055 292.071 98.8649 292.232 99.1197L292.241 99.1718C292.282 98.5997 292.534 99.5002 292.584 98.9556C292.578 99.0256 292.613 99.0582 292.618 99.1113C292.674 99.042 292.739 98.9955 292.668 98.5913C292.717 98.5872 292.73 98.7123 292.769 98.8671C292.735 98.6868 292.765 98.6077 292.801 98.5911L292.794 98.6611L292.892 98.579L292.805 98.2466C292.88 98.3309 292.896 98.652 292.937 98.5607L292.885 98.2807C292.976 98.3226 293.102 98.7312 293.217 98.9258C293.562 98.9841 293.776 98.2125 294.171 98.6444L294.224 98.8505C294.286 99.1533 294.225 98.3839 294.287 98.662L294.295 98.5182C294.314 98.5686 294.344 98.6268 294.343 98.6959C294.378 98.6991 294.369 98.6517 294.375 98.5524L294.443 98.7359C294.599 98.8591 294.64 98.4734 294.787 98.5245C295.021 98.8834 295.258 98.4708 295.395 98.2292C295.556 97.7277 296.068 98.889 296.222 98.3202C296.239 98.3611 296.24 98.2627 296.233 98.2247L296.474 98.224C296.474 98.224 297.616 98.1334 296.294 95.7634L296.282 95.697C296.133 95.5579 296.045 95.535 296.018 95.8887C295.927 95.4833 295.905 95.8655 295.852 95.738L295.846 95.7047C295.829 96.0368 295.641 95.4731 295.622 95.7663C295.616 95.733 295.594 95.6192 295.617 95.61C295.575 95.6719 295.516 95.7763 295.467 95.54C295.35 95.6256 295.149 95.5501 295.135 95.9456L295.122 95.8792C295.128 96.1434 295.073 95.9278 295.045 96.0704C295.039 96.0372 295.032 96.0238 295.029 96.0096C295.025 96.2755 294.884 96.0759 294.867 96.1921L294.837 96.0356L294.74 96.093L294.784 96.1191C294.852 96.5583 294.657 95.8582 294.634 96.157C294.552 96.1134 294.661 97.0897 294.55 96.8895C294.555 97.0997 294.517 96.5521 294.498 96.7175C294.456 96.4898 294.495 96.5708 294.448 96.3932C294.416 96.512 294.323 96.1758 294.285 96.34L294.253 96.1645C294.227 96.503 294.053 95.9612 294.058 96.2794C294 96.4424 293.903 95.7634 293.882 96.1257L293.804 95.8947C293.759 95.8638 293.831 96.1941 293.771 96.0826C293.742 95.9308 293.696 95.9738 293.693 95.8223C293.554 95.6028 293.566 96.1946 293.368 95.8191C293.395 96.1186 293.3 95.9546 293.323 96.1811C293.299 96.053 293.196 96.1851 293.21 95.8928C293.21 95.8682 293.221 95.8712 293.23 95.9234L293.207 95.7461C293.075 95.432 293.113 95.9503 293.032 95.9114C293.061 95.9648 293.087 95.9452 293.09 96.0674L293.019 96.0561L293.006 95.9063L292.895 95.8387L292.943 96.0163C292.878 95.9303 292.806 95.6245 292.798 95.8961C292.801 96.0429 292.886 96.1301 292.849 96.1959C292.764 96.0841 292.635 95.9168 292.544 95.8749C292.591 96.0772 292.566 96.0721 292.55 96.1192L292.517 95.9437C292.473 96.2072 292.411 95.5609 292.362 95.7713L292.349 95.6462L292.394 96.0207C292.384 96.3859 292.283 95.6634 292.287 96.1585C292.315 96.1238 292.374 96.5448 292.322 96.476L292.3 96.3035C292.283 96.3459 292.292 96.4179 292.266 96.3835C292.263 96.2907 292.229 96.135 292.196 96.1706L292.18 95.9527L292.177 96.2773C292.095 96.1012 292.058 96.3487 291.994 96.1103C291.994 96.1103 291.867 96.0112 291.893 96.2813C291.881 96.1117 291.812 96.0606 291.796 95.8673C291.802 96.0577 291.75 96.2246 291.679 96.0315L291.675 96.0078C291.523 95.825 291.527 96.3202 291.377 96.0977C291.42 96.3008 291.343 96.2024 291.406 96.4606C291.346 96.7419 291.102 95.9627 291.216 96.7857C291.172 96.8382 291.119 96.6075 291.087 96.5692L291.094 96.5239C291.011 96.608 290.985 96.6228 290.91 96.6171C290.892 96.704 290.952 97.0806 290.874 97.002C290.864 96.8466 290.846 96.8795 290.822 96.8839C290.832 96.8575 290.826 96.7997 290.779 96.7054C290.788 96.7529 290.784 96.7831 290.779 96.8086C290.777 96.7991 290.775 96.7896 290.772 96.7706C290.743 96.8299 290.757 96.8765 290.779 96.8919C290.784 96.9156 290.789 96.9441 290.802 96.9859C290.723 96.7994 290.691 97.0214 290.637 96.7614C290.53 96.8452 290.494 97.1268 290.418 97.2442C290.384 97.1131 290.385 96.9901 290.404 96.9326L290.342 96.9933C290.306 96.8035 290.359 96.8771 290.376 96.8347C290.238 96.5414 290.263 97.175 290.11 96.909L290.119 97.0644L290.115 97.0406C290.125 97.1221 290.122 97.2357 290.112 97.2621C290.067 97.0987 290.04 96.8778 289.995 96.8962C289.927 96.742 289.901 96.9972 289.87 97.0962C289.904 97.1193 289.911 97.2113 289.908 97.2756C289.886 97.2848 289.84 97.1214 289.835 97.1961L289.793 96.9731C289.842 97.1848 289.769 97.2133 289.776 97.3052C289.731 97.1418 289.788 97.1557 289.769 97.0268C289.677 97.0635 289.723 97.0451 289.628 97.0875C289.607 97.268 289.677 97.2992 289.69 97.4981C289.65 97.5497 289.637 97.7142 289.56 97.5911L289.611 97.7877C289.555 97.9602 289.498 97.9462 289.403 97.7529C289.071 99.4942 289.685 99.9933 289.685 99.9933C290.018 100.387 290.038 99.7848 290.308 99.5724L290.32 99.5848Z" fill="#333331"/>
<path d="M291.493 104.519L291.527 104.597C291.52 104.558 291.509 104.526 291.493 104.519Z" fill="#333331"/>
<path d="M292.777 107.167C292.777 107.167 292.779 107.181 292.775 107.187L292.772 107.167L292.777 107.167Z" fill="#333331"/>
<path d="M291.735 107.129C292.015 107.18 292.158 107.555 292.399 107.344C292.533 107.353 292.654 107.237 292.773 107.166C292.779 106.855 292.939 107.135 292.962 106.865L293.023 107.031C293.031 106.941 293.048 106.879 293.089 106.964L293.098 107.012C293.107 106.877 293.164 106.945 293.17 106.875L293.18 106.928L293.219 106.896L293.222 106.969C293.258 106.82 293.323 106.798 293.396 106.848L293.357 106.639C293.519 106.849 293.486 106.409 293.647 106.664L293.656 106.716C293.692 106.145 293.948 107.044 293.999 106.5C293.992 106.57 294.028 106.602 294.033 106.655C294.089 106.586 294.154 106.539 294.078 106.136C294.127 106.132 294.14 106.257 294.179 106.412C294.145 106.232 294.175 106.153 294.211 106.136L294.204 106.206L294.302 106.124L294.215 105.791C294.29 105.876 294.306 106.197 294.348 106.106L294.295 105.826C294.387 105.867 294.512 106.276 294.627 106.471C294.972 106.529 295.186 105.757 295.581 106.189L295.634 106.395C295.696 106.698 295.631 105.93 295.697 106.207L295.705 106.063C295.724 106.114 295.754 106.172 295.753 106.241C295.788 106.249 295.779 106.197 295.786 106.102L295.854 106.286C296.01 106.409 296.051 106.023 296.198 106.074C296.432 106.433 296.669 106.02 296.805 105.779C296.967 105.277 297.479 106.439 297.633 105.87C297.65 105.911 297.651 105.812 297.644 105.774L297.885 105.774C297.885 105.774 299.022 105.684 297.705 103.313L297.692 103.247C297.544 103.108 297.456 103.085 297.434 103.437C297.343 103.032 297.321 103.414 297.268 103.287L297.262 103.253C297.244 103.581 297.056 103.022 297.037 103.315C297.031 103.282 297.01 103.168 297.033 103.159C296.99 103.221 296.931 103.325 296.882 103.089C296.766 103.174 296.565 103.099 296.55 103.494L296.538 103.428C296.543 103.692 296.488 103.477 296.461 103.619C296.455 103.586 296.447 103.573 296.445 103.558C296.44 103.824 296.3 103.625 296.282 103.741L296.253 103.584L296.156 103.642L296.2 103.668C296.267 104.107 296.073 103.407 296.05 103.706C295.968 103.662 296.077 104.638 295.966 104.438C295.971 104.649 295.932 104.101 295.914 104.266C295.871 104.039 295.911 104.12 295.863 103.942C295.831 104.061 295.739 103.725 295.701 103.889L295.668 103.713C295.643 104.052 295.468 103.51 295.474 103.828C295.416 103.991 295.318 103.312 295.298 103.674L295.22 103.443C295.175 103.413 295.247 103.743 295.186 103.631C295.158 103.48 295.112 103.523 295.108 103.371C294.969 103.152 294.982 103.743 294.784 103.368C294.81 103.667 294.716 103.503 294.738 103.73C294.714 103.602 294.612 103.734 294.626 103.442C294.626 103.417 294.636 103.42 294.646 103.472L294.623 103.295C294.49 102.981 294.528 103.499 294.447 103.46C294.477 103.514 294.503 103.494 294.506 103.616L294.435 103.605L294.422 103.455L294.311 103.387L294.359 103.565C294.294 103.479 294.222 103.173 294.214 103.445C294.217 103.592 294.302 103.679 294.265 103.745C294.18 103.633 294.051 103.466 293.959 103.424C294.007 103.626 293.982 103.621 293.966 103.668L293.933 103.492C293.889 103.756 293.827 103.11 293.778 103.32L293.764 103.195L293.81 103.569C293.8 103.935 293.699 103.212 293.703 103.707C293.731 103.673 293.79 104.094 293.738 104.025L293.715 103.852C293.699 103.895 293.707 103.967 293.681 103.932C293.679 103.839 293.645 103.684 293.612 103.719L293.596 103.501L293.593 103.826C293.511 103.65 293.473 103.897 293.409 103.659C293.409 103.659 293.283 103.56 293.309 103.83C293.297 103.66 293.228 103.609 293.212 103.416C293.218 103.606 293.165 103.773 293.095 103.58L293.091 103.557C292.939 103.374 292.943 103.869 292.793 103.646C292.836 103.85 292.759 103.751 292.822 104.009C292.761 104.291 292.517 103.511 292.632 104.334C292.588 104.387 292.535 104.156 292.503 104.118L292.509 104.073C292.427 104.157 292.4 104.172 292.325 104.166C292.307 104.253 292.368 104.629 292.289 104.551C292.28 104.395 292.262 104.428 292.238 104.433C292.248 104.406 292.242 104.348 292.195 104.254C292.204 104.302 292.199 104.332 292.194 104.357C292.192 104.343 292.191 104.338 292.187 104.319C292.159 104.379 292.173 104.425 292.195 104.441C292.2 104.464 292.205 104.493 292.218 104.535C292.139 104.348 292.106 104.57 292.053 104.31C291.946 104.394 291.91 104.676 291.834 104.793C291.799 104.662 291.801 104.539 291.82 104.481L291.757 104.542C291.722 104.352 291.775 104.426 291.792 104.383C291.653 104.09 291.678 104.724 291.526 104.458L291.535 104.613L291.531 104.589C291.541 104.671 291.538 104.784 291.528 104.811C291.482 104.647 291.456 104.427 291.41 104.445C291.342 104.291 291.316 104.546 291.286 104.645C291.319 104.668 291.327 104.76 291.324 104.824C291.301 104.834 291.256 104.67 291.25 104.745L291.209 104.522C291.253 104.734 291.185 104.762 291.192 104.854C291.147 104.691 291.203 104.704 291.184 104.576C291.093 104.612 291.139 104.594 291.048 104.635C291.028 104.816 291.098 104.847 291.11 105.046C291.071 105.098 291.057 105.262 290.98 105.139L291.032 105.336C290.976 105.508 290.919 105.494 290.824 105.301C290.491 107.042 291.105 107.541 291.105 107.541C291.439 107.935 291.459 107.333 291.728 107.12L291.735 107.129Z" fill="#333331"/>
<path d="M290.643 103.874L290.726 103.898C290.692 103.875 290.661 103.866 290.643 103.874Z" fill="#333331"/>
<path d="M294.608 98.0395C294.608 98.0395 294.606 98.0296 294.594 98.0215C294.596 98.0314 294.597 98.0364 294.608 98.0395Z" fill="#333331"/>
<path d="M293.598 104.585C293.6 104.595 293.606 104.599 293.612 104.603L293.598 104.585Z" fill="#333331"/>
<path d="M292.605 105.63C292.901 105.378 293.281 105.518 293.367 105.11C293.499 104.977 293.533 104.764 293.598 104.585C293.395 104.343 293.728 104.389 293.572 104.158L293.737 104.225C293.683 104.147 293.66 104.078 293.753 104.104L293.794 104.136C293.713 104.019 293.81 104.015 293.775 103.958L293.815 103.99L293.832 103.923L293.886 103.972C293.822 103.817 293.866 103.735 293.968 103.701L293.789 103.587C294.082 103.577 293.76 103.273 294.08 103.302L294.12 103.334C293.775 102.853 294.612 103.286 294.293 102.815C294.333 102.872 294.386 102.867 294.431 102.898C294.435 102.784 294.47 102.684 294.127 102.449C294.171 102.396 294.264 102.477 294.403 102.559C294.251 102.46 294.224 102.367 294.249 102.313L294.294 102.373L294.332 102.209L294.035 102.039C294.16 102.025 294.39 102.257 294.369 102.143L294.133 101.986C294.244 101.921 294.637 102.108 294.869 102.138C295.228 101.826 294.914 101.011 295.568 100.937L295.754 101.04C296.016 101.207 295.441 100.681 295.685 100.832L295.599 100.711C295.652 100.73 295.717 100.738 295.763 100.798C295.801 100.766 295.756 100.735 295.697 100.658L295.887 100.726C296.115 100.659 295.895 100.322 296.065 100.206C296.518 100.24 296.467 99.6795 296.43 99.3524C296.244 98.8029 297.495 99.1634 297.261 98.5688C297.304 98.5854 297.239 98.5041 297.211 98.4848L297.43 98.2377C297.43 98.2377 298.425 96.9914 295.625 96.5375L295.572 96.4933C295.337 96.5471 295.242 96.6188 295.455 96.9178C295.1 96.6993 295.335 97.0137 295.201 96.9751L295.176 96.9502C295.379 97.2216 294.829 96.9855 295.009 97.2368C294.985 97.2166 294.889 97.1463 294.9 97.1246C294.897 97.2183 294.918 97.3568 294.712 97.2235C294.658 97.4103 294.421 97.5578 294.676 97.8734L294.624 97.8292C294.799 98.0321 294.606 97.9208 294.672 98.0608C294.645 98.0462 294.629 98.0394 294.617 98.0317C294.789 98.2402 294.531 98.2294 294.587 98.3418L294.453 98.2539L294.401 98.3962L294.46 98.3704C294.814 98.6381 294.167 98.3024 294.347 98.5536C294.243 98.6025 294.995 99.2377 294.758 99.2034C294.9 99.3633 294.504 98.9759 294.596 99.1257C294.405 98.9992 294.497 99.0165 294.333 98.9292C294.386 99.052 294.071 98.8947 294.15 99.0519L293.999 98.9524C294.203 99.2333 293.678 98.9976 293.895 99.237C293.948 99.4185 293.408 98.9989 293.627 99.3017L293.397 99.2023C293.333 99.2242 293.621 99.4011 293.491 99.3862C293.366 99.2965 293.347 99.3786 293.248 99.2695C292.973 99.2423 293.375 99.6876 292.942 99.6017C293.165 99.8004 292.973 99.7724 293.139 99.9232C293.028 99.8555 293.022 100.058 292.844 99.8162C292.83 99.7943 292.839 99.7878 292.883 99.8139L292.744 99.7023C292.411 99.5977 292.792 99.9585 292.694 100.011C292.759 100.019 292.766 99.9781 292.852 100.07L292.781 100.133L292.668 100.031L292.518 100.093L292.681 100.181C292.564 100.183 292.293 100.022 292.466 100.236C292.565 100.345 292.708 100.323 292.715 100.415C292.559 100.419 292.329 100.423 292.218 100.483C292.395 100.592 292.369 100.612 292.388 100.662L292.237 100.563C292.375 100.802 291.883 100.374 291.981 100.586L291.883 100.506L292.178 100.746C292.409 101.037 291.839 100.583 292.169 100.959C292.173 100.904 292.512 101.165 292.41 101.169L292.276 101.057C292.284 101.104 292.343 101.152 292.298 101.151C292.231 101.08 292.093 100.998 292.094 101.056L291.933 100.905L292.147 101.159C291.952 101.112 292.087 101.333 291.865 101.222C291.865 101.222 291.678 101.276 291.884 101.459C291.764 101.339 291.667 101.372 291.515 101.243C291.649 101.38 291.712 101.564 291.521 101.487L291.507 101.465C291.242 101.49 291.577 101.865 291.285 101.851C291.463 101.965 291.321 101.967 291.552 102.1C291.683 102.38 290.941 102.033 291.591 102.545C291.587 102.629 291.382 102.505 291.325 102.511L291.298 102.472C291.277 102.623 291.264 102.66 291.188 102.728C291.224 102.814 291.541 103.04 291.412 103.059C291.303 102.947 291.307 102.995 291.288 103.023C291.282 102.99 291.236 102.955 291.129 102.935C291.164 102.968 291.183 102.989 291.197 103.011C291.186 103.003 291.18 102.999 291.164 102.993C291.178 103.068 291.222 103.09 291.254 103.079C291.272 103.095 291.299 103.11 291.337 103.127C291.143 103.065 291.255 103.27 291.037 103.124C290.991 103.3 291.146 103.551 291.148 103.722C291.029 103.661 290.947 103.563 290.926 103.504L290.912 103.614C290.753 103.501 290.852 103.503 290.838 103.456C290.514 103.374 290.958 103.836 290.645 103.787L290.754 103.899L290.728 103.889C290.795 103.935 290.871 104.024 290.876 104.053C290.724 103.973 290.555 103.833 290.527 103.892C290.361 103.845 290.506 104.068 290.54 104.174C290.587 104.161 290.657 104.221 290.695 104.268C290.682 104.3 290.529 104.221 290.576 104.286L290.385 104.159C290.569 104.272 290.527 104.364 290.598 104.429C290.445 104.349 290.506 104.304 290.407 104.224C290.347 104.348 290.38 104.288 290.315 104.413C290.413 104.571 290.503 104.525 290.647 104.665C290.647 104.744 290.742 104.888 290.587 104.868L290.766 104.962C290.826 105.152 290.766 105.198 290.551 105.15C291.399 106.827 292.301 106.58 292.301 106.58C292.872 106.537 292.488 106.054 292.602 105.616L292.605 105.63Z" fill="#333331"/>
<path d="M512.494 430.678C519.351 434.251 527.9 431.609 530.572 424.353C538.93 401.665 539.611 376.709 532.271 353.398C523.522 325.61 504.093 302.436 478.257 288.973C452.422 275.511 422.296 272.863 394.508 281.611C371.197 288.951 351.133 303.807 337.325 323.655C332.91 330.002 335.642 338.522 342.498 342.095L427.496 386.387L512.494 430.678Z" fill="#36CD76"/>
<path d="M372.82 345.656L372.725 345.544C372.713 345.567 372.734 345.604 372.82 345.656Z" fill="#333331"/>
<path d="M386.68 342.626C386.68 342.626 386.694 342.648 386.704 342.656C386.69 342.635 386.683 342.627 386.68 342.626Z" fill="#333331"/>
<path d="M369.23 341.612L369.236 341.615C369.246 341.616 369.256 341.618 369.263 341.618L369.23 341.612Z" fill="#333331"/>
<path d="M375.068 344.864C373.506 343.974 373.204 343.522 371.504 342.756C371.115 342.542 370.705 342.34 370.292 342.143C370.085 342.046 369.878 341.949 369.676 341.854C369.577 341.807 369.525 341.776 369.445 341.734C369.372 341.7 369.299 341.658 369.235 341.614C369.049 341.615 368.88 341.472 368.723 341.314C368.651 341.23 368.573 341.149 368.498 341.07C368.429 340.987 368.349 340.916 368.257 340.864L368.281 340.678C368.16 340.604 368.058 340.485 368.061 340.341L368.094 340.333C368.007 340.27 367.97 340.174 367.934 340.09C367.898 340.006 367.873 339.935 367.844 339.894L367.877 339.893L367.803 339.673L367.86 339.703C367.701 339.402 367.651 339.038 367.719 338.74L367.579 338.758C367.615 338.591 367.663 338.457 367.671 338.33C367.692 338.207 367.707 338.094 367.714 337.982C367.732 337.872 367.758 337.766 367.796 337.651C367.84 337.539 367.917 337.427 368.016 337.312L368.043 337.337C368.066 336.917 368.308 336.676 368.563 336.507C368.825 336.332 369.072 336.192 369.324 335.848C369.264 335.936 369.398 335.886 369.405 335.922C369.695 335.707 370.056 335.572 369.983 335.301C370.262 335.233 370.227 335.327 370.287 335.42C370.254 335.297 370.484 335.203 370.705 335.162L370.61 335.226C370.713 335.196 370.817 335.192 370.919 335.176C371.023 335.158 371.129 335.151 371.234 335.151C371.195 335.073 371.151 334.996 371.108 334.918C371.461 335.001 371.191 335.191 371.514 335.163L371.529 334.974C372.017 335.062 372.22 335.433 372.544 335.717C372.772 335.836 373.002 335.953 373.235 336.07C373.486 336.194 373.742 336.316 373.999 336.436C374.518 336.666 375.04 336.898 375.556 337.127C376.591 337.587 377.59 338.067 378.428 338.689L378.442 338.856C378.381 339.057 379.086 338.847 379.07 339.053L379.324 339.08C379.368 339.143 379.474 339.245 379.347 339.23C379.542 339.338 379.559 339.311 379.732 339.329L379.884 339.553C380.614 340.046 381.386 340.169 382.18 340.637C382.396 340.822 382.679 341.01 382.999 341.191C383.156 341.273 383.32 341.362 383.484 341.451C383.62 341.525 383.758 341.594 383.889 341.684C384.433 342.007 384.895 342.498 385.168 342.924C385.617 343.496 385.622 344.366 385.378 345.063C385.131 345.78 384.716 346.333 384.383 346.937C384.336 346.952 384.296 347.077 384.313 347.093C384.004 347.378 383.643 347.611 383.253 347.768C383.253 347.768 382.902 347.926 382.412 348.03C381.919 348.14 381.291 348.154 380.788 348.102C380.663 348.084 380.545 348.074 380.437 348.072C380.328 348.066 380.236 348.054 380.152 348.061C379.989 348.074 379.872 348.126 379.864 348.252C379.856 348.372 379.94 348.579 380.219 348.859C380.5 349.136 380.991 349.482 381.838 349.71L381.793 349.755C382.299 349.808 382.727 349.781 383.092 349.68C383.276 349.627 383.446 349.571 383.596 349.479C383.75 349.392 383.897 349.298 384.025 349.165C384.252 349.377 384.776 348.804 384.994 348.719L384.99 348.749C385.086 348.613 385.195 348.507 385.312 348.401C385.432 348.297 385.568 348.211 385.687 348.107C385.941 347.912 386.174 347.674 386.261 347.375C386.269 347.408 386.326 347.459 386.246 347.577C386.366 347.389 386.465 347.143 386.573 346.964C386.662 346.774 386.75 346.638 386.832 346.655C387.028 346.155 387.202 345.527 387.232 344.933C387.257 344.335 387.143 343.793 386.954 343.495L387.004 343.532C386.893 343.361 386.841 343.251 386.816 343.125C386.791 343 386.764 342.87 386.648 342.689C386.663 342.661 386.66 342.63 386.67 342.632C386.597 342.55 386.528 342.445 386.456 342.332C386.385 342.218 386.332 342.082 386.257 341.963C386.185 341.842 386.119 341.717 386.051 341.612C385.976 341.511 385.908 341.425 385.844 341.374L385.916 341.292C385.835 341.184 385.735 341.088 385.642 340.989C385.547 340.892 385.454 340.793 385.349 340.709C385.419 340.782 385.487 340.854 385.549 340.937C385.409 340.998 385.342 340.861 385.219 340.678C385.109 340.486 384.922 340.265 384.627 340.177C384.515 340.1 384.377 340.057 384.235 340.038C384.088 340.012 383.957 340.035 383.814 340.036C383.532 340.049 383.257 340.047 383.073 339.871C382.8 339.886 383.36 339.767 382.999 339.699C383.059 339.556 383.189 339.689 383.166 339.539C382.826 339.445 382.736 339.137 382.31 339.035L382.351 338.922C381.756 338.859 381.493 338.297 381.068 338.311C380.514 338.135 380.893 337.817 380.254 337.749L380.122 337.499C379.909 337.359 379.867 337.591 379.652 337.392C379.714 337.308 379.372 337.155 379.562 337.145C379.068 336.707 378.303 336.747 377.68 336.117C377.425 336.21 377.103 335.908 376.913 335.979C376.933 335.892 376.162 335.573 376.676 335.627C376.72 335.632 376.781 335.667 376.762 335.697L376.869 335.618C376.543 335.198 376.035 335.322 375.628 335.073C375.736 335.173 375.906 335.251 375.757 335.264L375.373 335.046L375.502 335.001L374.944 334.644L374.967 334.795C374.711 334.589 374.705 334.349 374.301 334.338C374.11 334.348 374.496 334.625 374.175 334.502C374.087 334.434 373.994 334.356 373.887 334.275C373.775 334.191 373.692 334.112 373.531 334.017C373.241 333.822 372.904 333.654 372.576 333.545C372.6 333.692 372.426 333.644 372.24 333.631L372.242 333.509C371.873 333.52 371.819 333.463 371.759 333.377C371.701 333.3 371.641 333.206 371.265 333.265L371.333 333.184C371.265 333.265 371.198 333.346 371.136 333.43C370.816 333.55 370.733 333.507 370.631 333.457C370.534 333.407 370.415 333.385 370.093 333.605C370.365 333.544 370.264 333.836 369.933 333.856L369.989 333.722C369.813 333.794 369.766 333.856 369.642 333.864C369.734 333.778 369.653 333.677 369.392 333.788C369.434 333.72 369.48 333.653 369.53 333.592C369.376 333.707 369.235 333.844 369.098 333.969C368.888 333.987 368.65 334.11 368.448 334.226C368.252 334.352 368.074 334.449 367.961 334.437C367.961 334.437 367.767 334.55 367.573 334.707C367.393 334.878 367.2 335.075 367.202 335.217C367.243 335.006 366.881 335.344 366.876 335.153C366.791 335.406 366.49 336.012 366.248 336.191L366.26 336.139C365.938 336.548 365.824 336.99 365.738 337.406C365.707 337.619 365.676 337.824 365.644 338.033C365.625 338.244 365.569 338.455 365.528 338.68C365.668 338.648 365.578 339.12 365.76 339.001C365.861 339.449 365.824 339.862 365.864 340.209C365.899 340.554 366.004 340.819 366.317 340.866C366.497 341.218 366.394 341.353 366.469 341.556C366.445 341.532 366.417 341.51 366.394 341.484C366.605 341.812 366.753 342.009 366.895 342.181C367.026 342.362 367.168 342.501 367.356 342.719C367.478 342.797 367.592 342.795 367.714 342.818C367.835 342.845 367.962 342.893 368.145 343.057C367.958 343.047 368.129 343.151 368.28 343.258C368.179 343.202 368.117 343.217 368.291 343.405C368.338 343.397 368.394 343.408 368.443 343.419C368.439 343.428 368.444 343.438 368.437 343.445C368.726 343.574 368.691 343.516 368.575 343.43C368.588 343.419 368.589 343.397 368.567 343.349C368.616 343.415 368.697 343.483 368.772 343.533C368.846 343.579 368.925 343.623 368.996 343.661C369.142 343.736 369.253 343.809 369.227 343.893C369.963 344.23 370.561 344.338 371.189 344.589C371.216 344.704 371.038 344.703 370.848 344.643L371.285 344.835C371.223 344.948 371.008 344.774 370.865 344.729C371.274 345.178 372.001 345.085 372.505 345.561L372.675 345.534L372.702 345.566C372.727 345.517 372.893 345.52 372.986 345.551C373.017 345.694 372.86 345.779 373.154 345.925C373.335 346.143 373.836 346.219 374.167 346.322C374.013 346.22 374.093 346.193 374.183 346.193C374.331 346.266 374.364 346.41 374.498 346.426L374.442 346.567C374.452 346.409 374.896 346.63 374.979 346.604C375.009 346.747 374.708 346.572 374.631 346.629C375.224 346.92 374.928 346.777 375.521 347.068C375.889 347.129 375.531 346.909 375.74 346.87C376.031 346.988 376.348 347.034 376.624 347.279L376.586 347.107C377.155 347.284 377.459 347.46 377.745 347.762C382.121 348.797 379.253 346.852 379.253 346.852C377.868 345.797 376.899 345.734 375.039 344.885L375.068 344.864Z" fill="#333331"/>
<path d="M382.329 345.521L382.312 345.45C382.3 345.473 382.301 345.499 382.329 345.521Z" fill="#333331"/>
<path d="M371.115 339.71C371.115 339.71 371.102 339.711 371.096 339.716C371.107 339.718 371.11 339.712 371.115 339.71Z" fill="#333331"/>
<path d="M381.482 342.946C381.482 342.946 381.496 342.942 381.5 342.94L381.479 342.944L381.482 342.946Z" fill="#333331"/>
<path d="M383.67 344.258C383.11 343.89 383.071 343.575 382.408 343.349C382.124 343.176 381.785 343.068 381.484 342.948C381.253 343.056 381.107 342.751 380.867 342.822L380.858 342.687C380.777 342.71 380.692 342.713 380.664 342.626L380.679 342.597C380.559 342.633 380.492 342.54 380.428 342.557L380.444 342.526L380.34 342.489L380.379 342.456C380.19 342.462 380.039 342.391 379.927 342.285L379.873 342.417C379.666 342.131 379.428 342.337 379.26 342.039L379.276 342.008C378.788 342.171 378.89 341.523 378.399 341.663C378.46 341.644 378.415 341.592 378.434 341.562C378.265 341.517 378.092 341.452 377.961 341.696C377.851 341.636 377.91 341.572 377.944 341.47C377.888 341.579 377.771 341.572 377.68 341.532L377.741 341.513L377.473 341.42L377.416 341.648C377.314 341.523 377.509 341.385 377.359 341.368L377.271 341.536C377.109 341.408 377.134 341.102 377.021 340.887C376.327 340.435 375.321 340.455 374.795 339.807L374.829 339.665C374.91 339.475 374.499 339.838 374.561 339.656L374.438 339.698C374.432 339.654 374.406 339.593 374.466 339.574C374.395 339.53 374.38 339.558 374.296 339.587L374.279 339.433C374.036 339.194 373.676 339.286 373.396 339.085C373.152 338.661 372.354 338.521 371.896 338.438C371.199 338.423 370.932 337.355 370.2 337.373C370.196 337.338 370.118 337.37 370.106 337.393L369.6 337.096C369.6 337.096 367.111 335.712 368.238 338.231L368.206 338.265C368.441 338.511 368.611 338.625 368.909 338.526C368.812 338.788 369.13 338.674 369.154 338.788L369.138 338.805C369.411 338.705 369.413 339.148 369.669 339.067C369.653 339.084 369.611 339.15 369.573 339.134C369.712 339.166 369.906 339.198 369.84 339.345C370.151 339.46 370.525 339.738 370.829 339.607L370.797 339.641C370.983 339.542 370.946 339.689 371.108 339.672C371.103 339.695 371.107 339.708 371.103 339.716C371.3 339.623 371.454 339.871 371.58 339.853L371.536 339.95L371.78 340.048L371.704 339.983C371.87 339.735 371.792 340.239 372.05 340.156C372.189 340.272 372.651 339.776 372.747 339.989C372.888 339.906 372.574 340.153 372.741 340.12C372.672 340.258 372.642 340.177 372.616 340.302C372.765 340.296 372.729 340.539 372.921 340.519L372.872 340.627C373.156 340.529 373.144 340.947 373.364 340.826C373.598 340.836 373.324 341.208 373.63 341.102L373.633 341.285C373.704 341.351 373.785 341.14 373.842 341.26C373.789 341.349 373.922 341.393 373.821 341.453C373.958 341.706 374.355 341.473 374.51 341.859C374.662 341.713 374.747 341.892 374.863 341.781C374.831 341.863 375.137 341.939 374.892 342.025C374.87 342.032 374.849 342.017 374.865 341.986L374.79 342.081C374.848 342.361 375.135 342.123 375.277 342.233C375.25 342.175 375.182 342.151 375.259 342.1L375.398 342.191L375.32 342.263L375.51 342.427L375.535 342.302C375.611 342.415 375.552 342.619 375.754 342.525C375.852 342.468 375.729 342.327 375.859 342.351C375.963 342.5 376.116 342.721 376.281 342.851C376.328 342.719 376.373 342.75 376.438 342.751L376.389 342.86C376.658 342.811 376.338 343.131 376.591 343.114L376.535 343.179L376.702 342.983C376.984 342.861 376.682 343.252 377.023 343.063C376.937 343.04 377.108 342.81 377.179 342.904L377.102 342.995C377.166 342.999 377.205 342.965 377.227 343.006C377.168 343.044 377.133 343.146 377.219 343.169L377.101 343.27L377.342 343.156C377.395 343.326 377.642 343.277 377.612 343.446C377.612 343.446 377.812 343.641 377.952 343.511C377.851 343.585 377.963 343.691 377.867 343.786C377.988 343.707 378.215 343.71 378.228 343.865L378.207 343.872C378.414 344.136 378.756 343.948 378.922 344.22C378.975 344.091 379.069 344.224 379.12 344.05C379.453 344.024 379.408 344.611 379.756 344.167C379.883 344.201 379.83 344.352 379.877 344.409L379.835 344.419C380.07 344.491 380.136 344.518 380.287 344.611C380.392 344.604 380.521 344.385 380.636 344.513C380.542 344.581 380.608 344.594 380.663 344.622C380.621 344.618 380.592 344.647 380.632 344.744C380.655 344.72 380.681 344.712 380.703 344.705C380.7 344.71 380.7 344.718 380.691 344.728C380.796 344.742 380.797 344.706 380.76 344.673C380.767 344.658 380.776 344.641 380.775 344.608C380.806 344.773 381.037 344.733 380.966 344.896C381.251 344.998 381.526 344.937 381.78 344.993C381.764 345.087 381.675 345.131 381.593 345.129L381.765 345.182C381.706 345.296 381.64 345.2 381.579 345.197C381.671 345.481 382.061 345.213 382.192 345.499L382.285 345.431L382.292 345.453C382.317 345.404 382.4 345.364 382.439 345.366C382.418 345.482 382.318 345.597 382.427 345.647C382.462 345.788 382.698 345.726 382.838 345.73C382.787 345.681 382.835 345.638 382.88 345.614C382.936 345.639 382.915 345.756 382.98 345.735L382.916 345.872C382.96 345.732 383.13 345.81 383.178 345.766C383.158 345.882 383.048 345.807 382.996 345.878C383.219 345.98 383.108 345.929 383.335 346.029C383.506 345.987 383.382 345.89 383.497 345.801C383.614 345.829 383.763 345.787 383.838 345.928L383.863 345.789C384.107 345.796 384.214 345.87 384.281 346.061C386.226 345.833 385.278 344.885 385.278 344.885C384.851 344.325 384.374 344.523 383.653 344.263L383.67 344.258Z" fill="#333331"/>
<path d="M375.169 337.866L375.11 337.86C375.133 337.872 375.156 337.877 375.169 337.866Z" fill="#333331"/>
<path d="M372.72 342.622C372.72 342.622 372.724 342.628 372.729 342.634C372.727 342.63 372.721 342.626 372.72 342.622Z" fill="#333331"/>
<path d="M373.11 337.723C373.11 337.723 373.103 337.712 373.1 337.71L373.11 337.723Z" fill="#333331"/>
<path d="M373.744 336.837C373.553 337.057 373.288 337.002 373.247 337.311C373.163 337.424 373.147 337.586 373.113 337.721C373.263 337.872 373.03 337.881 373.148 338.03L373.032 338.002C373.072 338.051 373.091 338.098 373.025 338.092L372.996 338.078C373.056 338.152 372.989 338.168 373.02 338.206L372.989 338.19L372.982 338.237L372.944 338.206C372.995 338.309 372.968 338.375 372.901 338.413L373.03 338.473C372.828 338.52 373.065 338.698 372.844 338.717L372.813 338.701C373.072 339.006 372.48 338.796 372.719 339.098C372.688 339.06 372.651 339.074 372.621 339.055C372.621 339.138 372.606 339.217 372.848 339.344C372.822 339.388 372.752 339.341 372.653 339.3C372.762 339.357 372.784 339.419 372.77 339.459L372.739 339.421L372.721 339.546L372.934 339.632C372.849 339.656 372.681 339.518 372.702 339.598L372.87 339.685C372.796 339.745 372.522 339.657 372.356 339.668C372.124 339.939 372.378 340.497 371.933 340.627L371.801 340.573C371.615 340.484 372.031 340.795 371.856 340.718L371.921 340.796C371.885 340.788 371.838 340.789 371.807 340.751C371.785 340.779 371.813 340.794 371.858 340.846L371.726 340.821C371.574 340.898 371.74 341.115 371.63 341.221C371.316 341.254 371.381 341.658 371.418 341.887C371.57 342.264 370.696 342.158 370.884 342.564C370.853 342.559 370.9 342.609 370.923 342.621L370.783 342.827C370.783 342.827 370.158 343.859 372.099 343.84L372.136 343.867C372.296 343.797 372.359 343.732 372.199 343.544C372.452 343.657 372.277 343.457 372.372 343.47L372.392 343.481C372.238 343.31 372.626 343.414 372.495 343.255C372.515 343.265 372.582 343.304 372.576 343.323C372.571 343.255 372.554 343.155 372.699 343.227C372.725 343.085 372.882 342.945 372.694 342.748L372.731 342.775C372.6 342.649 372.738 342.706 372.684 342.613C372.704 342.623 372.716 342.622 372.724 342.627C372.596 342.498 372.776 342.472 372.731 342.398L372.825 342.447L372.855 342.335L372.815 342.362C372.559 342.213 373.02 342.374 372.885 342.213C372.954 342.165 372.41 341.795 372.574 341.793C372.468 341.698 372.759 341.926 372.69 341.828C372.827 341.9 372.764 341.896 372.879 341.941C372.838 341.858 373.06 341.934 373 341.826L373.106 341.881C372.953 341.7 373.323 341.806 373.164 341.658C373.117 341.531 373.509 341.768 373.344 341.577L373.503 341.62C373.544 341.598 373.339 341.502 373.432 341.499C373.523 341.547 373.53 341.485 373.605 341.557C373.794 341.543 373.497 341.269 373.798 341.276C373.635 341.159 373.772 341.154 373.646 341.067C373.725 341.104 373.72 340.953 373.853 341.109C373.864 341.122 373.855 341.132 373.826 341.113L373.927 341.176C374.16 341.211 373.882 340.997 373.948 340.948C373.903 340.95 373.898 340.98 373.836 340.926L373.883 340.87L373.965 340.928L374.064 340.863L373.95 340.818C374.031 340.802 374.224 340.885 374.094 340.751C374.02 340.684 373.926 340.718 373.917 340.652C374.022 340.631 374.181 340.597 374.256 340.538C374.128 340.483 374.146 340.463 374.131 340.429L374.236 340.485C374.131 340.324 374.487 340.575 374.413 340.431L374.484 340.476L374.272 340.34C374.099 340.155 374.513 340.414 374.266 340.184C374.267 340.224 374.024 340.076 374.091 340.06L374.189 340.122C374.178 340.088 374.138 340.06 374.169 340.057C374.215 340.1 374.314 340.14 374.313 340.1L374.43 340.19L374.273 340.032C374.408 340.044 374.307 339.897 374.463 339.953C374.463 339.953 374.586 339.89 374.438 339.784C374.528 339.856 374.593 339.821 374.7 339.895C374.602 339.811 374.551 339.686 374.687 339.717L374.698 339.73C374.881 339.68 374.634 339.45 374.833 339.423C374.707 339.365 374.801 339.345 374.638 339.274C374.536 339.087 375.062 339.248 374.59 338.955C374.59 338.893 374.734 338.958 374.773 338.945L374.793 338.97C374.801 338.858 374.808 338.829 374.854 338.77C374.823 338.71 374.601 338.587 374.686 338.555C374.767 338.623 374.764 338.588 374.775 338.565C374.782 338.587 374.814 338.611 374.89 338.61C374.863 338.593 374.85 338.575 374.839 338.562C374.845 338.565 374.85 338.568 374.862 338.574C374.85 338.52 374.818 338.511 374.798 338.522C374.783 338.515 374.766 338.506 374.738 338.498C374.876 338.519 374.786 338.385 374.946 338.462C374.968 338.328 374.85 338.165 374.839 338.039C374.925 338.07 374.984 338.13 375.001 338.174L375.007 338.094C375.121 338.153 375.053 338.165 375.064 338.2C375.291 338.217 374.963 337.941 375.183 337.936L375.102 337.868L375.12 337.87C375.071 337.844 375.016 337.79 375.009 337.769C375.116 337.806 375.24 337.889 375.258 337.84C375.375 337.854 375.263 337.712 375.235 337.635C375.204 337.652 375.154 337.615 375.123 337.585C375.132 337.56 375.239 337.598 375.206 337.559L375.34 337.629C375.208 337.567 375.235 337.494 375.186 337.458C375.293 337.495 375.253 337.536 375.328 337.582C375.364 337.485 375.346 337.534 375.38 337.432C375.303 337.33 375.248 337.374 375.142 337.29C375.139 337.234 375.067 337.142 375.174 337.132L375.045 337.087C374.994 336.955 375.033 336.913 375.184 336.923C374.525 335.806 373.918 336.1 373.918 336.1C373.527 336.201 373.812 336.506 373.757 336.84L373.744 336.837Z" fill="#333331"/>
<path d="M381.632 341.231L381.573 341.226C381.596 341.237 381.619 341.242 381.632 341.231Z" fill="#333331"/>
<path d="M379.184 345.985C379.184 345.985 379.189 345.992 379.194 345.998C379.192 345.993 379.186 345.99 379.184 345.985Z" fill="#333331"/>
<path d="M379.573 341.086C379.573 341.086 379.567 341.075 379.564 341.073L379.573 341.086Z" fill="#333331"/>
<path d="M380.207 340.202C380.016 340.422 379.751 340.367 379.71 340.676C379.626 340.788 379.61 340.951 379.576 341.086C379.726 341.237 379.493 341.246 379.611 341.394L379.495 341.367C379.535 341.416 379.554 341.463 379.488 341.457L379.459 341.442C379.518 341.517 379.452 341.533 379.483 341.571L379.452 341.555L379.445 341.602L379.407 341.571C379.458 341.674 379.431 341.74 379.364 341.778L379.493 341.837C379.291 341.884 379.528 342.063 379.307 342.082L379.276 342.066C379.534 342.371 378.943 342.161 379.181 342.463C379.15 342.425 379.114 342.439 379.084 342.42C379.086 342.5 379.069 342.582 379.311 342.709C379.285 342.753 379.215 342.706 379.116 342.665C379.222 342.72 379.247 342.784 379.233 342.824L379.202 342.786L379.184 342.911L379.397 342.997C379.312 343.021 379.144 342.883 379.165 342.962L379.333 343.05C379.259 343.109 378.985 343.021 378.819 343.033C378.587 343.304 378.841 343.861 378.396 343.992L378.264 343.938C378.078 343.849 378.494 344.159 378.319 344.083L378.384 344.161C378.348 344.153 378.301 344.153 378.27 344.115C378.248 344.144 378.276 344.159 378.321 344.211L378.189 344.186C378.037 344.263 378.203 344.48 378.093 344.586C377.779 344.618 377.841 345.021 377.881 345.252C378.033 345.629 377.159 345.522 377.346 345.929C377.316 345.924 377.363 345.974 377.386 345.986L377.246 346.192C377.246 346.192 376.621 347.224 378.562 347.205L378.599 347.232C378.759 347.162 378.822 347.097 378.662 346.909C378.915 347.022 378.74 346.822 378.835 346.835L378.855 346.846C378.701 346.674 379.089 346.779 378.958 346.62C378.978 346.63 379.045 346.669 379.039 346.687C379.034 346.62 379.017 346.52 379.162 346.591C379.188 346.449 379.345 346.309 379.157 346.113L379.194 346.14C379.063 346.014 379.2 346.071 379.147 345.978C379.167 345.988 379.179 345.987 379.187 345.991C379.059 345.863 379.239 345.837 379.194 345.763L379.288 345.812L379.318 345.7L379.278 345.727C379.021 345.578 379.483 345.739 379.348 345.578C379.417 345.53 378.873 345.16 379.037 345.158C378.931 345.063 379.222 345.291 379.153 345.193C379.29 345.264 379.227 345.26 379.341 345.306C379.301 345.223 379.523 345.299 379.463 345.191L379.569 345.246C379.416 345.065 379.786 345.17 379.627 345.022C379.58 344.896 379.972 345.133 379.807 344.942L379.966 344.985C380.007 344.962 379.802 344.867 379.895 344.864C379.986 344.912 379.993 344.85 380.068 344.922C380.257 344.908 379.96 344.633 380.261 344.641C380.098 344.523 380.235 344.518 380.109 344.431C380.188 344.469 380.183 344.317 380.316 344.474C380.327 344.487 380.318 344.497 380.288 344.478L380.39 344.541C380.622 344.575 380.345 344.362 380.411 344.313C380.366 344.315 380.361 344.345 380.299 344.291L380.346 344.235L380.428 344.293L380.527 344.228L380.413 344.183C380.494 344.167 380.687 344.25 380.557 344.116C380.483 344.049 380.389 344.083 380.38 344.017C380.485 343.996 380.644 343.962 380.719 343.903C380.591 343.848 380.609 343.828 380.594 343.794L380.699 343.849C380.594 343.689 380.95 343.94 380.876 343.796L380.947 343.841L380.735 343.705C380.562 343.52 380.976 343.779 380.729 343.549C380.73 343.589 380.487 343.441 380.552 343.428L380.651 343.49C380.64 343.455 380.6 343.427 380.63 343.425C380.677 343.467 380.776 343.508 380.775 343.468L380.891 343.557L380.734 343.399C380.869 343.412 380.768 343.264 380.924 343.32C380.924 343.32 381.048 343.258 380.9 343.151C380.989 343.223 381.055 343.189 381.161 343.262C381.063 343.179 381.012 343.054 381.148 343.085L381.16 343.098C381.342 343.048 381.095 342.818 381.295 342.791C381.169 342.733 381.263 342.713 381.1 342.642C380.998 342.455 381.524 342.616 381.052 342.323C381.051 342.261 381.196 342.325 381.235 342.313L381.255 342.338C381.262 342.226 381.27 342.197 381.316 342.137C381.285 342.078 381.062 341.955 381.148 341.923C381.229 341.99 381.225 341.956 381.237 341.933C381.244 341.955 381.275 341.978 381.351 341.978C381.324 341.96 381.312 341.943 381.3 341.93C381.306 341.933 381.312 341.936 381.323 341.942C381.311 341.888 381.28 341.879 381.259 341.89C381.245 341.883 381.228 341.874 381.199 341.866C381.337 341.887 381.247 341.753 381.407 341.829C381.429 341.696 381.311 341.532 381.3 341.407C381.386 341.437 381.446 341.497 381.462 341.542L381.468 341.462C381.582 341.521 381.514 341.533 381.525 341.568C381.752 341.584 381.424 341.308 381.645 341.303L381.564 341.236L381.581 341.237C381.533 341.212 381.477 341.158 381.47 341.136C381.578 341.174 381.702 341.257 381.72 341.208C381.836 341.222 381.725 341.08 381.696 341.003C381.665 341.02 381.616 340.983 381.584 340.952C381.594 340.928 381.701 340.966 381.667 340.926L381.801 340.996C381.67 340.935 381.697 340.862 381.647 340.825C381.754 340.863 381.715 340.904 381.789 340.95C381.825 340.853 381.807 340.901 381.842 340.8C381.764 340.698 381.709 340.741 381.604 340.657C381.6 340.601 381.528 340.509 381.635 340.5L381.506 340.454C381.455 340.322 381.495 340.281 381.646 340.291C380.986 339.174 380.379 339.468 380.379 339.468C379.989 339.569 380.273 339.873 380.219 340.208L380.207 340.202Z" fill="#333331"/>
<path d="M367.72 320.315C367.98 320.269 367.73 320.015 367.802 319.926L367.825 319.931C367.706 319.832 367.734 319.716 367.75 319.594C367.765 319.475 367.783 319.342 367.662 319.268C367.684 319.269 367.757 319.253 367.777 319.299C367.693 319.154 367.562 318.973 367.697 318.902C367.542 318.6 367.316 318.184 367.027 318.07C367.004 317.981 366.928 317.938 366.85 317.908C366.781 317.88 366.706 317.863 366.643 317.83L366.646 317.824C366.641 317.821 366.636 317.823 366.629 317.822C366.601 317.808 366.576 317.791 366.554 317.765C366.561 317.787 366.57 317.803 366.577 317.817C366.524 317.808 366.476 317.782 366.434 317.75L366.507 317.715C366.445 317.632 366.38 317.555 366.309 317.482L366.27 317.599C366.191 317.471 366.26 317.263 366.026 317.315C365.999 317.324 365.988 317.339 365.984 317.359C365.973 317.353 365.962 317.348 365.95 317.342L365.983 317.369C365.978 317.407 365.992 317.45 365.978 317.469C365.885 317.515 365.892 317.217 365.706 317.218C365.606 317.111 365.489 317.007 365.365 316.939C365.34 317.071 365.278 317.042 365.208 317.045L365.237 316.934C364.936 317.002 365.219 316.655 364.918 316.709L364.835 316.855C364.564 317.026 364.747 316.591 364.44 316.86C364.489 316.856 364.494 316.917 364.473 316.971C364.441 316.969 364.413 316.962 364.383 316.95L364.386 316.944C364.386 316.944 364.378 316.944 364.377 316.947C364.36 316.938 364.343 316.936 364.325 316.927C364.308 316.918 364.29 316.912 364.271 316.906C364.272 316.863 364.245 316.823 364.177 316.835L364.254 316.701C364.184 316.766 364.114 316.831 364.051 316.896C363.986 316.841 363.908 316.844 363.831 316.851C363.794 316.81 363.752 316.795 363.683 316.857C363.647 316.849 363.616 316.833 363.596 316.794C363.596 316.794 363.572 316.792 363.538 316.793L363.51 316.764C363.48 316.766 363.462 316.779 363.452 316.799C363.44 316.8 363.433 316.8 363.422 316.801C363.368 316.813 363.315 316.832 363.272 316.865C363.228 316.852 363.183 316.847 363.209 316.784C363.176 316.778 363.145 316.78 363.114 316.786C363.1 316.764 363.09 316.741 363.095 316.703C363.077 316.738 363.052 316.779 363.02 316.813C362.954 316.841 362.892 316.884 362.828 316.931C362.778 316.941 362.731 316.942 362.69 316.917L362.7 316.897C362.5 316.898 362.364 317.012 362.244 317.117C362.14 317.204 362.048 317.298 361.911 317.339C361.754 317.319 361.695 317.419 361.655 317.522C361.615 317.627 361.595 317.748 361.512 317.817C361.577 317.797 361.621 317.747 361.642 317.805C361.594 317.827 361.545 317.845 361.501 317.866C361.491 317.872 361.481 317.877 361.471 317.883L361.464 317.868C361.381 317.93 361.303 317.995 361.23 318.066L361.348 318.105C361.22 318.184 361.012 318.116 361.064 318.35C361.077 318.382 361.097 318.392 361.121 318.394C361.056 318.52 361.008 318.589 360.946 318.688C360.845 318.784 360.751 318.895 360.687 319.01C360.794 319.029 360.796 319.074 360.795 319.132C360.782 319.136 360.767 319.143 360.748 319.151C360.748 319.151 360.75 319.155 360.753 319.157L360.682 319.138C360.751 319.439 360.404 319.157 360.458 319.457L360.604 319.54C360.604 319.54 360.616 319.565 360.622 319.575C360.618 319.617 360.619 319.657 360.617 319.696C360.557 319.741 360.43 319.733 360.608 319.935C360.607 319.916 360.618 319.903 360.632 319.896C360.645 319.969 360.657 320.037 360.676 320.105C360.623 320.095 360.574 320.12 360.584 320.198L360.45 320.121C360.515 320.191 360.58 320.261 360.645 320.324C360.633 320.34 360.626 320.354 360.621 320.37C360.603 320.35 360.583 320.325 360.574 320.294L360.599 320.489C360.477 320.487 360.532 320.374 360.51 320.312C360.41 320.427 360.447 320.559 360.51 320.682C360.523 320.711 360.537 320.74 360.551 320.769C360.551 320.769 360.55 320.772 360.548 320.775C360.548 320.775 360.541 320.858 360.556 320.949C360.562 320.978 360.57 321.004 360.582 321.032C360.577 321.048 360.577 321.062 360.571 321.081L360.625 321.102C360.636 321.115 360.652 321.127 360.666 321.134L360.663 321.14C360.663 321.14 360.673 321.141 360.681 321.142C360.689 321.146 360.698 321.15 360.706 321.155C360.586 321.114 360.591 321.298 360.458 321.276C360.511 321.3 360.568 321.344 360.611 321.4C360.573 321.474 360.623 321.558 360.691 321.63C360.689 321.647 360.683 321.666 360.673 321.679L360.653 321.668C360.654 321.868 360.768 322.004 360.873 322.124C360.979 322.248 361.092 322.351 361.115 322.537C361.215 322.451 361.262 322.632 361.372 322.497C361.535 322.582 361.562 322.745 361.62 322.865C361.672 322.987 361.753 323.055 361.975 322.901C362.1 322.974 362.019 323.11 362.067 323.178L362.019 323.179C362.273 323.311 362.337 323.355 362.511 323.468C362.628 323.474 362.75 323.273 362.88 323.395C362.788 323.459 362.861 323.472 362.92 323.499C362.875 323.494 362.846 323.522 362.902 323.617C362.925 323.593 362.951 323.585 362.973 323.578C362.97 323.583 362.973 323.592 362.965 323.599C362.98 323.599 362.987 323.6 362.999 323.598C363.06 323.703 363.14 323.814 363.249 323.925L363.223 323.962C363.555 324.146 363.82 324.175 364.064 323.965C364.11 324.225 364.366 323.977 364.453 324.048L364.448 324.071C364.547 323.951 364.663 323.979 364.785 323.996C364.904 324.01 365.036 324.029 365.11 323.907C365.11 323.929 365.126 324.003 365.08 324.022C365.225 323.938 365.406 323.807 365.477 323.942C365.824 323.764 366.33 323.49 366.339 323.139L366.355 323.184C366.342 322.966 366.476 323.05 366.515 322.878C366.534 322.889 366.55 322.886 366.555 322.892C366.538 322.68 366.805 322.55 366.816 322.411L366.907 322.458C366.951 322.376 366.994 322.286 367.036 322.199L366.964 322.281C366.739 322.113 367.232 322.177 367.153 321.897C367.213 321.816 367.109 321.667 367.011 321.536C367.103 321.511 367.203 321.473 367.31 321.408C367.427 321.342 367.558 321.251 367.686 321.125L367.723 321.152C367.907 320.819 367.936 320.555 367.725 320.311L367.72 320.315Z" fill="#333331"/>
<path d="M358.49 317.144L358.414 317.101L358.49 317.144Z" fill="#333331"/>
<path d="M397.777 339.656L397.709 339.61C397.715 339.635 397.733 339.656 397.777 339.656Z" fill="#333331"/>
<path d="M393.05 335.122L392.974 335.079L393.05 335.122Z" fill="#333331"/>
<path d="M404.547 340.485C404.63 340.227 404.73 339.884 404.705 339.609C404.824 339.341 404.82 339.117 404.638 338.91C404.898 338.864 404.649 338.611 404.721 338.521L404.744 338.526C404.624 338.427 404.652 338.311 404.669 338.189C404.683 338.07 404.702 337.937 404.58 337.863C404.602 337.864 404.676 337.848 404.695 337.894C404.611 337.749 404.48 337.568 404.615 337.497C404.437 337.15 404.163 336.644 403.812 336.635L403.857 336.619C403.639 336.632 403.723 336.498 403.551 336.459C403.561 336.439 403.559 336.423 403.565 336.419C403.443 336.429 403.348 336.347 403.265 336.27C403.26 336.231 403.236 336.201 403.169 336.195C403.145 336.179 403.118 336.168 403.097 336.161L403.097 336.132L403.131 336.066C403.131 336.066 403.111 336.056 403.1 336.05L403.101 336.007C403.069 335.976 403.035 335.987 403.004 336.004C402.961 335.981 402.918 335.959 402.874 335.94C402.858 335.888 402.797 335.845 402.876 335.81C402.784 335.675 402.621 335.659 402.464 335.639C402.3 335.626 402.144 335.592 401.987 335.426C401.863 335.587 401.703 335.442 401.621 335.577C401.622 335.556 401.6 335.541 401.568 335.527L401.568 335.513C401.568 335.513 401.558 335.519 401.552 335.523C401.459 335.493 401.319 335.474 401.482 335.363C401.503 335.352 401.536 335.358 401.531 335.389L401.569 335.281C401.47 335.157 401.362 335.184 401.257 335.231C401.153 335.279 401.055 335.348 400.946 335.341C401.011 335.376 401.095 335.361 401.039 335.441L400.842 335.436L400.878 335.339C400.776 335.326 400.674 335.312 400.572 335.313L400.627 335.422C400.48 335.385 400.384 335.194 400.253 335.395C400.225 335.456 400.282 335.486 400.31 335.515C400.296 335.522 400.28 335.525 400.256 335.516C400.237 335.419 400.083 335.484 400.127 335.372C399.966 335.339 399.842 335.445 399.715 335.543C399.708 335.55 399.699 335.552 399.692 335.559C399.633 335.568 399.574 335.578 399.519 335.592C399.534 335.619 399.545 335.639 399.548 335.655C399.513 335.673 399.475 335.69 399.433 335.701L399.422 335.68C399.415 335.694 399.404 335.7 399.396 335.71C399.351 335.719 399.3 335.726 399.243 335.725C399.184 335.676 399.129 335.615 399.036 335.744L399.08 335.905C399.032 336.116 398.936 335.986 398.866 336.008L398.825 335.921C398.667 335.904 398.609 336.001 398.568 336.107C398.527 336.212 398.508 336.333 398.425 336.402C398.486 336.383 398.528 336.336 398.552 336.381C398.553 336.393 398.55 336.406 398.551 336.417L398.421 336.542L398.378 336.45C398.295 336.512 398.217 336.577 398.144 336.648L398.262 336.688C398.134 336.766 397.926 336.698 397.978 336.932C397.984 336.942 397.988 336.948 397.995 336.955C397.974 337.01 397.966 337.067 398.001 337.118C397.944 337.005 397.819 337.139 397.739 337.029C397.793 337.169 397.757 337.426 397.605 337.467L397.6 337.443C397.465 337.576 397.445 337.739 397.435 337.891C397.389 337.903 397.358 337.934 397.375 338.041L397.421 338.065C397.41 338.175 397.391 338.282 397.309 338.384C397.441 338.395 397.343 338.554 397.519 338.537C397.539 338.598 397.536 338.651 397.527 338.704C397.508 338.72 397.493 338.741 397.497 338.783L397.362 338.706C397.403 338.753 397.447 338.794 397.49 338.838C397.469 338.885 397.448 338.932 397.433 338.975C397.394 339.071 397.392 339.157 397.52 339.213C397.523 339.276 397.515 339.333 397.455 339.364C397.455 339.364 397.448 339.448 397.462 339.538C397.476 339.611 397.506 339.685 397.563 339.722C397.564 339.726 397.566 339.73 397.566 339.738C397.488 339.748 397.475 339.883 397.358 339.865C397.496 339.926 397.653 340.135 397.571 340.27L397.551 340.26C397.552 340.46 397.666 340.596 397.771 340.716C397.877 340.84 397.99 340.943 398.013 341.129C398.113 341.043 398.16 341.224 398.27 341.089C398.433 341.173 398.461 341.337 398.518 341.457C398.522 341.463 398.522 341.47 398.526 341.476C398.502 341.453 398.479 341.426 398.454 341.413C398.461 341.566 398.582 341.632 398.716 341.676C398.786 341.702 398.856 341.728 398.914 341.769C398.966 341.803 399.007 341.85 399.033 341.918L399.117 341.882C399.117 341.882 399.134 341.891 399.14 341.894C399.18 341.915 399.212 341.935 399.248 341.958C399.221 342.016 399.209 342.068 399.283 342.106C399.325 342.256 399.582 342.215 399.732 342.213C399.669 342.166 399.718 342.122 399.761 342.102C399.764 342.103 399.767 342.105 399.773 342.107C399.764 342.125 399.769 342.156 399.801 342.206C399.81 342.196 399.822 342.195 399.832 342.189C399.843 342.209 399.859 342.221 399.885 342.213L399.839 342.349C399.863 342.213 400.055 342.269 400.095 342.221C400.097 342.335 399.969 342.275 399.924 342.346C400.187 342.421 400.056 342.386 400.324 342.442C400.4 342.409 400.406 342.376 400.4 342.34C400.652 342.33 400.861 342.242 401.067 342.194C401.095 342.281 401.03 342.356 400.946 342.385L401.144 342.361C401.142 342.483 401.029 342.428 400.967 342.45C401.082 342.55 401.213 342.513 401.337 342.451C401.463 342.389 401.584 342.332 401.732 342.395L401.773 342.289L401.793 342.3C401.782 342.251 401.827 342.172 401.863 342.151C401.922 342.247 401.911 342.394 402.046 342.352C402.18 342.429 402.334 342.215 402.44 342.11C402.362 342.121 402.366 342.057 402.38 342.01C402.439 341.987 402.515 342.07 402.542 342.004L402.607 342.132C402.574 342.082 402.587 342.038 402.612 341.997C402.635 342.001 402.653 342.007 402.673 342.011C402.664 342.028 402.658 342.046 402.662 342.067C402.702 342.047 402.728 342.032 402.753 342.019C402.814 342.026 402.873 342.031 402.941 342.034L402.95 342.079C403.316 341.975 403.524 341.807 403.546 341.485C403.766 341.636 403.769 341.282 403.881 341.268L403.892 341.288C403.878 341.135 403.98 341.072 404.08 340.997C404.174 340.923 404.28 340.844 404.248 340.704C404.26 340.721 404.327 340.76 404.307 340.807C404.351 340.645 404.385 340.426 404.53 340.469L404.547 340.485ZM402.951 336.016C402.951 336.016 402.933 336.036 402.926 336.043C402.901 336.048 402.88 336.041 402.863 336.003C402.875 335.98 402.877 335.963 402.873 335.943L402.952 336.013L402.951 336.016ZM398.854 336.031C398.854 336.031 398.832 336.059 398.825 336.088C398.826 336.078 398.824 336.069 398.827 336.056C398.83 336.043 398.841 336.035 398.853 336.034L398.854 336.031Z" fill="#333331"/>
<path d="M106.624 94.4447C117.633 75.6554 145.509 78.0242 153.189 98.4017C156.28 106.603 163.31 112.683 171.871 114.56C193.143 119.224 199.504 146.467 182.497 160.069C175.653 165.543 172.042 174.108 172.903 182.829C175.04 204.501 151.096 218.97 132.905 206.998C125.584 202.181 116.323 201.394 108.294 204.907C88.3431 213.637 67.1836 195.336 72.9475 174.335C75.2671 165.884 73.1537 156.833 67.3311 150.282C52.8634 134.006 63.7303 108.227 85.4838 107.219C94.2385 106.813 102.194 102.006 106.624 94.4447Z" fill="#5BB4EE"/>
<path d="M131.384 153.913L131.301 153.936C131.336 153.946 131.365 153.944 131.384 153.913Z" fill="#333331"/>
<path d="M128.576 154.245C128.576 154.245 128.567 154.232 128.562 154.229L128.572 154.245L128.576 154.245Z" fill="#333331"/>
<path d="M129.287 152.941C129.2 153.129 129.072 153.227 128.953 153.32C128.842 153.416 128.761 153.511 128.746 153.71C128.702 153.793 128.674 153.879 128.648 153.97C128.621 154.06 128.611 154.162 128.575 154.245C128.751 154.455 128.46 154.447 128.572 154.653L128.429 154.592C128.468 154.665 128.481 154.732 128.399 154.708L128.368 154.677C128.427 154.79 128.338 154.793 128.359 154.846L128.327 154.815L128.298 154.871L128.26 154.82C128.288 154.961 128.231 155.045 128.131 155.057L128.258 155.186C127.989 155.139 128.184 155.495 127.906 155.381L127.883 155.344C127.939 155.593 127.825 155.589 127.712 155.542C127.6 155.504 127.504 155.457 127.51 155.713C127.506 155.655 127.462 155.633 127.446 155.592C127.385 155.668 127.309 155.728 127.427 156.069C127.357 156.091 127.333 155.987 127.281 155.857C127.334 156.008 127.294 156.087 127.241 156.112L127.249 156.048L127.104 156.139L127.209 156.418C127.095 156.359 127.103 156.072 127.034 156.165L127.086 156.406C126.946 156.387 126.809 156.018 126.695 155.854C126.59 155.845 126.485 155.849 126.37 155.895C126.255 155.929 126.135 155.963 126.02 155.997C125.898 156.006 125.774 156.028 125.661 155.986C125.552 155.939 125.451 155.871 125.402 155.723L125.46 155.546C125.572 155.298 125.188 155.857 125.28 155.622L125.178 155.71C125.187 155.663 125.186 155.604 125.238 155.558C125.202 155.531 125.179 155.563 125.112 155.618L125.154 155.447C125.112 155.34 125.016 155.347 124.914 155.342C124.813 155.333 124.703 155.329 124.642 155.245C124.664 155.029 124.546 154.924 124.388 154.83C124.308 154.781 124.213 154.746 124.118 154.711C124.027 154.672 123.936 154.637 123.857 154.604C123.713 154.586 123.647 154.494 123.626 154.382C123.605 154.27 123.608 154.139 123.64 154.002C123.664 153.87 123.688 153.741 123.672 153.637C123.664 153.529 123.611 153.444 123.464 153.392C123.496 153.368 123.403 153.363 123.374 153.373C123.348 153.249 123.33 153.124 123.305 153.004C123.305 153.004 123.298 152.975 123.282 152.934C123.271 152.889 123.253 152.827 123.227 152.753C123.166 152.614 123.081 152.44 122.945 152.307C122.801 152.174 122.592 152.08 122.292 152.128C121.997 152.179 121.59 152.37 121.111 152.94L121.051 152.936C120.973 153.245 120.968 153.452 121.317 153.564C120.977 153.691 121.348 153.806 121.254 153.902L121.224 153.904C121.534 153.986 121.13 154.336 121.426 154.411C121.397 154.413 121.303 154.45 121.283 154.413C121.371 154.516 121.511 154.645 121.324 154.738C121.419 154.87 121.49 155.042 121.589 155.186C121.697 155.325 121.831 155.433 122.024 155.427L121.967 155.448C122.217 155.421 122.063 155.555 122.234 155.593C122.215 155.615 122.208 155.628 122.199 155.633C122.454 155.601 122.434 155.893 122.566 155.917L122.459 156.009C122.518 156.064 122.581 156.118 122.64 156.173L122.604 156.087C122.915 155.858 122.542 156.382 122.842 156.347C122.926 156.509 123.637 156.002 123.609 156.24C123.783 156.155 123.365 156.413 123.54 156.388C123.408 156.541 123.418 156.447 123.331 156.584C123.475 156.59 123.348 156.865 123.545 156.85L123.453 156.979C123.774 156.871 123.63 157.37 123.896 157.212C124.131 157.207 123.771 157.684 124.113 157.532L124.092 157.757C124.165 157.831 124.271 157.558 124.319 157.694C124.256 157.812 124.394 157.848 124.282 157.936C124.348 158.087 124.495 158.076 124.646 158.065C124.797 158.058 124.937 158.073 125.046 158.292C125.184 158.059 125.303 158.248 125.399 158.068C125.382 158.179 125.714 158.158 125.484 158.356C125.464 158.375 125.438 158.36 125.448 158.321L125.396 158.468C125.534 158.803 125.776 158.372 125.949 158.435C125.898 158.38 125.823 158.386 125.883 158.284L126.05 158.323L126.005 158.448C126.091 158.479 126.174 158.52 126.264 158.542L126.235 158.38C126.355 158.464 126.405 158.734 126.552 158.504C126.614 158.377 126.431 158.29 126.562 158.238C126.726 158.352 126.997 158.492 127.23 158.504C127.183 158.327 127.242 158.326 127.293 158.28L127.325 158.434C127.513 158.184 127.48 158.759 127.678 158.534L127.687 158.647L127.666 158.312C127.783 157.958 127.868 158.595 127.968 158.129C127.887 158.177 127.827 157.815 127.947 157.844L127.971 157.998C128.018 157.949 128.013 157.882 128.06 157.895C128.054 157.984 128.118 158.11 128.19 158.054L128.196 158.255C128.218 158.148 128.239 158.037 128.256 157.931C128.441 158.035 128.547 157.77 128.682 157.933C128.682 157.933 128.986 157.889 128.922 157.658C128.946 157.812 129.108 157.783 129.159 157.952C129.146 157.776 129.242 157.542 129.413 157.638L129.415 157.664C129.8 157.626 129.692 157.142 130.049 157.124C129.917 156.999 130.092 156.973 129.904 156.827C129.925 156.476 130.616 156.774 130.129 156.225C130.171 156.109 130.348 156.222 130.417 156.191L130.429 156.237C130.526 156.015 130.564 155.966 130.668 155.827C130.659 155.714 130.384 155.524 130.526 155.446C130.614 155.558 130.626 155.494 130.652 155.445C130.655 155.487 130.687 155.523 130.804 155.506C130.772 155.474 130.762 155.45 130.752 155.425C130.76 155.429 130.769 155.433 130.782 155.44C130.787 155.334 130.74 155.329 130.709 155.357C130.691 155.346 130.669 155.335 130.631 155.329C130.825 155.332 130.744 155.093 130.949 155.188C131.038 154.916 130.891 154.636 130.89 154.405C131.01 154.425 131.087 154.508 131.102 154.587L131.123 154.421C131.279 154.481 131.178 154.543 131.191 154.601C131.53 154.517 131.077 154.138 131.378 154.002L131.262 153.918L131.287 153.916C131.218 153.892 131.141 153.818 131.13 153.781C131.278 153.791 131.461 153.874 131.474 153.764C131.63 153.71 131.463 153.499 131.407 153.377C131.369 153.43 131.295 153.394 131.25 153.359C131.259 153.308 131.406 153.305 131.356 153.25L131.552 153.282C131.366 153.271 131.379 153.105 131.3 153.073C131.451 153.062 131.414 153.179 131.521 153.209C131.534 152.989 131.526 153.099 131.538 152.875C131.406 152.741 131.349 152.872 131.183 152.796C131.158 152.692 131.037 152.588 131.16 152.486L130.985 152.508C130.857 152.319 130.883 152.22 131.068 152.106C130.711 151.766 130.397 151.621 130.144 151.56C129.891 151.499 129.69 151.518 129.539 151.575C129.23 151.674 129.105 151.865 129.105 151.865C128.72 152.23 129.222 152.416 129.276 152.913L129.287 152.941Z" fill="#333331"/>
<path d="M101.406 145.81L101.489 145.786C101.455 145.776 101.425 145.778 101.406 145.81Z" fill="#333331"/>
<path d="M104.219 145.477C104.219 145.477 104.229 145.489 104.233 145.493L104.223 145.477L104.219 145.477Z" fill="#333331"/>
<path d="M103.508 146.781C103.595 146.594 103.723 146.496 103.842 146.403C103.953 146.306 104.034 146.211 104.049 146.013C104.093 145.929 104.12 145.843 104.147 145.753C104.174 145.662 104.183 145.56 104.219 145.478C104.044 145.268 104.335 145.276 104.223 145.069L104.366 145.13C104.327 145.057 104.314 144.991 104.395 145.014L104.427 145.046C104.368 144.932 104.456 144.93 104.436 144.877L104.467 144.908L104.497 144.851L104.534 144.903C104.507 144.762 104.564 144.678 104.664 144.666L104.536 144.536C104.805 144.584 104.61 144.228 104.892 144.342L104.916 144.378C104.86 144.129 104.974 144.133 105.087 144.18C105.199 144.218 105.295 144.265 105.289 144.009C105.293 144.068 105.337 144.09 105.352 144.13C105.414 144.054 105.49 143.994 105.372 143.653C105.442 143.631 105.466 143.735 105.518 143.866C105.465 143.714 105.505 143.635 105.558 143.61L105.55 143.674L105.695 143.583L105.59 143.305C105.704 143.363 105.696 143.65 105.764 143.557L105.713 143.316C105.853 143.335 105.99 143.704 106.103 143.868C106.209 143.877 106.314 143.874 106.429 143.827C106.544 143.793 106.664 143.759 106.779 143.725C106.9 143.716 107.025 143.694 107.138 143.737C107.246 143.783 107.348 143.851 107.397 143.999L107.339 144.176C107.227 144.424 107.61 143.865 107.518 144.1L107.621 144.012C107.612 144.059 107.612 144.118 107.561 144.164C107.597 144.191 107.62 144.159 107.687 144.104L107.645 144.275C107.687 144.382 107.783 144.375 107.884 144.38C107.986 144.389 108.096 144.393 108.157 144.477C108.135 144.694 108.252 144.799 108.411 144.892C108.49 144.941 108.586 144.976 108.681 145.011C108.772 145.05 108.863 145.086 108.941 145.118C109.086 145.136 109.152 145.228 109.173 145.34C109.194 145.452 109.191 145.583 109.159 145.72C109.135 145.853 109.111 145.981 109.127 146.085C109.135 146.194 109.188 146.278 109.335 146.33C109.303 146.354 109.396 146.359 109.425 146.349C109.451 146.473 109.469 146.598 109.494 146.718C109.494 146.718 109.501 146.747 109.516 146.788C109.528 146.834 109.545 146.895 109.572 146.969C109.633 147.108 109.717 147.283 109.854 147.416C109.998 147.548 110.207 147.642 110.507 147.594C110.802 147.543 111.209 147.353 111.688 146.782L111.748 146.786C111.826 146.477 111.831 146.271 111.482 146.158C111.822 146.031 111.451 145.916 111.545 145.82L111.574 145.818C111.265 145.736 111.669 145.386 111.372 145.311C111.402 145.309 111.496 145.273 111.515 145.309C111.428 145.206 111.288 145.078 111.474 144.984C111.38 144.852 111.309 144.68 111.209 144.536C111.102 144.397 110.968 144.289 110.775 144.295L110.832 144.274C110.581 144.301 110.736 144.167 110.565 144.13C110.584 144.107 110.591 144.094 110.599 144.089C110.345 144.121 110.365 143.829 110.233 143.809L110.34 143.717C110.281 143.662 110.218 143.608 110.16 143.554L110.195 143.639C109.884 143.869 110.258 143.344 109.957 143.379C109.873 143.217 109.162 143.725 109.19 143.487C109.016 143.571 109.434 143.313 109.259 143.339C109.391 143.186 109.381 143.279 109.468 143.142C109.324 143.136 109.451 142.861 109.254 142.876L109.346 142.747C109.026 142.855 109.169 142.356 108.903 142.515C108.668 142.52 109.028 142.042 108.686 142.194L108.707 141.969C108.634 141.895 108.528 142.168 108.48 142.033C108.543 141.914 108.405 141.878 108.517 141.79C108.451 141.639 108.304 141.65 108.154 141.661C108.002 141.668 107.862 141.653 107.753 141.434C107.615 141.668 107.496 141.479 107.4 141.658C107.417 141.548 107.086 141.568 107.315 141.37C107.335 141.356 107.361 141.367 107.351 141.405L107.404 141.258C107.265 140.923 107.023 141.354 106.85 141.291C106.901 141.346 106.976 141.341 106.916 141.442L106.749 141.404L106.795 141.278C106.708 141.247 106.625 141.207 106.535 141.184L106.564 141.346C106.444 141.262 106.394 140.992 106.247 141.222C106.185 141.349 106.369 141.436 106.238 141.488C106.073 141.374 105.802 141.234 105.569 141.222C105.616 141.4 105.557 141.4 105.506 141.446L105.474 141.293C105.286 141.542 105.319 140.967 105.121 141.193L105.113 141.079L105.133 141.415C105.017 141.769 104.931 141.131 104.831 141.597C104.912 141.549 104.972 141.911 104.852 141.882L104.828 141.728C104.781 141.778 104.786 141.845 104.739 141.831C104.745 141.743 104.681 141.617 104.609 141.673L104.603 141.471C104.581 141.578 104.56 141.689 104.543 141.795C104.358 141.691 104.252 141.956 104.117 141.794C104.117 141.794 103.813 141.837 103.877 142.068C103.853 141.914 103.691 141.943 103.64 141.774C103.653 141.95 103.557 142.185 103.386 142.088L103.384 142.063C102.999 142.1 103.107 142.584 102.75 142.603C102.882 142.727 102.707 142.753 102.895 142.899C102.874 143.25 102.183 142.952 102.67 143.501C102.628 143.618 102.451 143.505 102.382 143.535L102.37 143.49C102.273 143.712 102.235 143.761 102.131 143.899C102.14 144.012 102.415 144.202 102.273 144.28C102.185 144.169 102.173 144.233 102.147 144.281C102.144 144.239 102.112 144.203 101.995 144.221C102.027 144.252 102.037 144.276 102.048 144.301C102.039 144.297 102.03 144.294 102.017 144.286C102.012 144.392 102.059 144.397 102.091 144.369C102.108 144.381 102.13 144.392 102.168 144.397C101.975 144.395 102.055 144.633 101.851 144.539C101.761 144.811 101.909 145.09 101.909 145.322C101.789 145.301 101.712 145.218 101.697 145.139L101.676 145.305C101.52 145.245 101.621 145.183 101.608 145.125C101.269 145.209 101.722 145.588 101.421 145.724L101.537 145.808L101.512 145.81C101.581 145.834 101.658 145.909 101.669 145.946C101.521 145.936 101.338 145.852 101.321 145.963C101.165 146.017 101.332 146.228 101.388 146.35C101.426 146.296 101.5 146.333 101.545 146.367C101.536 146.419 101.389 146.421 101.439 146.476L101.243 146.445C101.429 146.456 101.416 146.621 101.494 146.653C101.344 146.664 101.381 146.548 101.274 146.518C101.261 146.738 101.269 146.628 101.257 146.852C101.389 146.985 101.446 146.855 101.612 146.931C101.637 147.034 101.758 147.139 101.635 147.241L101.81 147.219C101.938 147.407 101.912 147.506 101.727 147.621C102.084 147.961 102.398 148.106 102.651 148.167C102.904 148.228 103.105 148.209 103.256 148.151C103.565 148.052 103.69 147.862 103.69 147.862C104.075 147.497 103.573 147.311 103.519 146.814L103.508 146.781Z" fill="#333331"/>
<path d="M138.435 143.052L138.518 143.029C138.483 143.018 138.454 143.021 138.435 143.052Z" fill="#333331"/>
<path d="M141.244 142.724C141.244 142.724 141.254 142.736 141.258 142.74L141.248 142.723L141.244 142.724Z" fill="#333331"/>
<path d="M140.533 144.028C140.62 143.84 140.747 143.742 140.867 143.649C140.977 143.553 141.059 143.458 141.073 143.259C141.118 143.176 141.145 143.09 141.172 142.999C141.199 142.909 141.208 142.807 141.244 142.724C141.068 142.514 141.359 142.522 141.247 142.316L141.391 142.377C141.352 142.304 141.338 142.237 141.42 142.261L141.452 142.292C141.393 142.179 141.481 142.176 141.46 142.123L141.492 142.154L141.522 142.098L141.559 142.149C141.532 142.008 141.589 141.924 141.689 141.912L141.561 141.783C141.83 141.83 141.635 141.474 141.913 141.588L141.937 141.625C141.88 141.376 141.994 141.38 142.107 141.427C142.22 141.465 142.316 141.512 142.309 141.256C142.314 141.314 142.357 141.336 142.373 141.377C142.435 141.301 142.51 141.241 142.392 140.9C142.462 140.878 142.487 140.982 142.539 141.112C142.485 140.961 142.526 140.882 142.578 140.857L142.571 140.921L142.715 140.83L142.61 140.551C142.724 140.61 142.716 140.897 142.785 140.804L142.733 140.563C142.874 140.582 143.011 140.951 143.124 141.115C143.23 141.124 143.335 141.121 143.449 141.074C143.565 141.04 143.684 141.006 143.8 140.972C143.921 140.963 144.046 140.945 144.158 140.983C144.267 141.03 144.369 141.098 144.418 141.246L144.359 141.423C144.247 141.671 144.631 141.112 144.539 141.347L144.642 141.259C144.633 141.306 144.633 141.365 144.581 141.407C144.617 141.433 144.64 141.402 144.707 141.347L144.665 141.518C144.707 141.624 144.803 141.617 144.905 141.622C145.006 141.632 145.116 141.636 145.177 141.72C145.155 141.936 145.273 142.041 145.431 142.135C145.511 142.183 145.606 142.218 145.701 142.253C145.792 142.293 145.884 142.328 145.962 142.36C146.106 142.379 146.172 142.471 146.193 142.583C146.214 142.695 146.211 142.826 146.179 142.963C146.155 143.095 146.131 143.223 146.147 143.327C146.156 143.436 146.208 143.521 146.355 143.573C146.323 143.596 146.416 143.602 146.445 143.591C146.471 143.716 146.489 143.841 146.515 143.961C146.515 143.961 146.521 143.99 146.537 144.031C146.548 144.076 146.566 144.138 146.592 144.212C146.653 144.351 146.738 144.525 146.874 144.658C147.018 144.791 147.228 144.884 147.527 144.837C147.822 144.785 148.229 144.595 148.709 144.025L148.768 144.029C148.846 143.72 148.852 143.513 148.502 143.4C148.842 143.274 148.471 143.158 148.565 143.063L148.595 143.061C148.285 142.979 148.689 142.629 148.393 142.554C148.422 142.552 148.516 142.515 148.536 142.552C148.448 142.449 148.308 142.32 148.495 142.226C148.401 142.094 148.329 141.923 148.23 141.779C148.123 141.639 147.988 141.532 147.795 141.538L147.852 141.516C147.602 141.544 147.756 141.41 147.585 141.372C147.604 141.35 147.612 141.337 147.62 141.332C147.365 141.363 147.386 141.071 147.254 141.052L147.36 140.96C147.302 140.905 147.239 140.851 147.18 140.796L147.216 140.882C146.904 141.111 147.278 140.587 146.977 140.622C146.894 140.46 146.182 140.967 146.211 140.729C146.036 140.814 146.455 140.556 146.28 140.581C146.411 140.428 146.402 140.522 146.488 140.385C146.345 140.379 146.471 140.104 146.275 140.119L146.366 139.99C146.046 140.098 146.19 139.599 145.924 139.757C145.688 139.762 146.048 139.285 145.706 139.437L145.727 139.212C145.654 139.138 145.548 139.411 145.5 139.275C145.563 139.157 145.426 139.121 145.537 139.033C145.471 138.882 145.324 138.893 145.174 138.904C145.023 138.911 144.883 138.896 144.774 138.677C144.635 138.91 144.516 138.721 144.42 138.901C144.437 138.79 144.106 138.811 144.335 138.613C144.355 138.594 144.381 138.609 144.372 138.648L144.424 138.501C144.285 138.166 144.044 138.597 143.871 138.534C143.921 138.589 143.996 138.583 143.937 138.685L143.769 138.646L143.815 138.521C143.728 138.49 143.645 138.449 143.555 138.427L143.584 138.589C143.464 138.505 143.415 138.235 143.268 138.465C143.205 138.592 143.389 138.679 143.258 138.731C143.094 138.617 142.822 138.477 142.59 138.465C142.637 138.642 142.578 138.643 142.526 138.689L142.494 138.535C142.306 138.785 142.339 138.21 142.141 138.435L142.133 138.322L142.154 138.657C142.037 139.011 141.951 138.374 141.851 138.84C141.932 138.792 141.993 139.153 141.873 139.125L141.849 138.971C141.802 139.02 141.807 139.087 141.759 139.074C141.765 138.985 141.701 138.859 141.63 138.915L141.623 138.714C141.602 138.821 141.58 138.932 141.563 139.038C141.379 138.934 141.272 139.199 141.138 139.036C141.138 139.036 140.834 139.08 140.897 139.311C140.873 139.157 140.711 139.186 140.661 139.017C140.674 139.193 140.577 139.427 140.406 139.331L140.404 139.305C140.02 139.343 140.127 139.827 139.771 139.845C139.902 139.97 139.727 139.996 139.915 140.142C139.895 140.493 139.203 140.195 139.69 140.744C139.649 140.86 139.472 140.747 139.402 140.778L139.391 140.732C139.293 140.954 139.255 141.003 139.152 141.142C139.16 141.255 139.435 141.445 139.294 141.523C139.205 141.411 139.193 141.475 139.167 141.524C139.164 141.482 139.132 141.446 139.016 141.463C139.047 141.495 139.058 141.519 139.068 141.544C139.059 141.54 139.05 141.536 139.037 141.529C139.033 141.635 139.079 141.64 139.111 141.612C139.129 141.623 139.15 141.634 139.189 141.64C138.995 141.637 139.076 141.876 138.871 141.781C138.782 142.053 138.929 142.333 138.929 142.564C138.81 142.544 138.732 142.461 138.718 142.382L138.696 142.548C138.54 142.488 138.641 142.426 138.628 142.368C138.289 142.452 138.743 142.831 138.441 142.967L138.557 143.051L138.532 143.053C138.601 143.077 138.678 143.151 138.689 143.188C138.541 143.178 138.358 143.095 138.341 143.206C138.185 143.26 138.353 143.47 138.408 143.592C138.446 143.539 138.52 143.576 138.565 143.61C138.556 143.661 138.409 143.664 138.459 143.719L138.263 143.687C138.45 143.699 138.437 143.864 138.515 143.896C138.364 143.907 138.402 143.791 138.294 143.761C138.281 143.981 138.29 143.871 138.277 144.095C138.409 144.228 138.467 144.097 138.632 144.173C138.657 144.277 138.778 144.381 138.655 144.483L138.831 144.462C138.958 144.65 138.932 144.749 138.747 144.864C139.105 145.203 139.419 145.348 139.672 145.409C139.925 145.471 140.125 145.451 140.277 145.394C140.585 145.295 140.71 145.105 140.71 145.105C141.095 144.739 140.593 144.554 140.539 144.057L140.533 144.028Z" fill="#333331"/>
</svg>
