<svg width="337" height="116" viewBox="0 0 337 116" fill="none" xmlns="http://www.w3.org/2000/svg">
<path d="M372.337 167.888C372.337 167.889 372.336 167.889 372.336 167.888C365.275 140.454 343.087 134.025 312.363 129.183C282.178 124.427 253.738 109.04 233.555 86.1822C212.467 62.3041 201.311 28.6031 170.965 13.9818C156.144 6.83457 139.149 5.33181 122.879 6.11457C106.131 6.90809 88.9851 10.6981 74.6772 19.7747C59.8017 29.207 51.9807 44.088 47.0836 60.4704C41.4691 79.2565 36.4343 98.2255 31.1403 117.102C25.812 136.09 20.4841 155.09 15.1681 174.078C10.4411 190.946 3.45311 209.102 6.26608 226.878C11.2617 258.367 42.1822 278.926 72.4065 281.624C108.57 284.85 142.169 268.801 174.453 254.777C192.172 247.08 210.129 240.126 229.232 236.794C247.493 233.615 266.039 232.72 284.434 230.567C304.954 228.158 375.728 214.577 374.648 185.106C374.403 178.588 373.626 172.89 372.339 167.888C372.339 167.887 372.337 167.887 372.337 167.888Z" fill="#F5C84E"/>
<path d="M108.068 52.7788L107.957 52.8264C108.007 52.8341 108.047 52.8255 108.068 52.7788Z" fill="#333331"/>
<path d="M104.187 53.7718C104.187 53.7718 104.171 53.7562 104.164 53.7515L104.181 53.7731L104.187 53.7718Z" fill="#333331"/>
<path d="M104.933 51.8022C104.846 52.0818 104.685 52.2432 104.535 52.3964C104.398 52.5529 104.301 52.7008 104.318 52.9829C104.271 53.1082 104.249 53.2344 104.228 53.3664C104.208 53.4985 104.214 53.6431 104.179 53.7659C104.465 54.0279 104.055 54.0716 104.251 54.3403L104.038 54.2817C104.107 54.3767 104.138 54.4674 104.019 54.4499L103.968 54.4119C104.072 54.5602 103.949 54.5801 103.988 54.6508L103.937 54.6128L103.907 54.6983L103.844 54.6324C103.909 54.8254 103.845 54.9544 103.707 54.9896L103.91 55.1474C103.524 55.1314 103.864 55.5946 103.447 55.4879L103.407 55.4416C103.532 55.7799 103.372 55.7955 103.204 55.7516C103.04 55.7194 102.896 55.6707 102.953 56.0294C102.936 55.9479 102.87 55.9252 102.84 55.8707C102.768 55.9892 102.673 56.0881 102.903 56.5443C102.809 56.5884 102.755 56.4478 102.658 56.2738C102.761 56.4769 102.719 56.5951 102.65 56.6402L102.649 56.5492L102.462 56.7038L102.662 57.0751C102.491 57.0138 102.449 56.6095 102.37 56.7537L102.487 57.0815C102.286 57.0812 102.025 56.5892 101.835 56.3799C101.685 56.3872 101.538 56.412 101.386 56.4986C101.23 56.5678 101.069 56.6383 100.913 56.7075C100.744 56.7429 100.572 56.7913 100.407 56.7591C100.246 56.714 100.09 56.6374 99.9935 56.4389L100.042 56.1794C100.153 55.8097 99.7193 56.6667 99.8045 56.3206L99.6764 56.463C99.6804 56.3953 99.6691 56.3126 99.7338 56.2443C99.6786 56.2134 99.6523 56.2615 99.568 56.3521L99.5947 56.1034C99.5163 55.9618 99.3825 55.99 99.2391 56.0019C99.0945 56.008 98.9395 56.0224 98.8381 55.916C98.8281 55.6082 98.6437 55.4828 98.4035 55.3814C98.2828 55.3278 98.1425 55.2965 98.0022 55.2652C97.8665 55.2269 97.732 55.1944 97.6162 55.164C97.4097 55.1649 97.3001 55.0482 97.2496 54.8947C97.1991 54.7412 97.1786 54.5571 97.1977 54.3586C97.2063 54.1684 97.2161 53.984 97.1739 53.8409C97.1421 53.6896 97.0523 53.5808 96.8361 53.5351C96.8765 53.4962 96.7448 53.5057 96.7065 53.5259C96.6465 53.3561 96.5981 53.184 96.5393 53.0201C96.5393 53.0201 96.525 52.9806 96.4953 52.926C96.4701 52.8644 96.4343 52.7808 96.3832 52.6822C96.2717 52.4989 96.1201 52.2695 95.9039 52.1083C95.676 51.9496 95.3648 51.857 94.953 51.98C94.5483 52.1077 94.0127 52.4513 93.4463 53.3422L93.3623 53.3477C93.3108 53.7962 93.3416 54.0875 93.8535 54.1805C93.3997 54.4217 93.942 54.5144 93.828 54.666L93.7872 54.6746C94.2369 54.7319 93.7362 55.2992 94.166 55.3486C94.1252 55.3571 93.9999 55.426 93.9656 55.3785C94.108 55.5066 94.3289 55.6608 94.0844 55.8277C94.2412 55.9952 94.3741 56.2226 94.5404 56.4064C94.7171 56.582 94.926 56.7082 95.1962 56.6636L95.1196 56.704C95.4664 56.6189 95.2749 56.8354 95.5224 56.8563C95.4995 56.8916 95.4915 56.9115 95.4811 56.9197C95.8325 56.8276 95.8587 57.2415 96.049 57.2501L95.9163 57.3995C96.0091 57.4651 96.1077 57.5295 96.2005 57.595L96.1341 57.4814C96.5281 57.1007 96.1021 57.9075 96.5175 57.8019C96.6655 58.0139 97.5694 57.1674 97.5739 57.5068C97.8034 57.3553 97.2641 57.7969 97.505 57.728C97.3487 57.9675 97.345 57.8346 97.2491 58.0431C97.4519 58.0248 97.3252 58.4343 97.5988 58.3768L97.4946 58.575C97.9242 58.3631 97.8159 59.0909 98.1597 58.8181C98.4893 58.767 98.0731 59.5048 98.5253 59.2274L98.5378 59.5469C98.6542 59.6379 98.7517 59.2345 98.8445 59.4156C98.7786 59.5935 98.9783 59.6184 98.8386 59.7632C98.9596 59.9627 99.1633 59.9199 99.3729 59.8758C99.5836 59.8375 99.7831 59.8321 99.9772 60.1195C100.128 59.7657 100.331 60.0086 100.432 59.7382C100.429 59.8969 100.89 59.806 100.605 60.1273C100.58 60.1508 100.541 60.1407 100.547 60.0847L100.502 60.3009C100.759 60.7452 101.018 60.0952 101.273 60.151C101.191 60.083 101.087 60.105 101.152 59.9515L101.393 59.9737L101.353 60.1584C101.481 60.1863 101.605 60.227 101.735 60.2421L101.664 60.02C101.848 60.115 101.969 60.4847 102.132 60.1343C102.196 59.9447 101.922 59.8565 102.096 59.7591C102.348 59.8884 102.755 60.0337 103.084 60.0071C102.985 59.7666 103.068 59.7553 103.131 59.6812L103.205 59.8904C103.422 59.5045 103.484 60.3181 103.719 59.9647L103.752 60.1218L103.66 59.655C103.758 59.1361 103.998 60.0156 104.05 59.342C103.946 59.4247 103.793 58.9281 103.967 58.9462L104.03 59.1579C104.086 59.0792 104.067 58.986 104.136 58.9959C104.144 59.1218 104.258 59.2863 104.348 59.1944L104.395 59.4762C104.405 59.3222 104.414 59.1623 104.418 59.0094C104.697 59.121 104.797 58.7292 105.016 58.9323C105.016 58.9323 105.435 58.8139 105.302 58.5014C105.365 58.7131 105.587 58.6421 105.69 58.8697C105.638 58.6252 105.729 58.2779 105.988 58.3815L105.995 58.4164C106.529 58.2922 106.286 57.632 106.784 57.5396C106.576 57.3888 106.816 57.3199 106.525 57.1502C106.488 56.6536 107.515 56.9421 106.728 56.2628C106.765 56.0909 107.034 56.2166 107.126 56.1608L107.151 56.2224C107.246 55.8925 107.29 55.8163 107.41 55.6028C107.377 55.4456 106.955 55.2305 107.139 55.0945C107.284 55.2342 107.289 55.142 107.316 55.0694C107.328 55.1276 107.38 55.1715 107.54 55.1255C107.49 55.0875 107.471 55.0551 107.452 55.0226C107.465 55.026 107.478 55.0293 107.497 55.0373C107.484 54.8881 107.418 54.8899 107.379 54.9347C107.352 54.9221 107.319 54.9108 107.264 54.9101C107.537 54.8771 107.378 54.5579 107.684 54.6517C107.758 54.2532 107.499 53.8883 107.455 53.5632C107.627 53.5697 107.751 53.6711 107.786 53.7793L107.785 53.5425C108.015 53.5974 107.886 53.7036 107.914 53.7827C108.373 53.595 107.667 53.154 108.064 52.9063L107.886 52.8101L107.921 52.8027C107.819 52.7816 107.697 52.6918 107.675 52.6418C107.884 52.6281 108.157 52.7106 108.16 52.5519C108.369 52.4472 108.095 52.1827 107.993 52.0158C107.949 52.0979 107.838 52.0605 107.769 52.0203C107.772 51.9468 107.978 51.9156 107.897 51.8476L108.178 51.8553C107.914 51.8742 107.902 51.6399 107.786 51.6095C107.995 51.5655 107.964 51.7361 108.121 51.7579C108.098 51.4466 108.107 51.6029 108.082 51.2858C107.872 51.1234 107.816 51.3176 107.569 51.2419C107.515 51.1013 107.325 50.9772 107.478 50.8112L107.236 50.8742C107.021 50.6337 107.04 50.49 107.278 50.294C106.712 49.8843 106.244 49.7397 105.877 49.7013C105.51 49.6629 105.232 49.7275 105.03 49.8368C104.616 50.0334 104.476 50.324 104.476 50.324C104.004 50.9096 104.744 51.0761 104.913 51.7639L104.933 51.8022Z" fill="#333331"/>
<path d="M83.4911 36.4134C83.8082 36.0428 83.1542 35.9676 83.1533 35.7611L83.1916 35.7409C82.9058 35.7402 82.8093 35.5417 82.6896 35.3481C82.5711 35.1603 82.4419 34.9504 82.1821 34.9868C82.2133 34.962 82.2998 34.8526 82.3818 34.8962C82.0914 34.787 81.6926 34.6825 81.802 34.4225C81.2268 34.1727 80.4162 33.8447 79.8696 34.0204C79.7333 33.9214 79.575 33.9487 79.4273 33.9979C79.2958 34.0377 79.1693 34.1008 79.0412 34.1277L79.0388 34.1161C79.0271 34.1185 79.0225 34.1256 79.0121 34.1339C78.9539 34.1461 78.9003 34.1513 78.8372 34.1403C78.8724 34.1632 78.9052 34.1746 78.9322 34.1871C78.8451 34.2358 78.7462 34.2566 78.6494 34.2588L78.7122 34.124C78.5263 34.078 78.3428 34.0437 78.1559 34.0222L78.2373 34.236C77.9751 34.1453 77.8291 33.7688 77.556 34.1179C77.5284 34.1602 77.53 34.1963 77.5489 34.2288C77.5257 34.2337 77.5024 34.2386 77.4791 34.2435L77.5584 34.245C77.5952 34.3042 77.6656 34.3501 77.6684 34.3921C77.5896 34.5667 77.2494 34.1338 76.9855 34.3533C76.7169 34.3187 76.4286 34.3064 76.1712 34.3544C76.29 34.5725 76.169 34.604 76.0719 34.6913L75.9825 34.4974C75.6334 34.9476 75.63 34.1218 75.2644 34.5512L75.3164 34.8563C75.1306 35.418 74.882 34.5829 74.7587 35.326C74.8245 35.2636 74.9023 35.3445 74.936 35.4468C74.8885 35.4811 74.8386 35.5037 74.7816 35.5218L74.7791 35.5102C74.7791 35.5102 74.7687 35.5184 74.7699 35.5242C74.735 35.5316 74.7084 35.5494 74.6734 35.5567C74.6385 35.564 74.6048 35.5772 74.5653 35.5916C74.5157 35.5291 74.4314 35.5043 74.3484 35.6007L74.3013 35.3189C74.2773 35.4941 74.2534 35.6693 74.2399 35.8363C74.0812 35.8332 73.9736 35.9287 73.8731 36.0289C73.7726 36.0135 73.6936 36.0423 73.6684 36.2117C73.6081 36.2426 73.544 36.2561 73.4702 36.223C73.4702 36.223 73.4331 36.249 73.3868 36.2891L73.3121 36.2806C73.2717 36.3194 73.2615 36.358 73.2701 36.3988C73.2551 36.4141 73.2447 36.4224 73.2296 36.4377C73.1674 36.5176 73.1135 36.608 73.0911 36.7038C73.0133 36.7384 72.9437 36.7835 72.9064 36.6637C72.8518 36.6934 72.8114 36.7323 72.7722 36.777C72.7265 36.7623 72.6855 36.7405 72.6487 36.6814C72.6634 36.7512 72.676 36.8398 72.6698 36.9262C72.6091 37.0422 72.5708 37.1779 72.5337 37.3195C72.4761 37.3923 72.409 37.449 72.3204 37.4615L72.3119 37.4208C72.0272 37.6569 71.9674 37.9795 71.9189 38.2692C71.8735 38.5158 71.8514 38.7575 71.703 38.9771C71.4561 39.1324 71.4885 39.3444 71.5534 39.5374C71.6195 39.7362 71.7334 39.931 71.6957 40.1274C71.7646 40.0217 71.7693 39.8992 71.8667 39.9577C71.8244 40.0456 71.775 40.1289 71.7373 40.2098C71.7293 40.2297 71.7214 40.2496 71.7134 40.2695L71.6864 40.257C71.6404 40.4429 71.6061 40.6264 71.5846 40.8132L71.7984 40.7318C71.7077 40.994 71.3311 41.14 71.6803 41.4131C71.7355 41.444 71.7762 41.4354 71.8133 41.4094C71.8613 41.6667 71.8815 41.8205 71.9081 42.0337C71.8768 42.2895 71.8724 42.5579 71.9168 42.7977C72.0908 42.7004 72.1462 42.7616 72.2124 42.845C72.1986 42.8661 72.186 42.893 72.1689 42.927C72.1689 42.927 72.1759 42.9317 72.1817 42.9304L72.0598 42.9865C72.51 43.3355 71.6841 43.339 72.1135 43.7045L72.4187 43.6525C72.4187 43.6525 72.4655 43.673 72.4854 43.681C72.5292 43.7447 72.5776 43.8014 72.6202 43.8593C72.5877 43.9938 72.3977 44.131 72.8885 44.2101C72.8649 44.1847 72.8646 44.1544 72.8771 44.1274C72.9807 44.215 73.083 44.2969 73.184 44.3729C73.097 44.4215 73.0559 44.5153 73.1619 44.6145L72.8801 44.6617C73.0553 44.6856 73.2305 44.7095 73.3975 44.723C73.399 44.7592 73.4051 44.7883 73.4171 44.8162C73.3668 44.8085 73.3095 44.7962 73.2602 44.7641L73.5252 45.0122C73.348 45.1528 73.2945 44.927 73.19 44.8639C73.1823 45.1451 73.3891 45.2901 73.6234 45.3927C73.6773 45.4179 73.7312 45.443 73.7851 45.4681C73.7851 45.4681 73.7864 45.4739 73.7876 45.4798C73.7876 45.4798 73.8752 45.6072 74.0023 45.7203C74.0458 45.7537 74.088 45.7813 74.1361 45.8076C74.1481 45.8355 74.1646 45.8563 74.1778 45.89L74.2801 45.8564C74.3117 45.8619 74.3478 45.8604 74.3769 45.8542L74.3794 45.8659C74.3794 45.8659 74.3956 45.8564 74.406 45.8481C74.4235 45.8444 74.4409 45.8408 74.4584 45.8371C74.2387 45.9198 74.4629 46.1765 74.246 46.3011C74.3495 46.2733 74.4825 46.2696 74.6099 46.2975C74.6418 46.4489 74.8127 46.5102 74.9937 46.5329C75.0115 46.5596 75.0247 46.5933 75.025 46.6236L74.9842 46.6321C75.2203 46.9168 75.5429 46.9766 75.8327 47.0251C76.1296 47.0781 76.412 47.0917 76.6629 47.3307C76.7037 47.0911 76.9833 47.2937 76.9825 46.9717C77.3143 46.9019 77.5449 47.1026 77.7676 47.2078C77.9857 47.3199 78.1806 47.3215 78.317 46.843C78.5814 46.7996 78.6239 47.0885 78.7725 47.1302L78.7054 47.1868C79.2235 47.0779 79.3668 47.066 79.7467 47.0226C79.9205 46.8949 79.8602 46.4639 80.1871 46.4863C80.1319 46.6863 80.2514 46.6186 80.3666 46.5883C80.297 46.6334 80.2884 46.7081 80.4793 46.7774C80.4845 46.7155 80.5121 46.6732 80.5351 46.638C80.5375 46.6496 80.5516 46.6588 80.5495 46.6775C80.5703 46.661 80.5807 46.6527 80.5957 46.6374C80.8065 46.7146 81.0509 46.7787 81.3371 46.8097L81.3426 46.8937C82.0331 46.7667 82.4446 46.4978 82.5462 45.9112C82.9168 46.2284 82.9862 45.5756 83.1985 45.5735L83.2187 45.6118C83.2194 45.326 83.418 45.2295 83.6116 45.1098C83.7994 44.9913 84.0093 44.8621 83.9729 44.6023C83.9977 44.6336 84.1071 44.72 84.0636 44.8021C84.1727 44.5117 84.2773 44.1129 84.5373 44.2223C84.8237 43.5604 85.2246 42.5765 84.8253 42.0649L84.9016 42.1096C84.6268 41.8148 84.917 41.7782 84.7706 41.4868C84.8113 41.4782 84.831 41.4559 84.8438 41.4592C84.5715 41.1761 84.8011 40.6781 84.6532 40.4661L84.8395 40.4269C84.804 40.2581 84.7602 40.0789 84.7177 39.9055L84.7115 40.1074C84.1938 40.1312 84.973 39.6452 84.5313 39.3369C84.5225 39.1504 84.1996 39.0602 83.9049 38.9885C84.0085 38.8451 84.1059 38.6727 84.182 38.4561C84.273 38.2243 84.353 37.94 84.3871 37.6107L84.4711 37.6052C84.3441 36.9147 84.0753 36.5033 83.4886 36.4017L83.4911 36.4134Z" fill="#333331"/>
<path d="M77.76 39.5395C77.8915 39.3842 77.624 39.3553 77.6185 39.2714L77.636 39.2677C77.5193 39.2619 77.4789 39.1853 77.4314 39.1041C77.3852 39.0287 77.3306 38.9429 77.2234 38.9533C77.2397 38.9438 77.2718 38.8945 77.3071 38.9175C77.1876 38.8697 77.0274 38.8305 77.0718 38.7239C76.8375 38.6212 76.5048 38.4845 76.2827 38.5555C76.2251 38.5129 76.1611 38.5264 76.0983 38.5457C76.0471 38.5625 75.9913 38.5864 75.939 38.5974C75.939 38.5974 75.9331 38.5986 75.9273 38.5998C75.904 38.6047 75.8808 38.6096 75.855 38.6029C75.8691 38.6121 75.882 38.6155 75.8961 38.6246C75.8578 38.6449 75.8228 38.6522 75.7796 38.6491L75.8048 38.5952C75.7276 38.575 75.6516 38.5606 75.5769 38.552L75.6127 38.6356C75.5073 38.597 75.4452 38.446 75.3345 38.5847C75.3266 38.6046 75.3232 38.6175 75.3315 38.6279C75.3198 38.6303 75.314 38.6316 75.3023 38.634L75.3315 38.6279C75.3504 38.6604 75.3786 38.6787 75.3765 38.6974C75.3434 38.7712 75.2028 38.5942 75.0998 38.6827C74.9877 38.6698 74.871 38.6639 74.7662 38.686C74.8149 38.773 74.7637 38.7898 74.7221 38.8229L74.6875 38.7451C74.5434 38.9273 74.5401 38.5937 74.3949 38.7701L74.4206 38.8923C74.3412 39.1218 74.2386 38.7787 74.188 39.0871C74.2193 39.0623 74.2441 39.0936 74.2597 39.1389C74.2388 39.1555 74.2156 39.1603 74.1993 39.1698C74.1877 39.1723 74.1702 39.176 74.1586 39.1784C74.1411 39.1821 74.1295 39.1845 74.112 39.1882C74.0884 39.1628 74.0556 39.1514 74.021 39.1891L73.9965 39.0727C73.9938 39.1462 73.9839 39.2151 73.9741 39.284C73.9076 39.2859 73.866 39.3189 73.8267 39.3637C73.7835 39.3606 73.7544 39.3667 73.7388 39.4369C73.7167 39.4476 73.6876 39.4537 73.6607 39.4411C73.6607 39.4411 73.6444 39.4506 73.6236 39.4672L73.592 39.4616C73.592 39.4616 73.5737 39.4898 73.5773 39.5073C73.5715 39.5085 73.5669 39.5155 73.5623 39.5226C73.5381 39.552 73.5163 39.593 73.5062 39.6316C73.4725 39.6448 73.4459 39.6626 73.4302 39.6172C73.4082 39.6279 73.3932 39.6432 73.3736 39.6656C73.3549 39.6635 73.3396 39.6484 73.323 39.6276C73.3291 39.6567 73.3365 39.6916 73.3322 39.729C73.3058 39.7771 73.2936 39.8344 73.2755 39.8929C73.2513 39.9223 73.2258 39.9459 73.1909 39.9532L73.1872 39.9357C73.068 40.0337 73.0472 40.1658 73.0238 40.2861C73.0027 40.3878 72.999 40.4859 72.9334 40.5787C72.8314 40.6427 72.8439 40.7312 72.8727 40.8102C72.9014 40.8893 72.9431 40.9717 72.9299 41.0535C72.9575 41.0112 72.9593 40.9622 73.0004 40.984C72.9832 41.018 72.9602 41.0532 72.9489 41.086C72.9501 41.0918 72.9397 41.1 72.9363 41.1129L72.9247 41.1154C72.902 41.1809 72.8876 41.2569 72.8802 41.3374L72.9638 41.3016C72.9252 41.407 72.7742 41.4691 72.9129 41.5797C72.934 41.5935 72.9515 41.5899 72.9677 41.5804C72.9898 41.6851 72.9974 41.7504 73.0099 41.8389C72.9958 41.9452 72.9946 42.0549 73.0154 42.1538C73.0862 42.1146 73.1085 42.1343 73.1346 42.1713C73.13 42.1784 73.1266 42.1912 73.1174 42.2053L73.0674 42.228C73.2497 42.372 72.9161 42.3753 73.0925 42.5205L73.2147 42.4948C73.2147 42.4948 73.2359 42.5086 73.2429 42.5132C73.2607 42.5399 73.2772 42.5607 73.3008 42.5861C73.2885 42.6434 73.2085 42.6967 73.4107 42.7332C73.4025 42.7228 73.4058 42.7099 73.4034 42.6983C73.4469 42.7317 73.4858 42.7721 73.528 42.7997C73.4956 42.8187 73.4738 42.8597 73.5185 42.8989L73.4021 42.9234C73.4756 42.9262 73.5446 42.936 73.6135 42.9458C73.6159 42.9575 73.6196 42.9749 73.622 42.9866C73.6034 42.9844 73.5776 42.9777 73.5565 42.9639L73.6637 43.069C73.5908 43.1269 73.5712 43.0337 73.5231 43.0074C73.5172 43.1241 73.603 43.1851 73.7026 43.2249C73.7237 43.2387 73.7494 43.2455 73.7706 43.2592C73.7706 43.2592 73.8061 43.3126 73.8579 43.3564C73.8732 43.3714 73.8931 43.3794 73.9142 43.3931C73.9167 43.4048 73.9249 43.4152 73.9332 43.4256L73.9739 43.4171C73.9739 43.4171 73.9972 43.4122 74.0147 43.4085C74.0147 43.4085 74.0205 43.4073 74.0263 43.406C74.0322 43.4048 74.038 43.4036 74.0496 43.4011C73.9589 43.4324 74.0487 43.5411 73.9616 43.5898C74.0024 43.5813 74.056 43.5761 74.1133 43.5883C74.1268 43.6523 74.1923 43.675 74.2729 43.6824C74.2753 43.694 74.2836 43.7045 74.2814 43.7231L74.264 43.7268C74.362 43.846 74.494 43.8669 74.6144 43.8902C74.7348 43.9135 74.8515 43.9193 74.9563 44.0128C74.9716 43.9123 75.0868 43.9975 75.0902 43.8691C75.2241 43.841 75.3205 43.924 75.4143 43.9651C75.5034 44.0132 75.5828 44.0148 75.638 43.8147C75.7427 43.7927 75.7626 43.9162 75.827 43.933L75.8015 43.9566C76.0111 43.9125 76.0705 43.9061 76.2255 43.8918C76.2997 43.8397 76.2688 43.6639 76.4042 43.6719C76.3794 43.7561 76.4281 43.7276 76.4793 43.7108C76.4526 43.7285 76.4471 43.7601 76.5255 43.7862C76.5264 43.7616 76.5414 43.7463 76.5506 43.7322C76.5506 43.7322 76.5531 43.7439 76.5543 43.7497C76.5659 43.7473 76.5647 43.7414 76.5751 43.7332C76.6606 43.7638 76.7635 43.7908 76.8756 43.8037L76.883 43.8386C77.1636 43.7857 77.3294 43.6779 77.3702 43.4384C77.5255 43.5698 77.5544 43.3024 77.6383 43.2969L77.642 43.3144C77.6478 43.1976 77.7244 43.1572 77.8056 43.1098C77.881 43.0635 77.9668 43.009 77.9564 42.9018C77.9659 42.918 78.0152 42.9502 77.9922 42.9854C78.04 42.866 78.0793 42.7058 78.1859 42.7502C78.3058 42.4819 78.4698 42.0767 78.3032 41.8625L78.3313 41.8809C78.2205 41.7583 78.3394 41.7455 78.2775 41.6248C78.295 41.6211 78.2996 41.6141 78.3066 41.6187C78.1911 41.5031 78.2883 41.3004 78.2268 41.21L78.3024 41.1941C78.2877 41.1242 78.2731 41.0544 78.2571 40.9787L78.2568 41.0639C78.0457 41.0718 78.3635 40.8773 78.1849 40.7508C78.1806 40.6727 78.0449 40.6344 77.9304 40.6098C77.973 40.5522 78.0119 40.4772 78.0425 40.3917C78.0836 40.298 78.114 40.1822 78.1278 40.0456L78.1627 40.0383C78.1098 39.7577 78.002 39.5919 77.7624 39.5511L77.76 39.5395Z" fill="#F4EFF1"/>
<path d="M121.481 31.0932C121.298 30.6272 121.036 30.0197 120.68 29.6569C120.534 29.1346 120.267 28.8199 119.764 28.7374C120.081 28.3668 119.427 28.2916 119.426 28.0852L119.464 28.0649C119.178 28.0643 119.082 27.8658 118.962 27.6721C118.844 27.4843 118.714 27.2744 118.455 27.3108C118.486 27.286 118.572 27.1767 118.654 27.2202C118.364 27.1111 117.965 27.0065 118.075 26.7465C117.413 26.4602 116.429 26.0593 115.917 26.4587L115.962 26.3824C115.667 26.6571 115.63 26.367 115.339 26.5134C115.33 26.4726 115.308 26.453 115.311 26.4401C115.149 26.5957 114.917 26.5899 114.708 26.5791C114.655 26.5294 114.591 26.5126 114.484 26.5836C114.431 26.5888 114.38 26.6057 114.34 26.6201L114.307 26.5784L114.279 26.4445C114.279 26.4445 114.238 26.4531 114.215 26.458L114.165 26.3955C114.085 26.3881 114.048 26.4445 114.024 26.5042C113.937 26.5225 113.849 26.5409 113.763 26.5651C113.679 26.5099 113.541 26.5206 113.614 26.3776C113.323 26.293 113.073 26.4611 112.826 26.6163C112.577 26.7903 112.313 26.9247 111.895 26.8728C111.907 27.2472 111.508 27.2278 111.55 27.5167C111.525 27.4854 111.478 27.4894 111.415 27.5087L111.398 27.4878C111.398 27.4878 111.39 27.5077 111.387 27.5206C111.218 27.5864 110.998 27.7239 111.101 27.3741C111.117 27.3343 111.171 27.3046 111.2 27.3533L111.128 27.1557C110.841 27.0944 110.718 27.2601 110.624 27.45C110.531 27.6399 110.472 27.8528 110.309 27.9722C110.443 27.944 110.545 27.8252 110.559 28.0047L110.272 28.2292L110.209 28.0478C110.048 28.1486 109.887 28.2493 109.742 28.3709L109.95 28.461C109.695 28.5813 109.333 28.4204 109.383 28.8597C109.414 28.9807 109.531 28.9563 109.611 28.9636C109.599 28.9906 109.579 29.0129 109.534 29.0286C109.394 28.9121 109.251 29.1853 109.183 28.9807C108.915 29.1221 108.862 29.419 108.795 29.7066C108.793 29.7253 108.784 29.7394 108.782 29.7581C108.708 29.8404 108.634 29.9228 108.573 30.0086C108.626 30.0279 108.665 30.0438 108.688 30.0634C108.659 30.1302 108.625 30.1982 108.578 30.2628L108.538 30.2469C108.544 30.276 108.536 30.2959 108.535 30.3204C108.482 30.3863 108.418 30.4546 108.334 30.5207C108.194 30.5198 108.043 30.4968 108.063 30.7905L108.313 30.9689C108.491 31.3264 108.203 31.2534 108.129 31.3662L107.967 31.2908C107.722 31.4518 107.753 31.658 107.819 31.8568C107.885 32.0556 107.999 32.2505 107.961 32.4468C108.025 32.3482 108.031 32.2315 108.118 32.268C108.133 32.283 108.144 32.305 108.159 32.3201L108.119 32.6506L107.951 32.5706C107.905 32.7565 107.87 32.94 107.849 33.1269L108.063 33.0454C107.972 33.3076 107.595 33.4537 107.945 33.7267C107.964 33.7347 107.977 33.738 107.996 33.7402C108.03 33.8425 108.085 33.9341 108.195 33.9657C107.981 33.871 107.961 34.2095 107.717 34.1454C107.958 34.283 108.208 34.6923 108.039 34.9284L108.003 34.8996C107.967 35.2476 108.13 35.505 108.293 35.732C108.241 35.8037 108.234 35.8842 108.384 36.0169L108.477 35.9973C108.592 36.1677 108.689 36.3417 108.691 36.5843C108.893 36.4447 108.941 36.7872 109.172 36.5562C109.27 36.6206 109.329 36.6993 109.378 36.7863C109.369 36.8307 109.373 36.8785 109.427 36.934L109.146 36.9811C109.259 36.9998 109.37 37.0069 109.482 37.0198C109.507 37.1117 109.533 37.2036 109.561 37.2826C109.618 37.4652 109.717 37.5902 109.964 37.5201C110.043 37.6068 110.099 37.6984 110.05 37.8121C110.05 37.8121 110.137 37.9395 110.264 38.0526C110.368 38.1402 110.498 38.2101 110.623 38.196C110.63 38.2006 110.637 38.2052 110.645 38.2157C110.546 38.3216 110.687 38.529 110.498 38.6417C110.768 38.5667 111.235 38.6811 111.278 38.97L111.237 38.9786C111.473 39.2632 111.796 39.323 112.086 39.3715C112.382 39.4245 112.665 39.4381 112.916 39.6771C112.957 39.4375 113.236 39.6401 113.235 39.3181C113.567 39.2483 113.798 39.449 114.021 39.5542C114.033 39.5575 114.042 39.568 114.055 39.5713C113.993 39.5661 113.93 39.5551 113.877 39.5661C114.067 39.7754 114.319 39.7285 114.56 39.6352C114.69 39.5895 114.821 39.5439 114.952 39.5345C115.065 39.5229 115.179 39.5416 115.296 39.6081L115.374 39.458C115.374 39.458 115.409 39.4506 115.421 39.4482C115.502 39.4311 115.573 39.4222 115.65 39.4121C115.68 39.5273 115.723 39.6155 115.875 39.5837C116.109 39.747 116.429 39.3881 116.641 39.2098C116.496 39.2159 116.514 39.0968 116.551 39.0159C116.557 39.0147 116.563 39.0135 116.575 39.011C116.582 39.0459 116.627 39.0852 116.731 39.118C116.732 39.0935 116.747 39.0781 116.755 39.0582C116.795 39.0742 116.831 39.0726 116.858 39.0304L116.953 39.2779C116.827 39.0552 117.168 38.9107 117.168 38.7952C117.304 38.9548 117.051 39.0203 117.07 39.1683C117.532 38.9677 117.304 39.0703 117.754 38.8361C117.822 38.7001 117.793 38.6455 117.741 38.6017C118.089 38.2915 118.285 37.9221 118.523 37.6106C118.664 37.7025 118.66 37.8857 118.574 38.0254L118.828 37.7592C118.969 37.9363 118.743 37.9899 118.68 38.0943C118.961 38.1021 119.106 37.8953 119.209 37.661C119.317 37.4255 119.422 37.2028 119.708 37.1183L119.642 36.9195L119.683 36.9109C119.61 36.8533 119.582 36.6891 119.609 36.6165C119.806 36.6846 119.962 36.907 120.104 36.6886C120.386 36.6415 120.357 36.1553 120.385 35.8821C120.285 35.9881 120.217 35.8931 120.181 35.8095C120.238 35.7062 120.445 35.7357 120.406 35.6101L120.648 35.7174C120.544 35.6846 120.509 35.6067 120.496 35.5182C120.535 35.498 120.568 35.4848 120.601 35.4659C120.608 35.5008 120.621 35.5345 120.651 35.5587C120.684 35.4849 120.703 35.4322 120.724 35.3853C120.82 35.3225 120.912 35.2668 121.01 35.1853L121.076 35.2384C121.477 34.6616 121.576 34.1789 121.231 33.6923C121.72 33.6502 121.31 33.141 121.454 32.9891L121.494 33.005C121.293 32.804 121.365 32.5945 121.421 32.37C121.467 32.1537 121.526 31.9163 121.316 31.7539C121.354 31.764 121.495 31.7405 121.521 31.8324C121.394 31.549 121.187 31.1976 121.443 31.0889L121.481 31.0932ZM113.962 26.5841C113.962 26.5841 113.96 26.6331 113.958 26.6518C113.929 26.6883 113.889 26.7027 113.821 26.6683C113.812 26.6218 113.794 26.5951 113.764 26.5709L113.961 26.5783L113.962 26.5841ZM108.132 31.4081C108.132 31.4081 108.134 31.4746 108.156 31.5245C108.147 31.5083 108.133 31.4991 108.122 31.477C108.111 31.455 108.118 31.4292 108.133 31.4139L108.132 31.4081Z" fill="#333331"/>
<path d="M114.749 32.6796C114.673 32.489 114.565 32.2381 114.425 32.0914C114.362 31.8797 114.256 31.7501 114.048 31.7148C114.179 31.5595 113.912 31.5307 113.906 31.4467L113.924 31.4431C113.807 31.4372 113.767 31.3606 113.719 31.2794C113.673 31.2041 113.619 31.1183 113.511 31.1287C113.528 31.1192 113.56 31.0699 113.595 31.0929C113.475 31.045 113.315 31.0058 113.36 30.8992C113.091 30.7794 112.686 30.6154 112.472 30.782L112.49 30.7538C112.368 30.8647 112.355 30.7458 112.234 30.8077C112.231 30.7902 112.223 30.7856 112.228 30.7786C112.162 30.841 112.064 30.8373 111.978 30.8312C111.955 30.8116 111.93 30.8048 111.887 30.8321C111.863 30.837 111.846 30.8406 111.829 30.8443L111.813 30.8293L111.802 30.7769C111.802 30.7769 111.785 30.7806 111.773 30.783L111.75 30.7576C111.718 30.7521 111.705 30.7791 111.692 30.8002C111.657 30.8075 111.622 30.8149 111.587 30.8222C111.552 30.7992 111.498 30.8044 111.522 30.7447C111.405 30.7085 111.298 30.7796 111.196 30.8436C111.095 30.9134 110.986 30.9728 110.817 30.9476C110.824 31.098 110.659 31.0904 110.678 31.2138C110.669 31.1976 110.646 31.2025 110.624 31.2132L110.621 31.2015C110.621 31.2015 110.611 31.2098 110.612 31.2156C110.545 31.242 110.453 31.2977 110.496 31.1549C110.504 31.135 110.526 31.1243 110.537 31.1464L110.508 31.0673C110.393 31.0428 110.34 31.1087 110.303 31.1895C110.264 31.2646 110.24 31.3546 110.172 31.4055C110.224 31.3944 110.269 31.3485 110.272 31.4208L110.158 31.5117L110.13 31.4385C110.065 31.4765 110.001 31.5203 109.939 31.5699L110.025 31.6064C109.921 31.6587 109.772 31.5867 109.793 31.7708C109.804 31.8232 109.856 31.8122 109.886 31.8119C109.882 31.8189 109.873 31.833 109.855 31.8367C109.796 31.7883 109.74 31.8973 109.711 31.8183C109.602 31.8777 109.579 31.9981 109.55 32.1197C109.551 32.1255 109.546 32.1325 109.542 32.1396C109.512 32.1702 109.483 32.2067 109.454 32.2431C109.474 32.2511 109.494 32.259 109.501 32.2636C109.489 32.2906 109.476 32.3175 109.458 32.3457L109.446 32.3482C109.446 32.3482 109.448 32.3598 109.444 32.3669C109.42 32.3963 109.394 32.4198 109.364 32.4505C109.309 32.4498 109.246 32.4388 109.254 32.5647L109.355 32.6407C109.429 32.7893 109.308 32.7602 109.28 32.8024L109.212 32.7681C109.11 32.8321 109.123 32.9206 109.151 32.9997C109.18 33.0787 109.222 33.1611 109.209 33.2429C109.236 33.2006 109.238 33.1516 109.272 33.1688C109.273 33.1746 109.281 33.185 109.289 33.1896L109.275 33.3262L109.207 33.2919C109.186 33.3691 109.172 33.4451 109.163 33.5198L109.247 33.484C109.208 33.5894 109.057 33.6515 109.196 33.7621C109.202 33.7609 109.209 33.7655 109.216 33.7701C109.225 33.8108 109.251 33.8479 109.296 33.8626C109.208 33.8203 109.202 33.9616 109.099 33.9346C109.196 33.9931 109.298 34.1601 109.233 34.2529L109.218 34.2437C109.206 34.3861 109.271 34.494 109.338 34.5831C109.32 34.6113 109.316 34.6487 109.375 34.6971L109.415 34.6885C109.46 34.7581 109.499 34.8288 109.503 34.9315C109.587 34.8711 109.605 35.0133 109.701 34.9202C109.743 34.9478 109.768 34.979 109.787 35.0115C109.785 35.0302 109.783 35.0489 109.806 35.0743L109.69 35.0988C109.733 35.1018 109.782 35.1037 109.827 35.1126C109.835 35.1533 109.843 35.1883 109.862 35.2207C109.883 35.2952 109.925 35.3473 110.028 35.3194C110.06 35.3553 110.086 35.3923 110.06 35.4404C110.06 35.4404 110.095 35.4937 110.147 35.5375C110.19 35.5709 110.246 35.6019 110.293 35.5979C110.293 35.5979 110.293 35.5979 110.3 35.6025C110.261 35.6472 110.316 35.733 110.239 35.7734C110.348 35.7444 110.54 35.7891 110.559 35.9068L110.541 35.9104C110.639 36.0296 110.771 36.0505 110.892 36.0738C111.012 36.0971 111.129 36.1029 111.234 36.1964C111.249 36.0959 111.364 36.1811 111.368 36.0528C111.502 36.0246 111.598 36.1076 111.692 36.1487C111.692 36.1487 111.699 36.1533 111.706 36.1579C111.681 36.157 111.656 36.1502 111.632 36.1551C111.711 36.2418 111.81 36.221 111.911 36.1815C111.968 36.1635 112.02 36.1466 112.073 36.1414C112.121 36.1375 112.165 36.1464 112.213 36.1727L112.243 36.1118C112.243 36.1118 112.255 36.1093 112.261 36.1081C112.296 36.1008 112.325 36.0946 112.354 36.0885C112.364 36.1351 112.384 36.1734 112.448 36.1599C112.546 36.2243 112.675 36.0819 112.763 36.0087C112.702 36.0093 112.709 35.959 112.727 35.925C112.727 35.925 112.727 35.925 112.732 35.9238C112.735 35.9354 112.757 35.9551 112.797 35.971C112.795 35.9593 112.805 35.9511 112.81 35.944C112.828 35.9462 112.841 35.9496 112.85 35.9355L112.89 36.0366C112.84 35.9437 112.979 35.884 112.975 35.8362C113.032 35.9033 112.927 35.9254 112.935 35.9906C113.124 35.9083 113.03 35.9524 113.216 35.8525C113.241 35.7986 113.23 35.7766 113.214 35.7557C113.357 35.6283 113.435 35.4782 113.535 35.3478C113.592 35.3845 113.589 35.4581 113.553 35.5202L113.658 35.4131C113.716 35.486 113.623 35.5055 113.597 35.5536C113.714 35.5595 113.775 35.4737 113.814 35.3742C113.861 35.2792 113.902 35.1855 114.022 35.1482L113.993 35.0691L114.011 35.0654C114.011 35.0654 113.974 34.976 113.985 34.9432C114.064 34.9693 114.132 35.0642 114.186 34.9739C114.303 34.9494 114.292 34.757 114.3 34.6461C114.26 34.6909 114.227 34.6492 114.214 34.6155C114.236 34.5744 114.323 34.5864 114.307 34.5353L114.407 34.5809C114.362 34.5662 114.349 34.5325 114.347 34.4964C114.365 34.4927 114.375 34.4844 114.391 34.4749C114.395 34.4924 114.397 34.504 114.411 34.5132C114.423 34.4804 114.431 34.4605 114.439 34.4406C114.476 34.4146 114.513 34.3886 114.556 34.3613L114.585 34.3855C114.748 34.1506 114.792 33.953 114.647 33.7527C114.844 33.7356 114.678 33.5272 114.738 33.466L114.758 33.4739C114.675 33.3943 114.705 33.3088 114.728 33.2129C114.745 33.1241 114.774 33.027 114.687 32.9602C114.705 32.9623 114.759 32.9571 114.772 32.9908C114.717 32.8747 114.632 32.7286 114.739 32.6879L114.749 32.6796ZM111.667 30.8296C111.667 30.8296 111.671 30.847 111.668 30.8599C111.659 30.874 111.641 30.8777 111.609 30.8722C111.606 30.8547 111.603 30.8431 111.583 30.8351L111.663 30.8366L111.667 30.8296ZM109.275 32.8095C109.275 32.8095 109.28 32.8328 109.285 32.856C109.284 32.8502 109.277 32.8456 109.269 32.8352C109.266 32.8236 109.265 32.8177 109.275 32.8095Z" fill="#F4EFF1"/>
</svg>
